# MagicaVoxel @ Ephtracy

# group
o 

# material
mtllib Alarme_Sonore.mtl
usemtl palette

# normals
vn -1 0 0
vn 1 0 0
vn 0 0 1
vn 0 0 -1
vn 0 -1 0
vn 0 1 0

# texcoords
vt 0.166016 0.5
vt 0.775391 0.5
vt 0.974609 0.5
vt 0.978516 0.5
vt 0.986328 0.5
vt 0.990234 0.5

# verts
v 0 2 -0.1
v 0 2 -0.7
v 0 2.1 0
v 0 2.1 -0.1
v 0 2.1 -0.7
v 0 2.1 -0.8
v 0 2.1 -1.1
v 0 2.1 -1.5
v 0 2.3 -0.8
v 0 2.3 -1.1
v 0 2.4 -0.8
v 0 2.4 -1.1
v 0 2.5 -0.8
v 0 2.5 -1.1
v 0 2.7 0
v 0 2.7 -0.1
v 0 2.7 -0.7
v 0 2.7 -0.8
v 0 2.7 -1.1
v 0 2.7 -1.5
v 0 2.8 -0.1
v 0 2.8 -0.7
v 0.1 2.3 -0.8
v 0.1 2.3 -1.1
v 0.1 2.4 -0.8
v 0.1 2.4 -1.1
v 0.1 2.5 -0.8
v 0.1 2.5 -1.1
v 0.2 2.1 -1.1
v 0.2 2.1 -1.5
v 0.2 2.2 -1.2
v 0.2 2.2 -1.4
v 0.2 2.3 -1.2
v 0.2 2.3 -1.4
v 0.2 2.7 -1.1
v 0.2 2.7 -1.5
v 0.3 2 -0.1
v 0.3 2 -0.2
v 0.3 2 -0.6
v 0.3 2 -0.7
v 0.3 2.1 0
v 0.3 2.1 -0.1
v 0.3 2.1 -0.2
v 0.3 2.1 -0.6
v 0.3 2.1 -0.7
v 0.3 2.1 -0.8
v 0.3 2.2 0
v 0.3 2.2 -0.1
v 0.3 2.2 -0.2
v 0.3 2.2 -0.3
v 0.3 2.2 -0.4
v 0.3 2.2 -0.5
v 0.3 2.2 -0.6
v 0.3 2.2 -0.7
v 0.3 2.2 -0.8
v 0.3 2.3 -0.2
v 0.3 2.3 -0.6
v 0.3 2.4 -0.2
v 0.3 2.4 -0.6
v 0.3 2.5 -0.2
v 0.3 2.5 -0.6
v 0.3 2.6 0
v 0.3 2.6 -0.1
v 0.3 2.6 -0.2
v 0.3 2.6 -0.3
v 0.3 2.6 -0.4
v 0.3 2.6 -0.5
v 0.3 2.6 -0.6
v 0.3 2.6 -0.7
v 0.3 2.6 -0.8
v 0.3 2.7 0
v 0.3 2.7 -0.1
v 0.3 2.7 -0.2
v 0.3 2.7 -0.6
v 0.3 2.7 -0.7
v 0.3 2.7 -0.8
v 0.3 2.8 -0.1
v 0.3 2.8 -0.2
v 0.3 2.8 -0.6
v 0.3 2.8 -0.7
v 0.4 2 -0.2
v 0.4 2 -0.6
v 0.4 2.1 -0.2
v 0.4 2.1 -0.6
v 0.4 2.2 0
v 0.4 2.2 -0.1
v 0.4 2.2 -0.2
v 0.4 2.2 -0.3
v 0.4 2.2 -0.4
v 0.4 2.2 -0.5
v 0.4 2.2 -0.6
v 0.4 2.2 -0.7
v 0.4 2.2 -0.8
v 0.4 2.3 -0.2
v 0.4 2.3 -0.3
v 0.4 2.3 -0.4
v 0.4 2.3 -0.5
v 0.4 2.3 -0.6
v 0.4 2.4 -0.2
v 0.4 2.4 -0.3
v 0.4 2.4 -0.4
v 0.4 2.4 -0.5
v 0.4 2.4 -0.6
v 0.4 2.5 -0.2
v 0.4 2.5 -0.3
v 0.4 2.5 -0.4
v 0.4 2.5 -0.5
v 0.4 2.5 -0.6
v 0.4 2.6 0
v 0.4 2.6 -0.1
v 0.4 2.6 -0.2
v 0.4 2.6 -0.3
v 0.4 2.6 -0.4
v 0.4 2.6 -0.5
v 0.4 2.6 -0.6
v 0.4 2.6 -0.7
v 0.4 2.6 -0.8
v 0.4 2.7 -0.2
v 0.4 2.7 -0.6
v 0.4 2.8 -0.2
v 0.4 2.8 -0.6
v 0 2.1 0
v 0 2.7 0
v 0.3 2.1 0
v 0.3 2.2 0
v 0.3 2.6 0
v 0.3 2.7 0
v 0.4 2.2 0
v 0.4 2.6 0
v 0 2 -0.1
v 0 2.1 -0.1
v 0 2.7 -0.1
v 0 2.8 -0.1
v 0.3 2 -0.1
v 0.3 2.1 -0.1
v 0.3 2.7 -0.1
v 0.3 2.8 -0.1
v 0.3 2 -0.2
v 0.3 2.1 -0.2
v 0.3 2.2 -0.2
v 0.3 2.3 -0.2
v 0.3 2.4 -0.2
v 0.3 2.5 -0.2
v 0.3 2.6 -0.2
v 0.3 2.7 -0.2
v 0.3 2.8 -0.2
v 0.4 2 -0.2
v 0.4 2.1 -0.2
v 0.4 2.2 -0.2
v 0.4 2.3 -0.2
v 0.4 2.4 -0.2
v 0.4 2.5 -0.2
v 0.4 2.6 -0.2
v 0.4 2.7 -0.2
v 0.4 2.8 -0.2
v 0.3 2.2 -0.7
v 0.3 2.6 -0.7
v 0.4 2.2 -0.7
v 0.4 2.6 -0.7
v 0 2.1 -1.1
v 0 2.3 -1.1
v 0 2.5 -1.1
v 0 2.7 -1.1
v 0.1 2.1 -1.1
v 0.1 2.3 -1.1
v 0.1 2.4 -1.1
v 0.1 2.5 -1.1
v 0.1 2.7 -1.1
v 0.2 2.1 -1.1
v 0.2 2.7 -1.1
v 0.3 2.2 -0.1
v 0.3 2.6 -0.1
v 0.4 2.2 -0.1
v 0.4 2.6 -0.1
v 0.3 2 -0.6
v 0.3 2.1 -0.6
v 0.3 2.2 -0.6
v 0.3 2.3 -0.6
v 0.3 2.4 -0.6
v 0.3 2.5 -0.6
v 0.3 2.6 -0.6
v 0.3 2.7 -0.6
v 0.3 2.8 -0.6
v 0.4 2 -0.6
v 0.4 2.1 -0.6
v 0.4 2.2 -0.6
v 0.4 2.3 -0.6
v 0.4 2.4 -0.6
v 0.4 2.5 -0.6
v 0.4 2.6 -0.6
v 0.4 2.7 -0.6
v 0.4 2.8 -0.6
v 0 2 -0.7
v 0 2.1 -0.7
v 0 2.7 -0.7
v 0 2.8 -0.7
v 0.3 2 -0.7
v 0.3 2.1 -0.7
v 0.3 2.7 -0.7
v 0.3 2.8 -0.7
v 0 2.1 -0.8
v 0 2.3 -0.8
v 0 2.5 -0.8
v 0 2.7 -0.8
v 0.1 2.3 -0.8
v 0.1 2.4 -0.8
v 0.1 2.5 -0.8
v 0.3 2.1 -0.8
v 0.3 2.2 -0.8
v 0.3 2.6 -0.8
v 0.3 2.7 -0.8
v 0.4 2.2 -0.8
v 0.4 2.6 -0.8
v 0 2.1 -1.5
v 0 2.7 -1.5
v 0.1 2.1 -1.5
v 0.1 2.7 -1.5
v 0.2 2.1 -1.5
v 0.2 2.7 -1.5
v 0 2 -0.1
v 0.3 2 -0.1
v 0.3 2 -0.2
v 0.4 2 -0.2
v 0.3 2 -0.6
v 0.4 2 -0.6
v 0 2 -0.7
v 0.3 2 -0.7
v 0 2.1 0
v 0.3 2.1 0
v 0 2.1 -0.1
v 0.3 2.1 -0.1
v 0 2.1 -0.7
v 0.3 2.1 -0.7
v 0 2.1 -0.8
v 0.3 2.1 -0.8
v 0 2.1 -1.1
v 0.1 2.1 -1.1
v 0.2 2.1 -1.1
v 0 2.1 -1.5
v 0.1 2.1 -1.5
v 0.2 2.1 -1.5
v 0.3 2.2 0
v 0.4 2.2 0
v 0.3 2.2 -0.1
v 0.4 2.2 -0.1
v 0.3 2.2 -0.2
v 0.4 2.2 -0.2
v 0.3 2.2 -0.3
v 0.4 2.2 -0.3
v 0.3 2.2 -0.4
v 0.4 2.2 -0.4
v 0.3 2.2 -0.5
v 0.4 2.2 -0.5
v 0.3 2.2 -0.6
v 0.4 2.2 -0.6
v 0.3 2.2 -0.7
v 0.4 2.2 -0.7
v 0.3 2.2 -0.8
v 0.4 2.2 -0.8
v 0 2.3 -0.8
v 0.1 2.3 -0.8
v 0 2.3 -1.1
v 0.1 2.3 -1.1
v 0.3 2.7 -0.2
v 0.4 2.7 -0.2
v 0.3 2.7 -0.6
v 0.4 2.7 -0.6
v 0.3 2.1 -0.2
v 0.4 2.1 -0.2
v 0.3 2.1 -0.6
v 0.4 2.1 -0.6
v 0 2.5 -0.8
v 0.1 2.5 -0.8
v 0 2.5 -1.1
v 0.1 2.5 -1.1
v 0.3 2.6 0
v 0.4 2.6 0
v 0.3 2.6 -0.1
v 0.4 2.6 -0.1
v 0.3 2.6 -0.2
v 0.4 2.6 -0.2
v 0.3 2.6 -0.3
v 0.4 2.6 -0.3
v 0.3 2.6 -0.4
v 0.4 2.6 -0.4
v 0.3 2.6 -0.5
v 0.4 2.6 -0.5
v 0.3 2.6 -0.6
v 0.4 2.6 -0.6
v 0.3 2.6 -0.7
v 0.4 2.6 -0.7
v 0.3 2.6 -0.8
v 0.4 2.6 -0.8
v 0 2.7 0
v 0.3 2.7 0
v 0 2.7 -0.1
v 0.3 2.7 -0.1
v 0 2.7 -0.7
v 0.3 2.7 -0.7
v 0 2.7 -0.8
v 0.3 2.7 -0.8
v 0 2.7 -1.1
v 0.1 2.7 -1.1
v 0.2 2.7 -1.1
v 0 2.7 -1.5
v 0.1 2.7 -1.5
v 0.2 2.7 -1.5
v 0 2.8 -0.1
v 0.3 2.8 -0.1
v 0.3 2.8 -0.2
v 0.4 2.8 -0.2
v 0.3 2.8 -0.6
v 0.4 2.8 -0.6
v 0 2.8 -0.7
v 0.3 2.8 -0.7

# faces
f 4/6/1 2/6/1 1/6/1
f 5/6/1 2/6/1 4/6/1
f 9/6/1 4/6/1 3/6/1
f 9/6/1 5/6/1 4/6/1
f 9/6/1 6/6/1 5/6/1
f 10/6/1 8/6/1 7/6/1
f 11/6/1 9/6/1 3/6/1
f 11/2/1 10/2/1 9/2/1
f 12/6/1 8/6/1 10/6/1
f 12/2/1 10/2/1 11/2/1
f 13/6/1 11/6/1 3/6/1
f 13/1/1 12/1/1 11/1/1
f 14/6/1 8/6/1 12/6/1
f 14/1/1 12/1/1 13/1/1
f 15/6/1 13/6/1 3/6/1
f 16/6/1 13/6/1 15/6/1
f 17/6/1 13/6/1 16/6/1
f 18/6/1 13/6/1 17/6/1
f 19/6/1 8/6/1 14/6/1
f 20/6/1 8/6/1 19/6/1
f 21/6/1 17/6/1 16/6/1
f 22/6/1 17/6/1 21/6/1
f 23/2/2 24/2/2 25/2/2
f 25/2/2 24/2/2 26/2/2
f 25/1/2 26/1/2 27/1/2
f 27/1/2 26/1/2 28/1/2
f 29/5/2 30/5/2 31/5/2
f 31/5/2 30/5/2 32/5/2
f 29/5/2 31/5/2 33/5/2
f 31/3/2 32/3/2 33/3/2
f 32/5/2 30/5/2 34/5/2
f 33/3/2 32/3/2 34/3/2
f 29/5/2 33/5/2 35/5/2
f 33/5/2 34/5/2 35/5/2
f 34/5/2 30/5/2 36/5/2
f 35/5/2 34/5/2 36/5/2
f 37/6/2 38/6/2 42/6/2
f 42/6/2 38/6/2 43/6/2
f 39/6/2 40/6/2 44/6/2
f 44/6/2 40/6/2 45/6/2
f 42/6/2 43/6/2 47/6/2
f 45/6/2 46/6/2 47/6/2
f 44/6/2 45/6/2 47/6/2
f 43/6/2 44/6/2 47/6/2
f 41/6/2 42/6/2 47/6/2
f 47/6/2 46/6/2 48/6/2
f 48/6/2 46/6/2 49/6/2
f 49/6/2 46/6/2 50/6/2
f 50/6/2 46/6/2 51/6/2
f 51/6/2 46/6/2 52/6/2
f 52/6/2 46/6/2 53/6/2
f 53/6/2 46/6/2 54/6/2
f 54/6/2 46/6/2 55/6/2
f 48/6/2 49/6/2 56/6/2
f 53/6/2 54/6/2 57/6/2
f 48/6/2 56/6/2 58/6/2
f 57/6/2 54/6/2 59/6/2
f 48/6/2 58/6/2 60/6/2
f 59/6/2 54/6/2 61/6/2
f 48/6/2 60/6/2 63/6/2
f 63/6/2 60/6/2 64/6/2
f 61/6/2 54/6/2 68/6/2
f 68/6/2 54/6/2 69/6/2
f 66/6/2 67/6/2 71/6/2
f 69/6/2 70/6/2 71/6/2
f 68/6/2 69/6/2 71/6/2
f 67/6/2 68/6/2 71/6/2
f 62/6/2 63/6/2 71/6/2
f 65/6/2 66/6/2 71/6/2
f 64/6/2 65/6/2 71/6/2
f 63/6/2 64/6/2 71/6/2
f 71/6/2 70/6/2 72/6/2
f 72/6/2 70/6/2 73/6/2
f 73/6/2 70/6/2 74/6/2
f 74/6/2 70/6/2 75/6/2
f 75/6/2 70/6/2 76/6/2
f 72/6/2 73/6/2 77/6/2
f 77/6/2 73/6/2 78/6/2
f 74/6/2 75/6/2 79/6/2
f 79/6/2 75/6/2 80/6/2
f 81/6/2 82/6/2 83/6/2
f 83/6/2 82/6/2 84/6/2
f 87/4/2 88/4/2 94/4/2
f 88/3/2 89/3/2 95/3/2
f 94/4/2 88/4/2 95/4/2
f 89/4/2 90/4/2 96/4/2
f 95/3/2 89/3/2 96/3/2
f 90/3/2 91/3/2 97/3/2
f 96/4/2 90/4/2 97/4/2
f 97/3/2 91/3/2 98/3/2
f 94/3/2 95/3/2 99/3/2
f 95/4/2 96/4/2 100/4/2
f 99/3/2 95/3/2 100/3/2
f 96/3/2 97/3/2 101/3/2
f 100/4/2 96/4/2 101/4/2
f 97/4/2 98/4/2 102/4/2
f 101/3/2 97/3/2 102/3/2
f 102/4/2 98/4/2 103/4/2
f 99/4/2 100/4/2 104/4/2
f 100/3/2 101/3/2 105/3/2
f 104/4/2 100/4/2 105/4/2
f 101/4/2 102/4/2 106/4/2
f 105/3/2 101/3/2 106/3/2
f 102/3/2 103/3/2 107/3/2
f 106/4/2 102/4/2 107/4/2
f 107/3/2 103/3/2 108/3/2
f 85/6/2 86/6/2 109/6/2
f 109/6/2 86/6/2 110/6/2
f 104/3/2 105/3/2 111/3/2
f 105/4/2 106/4/2 112/4/2
f 111/3/2 105/3/2 112/3/2
f 106/3/2 107/3/2 113/3/2
f 112/4/2 106/4/2 113/4/2
f 107/4/2 108/4/2 114/4/2
f 113/3/2 107/3/2 114/3/2
f 114/4/2 108/4/2 115/4/2
f 92/6/2 93/6/2 116/6/2
f 116/6/2 93/6/2 117/6/2
f 118/6/2 119/6/2 120/6/2
f 120/6/2 119/6/2 121/6/2
f 124/6/3 123/6/3 122/6/3
f 125/6/3 123/6/3 124/6/3
f 126/6/3 123/6/3 125/6/3
f 127/6/3 123/6/3 126/6/3
f 128/6/3 126/6/3 125/6/3
f 129/6/3 126/6/3 128/6/3
f 134/6/3 131/6/3 130/6/3
f 135/6/3 131/6/3 134/6/3
f 136/6/3 133/6/3 132/6/3
f 137/6/3 133/6/3 136/6/3
f 147/6/3 139/6/3 138/6/3
f 148/6/3 139/6/3 147/6/3
f 149/4/3 141/4/3 140/4/3
f 150/3/3 142/3/3 141/3/3
f 150/4/3 141/4/3 149/4/3
f 151/4/3 143/4/3 142/4/3
f 151/3/3 142/3/3 150/3/3
f 152/3/3 144/3/3 143/3/3
f 152/4/3 143/4/3 151/4/3
f 153/3/3 144/3/3 152/3/3
f 154/6/3 146/6/3 145/6/3
f 155/6/3 146/6/3 154/6/3
f 158/6/3 157/6/3 156/6/3
f 159/6/3 157/6/3 158/6/3
f 164/6/3 161/6/3 160/6/3
f 165/6/3 161/6/3 164/6/3
f 167/6/3 163/6/3 162/6/3
f 168/6/3 163/6/3 167/6/3
f 169/5/3 166/5/3 165/5/3
f 169/5/3 165/5/3 164/5/3
f 169/5/3 168/5/3 167/5/3
f 169/5/3 167/5/3 166/5/3
f 170/5/3 168/5/3 169/5/3
f 171/6/4 172/6/4 173/6/4
f 173/6/4 172/6/4 174/6/4
f 175/6/4 176/6/4 184/6/4
f 184/6/4 176/6/4 185/6/4
f 177/3/4 178/3/4 186/3/4
f 178/4/4 179/4/4 187/4/4
f 186/3/4 178/3/4 187/3/4
f 179/3/4 180/3/4 188/3/4
f 187/4/4 179/4/4 188/4/4
f 180/4/4 181/4/4 189/4/4
f 188/3/4 180/3/4 189/3/4
f 189/4/4 181/4/4 190/4/4
f 182/6/4 183/6/4 191/6/4
f 191/6/4 183/6/4 192/6/4
f 193/6/4 194/6/4 197/6/4
f 197/6/4 194/6/4 198/6/4
f 195/6/4 196/6/4 199/6/4
f 199/6/4 196/6/4 200/6/4
f 201/6/4 202/6/4 205/6/4
f 203/6/4 204/6/4 207/6/4
f 205/6/4 206/6/4 208/6/4
f 206/6/4 207/6/4 208/6/4
f 201/6/4 205/6/4 208/6/4
f 208/6/4 207/6/4 209/6/4
f 207/6/4 204/6/4 210/6/4
f 209/6/4 207/6/4 210/6/4
f 210/6/4 204/6/4 211/6/4
f 209/6/4 210/6/4 212/6/4
f 212/6/4 210/6/4 213/6/4
f 214/6/4 215/6/4 216/6/4
f 216/6/4 215/6/4 217/6/4
f 216/5/4 217/5/4 218/5/4
f 218/5/4 217/5/4 219/5/4
f 222/6/5 221/6/5 220/6/5
f 224/6/5 222/6/5 220/6/5
f 224/6/5 223/6/5 222/6/5
f 225/6/5 223/6/5 224/6/5
f 226/6/5 224/6/5 220/6/5
f 227/6/5 224/6/5 226/6/5
f 230/6/5 229/6/5 228/6/5
f 231/6/5 229/6/5 230/6/5
f 234/6/5 233/6/5 232/6/5
f 235/6/5 233/6/5 234/6/5
f 239/6/5 237/6/5 236/6/5
f 240/5/5 238/5/5 237/5/5
f 240/6/5 237/6/5 239/6/5
f 241/5/5 238/5/5 240/5/5
f 244/6/5 243/6/5 242/6/5
f 245/6/5 243/6/5 244/6/5
f 248/4/5 247/4/5 246/4/5
f 249/4/5 247/4/5 248/4/5
f 250/3/5 249/3/5 248/3/5
f 251/3/5 249/3/5 250/3/5
f 252/4/5 251/4/5 250/4/5
f 253/4/5 251/4/5 252/4/5
f 254/3/5 253/3/5 252/3/5
f 255/3/5 253/3/5 254/3/5
f 258/6/5 257/6/5 256/6/5
f 259/6/5 257/6/5 258/6/5
f 262/2/5 261/2/5 260/2/5
f 263/2/5 261/2/5 262/2/5
f 266/6/5 265/6/5 264/6/5
f 267/6/5 265/6/5 266/6/5
f 268/6/6 269/6/6 270/6/6
f 270/6/6 269/6/6 271/6/6
f 272/1/6 273/1/6 274/1/6
f 274/1/6 273/1/6 275/1/6
f 276/6/6 277/6/6 278/6/6
f 278/6/6 277/6/6 279/6/6
f 280/3/6 281/3/6 282/3/6
f 282/3/6 281/3/6 283/3/6
f 282/4/6 283/4/6 284/4/6
f 284/4/6 283/4/6 285/4/6
f 284/3/6 285/3/6 286/3/6
f 286/3/6 285/3/6 287/3/6
f 286/4/6 287/4/6 288/4/6
f 288/4/6 287/4/6 289/4/6
f 290/6/6 291/6/6 292/6/6
f 292/6/6 291/6/6 293/6/6
f 294/6/6 295/6/6 296/6/6
f 296/6/6 295/6/6 297/6/6
f 298/6/6 299/6/6 300/6/6
f 300/6/6 299/6/6 301/6/6
f 302/6/6 303/6/6 305/6/6
f 303/5/6 304/5/6 306/5/6
f 305/6/6 303/6/6 306/6/6
f 306/5/6 304/5/6 307/5/6
f 308/6/6 309/6/6 310/6/6
f 308/6/6 310/6/6 312/6/6
f 310/6/6 311/6/6 312/6/6
f 312/6/6 311/6/6 313/6/6
f 308/6/6 312/6/6 314/6/6
f 314/6/6 312/6/6 315/6/6
