# 3ds Max Wavefront OBJ Exporter v0.97b - (c)2007 guruware
# File Created: 07.11.2019 12:13:36

mtllib Mur_Intérieur_Porte.mtl

#
# object Mur_Intérieur_Porte
#

v  -0.0000 0.1000 -0.4000
v  -0.0000 0.0000 -0.4000
v  -0.0000 0.0000 -0.3000
v  -0.0000 0.0000 -3.1000
v  -0.0000 0.1000 -3.1000
v  -0.0000 0.0000 -3.2000
v  -0.0000 2.2000 -0.0000
v  -0.0000 0.0000 -0.0000
v  -0.0000 2.2000 -0.3000
v  -0.0000 2.2000 -3.2000
v  -0.0000 0.0000 -3.4000
v  -0.0000 2.2000 -3.4000
v  -0.0000 4.8000 -0.4000
v  -0.0000 4.8000 -3.1000
v  -0.0000 4.9000 -0.3000
v  -0.0000 4.9000 -3.2000
v  0.1000 2.2000 -3.4000
v  0.1000 0.0000 -3.5000
v  0.1000 0.0000 -3.4000
v  0.1000 2.2000 -3.5000
v  0.1000 2.3000 -0.0000
v  0.1000 2.2000 -0.3000
v  0.1000 2.2000 -0.0000
v  0.1000 2.3000 -0.3000
v  0.1000 2.3000 -3.2000
v  0.1000 2.2000 -3.2000
v  0.1000 2.3000 -3.5000
v  0.1000 3.0000 -0.0000
v  0.1000 3.0000 -0.1000
v  0.1000 3.1000 -0.0000
v  0.1000 3.1000 -0.1000
v  0.1000 4.4000 -3.2000
v  0.1000 4.4000 -3.3000
v  0.1000 4.5000 -3.2000
v  0.1000 4.5000 -3.3000
v  0.1000 4.9000 -0.3000
v  0.1000 4.9000 -3.2000
v  0.1000 5.0000 -1.1000
v  0.1000 5.0000 -1.2000
v  0.1000 5.1000 -0.0000
v  0.1000 5.1000 -1.1000
v  0.1000 5.1000 -1.2000
v  0.1000 5.1000 -3.5000
v  0.1000 5.2000 -0.0000
v  0.1000 5.2000 -3.5000
v  0.5000 0.0000 -0.0000
v  0.5000 0.0000 -0.1000
v  0.5000 2.2000 -0.0000
v  0.5000 2.2000 -0.1000
v  0.5000 2.3000 -0.0000
v  0.5000 2.2000 -0.3000
v  0.5000 2.3000 -0.3000
v  0.5000 2.2000 -3.2000
v  0.5000 2.2000 -3.5000
v  0.5000 2.3000 -3.2000
v  0.5000 2.3000 -3.5000
v  0.5000 3.8000 -0.0000
v  0.5000 3.8000 -0.1000
v  0.5000 3.9000 -0.0000
v  0.5000 3.9000 -0.1000
v  0.5000 4.6000 -3.2000
v  0.5000 4.6000 -3.3000
v  0.5000 4.7000 -3.2000
v  0.5000 4.7000 -3.3000
v  0.5000 4.9000 -0.3000
v  0.5000 4.9000 -3.2000
v  0.5000 4.9000 -1.8000
v  0.5000 5.0000 -0.8000
v  0.5000 5.0000 -0.9000
v  0.5000 4.9000 -1.9000
v  0.5000 5.0000 -1.8000
v  0.5000 5.0000 -1.9000
v  0.5000 5.1000 -0.0000
v  0.5000 5.1000 -0.8000
v  0.5000 5.1000 -0.9000
v  0.5000 5.1000 -3.5000
v  0.5000 5.2000 -0.0000
v  0.5000 5.2000 -3.5000
v  0.6000 0.0000 -0.3000
v  0.6000 0.0000 -0.4000
v  0.6000 0.1000 -0.4000
v  0.6000 0.0000 -3.1000
v  0.6000 0.0000 -3.2000
v  0.6000 0.1000 -3.1000
v  0.6000 0.0000 -0.1000
v  0.6000 2.2000 -0.1000
v  0.6000 2.2000 -0.3000
v  0.6000 2.2000 -3.2000
v  0.6000 0.0000 -3.5000
v  0.6000 2.2000 -3.5000
v  0.6000 4.8000 -0.4000
v  0.6000 4.8000 -3.1000
v  0.6000 4.9000 -0.3000
v  0.6000 4.9000 -3.2000
v  0.1000 0.0000 -0.0000
v  0.2000 3.0000 -0.0000
v  0.2000 3.1000 -0.0000
v  0.4000 3.8000 -0.0000
v  0.4000 3.9000 -0.0000
v  0.2000 0.0000 -3.5000
v  0.2000 2.2000 -3.5000
v  0.4000 0.0000 -3.5000
v  0.4000 2.2000 -3.5000
v  0.5000 0.0000 -3.5000
v  0.1000 0.0000 -0.1000
v  0.2000 0.0000 -0.1000
v  0.4000 0.0000 -0.1000
v  0.2000 0.0000 -0.3000
v  0.4000 0.0000 -0.3000
v  0.5000 0.0000 -0.3000
v  0.1000 0.0000 -3.2000
v  0.2000 0.0000 -3.2000
v  0.4000 0.0000 -3.2000
v  0.5000 0.0000 -3.2000
v  0.2000 0.0000 -3.4000
v  0.4000 0.0000 -3.4000
# 116 vertices

vn -1.0000 0.0000 -0.0000
vn 1.0000 0.0000 -0.0000
vn 0.0000 0.0000 1.0000
vn 0.0000 0.0000 -1.0000
vn 0.0000 -1.0000 -0.0000
vn 0.0000 1.0000 -0.0000
# 6 vertex normals

vt 0.3105 0.5000 0.0000
vt 0.9824 0.5000 0.0000
vt 0.2793 0.5000 0.0000
vt 0.2637 0.5000 0.0000
vt 0.2988 0.5000 0.0000
vt 0.0176 0.5000 0.0000
vt 0.4160 0.5000 0.0000
vt 0.9941 0.5000 0.0000
vt 0.1699 0.5000 0.0000
vt 0.3066 0.5000 0.0000
# 10 texture coords

o Mur_Intérieur_Porte
g Mur_Intérieur_Porte
usemtl Mur_Intérieur_Porte_palette
s 1
f 1/1/1 2/1/1 3/1/1 
f 1/2/1 4/2/1 2/2/1 
f 5/1/1 6/1/1 4/1/1 
f 5/2/1 4/2/1 1/2/1 
f 7/3/1 3/3/1 8/3/1 
f 9/1/1 1/1/1 3/1/1 
f 9/3/1 3/3/1 7/3/1 
f 10/1/1 6/1/1 5/1/1 
f 10/3/1 11/3/1 6/3/1 
f 12/3/1 11/3/1 10/3/1 
f 13/1/1 1/1/1 9/1/1 
f 14/1/1 10/1/1 5/1/1 
f 15/1/1 13/1/1 9/1/1 
f 15/1/1 14/1/1 13/1/1 
f 16/1/1 10/1/1 14/1/1 
f 16/1/1 14/1/1 15/1/1 
f 17/4/1 18/4/1 19/4/1 
f 20/4/1 18/4/1 17/4/1 
f 21/5/1 22/5/1 23/5/1 
f 24/5/1 22/5/1 21/5/1 
f 25/5/1 17/5/1 26/5/1 
f 25/5/1 20/5/1 17/5/1 
f 27/5/1 20/5/1 25/5/1 
f 28/6/1 24/6/1 21/6/1 
f 29/6/1 24/6/1 28/6/1 
f 30/7/1 29/7/1 28/7/1 
f 31/6/1 24/6/1 29/6/1 
f 31/7/1 29/7/1 30/7/1 
f 32/6/1 27/6/1 25/6/1 
f 33/6/1 27/6/1 32/6/1 
f 34/7/1 33/7/1 32/7/1 
f 35/6/1 27/6/1 33/6/1 
f 35/7/1 33/7/1 34/7/1 
f 36/6/1 24/6/1 31/6/1 
f 36/6/1 31/6/1 30/6/1 
f 37/6/1 35/6/1 34/6/1 
f 38/6/1 37/6/1 36/6/1 
f 39/6/1 37/6/1 38/6/1 
f 40/6/1 36/6/1 30/6/1 
f 40/6/1 38/6/1 36/6/1 
f 41/7/1 39/7/1 38/7/1 
f 41/6/1 38/6/1 40/6/1 
f 42/6/1 37/6/1 39/6/1 
f 42/7/1 39/7/1 41/7/1 
f 43/6/1 27/6/1 35/6/1 
f 43/6/1 37/6/1 42/6/1 
f 43/6/1 35/6/1 37/6/1 
f 44/8/1 42/8/1 41/8/1 
f 44/8/1 41/8/1 40/8/1 
f 44/8/1 43/8/1 42/8/1 
f 45/8/1 43/8/1 44/8/1 
f 46/4/2 47/4/2 48/4/2 
f 48/4/2 47/4/2 49/4/2 
f 48/5/2 49/5/2 50/5/2 
f 49/5/2 51/5/2 50/5/2 
f 50/5/2 51/5/2 52/5/2 
f 53/5/2 54/5/2 55/5/2 
f 55/5/2 54/5/2 56/5/2 
f 50/6/2 52/6/2 57/6/2 
f 57/6/2 52/6/2 58/6/2 
f 57/7/2 58/7/2 59/7/2 
f 58/6/2 52/6/2 60/6/2 
f 59/7/2 58/7/2 60/7/2 
f 55/6/2 56/6/2 61/6/2 
f 61/6/2 56/6/2 62/6/2 
f 61/7/2 62/7/2 63/7/2 
f 62/6/2 56/6/2 64/6/2 
f 63/7/2 62/7/2 64/7/2 
f 60/6/2 52/6/2 65/6/2 
f 59/6/2 60/6/2 65/6/2 
f 63/6/2 64/6/2 66/6/2 
f 65/6/2 67/6/2 68/6/2 
f 68/6/2 67/6/2 69/6/2 
f 67/7/2 70/7/2 71/7/2 
f 69/6/2 67/6/2 71/6/2 
f 70/6/2 66/6/2 72/6/2 
f 71/7/2 70/7/2 72/7/2 
f 59/6/2 65/6/2 73/6/2 
f 65/6/2 68/6/2 73/6/2 
f 68/7/2 69/7/2 74/7/2 
f 73/6/2 68/6/2 74/6/2 
f 69/6/2 71/6/2 75/6/2 
f 74/7/2 69/7/2 75/7/2 
f 71/6/2 72/6/2 75/6/2 
f 64/6/2 56/6/2 76/6/2 
f 75/6/2 72/6/2 76/6/2 
f 72/6/2 66/6/2 76/6/2 
f 66/6/2 64/6/2 76/6/2 
f 74/8/2 75/8/2 77/8/2 
f 73/8/2 74/8/2 77/8/2 
f 75/8/2 76/8/2 77/8/2 
f 77/8/2 76/8/2 78/8/2 
f 79/1/2 80/1/2 81/1/2 
f 80/2/2 82/2/2 81/2/2 
f 82/1/2 83/1/2 84/1/2 
f 81/2/2 82/2/2 84/2/2 
f 85/3/2 79/3/2 86/3/2 
f 79/1/2 81/1/2 87/1/2 
f 86/3/2 79/3/2 87/3/2 
f 84/1/2 83/1/2 88/1/2 
f 83/3/2 89/3/2 88/3/2 
f 88/3/2 89/3/2 90/3/2 
f 87/1/2 81/1/2 91/1/2 
f 84/1/2 88/1/2 92/1/2 
f 87/1/2 91/1/2 93/1/2 
f 91/1/2 92/1/2 93/1/2 
f 92/1/2 88/1/2 94/1/2 
f 93/1/2 92/1/2 94/1/2 
f 95/3/3 7/3/3 8/3/3 
f 23/3/3 7/3/3 95/3/3 
f 96/6/3 28/6/3 21/6/3 
f 96/7/3 30/7/3 28/7/3 
f 97/6/3 40/6/3 30/6/3 
f 97/7/3 30/7/3 96/7/3 
f 98/6/3 97/6/3 96/6/3 
f 98/6/3 40/6/3 97/6/3 
f 99/6/3 40/6/3 98/6/3 
f 46/4/3 23/4/3 95/4/3 
f 48/5/3 21/5/3 23/5/3 
f 48/4/3 23/4/3 46/4/3 
f 50/6/3 96/6/3 21/6/3 
f 50/5/3 21/5/3 48/5/3 
f 50/6/3 98/6/3 96/6/3 
f 57/7/3 99/7/3 98/7/3 
f 57/6/3 98/6/3 50/6/3 
f 59/6/3 40/6/3 99/6/3 
f 59/7/3 99/7/3 57/7/3 
f 73/8/3 44/8/3 40/8/3 
f 73/6/3 40/6/3 59/6/3 
f 77/8/3 44/8/3 73/8/3 
f 85/3/3 49/3/3 47/3/3 
f 86/3/3 49/3/3 85/3/3 
f 22/1/3 15/1/3 9/1/3 
f 24/1/3 15/1/3 22/1/3 
f 36/1/3 15/1/3 24/1/3 
f 87/1/3 52/1/3 51/1/3 
f 87/1/3 65/1/3 52/1/3 
f 93/1/3 65/1/3 87/1/3 
f 84/1/3 14/1/3 5/1/3 
f 92/1/3 14/1/3 84/1/3 
f 1/1/4 13/1/4 81/1/4 
f 81/1/4 13/1/4 91/1/4 
f 10/1/4 16/1/4 26/1/4 
f 26/1/4 16/1/4 25/1/4 
f 25/1/4 16/1/4 32/1/4 
f 32/1/4 16/1/4 34/1/4 
f 34/1/4 16/1/4 37/1/4 
f 53/1/4 55/1/4 88/1/4 
f 63/1/4 66/1/4 88/1/4 
f 61/1/4 63/1/4 88/1/4 
f 55/1/4 61/1/4 88/1/4 
f 88/1/4 66/1/4 94/1/4 
f 11/3/4 12/3/4 19/3/4 
f 19/3/4 12/3/4 17/3/4 
f 18/4/4 20/4/4 100/4/4 
f 20/5/4 27/5/4 101/5/4 
f 100/4/4 20/4/4 101/4/4 
f 100/3/4 101/3/4 102/3/4 
f 101/5/4 27/5/4 103/5/4 
f 102/3/4 101/3/4 103/3/4 
f 102/4/4 103/4/4 104/4/4 
f 103/5/4 27/5/4 54/5/4 
f 104/4/4 103/4/4 54/4/4 
f 27/6/4 43/6/4 56/6/4 
f 54/5/4 27/5/4 56/5/4 
f 43/8/4 45/8/4 76/8/4 
f 56/6/4 43/6/4 76/6/4 
f 76/8/4 45/8/4 78/8/4 
f 104/3/4 54/3/4 89/3/4 
f 89/3/4 54/3/4 90/3/4 
f 105/3/5 95/3/5 8/3/5 
f 105/4/5 46/4/5 95/4/5 
f 106/4/5 46/4/5 105/4/5 
f 107/4/5 46/4/5 106/4/5 
f 47/4/5 46/4/5 107/4/5 
f 3/3/5 105/3/5 8/3/5 
f 3/3/5 106/3/5 105/3/5 
f 108/9/5 107/9/5 106/9/5 
f 108/3/5 106/3/5 3/3/5 
f 109/4/5 47/4/5 107/4/5 
f 109/9/5 107/9/5 108/9/5 
f 110/3/5 85/3/5 47/3/5 
f 110/4/5 47/4/5 109/4/5 
f 79/3/5 85/3/5 110/3/5 
f 2/1/5 109/1/5 108/1/5 
f 2/1/5 108/1/5 3/1/5 
f 2/1/5 79/1/5 110/1/5 
f 2/1/5 110/1/5 109/1/5 
f 80/1/5 79/1/5 2/1/5 
f 4/2/5 80/2/5 2/2/5 
f 82/2/5 80/2/5 4/2/5 
f 6/1/5 82/1/5 4/1/5 
f 111/1/5 82/1/5 6/1/5 
f 112/1/5 82/1/5 111/1/5 
f 113/1/5 82/1/5 112/1/5 
f 114/1/5 82/1/5 113/1/5 
f 83/1/5 82/1/5 114/1/5 
f 11/3/5 111/3/5 6/3/5 
f 19/4/5 112/4/5 111/4/5 
f 19/3/5 111/3/5 11/3/5 
f 115/10/5 113/10/5 112/10/5 
f 115/4/5 112/4/5 19/4/5 
f 116/4/5 114/4/5 113/4/5 
f 116/10/5 113/10/5 115/10/5 
f 18/4/5 115/4/5 19/4/5 
f 100/3/5 116/3/5 115/3/5 
f 100/4/5 115/4/5 18/4/5 
f 102/4/5 114/4/5 116/4/5 
f 102/3/5 116/3/5 100/3/5 
f 104/3/5 83/3/5 114/3/5 
f 104/4/5 114/4/5 102/4/5 
f 89/3/5 83/3/5 104/3/5 
f 14/1/5 91/1/5 13/1/5 
f 92/1/5 91/1/5 14/1/5 
f 1/2/6 81/2/6 5/2/6 
f 5/2/6 81/2/6 84/2/6 
f 7/3/6 23/3/6 9/3/6 
f 9/3/6 23/3/6 22/3/6 
f 49/3/6 86/3/6 51/3/6 
f 51/3/6 86/3/6 87/3/6 
f 10/3/6 26/3/6 12/3/6 
f 12/3/6 26/3/6 17/3/6 
f 53/3/6 88/3/6 54/3/6 
f 54/3/6 88/3/6 90/3/6 
f 65/1/6 93/1/6 67/1/6 
f 67/1/6 93/1/6 70/1/6 
f 15/1/6 36/1/6 16/1/6 
f 16/1/6 36/1/6 37/1/6 
f 70/1/6 93/1/6 66/1/6 
f 66/1/6 93/1/6 94/1/6 
f 44/8/6 77/8/6 45/8/6 
f 45/8/6 77/8/6 78/8/6 
# 0 polygons - 232 triangles

