# 3ds Max Wavefront OBJ Exporter v0.97b - (c)2007 guruware
# File Created: 13.11.2019 14:07:46

mtllib MurPorte_Droit_IntérieurBlanc.mtl

#
# object MurPorte_Droit_IntérieurBlanc
#

v  -0.1000 1.7250 0.4000
v  -0.1000 0.0000 0.4000
v  -0.1000 0.0000 0.4250
v  -0.1000 1.7250 -0.4000
v  -0.1000 0.0000 -0.4250
v  -0.1000 0.0000 -0.4000
v  -0.1000 1.7500 0.4250
v  -0.1000 1.7500 -0.4250
v  -0.0750 1.7500 0.4250
v  -0.0750 0.0000 0.4250
v  -0.0750 0.0000 0.5000
v  -0.0750 1.7500 -0.4250
v  -0.0750 0.0000 -0.5000
v  -0.0750 0.0000 -0.4250
v  -0.0750 1.9750 0.5000
v  -0.0750 1.9750 -0.5000
v  -0.0750 2.0000 0.5000
v  -0.0750 2.0000 -0.5000
v  0.0750 0.0000 0.5000
v  0.0750 0.0000 0.4250
v  0.0750 1.7500 0.4250
v  0.0750 0.0000 -0.4250
v  0.0750 0.0000 -0.5000
v  0.0750 1.7500 -0.4250
v  0.0750 1.9750 0.5000
v  0.0750 1.9750 -0.5000
v  0.0750 2.0000 0.5000
v  0.0750 2.0000 -0.5000
v  0.1000 0.0000 0.4250
v  0.1000 0.0000 0.4000
v  0.1000 1.7250 0.4000
v  0.1000 0.0000 -0.4000
v  0.1000 0.0000 -0.4250
v  0.1000 1.7250 -0.4000
v  0.1000 1.7500 0.4250
v  0.1000 1.7500 -0.4250
v  -0.0500 0.0000 0.5000
v  -0.0500 1.9750 0.5000
v  0.0500 0.0000 0.5000
v  0.0500 1.9750 0.5000
v  -0.0500 0.0000 -0.5000
v  -0.0500 1.9750 -0.5000
v  0.0500 0.0000 -0.5000
v  0.0500 1.9750 -0.5000
v  -0.0500 0.0000 0.4750
v  0.0500 0.0000 0.4750
v  -0.0500 0.0000 -0.4750
v  0.0500 0.0000 -0.4750
# 48 vertices

vn -1.0000 0.0000 -0.0000
vn 1.0000 0.0000 -0.0000
vn 0.0000 0.0000 1.0000
vn 0.0000 0.0000 -1.0000
vn 0.0000 -1.0000 -0.0000
vn 0.0000 1.0000 -0.0000
# 6 vertex normals

vt 0.9863 0.5000 0.0000
vt 0.9629 0.5000 0.0000
vt 0.9941 0.5000 0.0000
# 3 texture coords

o MurPorte_Droit_IntérieurBlanc
g MurPorte_Droit_IntérieurBlanc
usemtl MurPorte_Droit_IntérieurBlanc_palette
s 1
f 1/1/1 2/1/1 3/1/1 
f 4/1/1 5/1/1 6/1/1 
f 7/1/1 1/1/1 3/1/1 
f 7/1/1 4/1/1 1/1/1 
f 8/1/1 5/1/1 4/1/1 
f 8/1/1 4/1/1 7/1/1 
f 9/2/1 10/2/1 11/2/1 
f 12/2/1 13/2/1 14/2/1 
f 15/2/1 9/2/1 11/2/1 
f 15/2/1 12/2/1 9/2/1 
f 16/2/1 13/2/1 12/2/1 
f 16/2/1 12/2/1 15/2/1 
f 17/3/1 16/3/1 15/3/1 
f 18/3/1 16/3/1 17/3/1 
f 19/2/2 20/2/2 21/2/2 
f 22/2/2 23/2/2 24/2/2 
f 19/2/2 21/2/2 25/2/2 
f 21/2/2 24/2/2 25/2/2 
f 24/2/2 23/2/2 26/2/2 
f 25/2/2 24/2/2 26/2/2 
f 25/3/2 26/3/2 27/3/2 
f 27/3/2 26/3/2 28/3/2 
f 29/1/2 30/1/2 31/1/2 
f 32/1/2 33/1/2 34/1/2 
f 29/1/2 31/1/2 35/1/2 
f 31/1/2 34/1/2 35/1/2 
f 34/1/2 33/1/2 36/1/2 
f 35/1/2 34/1/2 36/1/2 
f 37/2/3 15/2/3 11/2/3 
f 38/3/3 17/3/3 15/3/3 
f 38/2/3 15/2/3 37/2/3 
f 39/3/3 38/3/3 37/3/3 
f 40/3/3 17/3/3 38/3/3 
f 40/3/3 38/3/3 39/3/3 
f 19/2/3 40/2/3 39/2/3 
f 25/3/3 17/3/3 40/3/3 
f 25/2/3 40/2/3 19/2/3 
f 27/3/3 17/3/3 25/3/3 
f 10/1/3 7/1/3 3/1/3 
f 9/1/3 7/1/3 10/1/3 
f 29/1/3 21/1/3 20/1/3 
f 35/1/3 21/1/3 29/1/3 
f 32/1/3 4/1/3 6/1/3 
f 34/1/3 4/1/3 32/1/3 
f 2/1/4 1/1/4 30/1/4 
f 30/1/4 1/1/4 31/1/4 
f 5/1/4 8/1/4 14/1/4 
f 14/1/4 8/1/4 12/1/4 
f 22/1/4 24/1/4 33/1/4 
f 33/1/4 24/1/4 36/1/4 
f 13/2/4 16/2/4 41/2/4 
f 16/3/4 18/3/4 42/3/4 
f 41/2/4 16/2/4 42/2/4 
f 41/3/4 42/3/4 43/3/4 
f 42/3/4 18/3/4 44/3/4 
f 43/3/4 42/3/4 44/3/4 
f 43/2/4 44/2/4 23/2/4 
f 44/3/4 18/3/4 26/3/4 
f 23/2/4 44/2/4 26/2/4 
f 26/3/4 18/3/4 28/3/4 
f 45/2/5 37/2/5 11/2/5 
f 45/3/5 39/3/5 37/3/5 
f 46/2/5 19/2/5 39/2/5 
f 46/3/5 39/3/5 45/3/5 
f 10/2/5 45/2/5 11/2/5 
f 10/2/5 46/2/5 45/2/5 
f 20/2/5 19/2/5 46/2/5 
f 20/2/5 46/2/5 10/2/5 
f 2/1/5 10/1/5 3/1/5 
f 2/1/5 29/1/5 20/1/5 
f 2/1/5 20/1/5 10/1/5 
f 30/1/5 29/1/5 2/1/5 
f 5/1/5 32/1/5 6/1/5 
f 14/1/5 32/1/5 5/1/5 
f 22/1/5 32/1/5 14/1/5 
f 33/1/5 32/1/5 22/1/5 
f 47/2/5 22/2/5 14/2/5 
f 48/2/5 22/2/5 47/2/5 
f 13/2/5 47/2/5 14/2/5 
f 41/3/5 48/3/5 47/3/5 
f 41/2/5 47/2/5 13/2/5 
f 43/2/5 22/2/5 48/2/5 
f 43/3/5 48/3/5 41/3/5 
f 23/2/5 22/2/5 43/2/5 
f 4/1/5 31/1/5 1/1/5 
f 34/1/5 31/1/5 4/1/5 
f 7/1/6 9/1/6 8/1/6 
f 8/1/6 9/1/6 12/1/6 
f 21/1/6 35/1/6 24/1/6 
f 24/1/6 35/1/6 36/1/6 
f 17/3/6 27/3/6 18/3/6 
f 18/3/6 27/3/6 28/3/6 
# 0 polygons - 92 triangles

