# MagicaVoxel @ Ephtracy

# group
o 

# material
mtllib Camera_Surveillance.mtl
usemtl palette

# normals
vn -1 0 0
vn 1 0 0
vn 0 0 1
vn 0 0 -1
vn 0 -1 0
vn 0 1 0

# texcoords
vt 0.166016 0.5
vt 0.748047 0.5
vt 0.962891 0.5
vt 0.966797 0.5
vt 0.986328 0.5
vt 0.990234 0.5

# verts
v 0 2 -0.5
v 0 2 -0.8
v 0 2.1 -0.4
v 0 2.1 -0.5
v 0 2.1 -0.6
v 0 2.1 -0.7
v 0 2.2 -0.4
v 0 2.2 -0.5
v 0 2.2 -0.6
v 0 2.2 -0.7
v 0 2.3 -0.5
v 0 2.3 -0.8
v 0.1 2.1 -0.3
v 0.1 2.1 -0.4
v 0.1 2.2 -0.3
v 0.1 2.2 -0.4
v 0.2 2.1 -0.2
v 0.2 2.1 -0.3
v 0.2 2.2 -0.2
v 0.2 2.2 -0.3
v 0.2 2.2 -0.6
v 0.2 2.2 -0.7
v 0.2 2.3 -0.3
v 0.2 2.3 -0.4
v 0.2 2.3 -0.6
v 0.2 2.3 -0.7
v 0.2 2.3 -0.8
v 0.2 2.3 -1.1
v 0.2 2.3 -1.2
v 0.2 2.4 -0.6
v 0.2 2.4 -0.7
v 0.2 2.5 -0.4
v 0.2 2.5 -0.8
v 0.2 2.5 -1.1
v 0.2 2.5 -1.2
v 0.2 2.5 -1.3
v 0.2 2.6 -0.3
v 0.2 2.6 -0.4
v 0.2 2.6 -1.3
v 0.3 2.1 -0.1
v 0.3 2.1 -0.2
v 0.3 2.2 0
v 0.3 2.2 -0.1
v 0.3 2.2 -0.2
v 0.3 2.4 0
v 0.3 2.4 -0.1
v 0.3 2.4 -0.3
v 0.3 2.5 -0.1
v 0.3 2.5 -0.3
v 0.1 2 -0.5
v 0.1 2 -0.8
v 0.1 2.1 -0.4
v 0.1 2.1 -0.5
v 0.1 2.1 -0.6
v 0.1 2.1 -0.7
v 0.1 2.2 -0.4
v 0.1 2.2 -0.5
v 0.1 2.2 -0.6
v 0.1 2.2 -0.7
v 0.1 2.3 -0.5
v 0.1 2.3 -0.8
v 0.2 2.1 -0.3
v 0.2 2.1 -0.4
v 0.2 2.2 -0.3
v 0.2 2.2 -0.4
v 0.3 2.1 -0.2
v 0.3 2.1 -0.3
v 0.3 2.2 -0.2
v 0.3 2.2 -0.3
v 0.4 2.1 -0.1
v 0.4 2.1 -0.2
v 0.4 2.1 -0.6
v 0.4 2.1 -0.7
v 0.4 2.2 0
v 0.4 2.2 -0.1
v 0.4 2.2 -0.2
v 0.4 2.2 -0.6
v 0.4 2.2 -0.7
v 0.4 2.4 0
v 0.4 2.4 -0.1
v 0.4 2.4 -0.3
v 0.4 2.5 -0.1
v 0.4 2.5 -0.3
v 0.5 2.2 -0.6
v 0.5 2.2 -0.7
v 0.5 2.3 -0.3
v 0.5 2.3 -0.4
v 0.5 2.3 -0.6
v 0.5 2.3 -0.7
v 0.5 2.3 -0.8
v 0.5 2.3 -1.1
v 0.5 2.3 -1.2
v 0.5 2.4 -0.6
v 0.5 2.4 -0.7
v 0.5 2.5 -0.4
v 0.5 2.5 -0.8
v 0.5 2.5 -1.1
v 0.5 2.5 -1.2
v 0.5 2.5 -1.3
v 0.5 2.6 -0.3
v 0.5 2.6 -0.4
v 0.5 2.6 -1.3
v 0.3 2.2 0
v 0.3 2.4 0
v 0.4 2.2 0
v 0.4 2.4 0
v 0.3 2.1 -0.1
v 0.3 2.2 -0.1
v 0.3 2.4 -0.1
v 0.3 2.5 -0.1
v 0.4 2.1 -0.1
v 0.4 2.2 -0.1
v 0.4 2.4 -0.1
v 0.4 2.5 -0.1
v 0.2 2.1 -0.2
v 0.2 2.2 -0.2
v 0.3 2.1 -0.2
v 0.3 2.2 -0.2
v 0.1 2.1 -0.3
v 0.1 2.2 -0.3
v 0.2 2.1 -0.3
v 0.2 2.2 -0.3
v 0.2 2.3 -0.3
v 0.2 2.6 -0.3
v 0.3 2.4 -0.3
v 0.3 2.5 -0.3
v 0.4 2.4 -0.3
v 0.4 2.5 -0.3
v 0.5 2.3 -0.3
v 0.5 2.6 -0.3
v 0 2.1 -0.4
v 0 2.2 -0.4
v 0.1 2.1 -0.4
v 0.1 2.2 -0.4
v 0 2 -0.5
v 0 2.1 -0.5
v 0 2.2 -0.5
v 0 2.3 -0.5
v 0.1 2 -0.5
v 0.1 2.1 -0.5
v 0.1 2.2 -0.5
v 0.1 2.3 -0.5
v 0.1 2.1 -0.6
v 0.1 2.2 -0.6
v 0.2 2.2 -0.6
v 0.2 2.3 -0.6
v 0.4 2.1 -0.6
v 0.4 2.2 -0.6
v 0.5 2.2 -0.6
v 0.5 2.3 -0.6
v 0.3 2.2 -0.1
v 0.3 2.4 -0.1
v 0.4 2.2 -0.1
v 0.4 2.4 -0.1
v 0.3 2.1 -0.2
v 0.3 2.2 -0.2
v 0.4 2.1 -0.2
v 0.4 2.2 -0.2
v 0.2 2.1 -0.3
v 0.2 2.2 -0.3
v 0.3 2.1 -0.3
v 0.3 2.2 -0.3
v 0.1 2.1 -0.4
v 0.1 2.2 -0.4
v 0.2 2.1 -0.4
v 0.2 2.2 -0.4
v 0.1 2.1 -0.7
v 0.1 2.2 -0.7
v 0.2 2.2 -0.7
v 0.2 2.3 -0.7
v 0.4 2.1 -0.7
v 0.4 2.2 -0.7
v 0.5 2.2 -0.7
v 0.5 2.3 -0.7
v 0 2 -0.8
v 0 2.3 -0.8
v 0.1 2 -0.8
v 0.1 2.3 -0.8
v 0.2 2.3 -1.2
v 0.2 2.5 -1.2
v 0.5 2.3 -1.2
v 0.5 2.5 -1.2
v 0.2 2.5 -1.3
v 0.2 2.6 -1.3
v 0.5 2.5 -1.3
v 0.5 2.6 -1.3
v 0 2 -0.5
v 0.1 2 -0.5
v 0 2 -0.8
v 0.1 2 -0.8
v 0.3 2.1 -0.1
v 0.4 2.1 -0.1
v 0.2 2.1 -0.2
v 0.3 2.1 -0.2
v 0.4 2.1 -0.2
v 0.1 2.1 -0.3
v 0.2 2.1 -0.3
v 0.3 2.1 -0.3
v 0 2.1 -0.4
v 0.1 2.1 -0.4
v 0.2 2.1 -0.4
v 0 2.1 -0.5
v 0.1 2.1 -0.5
v 0.1 2.1 -0.6
v 0.4 2.1 -0.6
v 0.1 2.1 -0.7
v 0.4 2.1 -0.7
v 0.3 2.2 0
v 0.4 2.2 0
v 0.3 2.2 -0.1
v 0.4 2.2 -0.1
v 0.4 2.2 -0.6
v 0.5 2.2 -0.6
v 0.4 2.2 -0.7
v 0.5 2.2 -0.7
v 0.2 2.3 -0.3
v 0.5 2.3 -0.3
v 0.2 2.3 -0.4
v 0.5 2.3 -0.4
v 0.2 2.3 -0.6
v 0.5 2.3 -0.6
v 0.2 2.3 -0.7
v 0.5 2.3 -0.7
v 0.2 2.3 -0.8
v 0.5 2.3 -0.8
v 0.2 2.3 -1.1
v 0.5 2.3 -1.1
v 0.2 2.3 -1.2
v 0.5 2.3 -1.2
v 0.3 2.4 -0.1
v 0.4 2.4 -0.1
v 0.3 2.4 -0.3
v 0.4 2.4 -0.3
v 0.2 2.5 -1.2
v 0.5 2.5 -1.2
v 0.2 2.5 -1.3
v 0.5 2.5 -1.3
v 0.3 2.2 -0.1
v 0.4 2.2 -0.1
v 0.2 2.2 -0.2
v 0.3 2.2 -0.2
v 0.4 2.2 -0.2
v 0.1 2.2 -0.3
v 0.2 2.2 -0.3
v 0.3 2.2 -0.3
v 0 2.2 -0.4
v 0.1 2.2 -0.4
v 0.2 2.2 -0.4
v 0 2.2 -0.5
v 0.1 2.2 -0.5
v 0.1 2.2 -0.6
v 0.2 2.2 -0.6
v 0.1 2.2 -0.7
v 0.2 2.2 -0.7
v 0 2.3 -0.5
v 0.1 2.3 -0.5
v 0 2.3 -0.8
v 0.1 2.3 -0.8
v 0.3 2.4 0
v 0.4 2.4 0
v 0.3 2.4 -0.1
v 0.4 2.4 -0.1
v 0.3 2.5 -0.1
v 0.4 2.5 -0.1
v 0.3 2.5 -0.3
v 0.4 2.5 -0.3
v 0.2 2.6 -0.3
v 0.5 2.6 -0.3
v 0.2 2.6 -0.4
v 0.5 2.6 -0.4
v 0.2 2.6 -1.3
v 0.5 2.6 -1.3

# faces
f 4/5/1 2/5/1 1/5/1
f 5/5/1 2/5/1 4/5/1
f 6/5/1 2/5/1 5/5/1
f 7/1/1 4/1/1 3/1/1
f 8/5/1 5/5/1 4/5/1
f 8/1/1 4/1/1 7/1/1
f 9/6/1 6/6/1 5/6/1
f 9/5/1 5/5/1 8/5/1
f 10/5/1 2/5/1 6/5/1
f 10/6/1 6/6/1 9/6/1
f 11/5/1 9/5/1 8/5/1
f 11/5/1 10/5/1 9/5/1
f 12/5/1 2/5/1 10/5/1
f 12/5/1 10/5/1 11/5/1
f 15/1/1 14/1/1 13/1/1
f 16/1/1 14/1/1 15/1/1
f 19/1/1 18/1/1 17/1/1
f 20/1/1 18/1/1 19/1/1
f 25/6/1 22/6/1 21/6/1
f 26/6/1 22/6/1 25/6/1
f 30/3/1 25/3/1 24/3/1
f 30/6/1 26/6/1 25/6/1
f 31/3/1 27/3/1 26/3/1
f 31/6/1 26/6/1 30/6/1
f 32/5/1 24/5/1 23/5/1
f 32/3/1 30/3/1 24/3/1
f 32/3/1 31/3/1 30/3/1
f 33/3/1 27/3/1 31/3/1
f 33/3/1 31/3/1 32/3/1
f 33/4/1 28/4/1 27/4/1
f 34/2/1 29/2/1 28/2/1
f 34/4/1 28/4/1 33/4/1
f 35/2/1 29/2/1 34/2/1
f 37/5/1 32/5/1 23/5/1
f 38/4/1 36/4/1 35/4/1
f 38/5/1 32/5/1 37/5/1
f 38/4/1 33/4/1 32/4/1
f 38/4/1 35/4/1 34/4/1
f 38/4/1 34/4/1 33/4/1
f 39/4/1 36/4/1 38/4/1
f 43/1/1 41/1/1 40/1/1
f 44/1/1 41/1/1 43/1/1
f 45/1/1 43/1/1 42/1/1
f 46/1/1 43/1/1 45/1/1
f 48/1/1 47/1/1 46/1/1
f 49/1/1 47/1/1 48/1/1
f 50/5/2 51/5/2 53/5/2
f 53/5/2 51/5/2 54/5/2
f 54/5/2 51/5/2 55/5/2
f 52/1/2 53/1/2 56/1/2
f 53/5/2 54/5/2 57/5/2
f 56/1/2 53/1/2 57/1/2
f 57/5/2 54/5/2 58/5/2
f 55/5/2 51/5/2 59/5/2
f 57/5/2 58/5/2 60/5/2
f 58/5/2 59/5/2 60/5/2
f 59/5/2 51/5/2 61/5/2
f 60/5/2 59/5/2 61/5/2
f 62/1/2 63/1/2 64/1/2
f 64/1/2 63/1/2 65/1/2
f 66/1/2 67/1/2 68/1/2
f 68/1/2 67/1/2 69/1/2
f 70/1/2 71/1/2 75/1/2
f 75/1/2 71/1/2 76/1/2
f 72/6/2 73/6/2 77/6/2
f 77/6/2 73/6/2 78/6/2
f 74/1/2 75/1/2 79/1/2
f 79/1/2 75/1/2 80/1/2
f 80/1/2 81/1/2 82/1/2
f 82/1/2 81/1/2 83/1/2
f 84/6/2 85/6/2 88/6/2
f 88/6/2 85/6/2 89/6/2
f 87/3/2 88/3/2 93/3/2
f 88/6/2 89/6/2 93/6/2
f 89/3/2 90/3/2 94/3/2
f 93/6/2 89/6/2 94/6/2
f 86/5/2 87/5/2 95/5/2
f 87/3/2 93/3/2 95/3/2
f 93/3/2 94/3/2 95/3/2
f 94/3/2 90/3/2 96/3/2
f 95/3/2 94/3/2 96/3/2
f 90/4/2 91/4/2 96/4/2
f 91/2/2 92/2/2 97/2/2
f 96/4/2 91/4/2 97/4/2
f 97/2/2 92/2/2 98/2/2
f 86/5/2 95/5/2 100/5/2
f 98/4/2 99/4/2 101/4/2
f 100/5/2 95/5/2 101/5/2
f 95/4/2 96/4/2 101/4/2
f 97/4/2 98/4/2 101/4/2
f 96/4/2 97/4/2 101/4/2
f 101/4/2 99/4/2 102/4/2
f 105/1/3 104/1/3 103/1/3
f 106/1/3 104/1/3 105/1/3
f 111/1/3 108/1/3 107/1/3
f 112/1/3 108/1/3 111/1/3
f 113/1/3 110/1/3 109/1/3
f 114/1/3 110/1/3 113/1/3
f 117/1/3 116/1/3 115/1/3
f 118/1/3 116/1/3 117/1/3
f 121/1/3 120/1/3 119/1/3
f 122/1/3 120/1/3 121/1/3
f 125/5/3 124/5/3 123/5/3
f 126/5/3 124/5/3 125/5/3
f 127/5/3 125/5/3 123/5/3
f 128/5/3 124/5/3 126/5/3
f 129/5/3 127/5/3 123/5/3
f 129/5/3 128/5/3 127/5/3
f 130/5/3 124/5/3 128/5/3
f 130/5/3 128/5/3 129/5/3
f 133/1/3 132/1/3 131/1/3
f 134/1/3 132/1/3 133/1/3
f 139/5/3 136/5/3 135/5/3
f 140/5/3 136/5/3 139/5/3
f 141/5/3 138/5/3 137/5/3
f 142/5/3 138/5/3 141/5/3
f 145/6/3 144/6/3 143/6/3
f 147/6/3 145/6/3 143/6/3
f 147/6/3 146/6/3 145/6/3
f 148/6/3 146/6/3 147/6/3
f 149/6/3 146/6/3 148/6/3
f 150/6/3 146/6/3 149/6/3
f 151/1/4 152/1/4 153/1/4
f 153/1/4 152/1/4 154/1/4
f 155/1/4 156/1/4 157/1/4
f 157/1/4 156/1/4 158/1/4
f 159/1/4 160/1/4 161/1/4
f 161/1/4 160/1/4 162/1/4
f 163/1/4 164/1/4 165/1/4
f 165/1/4 164/1/4 166/1/4
f 167/6/4 168/6/4 169/6/4
f 167/6/4 169/6/4 171/6/4
f 169/6/4 170/6/4 171/6/4
f 171/6/4 170/6/4 172/6/4
f 172/6/4 170/6/4 173/6/4
f 173/6/4 170/6/4 174/6/4
f 175/5/4 176/5/4 177/5/4
f 177/5/4 176/5/4 178/5/4
f 179/2/4 180/2/4 181/2/4
f 181/2/4 180/2/4 182/2/4
f 183/4/4 184/4/4 185/4/4
f 185/4/4 184/4/4 186/4/4
f 189/5/5 188/5/5 187/5/5
f 190/5/5 188/5/5 189/5/5
f 194/1/5 192/1/5 191/1/5
f 195/1/5 192/1/5 194/1/5
f 197/1/5 194/1/5 193/1/5
f 198/1/5 194/1/5 197/1/5
f 200/1/5 197/1/5 196/1/5
f 201/1/5 197/1/5 200/1/5
f 202/1/5 200/1/5 199/1/5
f 203/1/5 200/1/5 202/1/5
f 206/6/5 205/6/5 204/6/5
f 207/6/5 205/6/5 206/6/5
f 210/1/5 209/1/5 208/1/5
f 211/1/5 209/1/5 210/1/5
f 214/6/5 213/6/5 212/6/5
f 215/6/5 213/6/5 214/6/5
f 218/5/5 217/5/5 216/5/5
f 219/5/5 217/5/5 218/5/5
f 220/3/5 219/3/5 218/3/5
f 221/3/5 219/3/5 220/3/5
f 224/3/5 223/3/5 222/3/5
f 225/3/5 223/3/5 224/3/5
f 226/4/5 225/4/5 224/4/5
f 227/4/5 225/4/5 226/4/5
f 228/2/5 227/2/5 226/2/5
f 229/2/5 227/2/5 228/2/5
f 232/1/5 231/1/5 230/1/5
f 233/1/5 231/1/5 232/1/5
f 236/4/5 235/4/5 234/4/5
f 237/4/5 235/4/5 236/4/5
f 238/1/6 239/1/6 241/1/6
f 241/1/6 239/1/6 242/1/6
f 240/1/6 241/1/6 244/1/6
f 244/1/6 241/1/6 245/1/6
f 243/1/6 244/1/6 247/1/6
f 247/1/6 244/1/6 248/1/6
f 246/1/6 247/1/6 249/1/6
f 249/1/6 247/1/6 250/1/6
f 251/6/6 252/6/6 253/6/6
f 253/6/6 252/6/6 254/6/6
f 255/5/6 256/5/6 257/5/6
f 257/5/6 256/5/6 258/5/6
f 259/1/6 260/1/6 261/1/6
f 261/1/6 260/1/6 262/1/6
f 263/1/6 264/1/6 265/1/6
f 265/1/6 264/1/6 266/1/6
f 267/5/6 268/5/6 269/5/6
f 269/5/6 268/5/6 270/5/6
f 269/4/6 270/4/6 271/4/6
f 271/4/6 270/4/6 272/4/6
