# 3ds Max Wavefront OBJ Exporter v0.97b - (c)2007 guruware
# File Created: 05.11.2019 12:41:56

mtllib Feuille Papier.mtl

#
# object Feuille_Papier
#

v  -0.3500 0.1000 0.1500
v  -0.3500 0.0000 0.0500
v  -0.3500 0.0000 0.1500
v  -0.3500 0.1000 0.0500
v  -0.2500 0.1000 0.2500
v  -0.2500 0.0000 0.1500
v  -0.2500 0.0000 0.2500
v  -0.2500 0.1000 0.1500
v  -0.2500 0.1000 0.0500
v  -0.2500 0.0000 -0.0500
v  -0.2500 0.0000 0.0500
v  -0.2500 0.1000 -0.0500
v  -0.1500 0.1000 0.3500
v  -0.1500 0.0000 0.2500
v  -0.1500 0.0000 0.3500
v  -0.1500 0.1000 0.2500
v  -0.1500 0.1000 -0.0500
v  -0.1500 0.0000 -0.1500
v  -0.1500 0.0000 -0.0500
v  -0.1500 0.1000 -0.1500
v  -0.0500 0.1000 -0.1500
v  -0.0500 0.0000 -0.2500
v  -0.0500 0.0000 -0.1500
v  -0.0500 0.1000 -0.2500
v  0.0500 0.2000 -0.2500
v  0.0500 0.1000 -0.3500
v  0.0500 0.1000 -0.2500
v  0.0500 0.2000 -0.3500
v  0.0500 0.0000 0.3500
v  0.0500 0.0000 0.2500
v  0.0500 0.1000 0.3500
v  0.0500 0.1000 0.2500
v  0.1500 0.0000 0.2500
v  0.1500 0.0000 0.1500
v  0.1500 0.1000 0.2500
v  0.1500 0.1000 0.1500
v  0.1500 0.1000 -0.2500
v  0.1500 0.1000 -0.3500
v  0.1500 0.2000 -0.2500
v  0.1500 0.2000 -0.3500
v  0.2500 0.0000 0.1500
v  0.2500 0.0000 0.0500
v  0.2500 0.1000 0.1500
v  0.2500 0.1000 0.0500
v  0.2500 0.0000 -0.1500
v  0.2500 0.0000 -0.2500
v  0.2500 0.1000 -0.1500
v  0.2500 0.1000 -0.2500
v  0.3500 0.0000 0.0500
v  0.3500 0.0000 -0.0500
v  0.3500 0.1000 0.0500
v  0.3500 0.0000 -0.1500
v  0.3500 0.1000 -0.0500
v  0.3500 0.1000 -0.1500
v  -0.0500 0.0000 0.3500
v  -0.0500 0.1000 0.3500
v  0.0500 0.0000 -0.2500
v  0.1500 0.0000 -0.2500
v  -0.0500 0.0000 0.2500
v  -0.1500 0.0000 0.1500
v  -0.0500 0.0000 0.1500
v  0.0500 0.0000 0.1500
v  -0.1500 0.0000 0.0500
v  -0.0500 0.0000 0.0500
v  0.0500 0.0000 0.0500
v  -0.0500 0.0000 -0.0500
v  0.0500 0.0000 -0.0500
v  0.1500 0.0000 -0.0500
v  0.2500 0.0000 -0.0500
v  0.0500 0.0000 -0.1500
v  0.1500 0.0000 -0.1500
v  -0.0500 0.1000 0.2500
v  -0.1500 0.1000 0.1500
v  -0.0500 0.1000 0.1500
v  0.0500 0.1000 0.1500
v  -0.1500 0.1000 0.0500
v  -0.0500 0.1000 0.0500
v  0.0500 0.1000 0.0500
v  -0.0500 0.1000 -0.0500
v  0.0500 0.1000 -0.0500
v  0.1500 0.1000 -0.0500
v  0.2500 0.1000 -0.0500
v  0.0500 0.1000 -0.1500
v  0.1500 0.1000 -0.1500
# 84 vertices

vn -1.0000 0.0000 -0.0000
vn 1.0000 0.0000 -0.0000
vn 0.0000 0.0000 1.0000
vn 0.0000 0.0000 -1.0000
vn 0.0000 -1.0000 -0.0000
vn 0.0000 1.0000 -0.0000
# 6 vertex normals

vt 0.9668 0.5000 0.0000
vt 0.9590 0.5000 0.0000
vt 0.9629 0.5000 0.0000
# 3 texture coords

o Feuille_Papier
g Feuille_Papier
usemtl Feuille_Papier_palette
s 1
f 1/1/1 2/1/1 3/1/1 
f 4/1/1 2/1/1 1/1/1 
f 5/2/1 6/2/1 7/2/1 
f 8/2/1 6/2/1 5/2/1 
f 9/2/1 10/2/1 11/2/1 
f 12/2/1 10/2/1 9/2/1 
f 13/2/1 14/2/1 15/2/1 
f 16/2/1 14/2/1 13/2/1 
f 17/2/1 18/2/1 19/2/1 
f 20/2/1 18/2/1 17/2/1 
f 21/2/1 22/2/1 23/2/1 
f 24/2/1 22/2/1 21/2/1 
f 25/2/1 26/2/1 27/2/1 
f 28/2/1 26/2/1 25/2/1 
f 29/3/2 30/3/2 31/3/2 
f 31/3/2 30/3/2 32/3/2 
f 33/2/2 34/2/2 35/2/2 
f 35/2/2 34/2/2 36/2/2 
f 37/2/2 38/2/2 39/2/2 
f 39/2/2 38/2/2 40/2/2 
f 41/2/2 42/2/2 43/2/2 
f 43/2/2 42/2/2 44/2/2 
f 45/1/2 46/1/2 47/1/2 
f 47/1/2 46/1/2 48/1/2 
f 49/1/2 50/1/2 51/1/2 
f 50/2/2 52/2/2 53/2/2 
f 51/1/2 50/1/2 53/1/2 
f 53/2/2 52/2/2 54/2/2 
f 55/2/3 13/2/3 15/2/3 
f 56/2/3 13/2/3 55/2/3 
f 29/3/3 56/3/3 55/3/3 
f 31/3/3 56/3/3 29/3/3 
f 14/2/3 5/2/3 7/2/3 
f 16/2/3 5/2/3 14/2/3 
f 33/2/3 32/2/3 30/2/3 
f 35/2/3 32/2/3 33/2/3 
f 6/1/3 1/1/3 3/1/3 
f 8/1/3 1/1/3 6/1/3 
f 41/2/3 36/2/3 34/2/3 
f 43/2/3 36/2/3 41/2/3 
f 49/1/3 44/1/3 42/1/3 
f 51/1/3 44/1/3 49/1/3 
f 37/2/3 25/2/3 27/2/3 
f 39/2/3 25/2/3 37/2/3 
f 2/1/4 4/1/4 11/1/4 
f 11/1/4 4/1/4 9/1/4 
f 10/2/4 12/2/4 19/2/4 
f 19/2/4 12/2/4 17/2/4 
f 18/2/4 20/2/4 23/2/4 
f 23/2/4 20/2/4 21/2/4 
f 45/2/4 47/2/4 52/2/4 
f 52/2/4 47/2/4 54/2/4 
f 22/2/4 24/2/4 57/2/4 
f 57/2/4 24/2/4 27/2/4 
f 57/3/4 27/3/4 58/3/4 
f 58/3/4 27/3/4 37/3/4 
f 58/1/4 37/1/4 46/1/4 
f 46/1/4 37/1/4 48/1/4 
f 26/2/4 28/2/4 38/2/4 
f 38/2/4 28/2/4 40/2/4 
f 14/2/5 55/2/5 15/2/5 
f 59/3/5 29/3/5 55/3/5 
f 59/2/5 55/2/5 14/2/5 
f 30/3/5 29/3/5 59/3/5 
f 6/2/5 14/2/5 7/2/5 
f 6/2/5 33/2/5 30/2/5 
f 6/2/5 30/2/5 59/2/5 
f 6/2/5 59/2/5 14/2/5 
f 60/2/5 33/2/5 6/2/5 
f 61/2/5 33/2/5 60/2/5 
f 62/2/5 33/2/5 61/2/5 
f 34/2/5 33/2/5 62/2/5 
f 2/1/5 6/1/5 3/1/5 
f 11/2/5 60/2/5 6/2/5 
f 11/1/5 6/1/5 2/1/5 
f 63/3/5 61/3/5 60/3/5 
f 63/2/5 60/2/5 11/2/5 
f 64/1/5 62/1/5 61/1/5 
f 64/3/5 61/3/5 63/3/5 
f 65/2/5 41/2/5 34/2/5 
f 65/1/5 62/1/5 64/1/5 
f 65/2/5 34/2/5 62/2/5 
f 42/2/5 41/2/5 65/2/5 
f 10/2/5 64/2/5 63/2/5 
f 10/2/5 63/2/5 11/2/5 
f 19/2/5 64/2/5 10/2/5 
f 66/3/5 65/3/5 64/3/5 
f 66/2/5 64/2/5 19/2/5 
f 67/2/5 42/2/5 65/2/5 
f 67/3/5 65/3/5 66/3/5 
f 68/2/5 42/2/5 67/2/5 
f 69/1/5 49/1/5 42/1/5 
f 69/2/5 42/2/5 68/2/5 
f 50/1/5 49/1/5 69/1/5 
f 18/2/5 68/2/5 67/2/5 
f 18/2/5 66/2/5 19/2/5 
f 18/2/5 67/2/5 66/2/5 
f 23/2/5 68/2/5 18/2/5 
f 70/2/5 68/2/5 23/2/5 
f 71/3/5 69/3/5 68/3/5 
f 71/2/5 68/2/5 70/2/5 
f 45/2/5 50/2/5 69/2/5 
f 45/3/5 69/3/5 71/3/5 
f 52/2/5 50/2/5 45/2/5 
f 22/2/5 70/2/5 23/2/5 
f 57/3/5 71/3/5 70/3/5 
f 57/2/5 70/2/5 22/2/5 
f 58/1/5 45/1/5 71/1/5 
f 58/3/5 71/3/5 57/3/5 
f 46/1/5 45/1/5 58/1/5 
f 26/2/5 37/2/5 27/2/5 
f 38/2/5 37/2/5 26/2/5 
f 13/2/6 56/2/6 16/2/6 
f 56/3/6 31/3/6 72/3/6 
f 16/2/6 56/2/6 72/2/6 
f 72/3/6 31/3/6 32/3/6 
f 5/2/6 16/2/6 8/2/6 
f 32/2/6 35/2/6 8/2/6 
f 72/2/6 32/2/6 8/2/6 
f 16/2/6 72/2/6 8/2/6 
f 8/2/6 35/2/6 73/2/6 
f 73/2/6 35/2/6 74/2/6 
f 74/2/6 35/2/6 75/2/6 
f 75/2/6 35/2/6 36/2/6 
f 1/1/6 8/1/6 4/1/6 
f 8/2/6 73/2/6 9/2/6 
f 4/1/6 8/1/6 9/1/6 
f 73/3/6 74/3/6 76/3/6 
f 9/2/6 73/2/6 76/2/6 
f 74/1/6 75/1/6 77/1/6 
f 76/3/6 74/3/6 77/3/6 
f 36/2/6 43/2/6 78/2/6 
f 77/1/6 75/1/6 78/1/6 
f 75/2/6 36/2/6 78/2/6 
f 78/2/6 43/2/6 44/2/6 
f 76/2/6 77/2/6 12/2/6 
f 9/2/6 76/2/6 12/2/6 
f 12/2/6 77/2/6 17/2/6 
f 77/3/6 78/3/6 79/3/6 
f 17/2/6 77/2/6 79/2/6 
f 78/2/6 44/2/6 80/2/6 
f 79/3/6 78/3/6 80/3/6 
f 80/2/6 44/2/6 81/2/6 
f 44/1/6 51/1/6 82/1/6 
f 81/2/6 44/2/6 82/2/6 
f 82/1/6 51/1/6 53/1/6 
f 80/2/6 81/2/6 20/2/6 
f 17/2/6 79/2/6 20/2/6 
f 79/2/6 80/2/6 20/2/6 
f 20/2/6 81/2/6 21/2/6 
f 21/2/6 81/2/6 83/2/6 
f 81/3/6 82/3/6 84/3/6 
f 83/2/6 81/2/6 84/2/6 
f 82/2/6 53/2/6 47/2/6 
f 84/3/6 82/3/6 47/3/6 
f 47/2/6 53/2/6 54/2/6 
f 21/2/6 83/2/6 24/2/6 
f 83/3/6 84/3/6 27/3/6 
f 24/2/6 83/2/6 27/2/6 
f 84/1/6 47/1/6 37/1/6 
f 27/3/6 84/3/6 37/3/6 
f 37/1/6 47/1/6 48/1/6 
f 25/2/6 39/2/6 28/2/6 
f 28/2/6 39/2/6 40/2/6 
# 0 polygons - 164 triangles

