# 3ds Max Wavefront OBJ Exporter v0.97b - (c)2007 guruware
# File Created: 05.11.2019 12:32:32

mtllib Cigarette.mtl

#
# object Cigarette
#

v  0.0000 0.0500 -0.0000
v  0.0000 -0.0500 -0.1000
v  0.0000 -0.0500 -0.0000
v  0.0000 0.0500 -0.1000
v  0.4000 -0.0500 -0.0000
v  0.4000 -0.0500 -0.1000
v  0.4000 0.0500 -0.0000
v  0.4000 0.0500 -0.1000
v  0.3000 -0.0500 -0.0000
v  0.3000 0.0500 -0.0000
v  0.3000 -0.0500 -0.1000
v  0.3000 0.0500 -0.1000
# 12 vertices

vn -1.0000 0.0000 -0.0000
vn 1.0000 0.0000 -0.0000
vn 0.0000 0.0000 1.0000
vn 0.0000 0.0000 -1.0000
vn 0.0000 -1.0000 -0.0000
vn 0.0000 1.0000 -0.0000
# 6 vertex normals

vt 0.9590 0.5000 0.0000
vt 0.2441 0.5000 0.0000
# 2 texture coords

o Cigarette
g Cigarette
usemtl palette
s 1
f 1/1/1 2/1/1 3/1/1 
f 4/1/1 2/1/1 1/1/1 
f 5/2/2 6/2/2 7/2/2 
f 7/2/2 6/2/2 8/2/2 
f 9/1/3 1/1/3 3/1/3 
f 10/1/3 1/1/3 9/1/3 
f 5/2/3 10/2/3 9/2/3 
f 7/2/3 10/2/3 5/2/3 
f 2/1/4 4/1/4 11/1/4 
f 11/1/4 4/1/4 12/1/4 
f 11/2/4 12/2/4 6/2/4 
f 6/2/4 12/2/4 8/2/4 
f 2/1/5 9/1/5 3/1/5 
f 11/2/5 5/2/5 9/2/5 
f 11/1/5 9/1/5 2/1/5 
f 6/2/5 5/2/5 11/2/5 
f 1/1/6 10/1/6 4/1/6 
f 10/2/6 7/2/6 12/2/6 
f 4/1/6 10/1/6 12/1/6 
f 12/2/6 7/2/6 8/2/6 
# 0 polygons - 20 triangles

