# MagicaVoxel @ Ephtracy

# group
o 

# material
mtllib porte_petit_coffre.mtl
usemtl palette

# normals
vn -1 0 0
vn 1 0 0
vn 0 0 1
vn 0 0 -1
vn 0 -1 0
vn 0 1 0

# texcoords
vt 0.337891 0.5
vt 0.341797 0.5
vt 0.369141 0.5
vt 0.982422 0.5
vt 0.990234 0.5
vt 0.994141 0.5

# verts
v 0 2 -0.1
v 0 2 -0.2
v 0 4.5 -0.1
v 0 4.5 -0.2
v 0.1 2.1 0
v 0.1 2.1 -0.1
v 0.1 2.9 -0.3
v 0.1 2.9 -0.4
v 0.1 3.2 -0.3
v 0.1 3.2 -0.4
v 0.1 4.4 0
v 0.1 4.4 -0.1
v 0.2 2.8 -0.3
v 0.2 2.8 -0.4
v 0.2 2.9 -0.3
v 0.2 2.9 -0.4
v 0.2 3.2 -0.3
v 0.2 3.2 -0.4
v 0.2 3.3 -0.3
v 0.2 3.3 -0.4
v 0.3 2.9 -0.3
v 0.3 2.9 -0.4
v 0.3 3 -0.2
v 0.3 3 -0.3
v 0.3 3 -0.4
v 0.3 3.1 -0.2
v 0.3 3.1 -0.3
v 0.3 3.1 -0.4
v 0.3 3.2 -0.2
v 0.3 3.2 -0.3
v 0.3 3.2 -0.4
v 0.5 2.9 -0.3
v 0.5 2.9 -0.4
v 0.5 3 -0.3
v 0.5 3 -0.4
v 0.5 3.1 -0.3
v 0.5 3.1 -0.4
v 0.5 3.2 -0.3
v 0.5 3.2 -0.4
v 0.6 2.9 -0.2
v 0.6 2.9 -0.3
v 0.6 3 -0.2
v 0.6 3 -0.3
v 0.8 3.6 -0.2
v 0.8 3.6 -0.3
v 0.8 3.9 -0.2
v 0.8 3.9 -0.3
v 1 3.7 -0.2
v 1 3.7 -0.3
v 1 3.8 -0.2
v 1 3.8 -0.3
v 1.2 3.7 -0.2
v 1.2 3.7 -0.3
v 1.2 3.8 -0.2
v 1.2 3.8 -0.3
v 1.4 3.7 -0.2
v 1.4 3.7 -0.3
v 1.4 3.8 -0.2
v 1.4 3.8 -0.3
v 1.6 3.7 -0.2
v 1.6 3.7 -0.3
v 1.6 3.8 -0.2
v 1.6 3.8 -0.3
v 0.2 2.9 -0.3
v 0.2 2.9 -0.4
v 0.2 3 -0.3
v 0.2 3 -0.4
v 0.2 3.1 -0.3
v 0.2 3.1 -0.4
v 0.2 3.2 -0.3
v 0.2 3.2 -0.4
v 0.4 2.9 -0.3
v 0.4 2.9 -0.4
v 0.4 3 -0.3
v 0.4 3 -0.4
v 0.4 3.1 -0.2
v 0.4 3.1 -0.3
v 0.4 3.1 -0.4
v 0.4 3.2 -0.2
v 0.4 3.2 -0.3
v 0.4 3.2 -0.4
v 0.5 2.8 -0.3
v 0.5 2.8 -0.4
v 0.5 2.9 -0.3
v 0.5 2.9 -0.4
v 0.5 3.2 -0.3
v 0.5 3.2 -0.4
v 0.5 3.3 -0.3
v 0.5 3.3 -0.4
v 0.6 2.9 -0.3
v 0.6 2.9 -0.4
v 0.6 3.1 -0.3
v 0.6 3.2 -0.3
v 0.6 3.2 -0.4
v 0.9 3.7 -0.2
v 0.9 3.7 -0.3
v 0.9 3.8 -0.2
v 0.9 3.8 -0.3
v 1.1 3.7 -0.2
v 1.1 3.7 -0.3
v 1.1 3.8 -0.2
v 1.1 3.8 -0.3
v 1.3 3.7 -0.2
v 1.3 3.7 -0.3
v 1.3 3.8 -0.2
v 1.3 3.8 -0.3
v 1.5 3.7 -0.2
v 1.5 3.7 -0.3
v 1.5 3.8 -0.2
v 1.5 3.8 -0.3
v 1.7 3.6 -0.2
v 1.7 3.6 -0.3
v 1.7 3.9 -0.2
v 1.7 3.9 -0.3
v 1.9 2.1 0
v 1.9 2.1 -0.1
v 1.9 4.4 0
v 1.9 4.4 -0.1
v 2 2.2 -0.1
v 2 2.2 -0.2
v 2 2.9 -0.2
v 2 2.9 -0.3
v 2 3.1 -0.2
v 2 3.1 -0.3
v 2 4.3 -0.1
v 2 4.3 -0.2
v 2.1 2 -0.1
v 2.1 2 -0.2
v 2.1 2.2 -0.1
v 2.1 2.2 -0.2
v 2.1 4.3 -0.1
v 2.1 4.3 -0.2
v 2.1 4.5 -0.1
v 2.1 4.5 -0.2
v 0.1 2.1 0
v 0.1 4.4 0
v 1.9 2.1 0
v 1.9 4.4 0
v 0 2 -0.1
v 0 4.5 -0.1
v 0.1 2.1 -0.1
v 0.1 4.4 -0.1
v 1.9 2.1 -0.1
v 1.9 4.4 -0.1
v 2 2 -0.1
v 2 2.2 -0.1
v 2 4.3 -0.1
v 2 4.5 -0.1
v 2.1 2 -0.1
v 2.1 2.2 -0.1
v 2.1 4.3 -0.1
v 2.1 4.5 -0.1
v 0.1 2.9 -0.3
v 0.1 3.2 -0.3
v 0.2 2.8 -0.3
v 0.2 2.9 -0.3
v 0.2 3 -0.3
v 0.2 3.1 -0.3
v 0.2 3.2 -0.3
v 0.2 3.3 -0.3
v 0.3 2.9 -0.3
v 0.3 3 -0.3
v 0.3 3.1 -0.3
v 0.3 3.2 -0.3
v 0.4 2.9 -0.3
v 0.4 3 -0.3
v 0.4 3.2 -0.3
v 0.5 2.8 -0.3
v 0.5 2.9 -0.3
v 0.5 3 -0.3
v 0.5 3.1 -0.3
v 0.5 3.2 -0.3
v 0.5 3.3 -0.3
v 0.6 2.9 -0.3
v 0.6 3 -0.3
v 0.6 3.1 -0.3
v 0.6 3.2 -0.3
v 0 2 -0.2
v 0 4.5 -0.2
v 0.1 2.1 -0.2
v 0.1 4.4 -0.2
v 0.3 3 -0.2
v 0.3 3.1 -0.2
v 0.3 3.2 -0.2
v 0.4 3 -0.2
v 0.4 3.1 -0.2
v 0.4 3.2 -0.2
v 0.6 2.9 -0.2
v 0.6 3 -0.2
v 0.8 3.6 -0.2
v 0.8 3.9 -0.2
v 0.9 3.7 -0.2
v 0.9 3.8 -0.2
v 1 3.7 -0.2
v 1 3.8 -0.2
v 1.1 3.7 -0.2
v 1.1 3.8 -0.2
v 1.2 3.7 -0.2
v 1.2 3.8 -0.2
v 1.3 3.7 -0.2
v 1.3 3.8 -0.2
v 1.4 3.7 -0.2
v 1.4 3.8 -0.2
v 1.5 3.7 -0.2
v 1.5 3.8 -0.2
v 1.6 3.7 -0.2
v 1.6 3.8 -0.2
v 1.7 3.6 -0.2
v 1.7 3.9 -0.2
v 1.9 2.1 -0.2
v 1.9 2.9 -0.2
v 1.9 3.1 -0.2
v 1.9 4.4 -0.2
v 2 2 -0.2
v 2 2.2 -0.2
v 2 2.9 -0.2
v 2 3.1 -0.2
v 2 4.3 -0.2
v 2 4.5 -0.2
v 2.1 2 -0.2
v 2.1 2.2 -0.2
v 2.1 4.3 -0.2
v 2.1 4.5 -0.2
v 0.6 2.9 -0.3
v 0.6 3.1 -0.3
v 0.8 3.6 -0.3
v 0.8 3.9 -0.3
v 0.9 3.7 -0.3
v 0.9 3.8 -0.3
v 1 3.7 -0.3
v 1 3.8 -0.3
v 1.1 3.7 -0.3
v 1.1 3.8 -0.3
v 1.2 3.7 -0.3
v 1.2 3.8 -0.3
v 1.3 3.7 -0.3
v 1.3 3.8 -0.3
v 1.4 3.7 -0.3
v 1.4 3.8 -0.3
v 1.5 3.7 -0.3
v 1.5 3.8 -0.3
v 1.6 3.7 -0.3
v 1.6 3.8 -0.3
v 1.7 3.6 -0.3
v 1.7 3.9 -0.3
v 2 2.9 -0.3
v 2 3.1 -0.3
v 0.1 2.9 -0.4
v 0.1 3.2 -0.4
v 0.2 2.8 -0.4
v 0.2 2.9 -0.4
v 0.2 3 -0.4
v 0.2 3.1 -0.4
v 0.2 3.2 -0.4
v 0.2 3.3 -0.4
v 0.3 2.9 -0.4
v 0.3 3 -0.4
v 0.3 3.1 -0.4
v 0.3 3.2 -0.4
v 0.4 2.9 -0.4
v 0.4 3 -0.4
v 0.4 3.1 -0.4
v 0.4 3.2 -0.4
v 0.5 2.8 -0.4
v 0.5 2.9 -0.4
v 0.5 3 -0.4
v 0.5 3.1 -0.4
v 0.5 3.2 -0.4
v 0.5 3.3 -0.4
v 0.6 2.9 -0.4
v 0.6 3.2 -0.4
v 0 2 -0.1
v 2 2 -0.1
v 2.1 2 -0.1
v 0 2 -0.2
v 2 2 -0.2
v 2.1 2 -0.2
v 0.1 2.1 0
v 1.9 2.1 0
v 0.1 2.1 -0.1
v 1.9 2.1 -0.1
v 0.2 2.8 -0.3
v 0.5 2.8 -0.3
v 0.2 2.8 -0.4
v 0.5 2.8 -0.4
v 0.6 2.9 -0.2
v 1.9 2.9 -0.2
v 2 2.9 -0.2
v 0.1 2.9 -0.3
v 0.2 2.9 -0.3
v 0.5 2.9 -0.3
v 0.6 2.9 -0.3
v 2 2.9 -0.3
v 0.1 2.9 -0.4
v 0.2 2.9 -0.4
v 0.5 2.9 -0.4
v 0.6 2.9 -0.4
v 0.3 3 -0.2
v 0.4 3 -0.2
v 0.6 3 -0.2
v 0.2 3 -0.3
v 0.3 3 -0.3
v 0.4 3 -0.3
v 0.5 3 -0.3
v 0.6 3 -0.3
v 0.2 3 -0.4
v 0.3 3 -0.4
v 0.4 3 -0.4
v 0.5 3 -0.4
v 0.2 3.2 -0.3
v 0.3 3.2 -0.3
v 0.4 3.2 -0.3
v 0.5 3.2 -0.3
v 0.2 3.2 -0.4
v 0.3 3.2 -0.4
v 0.4 3.2 -0.4
v 0.5 3.2 -0.4
v 0.8 3.6 -0.2
v 1.7 3.6 -0.2
v 0.8 3.6 -0.3
v 1.7 3.6 -0.3
v 0.9 3.8 -0.2
v 1 3.8 -0.2
v 1.1 3.8 -0.2
v 1.2 3.8 -0.2
v 1.3 3.8 -0.2
v 1.4 3.8 -0.2
v 1.5 3.8 -0.2
v 1.6 3.8 -0.2
v 0.9 3.8 -0.3
v 1 3.8 -0.3
v 1.1 3.8 -0.3
v 1.2 3.8 -0.3
v 1.3 3.8 -0.3
v 1.4 3.8 -0.3
v 1.5 3.8 -0.3
v 1.6 3.8 -0.3
v 2 4.3 -0.1
v 2.1 4.3 -0.1
v 2 4.3 -0.2
v 2.1 4.3 -0.2
v 2 2.2 -0.1
v 2.1 2.2 -0.1
v 2 2.2 -0.2
v 2.1 2.2 -0.2
v 0.2 2.9 -0.3
v 0.3 2.9 -0.3
v 0.4 2.9 -0.3
v 0.5 2.9 -0.3
v 0.2 2.9 -0.4
v 0.3 2.9 -0.4
v 0.4 2.9 -0.4
v 0.5 2.9 -0.4
v 0.4 3.1 -0.2
v 1.9 3.1 -0.2
v 2 3.1 -0.2
v 0.2 3.1 -0.3
v 0.3 3.1 -0.3
v 0.4 3.1 -0.3
v 0.5 3.1 -0.3
v 0.6 3.1 -0.3
v 2 3.1 -0.3
v 0.2 3.1 -0.4
v 0.3 3.1 -0.4
v 0.4 3.1 -0.4
v 0.5 3.1 -0.4
v 0.3 3.2 -0.2
v 0.4 3.2 -0.2
v 0.1 3.2 -0.3
v 0.2 3.2 -0.3
v 0.3 3.2 -0.3
v 0.4 3.2 -0.3
v 0.5 3.2 -0.3
v 0.6 3.2 -0.3
v 0.1 3.2 -0.4
v 0.2 3.2 -0.4
v 0.5 3.2 -0.4
v 0.6 3.2 -0.4
v 0.2 3.3 -0.3
v 0.5 3.3 -0.3
v 0.2 3.3 -0.4
v 0.5 3.3 -0.4
v 0.9 3.7 -0.2
v 1 3.7 -0.2
v 1.1 3.7 -0.2
v 1.2 3.7 -0.2
v 1.3 3.7 -0.2
v 1.4 3.7 -0.2
v 1.5 3.7 -0.2
v 1.6 3.7 -0.2
v 0.9 3.7 -0.3
v 1 3.7 -0.3
v 1.1 3.7 -0.3
v 1.2 3.7 -0.3
v 1.3 3.7 -0.3
v 1.4 3.7 -0.3
v 1.5 3.7 -0.3
v 1.6 3.7 -0.3
v 0.8 3.9 -0.2
v 1.7 3.9 -0.2
v 0.8 3.9 -0.3
v 1.7 3.9 -0.3
v 0.1 4.4 0
v 1.9 4.4 0
v 0.1 4.4 -0.1
v 1.9 4.4 -0.1
v 0 4.5 -0.1
v 2 4.5 -0.1
v 2.1 4.5 -0.1
v 0 4.5 -0.2
v 2 4.5 -0.2
v 2.1 4.5 -0.2

# faces
f 3/4/1 2/4/1 1/4/1
f 4/4/1 2/4/1 3/4/1
f 9/3/1 8/3/1 7/3/1
f 10/3/1 8/3/1 9/3/1
f 11/6/1 6/6/1 5/6/1
f 12/6/1 6/6/1 11/6/1
f 15/3/1 14/3/1 13/3/1
f 16/3/1 14/3/1 15/3/1
f 19/3/1 18/3/1 17/3/1
f 20/3/1 18/3/1 19/3/1
f 24/1/1 22/1/1 21/1/1
f 25/1/1 22/1/1 24/1/1
f 26/2/1 24/2/1 23/2/1
f 27/2/1 24/2/1 26/2/1
f 29/5/1 27/5/1 26/5/1
f 30/1/1 28/1/1 27/1/1
f 30/5/1 27/5/1 29/5/1
f 31/1/1 28/1/1 30/1/1
f 34/3/1 33/3/1 32/3/1
f 35/3/1 33/3/1 34/3/1
f 38/3/1 37/3/1 36/3/1
f 39/3/1 37/3/1 38/3/1
f 42/5/1 41/5/1 40/5/1
f 43/5/1 41/5/1 42/5/1
f 46/5/1 45/5/1 44/5/1
f 47/5/1 45/5/1 46/5/1
f 50/5/1 49/5/1 48/5/1
f 51/5/1 49/5/1 50/5/1
f 54/5/1 53/5/1 52/5/1
f 55/5/1 53/5/1 54/5/1
f 58/5/1 57/5/1 56/5/1
f 59/5/1 57/5/1 58/5/1
f 62/5/1 61/5/1 60/5/1
f 63/5/1 61/5/1 62/5/1
f 64/3/2 65/3/2 66/3/2
f 66/3/2 65/3/2 67/3/2
f 68/3/2 69/3/2 70/3/2
f 70/3/2 69/3/2 71/3/2
f 72/1/2 73/1/2 74/1/2
f 74/1/2 73/1/2 75/1/2
f 76/5/2 77/5/2 79/5/2
f 77/1/2 78/1/2 80/1/2
f 79/5/2 77/5/2 80/5/2
f 80/1/2 78/1/2 81/1/2
f 82/3/2 83/3/2 84/3/2
f 84/3/2 83/3/2 85/3/2
f 86/3/2 87/3/2 88/3/2
f 88/3/2 87/3/2 89/3/2
f 90/3/2 91/3/2 92/3/2
f 92/3/2 91/3/2 93/3/2
f 93/3/2 91/3/2 94/3/2
f 95/5/2 96/5/2 97/5/2
f 97/5/2 96/5/2 98/5/2
f 99/5/2 100/5/2 101/5/2
f 101/5/2 100/5/2 102/5/2
f 103/5/2 104/5/2 105/5/2
f 105/5/2 104/5/2 106/5/2
f 107/5/2 108/5/2 109/5/2
f 109/5/2 108/5/2 110/5/2
f 111/5/2 112/5/2 113/5/2
f 113/5/2 112/5/2 114/5/2
f 115/6/2 116/6/2 117/6/2
f 117/6/2 116/6/2 118/6/2
f 119/4/2 120/4/2 121/4/2
f 119/4/2 121/4/2 123/4/2
f 121/5/2 122/5/2 123/5/2
f 123/5/2 122/5/2 124/5/2
f 119/4/2 123/4/2 125/4/2
f 125/4/2 123/4/2 126/4/2
f 127/3/2 128/3/2 129/3/2
f 129/3/2 128/3/2 130/3/2
f 131/3/2 132/3/2 133/3/2
f 133/3/2 132/3/2 134/3/2
f 137/6/3 136/6/3 135/6/3
f 138/6/3 136/6/3 137/6/3
f 141/4/3 140/4/3 139/4/3
f 142/4/3 140/4/3 141/4/3
f 143/4/3 141/4/3 139/4/3
f 144/4/3 140/4/3 142/4/3
f 145/4/3 143/4/3 139/4/3
f 145/4/3 144/4/3 143/4/3
f 146/4/3 144/4/3 145/4/3
f 147/4/3 144/4/3 146/4/3
f 148/4/3 140/4/3 144/4/3
f 148/4/3 144/4/3 147/4/3
f 149/3/3 146/3/3 145/3/3
f 150/3/3 146/3/3 149/3/3
f 151/3/3 148/3/3 147/3/3
f 152/3/3 148/3/3 151/3/3
f 156/3/3 154/3/3 153/3/3
f 157/3/3 154/3/3 156/3/3
f 158/3/3 154/3/3 157/3/3
f 159/3/3 154/3/3 158/3/3
f 161/3/3 156/3/3 155/3/3
f 162/1/3 158/1/3 157/1/3
f 163/1/3 158/1/3 162/1/3
f 164/3/3 160/3/3 159/3/3
f 165/3/3 161/3/3 155/3/3
f 165/1/3 162/1/3 161/1/3
f 166/1/3 162/1/3 165/1/3
f 167/3/3 160/3/3 164/3/3
f 168/3/3 165/3/3 155/3/3
f 169/3/3 165/3/3 168/3/3
f 172/3/3 160/3/3 167/3/3
f 173/3/3 160/3/3 172/3/3
f 174/3/3 170/3/3 169/3/3
f 175/3/3 170/3/3 174/3/3
f 176/3/3 172/3/3 171/3/3
f 177/3/3 172/3/3 176/3/3
f 178/4/4 179/4/4 180/4/4
f 180/4/4 179/4/4 181/4/4
f 180/5/4 181/5/4 182/5/4
f 182/5/4 181/5/4 183/5/4
f 183/5/4 181/5/4 184/5/4
f 180/5/4 182/5/4 185/5/4
f 184/5/4 181/5/4 187/5/4
f 180/5/4 185/5/4 188/5/4
f 188/5/4 185/5/4 189/5/4
f 186/5/4 187/5/4 190/5/4
f 187/5/4 181/5/4 190/5/4
f 190/5/4 181/5/4 191/5/4
f 192/3/4 193/3/4 194/3/4
f 194/3/4 193/3/4 195/3/4
f 196/3/4 197/3/4 198/3/4
f 198/3/4 197/3/4 199/3/4
f 200/3/4 201/3/4 202/3/4
f 202/3/4 201/3/4 203/3/4
f 204/3/4 205/3/4 206/3/4
f 206/3/4 205/3/4 207/3/4
f 186/5/4 190/5/4 208/5/4
f 191/5/4 181/5/4 209/5/4
f 178/4/4 180/4/4 210/4/4
f 180/5/4 188/5/4 210/5/4
f 210/5/4 188/5/4 211/5/4
f 208/5/4 209/5/4 212/5/4
f 186/5/4 208/5/4 212/5/4
f 181/4/4 179/4/4 213/4/4
f 212/5/4 209/5/4 213/5/4
f 209/5/4 181/5/4 213/5/4
f 210/4/4 211/4/4 214/4/4
f 178/4/4 210/4/4 214/4/4
f 214/4/4 211/4/4 215/4/4
f 215/4/4 211/4/4 216/4/4
f 212/4/4 213/4/4 217/4/4
f 217/4/4 213/4/4 218/4/4
f 213/4/4 179/4/4 219/4/4
f 218/4/4 213/4/4 219/4/4
f 214/3/4 215/3/4 220/3/4
f 220/3/4 215/3/4 221/3/4
f 218/3/4 219/3/4 222/3/4
f 222/3/4 219/3/4 223/3/4
f 226/5/4 227/5/4 228/5/4
f 228/5/4 227/5/4 229/5/4
f 226/5/4 228/5/4 230/5/4
f 229/5/4 227/5/4 231/5/4
f 226/5/4 230/5/4 232/5/4
f 230/5/4 231/5/4 232/5/4
f 231/5/4 227/5/4 233/5/4
f 232/5/4 231/5/4 233/5/4
f 226/5/4 232/5/4 234/5/4
f 233/5/4 227/5/4 235/5/4
f 226/5/4 234/5/4 236/5/4
f 234/5/4 235/5/4 236/5/4
f 235/5/4 227/5/4 237/5/4
f 236/5/4 235/5/4 237/5/4
f 226/5/4 236/5/4 238/5/4
f 237/5/4 227/5/4 239/5/4
f 226/5/4 238/5/4 240/5/4
f 238/5/4 239/5/4 240/5/4
f 239/5/4 227/5/4 241/5/4
f 240/5/4 239/5/4 241/5/4
f 226/5/4 240/5/4 242/5/4
f 241/5/4 227/5/4 243/5/4
f 226/5/4 242/5/4 244/5/4
f 242/5/4 243/5/4 244/5/4
f 243/5/4 227/5/4 245/5/4
f 244/5/4 243/5/4 245/5/4
f 224/5/4 225/5/4 246/5/4
f 246/5/4 225/5/4 247/5/4
f 248/3/4 249/3/4 251/3/4
f 251/3/4 249/3/4 252/3/4
f 252/3/4 249/3/4 253/3/4
f 253/3/4 249/3/4 254/3/4
f 250/3/4 251/3/4 256/3/4
f 252/1/4 253/1/4 257/1/4
f 257/1/4 253/1/4 258/1/4
f 254/3/4 255/3/4 259/3/4
f 257/1/4 258/1/4 260/1/4
f 258/1/4 259/1/4 260/1/4
f 250/3/4 256/3/4 260/3/4
f 256/1/4 257/1/4 260/1/4
f 260/1/4 259/1/4 261/1/4
f 261/1/4 259/1/4 262/1/4
f 259/3/4 255/3/4 263/3/4
f 262/1/4 259/1/4 263/1/4
f 250/3/4 260/3/4 264/3/4
f 264/3/4 260/3/4 265/3/4
f 261/1/4 262/1/4 266/1/4
f 266/1/4 262/1/4 267/1/4
f 263/3/4 255/3/4 268/3/4
f 268/3/4 255/3/4 269/3/4
f 266/3/4 267/3/4 270/3/4
f 267/3/4 268/3/4 270/3/4
f 265/3/4 266/3/4 270/3/4
f 270/3/4 268/3/4 271/3/4
f 275/4/5 273/4/5 272/4/5
f 276/3/5 274/3/5 273/3/5
f 276/4/5 273/4/5 275/4/5
f 277/3/5 274/3/5 276/3/5
f 280/6/5 279/6/5 278/6/5
f 281/6/5 279/6/5 280/6/5
f 284/3/5 283/3/5 282/3/5
f 285/3/5 283/3/5 284/3/5
f 292/5/5 287/5/5 286/5/5
f 292/5/5 288/5/5 287/5/5
f 293/5/5 288/5/5 292/5/5
f 294/3/5 290/3/5 289/3/5
f 295/3/5 290/3/5 294/3/5
f 296/3/5 292/3/5 291/3/5
f 297/3/5 292/3/5 296/3/5
f 302/2/5 299/2/5 298/2/5
f 303/5/5 300/5/5 299/5/5
f 303/2/5 299/2/5 302/2/5
f 304/5/5 300/5/5 303/5/5
f 305/5/5 300/5/5 304/5/5
f 306/1/5 302/1/5 301/1/5
f 307/1/5 302/1/5 306/1/5
f 308/1/5 304/1/5 303/1/5
f 309/1/5 304/1/5 308/1/5
f 314/3/5 311/3/5 310/3/5
f 315/3/5 311/3/5 314/3/5
f 316/3/5 313/3/5 312/3/5
f 317/3/5 313/3/5 316/3/5
f 320/5/5 319/5/5 318/5/5
f 321/5/5 319/5/5 320/5/5
f 330/5/5 323/5/5 322/5/5
f 331/5/5 323/5/5 330/5/5
f 332/5/5 325/5/5 324/5/5
f 333/5/5 325/5/5 332/5/5
f 334/5/5 327/5/5 326/5/5
f 335/5/5 327/5/5 334/5/5
f 336/5/5 329/5/5 328/5/5
f 337/5/5 329/5/5 336/5/5
f 340/3/5 339/3/5 338/3/5
f 341/3/5 339/3/5 340/3/5
f 342/3/6 343/3/6 344/3/6
f 344/3/6 343/3/6 345/3/6
f 346/3/6 347/3/6 350/3/6
f 350/3/6 347/3/6 351/3/6
f 348/3/6 349/3/6 352/3/6
f 352/3/6 349/3/6 353/3/6
f 354/5/6 355/5/6 359/5/6
f 355/5/6 356/5/6 359/5/6
f 359/5/6 356/5/6 360/5/6
f 360/5/6 356/5/6 361/5/6
f 361/5/6 356/5/6 362/5/6
f 357/1/6 358/1/6 363/1/6
f 363/1/6 358/1/6 364/1/6
f 359/1/6 360/1/6 365/1/6
f 365/1/6 360/1/6 366/1/6
f 367/5/6 368/5/6 371/5/6
f 371/5/6 368/5/6 372/5/6
f 369/3/6 370/3/6 375/3/6
f 375/3/6 370/3/6 376/3/6
f 373/3/6 374/3/6 377/3/6
f 377/3/6 374/3/6 378/3/6
f 379/3/6 380/3/6 381/3/6
f 381/3/6 380/3/6 382/3/6
f 383/5/6 384/5/6 391/5/6
f 391/5/6 384/5/6 392/5/6
f 385/5/6 386/5/6 393/5/6
f 393/5/6 386/5/6 394/5/6
f 387/5/6 388/5/6 395/5/6
f 395/5/6 388/5/6 396/5/6
f 389/5/6 390/5/6 397/5/6
f 397/5/6 390/5/6 398/5/6
f 399/5/6 400/5/6 401/5/6
f 401/5/6 400/5/6 402/5/6
f 403/6/6 404/6/6 405/6/6
f 405/6/6 404/6/6 406/6/6
f 407/4/6 408/4/6 410/4/6
f 408/3/6 409/3/6 411/3/6
f 410/4/6 408/4/6 411/4/6
f 411/3/6 409/3/6 412/3/6
