# 3ds Max Wavefront OBJ Exporter v0.97b - (c)2007 guruware
# File Created: 05.11.2019 12:58:48

mtllib Poubelle plastique.mtl

#
# object Poubelle_plastique
#

v  -0.5000 0.2000 0.4000
v  -0.5000 0.0000 -0.4000
v  -0.5000 0.0000 0.4000
v  -0.5000 0.2000 -0.4000
v  -0.5000 1.8000 0.4000
v  -0.5000 1.8000 -0.4000
v  -0.4000 0.2000 0.5000
v  -0.4000 0.0000 0.4000
v  -0.4000 0.0000 0.5000
v  -0.4000 0.2000 0.4000
v  -0.4000 0.2000 -0.4000
v  -0.4000 0.0000 -0.5000
v  -0.4000 0.0000 -0.4000
v  -0.4000 0.2000 -0.5000
v  -0.4000 1.8000 0.5000
v  -0.4000 1.8000 0.4000
v  -0.4000 1.8000 -0.4000
v  -0.4000 1.8000 -0.5000
v  -0.4000 1.9000 0.4000
v  -0.4000 1.9000 -0.4000
v  -0.3000 0.2000 -0.4000
v  -0.3000 0.1000 -0.4000
v  -0.3000 0.1000 -0.3000
v  -0.3000 0.5000 -0.3000
v  -0.3000 0.5000 -0.4000
v  0.2000 1.6000 0.5000
v  0.2000 1.3000 0.4000
v  0.2000 1.3000 0.5000
v  0.2000 1.6000 0.4000
v  0.2000 1.6000 -0.4000
v  0.2000 1.3000 -0.5000
v  0.2000 1.3000 -0.4000
v  0.2000 1.6000 -0.5000
v  0.3000 1.3000 0.3000
v  0.3000 0.1000 -0.3000
v  0.3000 0.1000 0.3000
v  0.3000 1.3000 -0.3000
v  0.4000 1.8000 0.4000
v  0.4000 1.3000 -0.4000
v  0.4000 1.3000 0.4000
v  0.4000 1.8000 -0.4000
v  -0.4000 0.1000 -0.3000
v  -0.4000 0.1000 -0.4000
v  -0.4000 0.2000 -0.3000
v  -0.4000 0.5000 -0.3000
v  -0.4000 0.5000 -0.4000
v  -0.4000 1.3000 0.4000
v  -0.4000 1.3000 -0.4000
v  -0.3000 0.1000 0.3000
v  -0.3000 1.3000 0.3000
v  -0.3000 1.3000 -0.3000
v  -0.2000 1.3000 0.5000
v  -0.2000 1.3000 0.4000
v  -0.2000 1.6000 0.5000
v  -0.2000 1.6000 0.4000
v  -0.2000 1.3000 -0.4000
v  -0.2000 1.3000 -0.5000
v  -0.2000 1.6000 -0.4000
v  -0.2000 1.6000 -0.5000
v  0.4000 0.0000 0.5000
v  0.4000 0.0000 0.4000
v  0.4000 0.2000 0.5000
v  0.4000 0.2000 0.4000
v  0.4000 0.0000 -0.4000
v  0.4000 0.0000 -0.5000
v  0.4000 0.2000 -0.4000
v  0.4000 0.2000 -0.5000
v  0.4000 1.8000 0.5000
v  0.4000 1.8000 -0.5000
v  0.4000 1.9000 0.4000
v  0.4000 1.9000 -0.4000
v  0.5000 0.0000 0.4000
v  0.5000 0.0000 -0.4000
v  0.5000 0.2000 0.4000
v  0.5000 0.2000 -0.4000
v  0.5000 1.8000 0.4000
v  0.5000 1.8000 -0.4000
v  -0.3000 1.2000 0.5000
v  -0.3000 1.6000 0.5000
v  0.3000 1.2000 0.5000
v  0.3000 1.6000 0.5000
v  -0.3000 1.3000 -0.4000
v  -0.3000 1.6000 -0.4000
v  0.3000 1.3000 -0.4000
v  0.3000 1.6000 -0.4000
v  -0.3000 1.3000 0.4000
v  -0.3000 1.6000 0.4000
v  0.3000 1.3000 0.4000
v  0.3000 1.6000 0.4000
v  -0.3000 1.2000 -0.5000
v  -0.3000 1.6000 -0.5000
v  0.3000 1.2000 -0.5000
v  0.3000 1.6000 -0.5000
v  -0.3000 1.8000 0.3000
v  -0.2000 1.8000 0.3000
v  -0.1000 1.8000 0.3000
v  0.0000 1.8000 0.3000
v  0.1000 1.8000 0.3000
v  0.2000 1.8000 0.3000
v  0.3000 1.8000 0.3000
v  -0.3000 1.8000 0.2000
v  -0.2000 1.8000 0.2000
v  -0.1000 1.8000 0.2000
v  0.0000 1.8000 0.2000
v  0.1000 1.8000 0.2000
v  0.2000 1.8000 0.2000
v  0.3000 1.8000 0.2000
v  -0.3000 1.8000 0.1000
v  -0.2000 1.8000 0.1000
v  -0.1000 1.8000 0.1000
v  0.0000 1.8000 0.1000
v  0.1000 1.8000 0.1000
v  0.2000 1.8000 0.1000
v  0.3000 1.8000 0.1000
v  -0.3000 1.8000 -0.0000
v  -0.2000 1.8000 -0.0000
v  -0.1000 1.8000 -0.0000
v  0.0000 1.8000 -0.0000
v  0.1000 1.8000 -0.0000
v  0.2000 1.8000 -0.0000
v  0.3000 1.8000 -0.0000
v  -0.3000 1.8000 -0.1000
v  -0.2000 1.8000 -0.1000
v  -0.1000 1.8000 -0.1000
v  0.0000 1.8000 -0.1000
v  0.1000 1.8000 -0.1000
v  0.2000 1.8000 -0.1000
v  0.3000 1.8000 -0.1000
v  -0.3000 1.8000 -0.2000
v  -0.2000 1.8000 -0.2000
v  -0.1000 1.8000 -0.2000
v  0.0000 1.8000 -0.2000
v  0.1000 1.8000 -0.2000
v  0.2000 1.8000 -0.2000
v  0.3000 1.8000 -0.2000
v  -0.3000 1.8000 -0.3000
v  -0.2000 1.8000 -0.3000
v  -0.1000 1.8000 -0.3000
v  0.0000 1.8000 -0.3000
v  0.1000 1.8000 -0.3000
v  0.2000 1.8000 -0.3000
v  0.3000 1.8000 -0.3000
v  -0.3000 1.9000 0.3000
v  -0.2000 1.9000 0.3000
v  -0.1000 1.9000 0.3000
v  0.0000 1.9000 0.3000
v  0.1000 1.9000 0.3000
v  0.2000 1.9000 0.3000
v  0.3000 1.9000 0.3000
v  -0.3000 1.9000 0.2000
v  -0.2000 1.9000 0.2000
v  -0.1000 1.9000 0.2000
v  0.0000 1.9000 0.2000
v  0.1000 1.9000 0.2000
v  0.2000 1.9000 0.2000
v  0.3000 1.9000 0.2000
v  -0.3000 1.9000 0.1000
v  -0.2000 1.9000 0.1000
v  -0.1000 1.9000 0.1000
v  0.0000 1.9000 0.1000
v  0.1000 1.9000 0.1000
v  0.2000 1.9000 0.1000
v  0.3000 1.9000 0.1000
v  -0.3000 1.9000 -0.0000
v  -0.2000 1.9000 -0.0000
v  -0.1000 1.9000 -0.0000
v  0.0000 1.9000 -0.0000
v  0.1000 1.9000 -0.0000
v  0.2000 1.9000 -0.0000
v  0.3000 1.9000 -0.0000
v  -0.3000 1.9000 -0.1000
v  -0.2000 1.9000 -0.1000
v  -0.1000 1.9000 -0.1000
v  0.0000 1.9000 -0.1000
v  0.1000 1.9000 -0.1000
v  0.2000 1.9000 -0.1000
v  0.3000 1.9000 -0.1000
v  -0.3000 1.9000 -0.2000
v  -0.2000 1.9000 -0.2000
v  -0.1000 1.9000 -0.2000
v  0.0000 1.9000 -0.2000
v  0.1000 1.9000 -0.2000
v  0.2000 1.9000 -0.2000
v  0.3000 1.9000 -0.2000
v  -0.3000 1.9000 -0.3000
v  -0.2000 1.9000 -0.3000
v  -0.1000 1.9000 -0.3000
v  0.0000 1.9000 -0.3000
v  0.1000 1.9000 -0.3000
v  0.2000 1.9000 -0.3000
v  0.3000 1.9000 -0.3000
# 191 vertices

vn -1.0000 0.0000 -0.0000
vn 1.0000 0.0000 -0.0000
vn 0.0000 0.0000 1.0000
vn 0.0000 0.0000 -1.0000
vn 0.0000 -1.0000 -0.0000
vn 0.0000 1.0000 -0.0000
# 6 vertex normals

vt 0.7441 0.5000 0.0000
vt 0.7168 0.5000 0.0000
vt 0.9238 0.5000 0.0000
vt 0.9355 0.5000 0.0000
vt 0.9277 0.5000 0.0000
# 5 texture coords

o Poubelle_plastique
g Poubelle_plastique
usemtl Poubelle_plastique_palette
s 1
f 1/1/1 2/1/1 3/1/1 
f 4/1/1 2/1/1 1/1/1 
f 5/2/1 4/2/1 1/2/1 
f 6/2/1 4/2/1 5/2/1 
f 7/1/1 8/1/1 9/1/1 
f 10/1/1 8/1/1 7/1/1 
f 11/1/1 12/1/1 13/1/1 
f 14/1/1 12/1/1 11/1/1 
f 15/2/1 10/2/1 7/2/1 
f 16/2/1 10/2/1 15/2/1 
f 17/2/1 14/2/1 11/2/1 
f 18/2/1 14/2/1 17/2/1 
f 19/3/1 17/3/1 16/3/1 
f 20/3/1 17/3/1 19/3/1 
f 21/4/1 22/4/1 23/4/1 
f 24/4/1 21/4/1 23/4/1 
f 25/4/1 21/4/1 24/4/1 
f 26/1/1 27/1/1 28/1/1 
f 29/1/1 27/1/1 26/1/1 
f 30/1/1 31/1/1 32/1/1 
f 33/1/1 31/1/1 30/1/1 
f 34/4/1 35/4/1 36/4/1 
f 37/4/1 35/4/1 34/4/1 
f 38/2/1 39/2/1 40/2/1 
f 41/2/1 39/2/1 38/2/1 
f 42/1/2 43/1/2 44/1/2 
f 44/1/2 43/1/2 11/1/2 
f 44/2/2 11/2/2 45/2/2 
f 45/2/2 11/2/2 46/2/2 
f 47/2/2 48/2/2 16/2/2 
f 16/2/2 48/2/2 17/2/2 
f 49/4/2 23/4/2 50/4/2 
f 50/4/2 23/4/2 51/4/2 
f 52/1/2 53/1/2 54/1/2 
f 54/1/2 53/1/2 55/1/2 
f 56/1/2 57/1/2 58/1/2 
f 58/1/2 57/1/2 59/1/2 
f 60/1/2 61/1/2 62/1/2 
f 62/1/2 61/1/2 63/1/2 
f 64/1/2 65/1/2 66/1/2 
f 66/1/2 65/1/2 67/1/2 
f 62/2/2 63/2/2 68/2/2 
f 68/2/2 63/2/2 38/2/2 
f 66/2/2 67/2/2 41/2/2 
f 41/2/2 67/2/2 69/2/2 
f 38/3/2 41/3/2 70/3/2 
f 70/3/2 41/3/2 71/3/2 
f 72/1/2 73/1/2 74/1/2 
f 74/1/2 73/1/2 75/1/2 
f 74/2/2 75/2/2 76/2/2 
f 76/2/2 75/2/2 77/2/2 
f 78/2/3 15/2/3 7/2/3 
f 79/2/3 15/2/3 78/2/3 
f 52/1/3 79/1/3 78/1/3 
f 54/2/3 15/2/3 79/2/3 
f 54/1/3 79/1/3 52/1/3 
f 28/1/3 52/1/3 78/1/3 
f 26/2/3 15/2/3 54/2/3 
f 80/2/3 78/2/3 7/2/3 
f 80/1/3 26/1/3 28/1/3 
f 80/1/3 28/1/3 78/1/3 
f 81/2/3 15/2/3 26/2/3 
f 81/1/3 26/1/3 80/1/3 
f 60/1/3 7/1/3 9/1/3 
f 62/2/3 80/2/3 7/2/3 
f 62/1/3 7/1/3 60/1/3 
f 62/2/3 81/2/3 80/2/3 
f 68/2/3 15/2/3 81/2/3 
f 68/2/3 81/2/3 62/2/3 
f 8/1/3 1/1/3 3/1/3 
f 10/2/3 5/2/3 1/2/3 
f 10/1/3 1/1/3 8/1/3 
f 16/2/3 5/2/3 10/2/3 
f 38/3/3 19/3/3 16/3/3 
f 70/3/3 19/3/3 38/3/3 
f 72/1/3 63/1/3 61/1/3 
f 74/2/3 38/2/3 63/2/3 
f 74/1/3 63/1/3 72/1/3 
f 76/2/3 38/2/3 74/2/3 
f 35/4/3 51/4/3 23/4/3 
f 37/4/3 51/4/3 35/4/3 
f 22/1/3 11/1/3 43/1/3 
f 21/2/3 46/2/3 11/2/3 
f 21/1/3 11/1/3 22/1/3 
f 25/2/3 46/2/3 21/2/3 
f 82/2/3 17/2/3 48/2/3 
f 83/2/3 17/2/3 82/2/3 
f 56/1/3 83/1/3 82/1/3 
f 58/2/3 17/2/3 83/2/3 
f 58/1/3 83/1/3 56/1/3 
f 30/2/3 17/2/3 58/2/3 
f 84/1/3 30/1/3 32/1/3 
f 85/2/3 17/2/3 30/2/3 
f 85/1/3 30/1/3 84/1/3 
f 39/2/3 85/2/3 84/2/3 
f 41/2/3 17/2/3 85/2/3 
f 41/2/3 85/2/3 39/2/3 
f 47/2/4 16/2/4 86/2/4 
f 86/2/4 16/2/4 87/2/4 
f 86/1/4 87/1/4 53/1/4 
f 87/2/4 16/2/4 55/2/4 
f 53/1/4 87/1/4 55/1/4 
f 55/2/4 16/2/4 29/2/4 
f 27/1/4 29/1/4 88/1/4 
f 29/2/4 16/2/4 89/2/4 
f 88/1/4 29/1/4 89/1/4 
f 88/2/4 89/2/4 40/2/4 
f 89/2/4 16/2/4 38/2/4 
f 40/2/4 89/2/4 38/2/4 
f 49/4/4 50/4/4 36/4/4 
f 36/4/4 50/4/4 34/4/4 
f 42/4/4 44/4/4 23/4/4 
f 44/4/4 45/4/4 23/4/4 
f 23/4/4 45/4/4 24/4/4 
f 2/1/4 4/1/4 13/1/4 
f 4/2/4 6/2/4 11/2/4 
f 13/1/4 4/1/4 11/1/4 
f 11/2/4 6/2/4 17/2/4 
f 17/3/4 20/3/4 41/3/4 
f 41/3/4 20/3/4 71/3/4 
f 64/1/4 66/1/4 73/1/4 
f 66/2/4 41/2/4 75/2/4 
f 73/1/4 66/1/4 75/1/4 
f 75/2/4 41/2/4 77/2/4 
f 14/2/4 18/2/4 90/2/4 
f 90/2/4 18/2/4 91/2/4 
f 90/1/4 91/1/4 57/1/4 
f 91/2/4 18/2/4 59/2/4 
f 57/1/4 91/1/4 59/1/4 
f 90/1/4 57/1/4 31/1/4 
f 59/2/4 18/2/4 33/2/4 
f 14/2/4 90/2/4 92/2/4 
f 31/1/4 33/1/4 92/1/4 
f 90/1/4 31/1/4 92/1/4 
f 33/2/4 18/2/4 93/2/4 
f 92/1/4 33/1/4 93/1/4 
f 12/1/4 14/1/4 65/1/4 
f 14/2/4 92/2/4 67/2/4 
f 65/1/4 14/1/4 67/1/4 
f 92/2/4 93/2/4 67/2/4 
f 93/2/4 18/2/4 69/2/4 
f 67/2/4 93/2/4 69/2/4 
f 8/1/5 60/1/5 9/1/5 
f 61/1/5 60/1/5 8/1/5 
f 2/1/5 8/1/5 3/1/5 
f 13/2/5 61/2/5 8/2/5 
f 13/1/5 8/1/5 2/1/5 
f 64/1/5 72/1/5 61/1/5 
f 64/2/5 61/2/5 13/2/5 
f 73/1/5 72/1/5 64/1/5 
f 12/1/5 64/1/5 13/1/5 
f 65/1/5 64/1/5 12/1/5 
f 46/4/5 24/4/5 45/4/5 
f 25/4/5 24/4/5 46/4/5 
f 55/2/5 26/2/5 54/2/5 
f 29/2/5 26/2/5 55/2/5 
f 59/2/5 30/2/5 58/2/5 
f 33/2/5 30/2/5 59/2/5 
f 94/3/5 38/3/5 16/3/5 
f 95/3/5 38/3/5 94/3/5 
f 96/3/5 38/3/5 95/3/5 
f 97/3/5 38/3/5 96/3/5 
f 98/3/5 38/3/5 97/3/5 
f 99/3/5 38/3/5 98/3/5 
f 100/3/5 38/3/5 99/3/5 
f 101/3/5 94/3/5 16/3/5 
f 101/4/5 95/4/5 94/4/5 
f 102/5/5 96/5/5 95/5/5 
f 102/4/5 95/4/5 101/4/5 
f 103/4/5 97/4/5 96/4/5 
f 103/5/5 96/5/5 102/5/5 
f 104/5/5 98/5/5 97/5/5 
f 104/4/5 97/4/5 103/4/5 
f 105/4/5 99/4/5 98/4/5 
f 105/5/5 98/5/5 104/5/5 
f 106/5/5 100/5/5 99/5/5 
f 106/4/5 99/4/5 105/4/5 
f 107/3/5 38/3/5 100/3/5 
f 107/5/5 100/5/5 106/5/5 
f 108/3/5 101/3/5 16/3/5 
f 108/5/5 102/5/5 101/5/5 
f 109/4/5 103/4/5 102/4/5 
f 109/5/5 102/5/5 108/5/5 
f 110/5/5 104/5/5 103/5/5 
f 110/4/5 103/4/5 109/4/5 
f 111/4/5 105/4/5 104/4/5 
f 111/5/5 104/5/5 110/5/5 
f 112/5/5 106/5/5 105/5/5 
f 112/4/5 105/4/5 111/4/5 
f 113/4/5 107/4/5 106/4/5 
f 113/5/5 106/5/5 112/5/5 
f 114/3/5 38/3/5 107/3/5 
f 114/4/5 107/4/5 113/4/5 
f 115/3/5 108/3/5 16/3/5 
f 115/4/5 109/4/5 108/4/5 
f 116/5/5 110/5/5 109/5/5 
f 116/4/5 109/4/5 115/4/5 
f 117/4/5 111/4/5 110/4/5 
f 117/5/5 110/5/5 116/5/5 
f 118/5/5 112/5/5 111/5/5 
f 118/4/5 111/4/5 117/4/5 
f 119/4/5 113/4/5 112/4/5 
f 119/5/5 112/5/5 118/5/5 
f 120/5/5 114/5/5 113/5/5 
f 120/4/5 113/4/5 119/4/5 
f 121/3/5 38/3/5 114/3/5 
f 121/5/5 114/5/5 120/5/5 
f 122/5/5 116/5/5 115/5/5 
f 122/3/5 115/3/5 16/3/5 
f 123/4/5 117/4/5 116/4/5 
f 123/5/5 116/5/5 122/5/5 
f 124/5/5 118/5/5 117/5/5 
f 124/4/5 117/4/5 123/4/5 
f 125/4/5 119/4/5 118/4/5 
f 125/5/5 118/5/5 124/5/5 
f 126/5/5 120/5/5 119/5/5 
f 126/4/5 119/4/5 125/4/5 
f 127/4/5 121/4/5 120/4/5 
f 127/5/5 120/5/5 126/5/5 
f 128/3/5 38/3/5 121/3/5 
f 128/4/5 121/4/5 127/4/5 
f 129/4/5 123/4/5 122/4/5 
f 129/3/5 122/3/5 16/3/5 
f 130/5/5 124/5/5 123/5/5 
f 130/4/5 123/4/5 129/4/5 
f 131/4/5 125/4/5 124/4/5 
f 131/5/5 124/5/5 130/5/5 
f 132/5/5 126/5/5 125/5/5 
f 132/4/5 125/4/5 131/4/5 
f 133/4/5 127/4/5 126/4/5 
f 133/5/5 126/5/5 132/5/5 
f 134/5/5 128/5/5 127/5/5 
f 134/4/5 127/4/5 133/4/5 
f 135/3/5 38/3/5 128/3/5 
f 135/5/5 128/5/5 134/5/5 
f 136/5/5 130/5/5 129/5/5 
f 136/3/5 129/3/5 16/3/5 
f 137/4/5 131/4/5 130/4/5 
f 137/5/5 130/5/5 136/5/5 
f 138/5/5 132/5/5 131/5/5 
f 138/4/5 131/4/5 137/4/5 
f 139/4/5 133/4/5 132/4/5 
f 139/5/5 132/5/5 138/5/5 
f 140/5/5 134/5/5 133/5/5 
f 140/4/5 133/4/5 139/4/5 
f 141/4/5 135/4/5 134/4/5 
f 141/5/5 134/5/5 140/5/5 
f 142/3/5 38/3/5 135/3/5 
f 142/4/5 135/4/5 141/4/5 
f 17/3/5 137/3/5 136/3/5 
f 17/3/5 136/3/5 16/3/5 
f 17/3/5 142/3/5 141/3/5 
f 17/3/5 140/3/5 139/3/5 
f 17/3/5 141/3/5 140/3/5 
f 17/3/5 138/3/5 137/3/5 
f 17/3/5 139/3/5 138/3/5 
f 41/3/5 38/3/5 142/3/5 
f 41/3/5 142/3/5 17/3/5 
f 49/2/6 36/2/6 23/2/6 
f 23/2/6 36/2/6 35/2/6 
f 42/2/6 23/2/6 43/2/6 
f 43/2/6 23/2/6 22/2/6 
f 52/1/6 28/1/6 53/1/6 
f 53/1/6 28/1/6 27/1/6 
f 47/4/6 86/4/6 50/4/6 
f 88/4/6 40/4/6 50/4/6 
f 27/4/6 88/4/6 50/4/6 
f 53/4/6 27/4/6 50/4/6 
f 86/4/6 53/4/6 50/4/6 
f 50/4/6 40/4/6 34/4/6 
f 47/4/6 50/4/6 51/4/6 
f 34/4/6 40/4/6 37/4/6 
f 47/4/6 51/4/6 48/4/6 
f 51/4/6 37/4/6 48/4/6 
f 48/4/6 37/4/6 82/4/6 
f 82/4/6 37/4/6 56/4/6 
f 56/4/6 37/4/6 32/4/6 
f 37/4/6 40/4/6 84/4/6 
f 32/4/6 37/4/6 84/4/6 
f 84/4/6 40/4/6 39/4/6 
f 56/1/6 32/1/6 57/1/6 
f 57/1/6 32/1/6 31/1/6 
f 15/2/6 68/2/6 16/2/6 
f 16/2/6 68/2/6 38/2/6 
f 5/2/6 16/2/6 6/2/6 
f 6/2/6 16/2/6 17/2/6 
f 38/2/6 76/2/6 41/2/6 
f 41/2/6 76/2/6 77/2/6 
f 17/2/6 41/2/6 18/2/6 
f 18/2/6 41/2/6 69/2/6 
f 19/3/6 70/3/6 143/3/6 
f 143/3/6 70/3/6 144/3/6 
f 144/3/6 70/3/6 145/3/6 
f 145/3/6 70/3/6 146/3/6 
f 146/3/6 70/3/6 147/3/6 
f 147/3/6 70/3/6 148/3/6 
f 148/3/6 70/3/6 149/3/6 
f 19/3/6 143/3/6 150/3/6 
f 143/4/6 144/4/6 150/4/6 
f 144/5/6 145/5/6 151/5/6 
f 150/4/6 144/4/6 151/4/6 
f 145/4/6 146/4/6 152/4/6 
f 151/5/6 145/5/6 152/5/6 
f 146/5/6 147/5/6 153/5/6 
f 152/4/6 146/4/6 153/4/6 
f 147/4/6 148/4/6 154/4/6 
f 153/5/6 147/5/6 154/5/6 
f 148/5/6 149/5/6 155/5/6 
f 154/4/6 148/4/6 155/4/6 
f 149/3/6 70/3/6 156/3/6 
f 155/5/6 149/5/6 156/5/6 
f 19/3/6 150/3/6 157/3/6 
f 150/5/6 151/5/6 157/5/6 
f 151/4/6 152/4/6 158/4/6 
f 157/5/6 151/5/6 158/5/6 
f 152/5/6 153/5/6 159/5/6 
f 158/4/6 152/4/6 159/4/6 
f 153/4/6 154/4/6 160/4/6 
f 159/5/6 153/5/6 160/5/6 
f 154/5/6 155/5/6 161/5/6 
f 160/4/6 154/4/6 161/4/6 
f 155/4/6 156/4/6 162/4/6 
f 161/5/6 155/5/6 162/5/6 
f 156/3/6 70/3/6 163/3/6 
f 162/4/6 156/4/6 163/4/6 
f 19/3/6 157/3/6 164/3/6 
f 157/4/6 158/4/6 164/4/6 
f 158/5/6 159/5/6 165/5/6 
f 164/4/6 158/4/6 165/4/6 
f 159/4/6 160/4/6 166/4/6 
f 165/5/6 159/5/6 166/5/6 
f 160/5/6 161/5/6 167/5/6 
f 166/4/6 160/4/6 167/4/6 
f 161/4/6 162/4/6 168/4/6 
f 167/5/6 161/5/6 168/5/6 
f 162/5/6 163/5/6 169/5/6 
f 168/4/6 162/4/6 169/4/6 
f 163/3/6 70/3/6 170/3/6 
f 169/5/6 163/5/6 170/5/6 
f 164/5/6 165/5/6 171/5/6 
f 19/3/6 164/3/6 171/3/6 
f 165/4/6 166/4/6 172/4/6 
f 171/5/6 165/5/6 172/5/6 
f 166/5/6 167/5/6 173/5/6 
f 172/4/6 166/4/6 173/4/6 
f 167/4/6 168/4/6 174/4/6 
f 173/5/6 167/5/6 174/5/6 
f 168/5/6 169/5/6 175/5/6 
f 174/4/6 168/4/6 175/4/6 
f 169/4/6 170/4/6 176/4/6 
f 175/5/6 169/5/6 176/5/6 
f 170/3/6 70/3/6 177/3/6 
f 176/4/6 170/4/6 177/4/6 
f 171/4/6 172/4/6 178/4/6 
f 19/3/6 171/3/6 178/3/6 
f 172/5/6 173/5/6 179/5/6 
f 178/4/6 172/4/6 179/4/6 
f 173/4/6 174/4/6 180/4/6 
f 179/5/6 173/5/6 180/5/6 
f 174/5/6 175/5/6 181/5/6 
f 180/4/6 174/4/6 181/4/6 
f 175/4/6 176/4/6 182/4/6 
f 181/5/6 175/5/6 182/5/6 
f 176/5/6 177/5/6 183/5/6 
f 182/4/6 176/4/6 183/4/6 
f 177/3/6 70/3/6 184/3/6 
f 183/5/6 177/5/6 184/5/6 
f 178/5/6 179/5/6 185/5/6 
f 19/3/6 178/3/6 185/3/6 
f 179/4/6 180/4/6 186/4/6 
f 185/5/6 179/5/6 186/5/6 
f 180/5/6 181/5/6 187/5/6 
f 186/4/6 180/4/6 187/4/6 
f 181/4/6 182/4/6 188/4/6 
f 187/5/6 181/5/6 188/5/6 
f 182/5/6 183/5/6 189/5/6 
f 188/4/6 182/4/6 189/4/6 
f 183/4/6 184/4/6 190/4/6 
f 189/5/6 183/5/6 190/5/6 
f 184/3/6 70/3/6 191/3/6 
f 190/4/6 184/4/6 191/4/6 
f 185/3/6 186/3/6 20/3/6 
f 19/3/6 185/3/6 20/3/6 
f 190/3/6 191/3/6 20/3/6 
f 188/3/6 189/3/6 20/3/6 
f 189/3/6 190/3/6 20/3/6 
f 186/3/6 187/3/6 20/3/6 
f 187/3/6 188/3/6 20/3/6 
f 191/3/6 70/3/6 71/3/6 
f 20/3/6 191/3/6 71/3/6 
# 0 polygons - 390 triangles

