# 3ds Max Wavefront OBJ Exporter v0.97b - (c)2007 guruware
# File Created: 13.11.2019 14:05:55

mtllib Mur_T_IntérieurTier2Orange.mtl

#
# object Mur_T_IntérieurTier2Orange
#

v  -0.5750 0.0750 0.0750
v  -0.5750 0.0000 0.0500
v  -0.5750 0.0000 0.0750
v  -0.5750 0.1250 0.1000
v  -0.5750 0.0750 0.1000
v  -0.5750 0.1250 0.0750
v  -0.5750 1.9000 0.1000
v  -0.5750 1.9000 0.0750
v  -0.5750 1.9500 0.1000
v  -0.5750 1.9500 0.0750
v  -0.5750 1.9750 0.0750
v  -0.5750 1.9750 0.0500
v  -0.5750 0.0000 -0.0500
v  -0.5750 1.9750 -0.0500
v  -0.5750 0.0000 -0.0750
v  -0.5750 1.9750 -0.0750
v  -0.5750 2.0000 0.0750
v  -0.5750 2.0000 -0.0750
v  -0.1750 0.1250 0.5000
v  -0.1750 0.0750 0.1000
v  -0.1750 0.0750 0.5000
v  -0.1750 0.1250 0.1000
v  -0.1750 1.9000 0.5000
v  -0.1750 1.9000 0.1000
v  -0.1750 1.9500 0.5000
v  -0.1750 1.9500 0.1000
v  -0.1500 0.0750 0.5000
v  -0.1500 0.0000 0.0750
v  -0.1500 0.0000 0.5000
v  -0.1500 0.0750 0.0750
v  -0.1500 1.9750 0.5000
v  -0.1500 1.9500 0.0750
v  -0.1500 1.9500 0.5000
v  -0.1500 1.9750 0.0750
v  -0.1500 1.9750 -0.0750
v  -0.1500 0.0000 -0.5000
v  -0.1500 0.0000 -0.0750
v  -0.1500 1.9750 -0.5000
v  -0.1500 2.0000 0.5000
v  -0.1500 2.0000 0.0750
v  -0.1500 2.0000 -0.0750
v  -0.1500 2.0000 -0.5000
v  0.0000 0.0000 0.5000
v  0.0000 0.0000 -0.5000
v  0.0000 1.9750 0.5000
v  0.0000 1.9750 -0.5000
v  0.0000 2.0000 0.5000
v  0.0000 2.0000 -0.5000
v  -0.1500 0.1250 0.5000
v  -0.1500 1.9000 0.5000
v  -0.1250 0.0000 0.5000
v  -0.1250 1.9750 0.5000
v  -0.0250 0.0000 0.5000
v  -0.0250 1.9750 0.5000
v  -0.1250 0.0000 -0.5000
v  -0.1250 1.9750 -0.5000
v  -0.0250 0.0000 -0.5000
v  -0.0250 1.9750 -0.5000
v  -0.1250 0.0000 0.4750
v  -0.0250 0.0000 0.4750
v  -0.1500 0.0000 0.0500
v  -0.1500 0.0000 -0.0500
v  -0.1250 0.0000 -0.4750
v  -0.0250 0.0000 -0.4750
# 64 vertices

vn -1.0000 0.0000 -0.0000
vn 1.0000 0.0000 -0.0000
vn 0.0000 0.0000 1.0000
vn 0.0000 0.0000 -1.0000
vn 0.0000 -1.0000 -0.0000
vn 0.0000 1.0000 -0.0000
# 6 vertex normals

vt 0.9629 0.5000 0.0000
vt 0.1738 0.5000 0.0000
vt 0.2090 0.5000 0.0000
vt 0.9941 0.5000 0.0000
# 4 texture coords

o Mur_T_IntérieurTier2Orange
g Mur_T_IntérieurTier2Orange
usemtl Mur_T_IntérieurTier2Orange_palette
s 1
f 1/1/1 2/1/1 3/1/1 
f 4/2/1 1/2/1 5/2/1 
f 6/1/1 2/1/1 1/1/1 
f 6/2/1 1/2/1 4/2/1 
f 7/3/1 6/3/1 4/3/1 
f 8/1/1 2/1/1 6/1/1 
f 8/3/1 6/3/1 7/3/1 
f 9/2/1 8/2/1 7/2/1 
f 10/1/1 2/1/1 8/1/1 
f 10/2/1 8/2/1 9/2/1 
f 11/1/1 2/1/1 10/1/1 
f 12/4/1 13/4/1 2/4/1 
f 12/1/1 2/1/1 11/1/1 
f 14/1/1 15/1/1 13/1/1 
f 14/4/1 13/4/1 12/4/1 
f 16/1/1 15/1/1 14/1/1 
f 17/4/1 12/4/1 11/4/1 
f 17/4/1 14/4/1 12/4/1 
f 17/4/1 16/4/1 14/4/1 
f 18/4/1 16/4/1 17/4/1 
f 19/2/1 20/2/1 21/2/1 
f 22/2/1 20/2/1 19/2/1 
f 23/3/1 22/3/1 19/3/1 
f 24/3/1 22/3/1 23/3/1 
f 25/2/1 24/2/1 23/2/1 
f 26/2/1 24/2/1 25/2/1 
f 27/1/1 28/1/1 29/1/1 
f 30/1/1 28/1/1 27/1/1 
f 31/1/1 32/1/1 33/1/1 
f 34/1/1 32/1/1 31/1/1 
f 35/1/1 36/1/1 37/1/1 
f 38/1/1 36/1/1 35/1/1 
f 39/4/1 34/4/1 31/4/1 
f 40/4/1 34/4/1 39/4/1 
f 41/4/1 38/4/1 35/4/1 
f 42/4/1 38/4/1 41/4/1 
f 43/1/2 44/1/2 45/1/2 
f 45/1/2 44/1/2 46/1/2 
f 45/4/2 46/4/2 47/4/2 
f 47/4/2 46/4/2 48/4/2 
f 27/2/3 19/2/3 21/2/3 
f 49/3/3 23/3/3 19/3/3 
f 49/2/3 19/2/3 27/2/3 
f 50/2/3 25/2/3 23/2/3 
f 50/3/3 23/3/3 49/3/3 
f 33/2/3 25/2/3 50/2/3 
f 51/1/3 49/1/3 27/1/3 
f 51/1/3 27/1/3 29/1/3 
f 51/1/3 31/1/3 33/1/3 
f 51/1/3 33/1/3 50/1/3 
f 51/1/3 50/1/3 49/1/3 
f 52/4/3 39/4/3 31/4/3 
f 52/1/3 31/1/3 51/1/3 
f 53/4/3 52/4/3 51/4/3 
f 54/4/3 39/4/3 52/4/3 
f 54/4/3 52/4/3 53/4/3 
f 43/1/3 54/1/3 53/1/3 
f 45/4/3 39/4/3 54/4/3 
f 45/1/3 54/1/3 43/1/3 
f 47/4/3 39/4/3 45/4/3 
f 20/2/3 4/2/3 5/2/3 
f 22/3/3 7/3/3 4/3/3 
f 22/2/3 4/2/3 20/2/3 
f 24/2/3 9/2/3 7/2/3 
f 24/3/3 7/3/3 22/3/3 
f 26/2/3 9/2/3 24/2/3 
f 28/1/3 1/1/3 3/1/3 
f 30/1/3 1/1/3 28/1/3 
f 32/1/3 11/1/3 10/1/3 
f 34/4/3 17/4/3 11/4/3 
f 34/1/3 11/1/3 32/1/3 
f 40/4/3 17/4/3 34/4/3 
f 15/1/4 16/1/4 37/1/4 
f 16/4/4 18/4/4 35/4/4 
f 37/1/4 16/1/4 35/1/4 
f 35/4/4 18/4/4 41/4/4 
f 36/1/4 38/1/4 55/1/4 
f 38/4/4 42/4/4 56/4/4 
f 55/1/4 38/1/4 56/1/4 
f 55/4/4 56/4/4 57/4/4 
f 56/4/4 42/4/4 58/4/4 
f 57/4/4 56/4/4 58/4/4 
f 57/1/4 58/1/4 44/1/4 
f 58/4/4 42/4/4 46/4/4 
f 44/1/4 58/1/4 46/1/4 
f 46/4/4 42/4/4 48/4/4 
f 59/1/5 51/1/5 29/1/5 
f 59/4/5 53/4/5 51/4/5 
f 60/1/5 43/1/5 53/1/5 
f 60/4/5 53/4/5 59/4/5 
f 28/1/5 59/1/5 29/1/5 
f 28/1/5 60/1/5 59/1/5 
f 2/1/5 28/1/5 3/1/5 
f 61/1/5 60/1/5 28/1/5 
f 61/1/5 28/1/5 2/1/5 
f 13/4/5 61/4/5 2/4/5 
f 62/1/5 60/1/5 61/1/5 
f 62/4/5 61/4/5 13/4/5 
f 15/1/5 62/1/5 13/1/5 
f 37/1/5 60/1/5 62/1/5 
f 37/1/5 62/1/5 15/1/5 
f 63/1/5 60/1/5 37/1/5 
f 64/1/5 43/1/5 60/1/5 
f 64/1/5 60/1/5 63/1/5 
f 36/1/5 63/1/5 37/1/5 
f 55/4/5 64/4/5 63/4/5 
f 55/1/5 63/1/5 36/1/5 
f 57/1/5 43/1/5 64/1/5 
f 57/4/5 64/4/5 55/4/5 
f 44/1/5 43/1/5 57/1/5 
f 20/2/5 27/2/5 21/2/5 
f 1/2/5 20/2/5 5/2/5 
f 30/2/5 27/2/5 20/2/5 
f 30/2/5 20/2/5 1/2/5 
f 25/2/6 33/2/6 26/2/6 
f 9/2/6 26/2/6 10/2/6 
f 26/2/6 33/2/6 32/2/6 
f 10/2/6 26/2/6 32/2/6 
f 39/4/6 47/4/6 40/4/6 
f 17/4/6 40/4/6 18/4/6 
f 40/4/6 47/4/6 41/4/6 
f 18/4/6 40/4/6 41/4/6 
f 41/4/6 47/4/6 42/4/6 
f 42/4/6 47/4/6 48/4/6 
# 0 polygons - 124 triangles

