# 3ds Max Wavefront OBJ Exporter v0.97b - (c)2007 guruware
# File Created: 13.11.2019 13:54:56

mtllib Mur_Droit_IntérieurOrange.mtl

#
# object Mur_Droit_IntérieurOrange
#

v  -0.1000 0.1250 0.5000
v  -0.1000 0.0750 -0.5000
v  -0.1000 0.0750 0.5000
v  -0.1000 0.1250 -0.5000
v  -0.1000 1.9000 0.5000
v  -0.1000 1.9000 -0.5000
v  -0.1000 1.9500 0.5000
v  -0.1000 1.9500 -0.5000
v  -0.0750 0.0750 0.5000
v  -0.0750 0.0000 -0.5000
v  -0.0750 0.0000 0.5000
v  -0.0750 0.0750 -0.5000
v  -0.0750 1.9750 0.5000
v  -0.0750 1.9500 -0.5000
v  -0.0750 1.9500 0.5000
v  -0.0750 1.9750 -0.5000
v  -0.0750 2.0000 0.5000
v  -0.0750 2.0000 -0.5000
v  0.0750 0.0000 0.5000
v  0.0750 0.0000 -0.5000
v  0.0750 0.0750 0.5000
v  0.0750 0.0750 -0.5000
v  0.0750 1.9500 0.5000
v  0.0750 1.9500 -0.5000
v  0.0750 1.9750 0.5000
v  0.0750 1.9750 -0.5000
v  0.0750 2.0000 0.5000
v  0.0750 2.0000 -0.5000
v  0.1000 0.0750 0.5000
v  0.1000 0.0750 -0.5000
v  0.1000 0.1250 0.5000
v  0.1000 0.1250 -0.5000
v  0.1000 1.9000 0.5000
v  0.1000 1.9000 -0.5000
v  0.1000 1.9500 0.5000
v  0.1000 1.9500 -0.5000
v  -0.0750 0.1250 0.5000
v  -0.0750 1.9000 0.5000
v  -0.0500 0.0000 0.5000
v  -0.0500 1.9750 0.5000
v  0.0500 0.0000 0.5000
v  0.0500 1.9750 0.5000
v  0.0750 0.1250 0.5000
v  0.0750 1.9000 0.5000
v  -0.0750 0.1250 -0.5000
v  -0.0750 1.9000 -0.5000
v  -0.0500 0.0000 -0.5000
v  -0.0500 1.9750 -0.5000
v  0.0500 0.0000 -0.5000
v  0.0500 1.9750 -0.5000
v  0.0750 0.1250 -0.5000
v  0.0750 1.9000 -0.5000
v  -0.0500 0.0000 0.4750
v  0.0500 0.0000 0.4750
v  -0.0500 0.0000 -0.4750
v  0.0500 0.0000 -0.4750
# 56 vertices

vn -1.0000 0.0000 -0.0000
vn 1.0000 0.0000 -0.0000
vn 0.0000 0.0000 1.0000
vn 0.0000 0.0000 -1.0000
vn 0.0000 -1.0000 -0.0000
vn 0.0000 1.0000 -0.0000
# 6 vertex normals

vt 0.1738 0.5000 0.0000
vt 0.2090 0.5000 0.0000
vt 0.9629 0.5000 0.0000
vt 0.9941 0.5000 0.0000
# 4 texture coords

o Mur_Droit_IntérieurOrange
g Mur_Droit_IntérieurOrange
usemtl Mur_Droit_IntérieurOrange_palette
s 1
f 1/1/1 2/1/1 3/1/1 
f 4/1/1 2/1/1 1/1/1 
f 5/2/1 4/2/1 1/2/1 
f 6/2/1 4/2/1 5/2/1 
f 7/1/1 6/1/1 5/1/1 
f 8/1/1 6/1/1 7/1/1 
f 9/3/1 10/3/1 11/3/1 
f 12/3/1 10/3/1 9/3/1 
f 13/3/1 14/3/1 15/3/1 
f 16/3/1 14/3/1 13/3/1 
f 17/4/1 16/4/1 13/4/1 
f 18/4/1 16/4/1 17/4/1 
f 19/3/2 20/3/2 21/3/2 
f 21/3/2 20/3/2 22/3/2 
f 23/3/2 24/3/2 25/3/2 
f 25/3/2 24/3/2 26/3/2 
f 25/4/2 26/4/2 27/4/2 
f 27/4/2 26/4/2 28/4/2 
f 29/1/2 30/1/2 31/1/2 
f 31/1/2 30/1/2 32/1/2 
f 31/2/2 32/2/2 33/2/2 
f 33/2/2 32/2/2 34/2/2 
f 33/1/2 34/1/2 35/1/2 
f 35/1/2 34/1/2 36/1/2 
f 9/1/3 1/1/3 3/1/3 
f 37/2/3 5/2/3 1/2/3 
f 37/1/3 1/1/3 9/1/3 
f 38/1/3 7/1/3 5/1/3 
f 38/2/3 5/2/3 37/2/3 
f 15/1/3 7/1/3 38/1/3 
f 39/3/3 37/3/3 9/3/3 
f 39/3/3 9/3/3 11/3/3 
f 39/3/3 13/3/3 15/3/3 
f 39/3/3 15/3/3 38/3/3 
f 39/3/3 38/3/3 37/3/3 
f 40/4/3 17/4/3 13/4/3 
f 40/3/3 13/3/3 39/3/3 
f 41/4/3 40/4/3 39/4/3 
f 42/4/3 17/4/3 40/4/3 
f 42/4/3 40/4/3 41/4/3 
f 19/3/3 42/3/3 41/3/3 
f 21/3/3 42/3/3 19/3/3 
f 43/3/3 42/3/3 21/3/3 
f 44/3/3 42/3/3 43/3/3 
f 23/3/3 42/3/3 44/3/3 
f 25/4/3 17/4/3 42/4/3 
f 25/3/3 42/3/3 23/3/3 
f 27/4/3 17/4/3 25/4/3 
f 29/1/3 43/1/3 21/1/3 
f 31/2/3 44/2/3 43/2/3 
f 31/1/3 43/1/3 29/1/3 
f 33/1/3 23/1/3 44/1/3 
f 33/2/3 44/2/3 31/2/3 
f 35/1/3 23/1/3 33/1/3 
f 2/1/4 4/1/4 12/1/4 
f 4/2/4 6/2/4 45/2/4 
f 12/1/4 4/1/4 45/1/4 
f 6/1/4 8/1/4 46/1/4 
f 45/2/4 6/2/4 46/2/4 
f 46/1/4 8/1/4 14/1/4 
f 12/3/4 45/3/4 47/3/4 
f 10/3/4 12/3/4 47/3/4 
f 14/3/4 16/3/4 47/3/4 
f 46/3/4 14/3/4 47/3/4 
f 45/3/4 46/3/4 47/3/4 
f 16/4/4 18/4/4 48/4/4 
f 47/3/4 16/3/4 48/3/4 
f 47/4/4 48/4/4 49/4/4 
f 48/4/4 18/4/4 50/4/4 
f 49/4/4 48/4/4 50/4/4 
f 49/3/4 50/3/4 20/3/4 
f 20/3/4 50/3/4 22/3/4 
f 22/3/4 50/3/4 51/3/4 
f 51/3/4 50/3/4 52/3/4 
f 52/3/4 50/3/4 24/3/4 
f 50/4/4 18/4/4 26/4/4 
f 24/3/4 50/3/4 26/3/4 
f 26/4/4 18/4/4 28/4/4 
f 22/1/4 51/1/4 30/1/4 
f 51/2/4 52/2/4 32/2/4 
f 30/1/4 51/1/4 32/1/4 
f 52/1/4 24/1/4 34/1/4 
f 32/2/4 52/2/4 34/2/4 
f 34/1/4 24/1/4 36/1/4 
f 53/3/5 39/3/5 11/3/5 
f 53/4/5 41/4/5 39/4/5 
f 54/3/5 19/3/5 41/3/5 
f 54/4/5 41/4/5 53/4/5 
f 55/3/5 53/3/5 11/3/5 
f 55/3/5 54/3/5 53/3/5 
f 56/3/5 19/3/5 54/3/5 
f 56/3/5 54/3/5 55/3/5 
f 10/3/5 55/3/5 11/3/5 
f 47/4/5 56/4/5 55/4/5 
f 47/3/5 55/3/5 10/3/5 
f 49/3/5 19/3/5 56/3/5 
f 49/4/5 56/4/5 47/4/5 
f 20/3/5 19/3/5 49/3/5 
f 2/1/5 9/1/5 3/1/5 
f 12/1/5 9/1/5 2/1/5 
f 22/1/5 29/1/5 21/1/5 
f 30/1/5 29/1/5 22/1/5 
f 7/1/6 15/1/6 8/1/6 
f 8/1/6 15/1/6 14/1/6 
f 23/1/6 35/1/6 24/1/6 
f 24/1/6 35/1/6 36/1/6 
f 17/4/6 27/4/6 18/4/6 
f 18/4/6 27/4/6 28/4/6 
# 0 polygons - 108 triangles

