# 3ds Max Wavefront OBJ Exporter v0.97b - (c)2007 guruware
# File Created: 07.11.2019 18:22:56

mtllib Route Vierge.mtl

#
# object Route_Vierge
#

v  0.0000 0.1000 -0.0000
v  0.0000 0.0000 -7.2000
v  0.0000 0.0000 -0.0000
v  0.0000 0.1000 -7.2000
v  3.6000 0.0000 -0.0000
v  3.6000 0.0000 -1.2000
v  3.6000 0.1000 -0.0000
v  3.6000 0.0000 -1.3000
v  3.6000 0.1000 -1.2000
v  3.6000 0.0000 -7.2000
v  3.6000 0.1000 -1.3000
v  3.6000 0.1000 -7.2000
v  2.2000 0.0000 -0.3000
v  2.3000 0.0000 -0.3000
v  3.2000 0.0000 -0.3000
v  3.3000 0.0000 -0.3000
v  0.3000 0.0000 -0.4000
v  0.4000 0.0000 -0.4000
v  2.2000 0.0000 -0.4000
v  2.3000 0.0000 -0.4000
v  3.2000 0.0000 -0.4000
v  3.3000 0.0000 -0.4000
v  0.3000 0.0000 -0.5000
v  0.4000 0.0000 -0.5000
v  1.5000 0.0000 -0.9000
v  1.6000 0.0000 -0.9000
v  2.5000 0.0000 -0.9000
v  2.6000 0.0000 -0.9000
v  1.5000 0.0000 -1.0000
v  1.6000 0.0000 -1.0000
v  1.7000 0.0000 -1.0000
v  2.5000 0.0000 -1.0000
v  2.6000 0.0000 -1.0000
v  1.6000 0.0000 -1.1000
v  1.7000 0.0000 -1.1000
v  1.0000 0.0000 -1.2000
v  1.1000 0.0000 -1.2000
v  3.5000 0.0000 -1.2000
v  1.0000 0.0000 -1.3000
v  1.1000 0.0000 -1.3000
v  3.5000 0.0000 -1.3000
v  3.1000 0.0000 -1.6000
v  3.2000 0.0000 -1.6000
v  3.1000 0.0000 -1.7000
v  3.2000 0.0000 -1.7000
v  0.6000 0.0000 -1.9000
v  0.7000 0.0000 -1.9000
v  0.6000 0.0000 -2.0000
v  0.7000 0.0000 -2.0000
v  0.2000 0.0000 -2.3000
v  0.3000 0.0000 -2.3000
v  0.2000 0.0000 -2.4000
v  0.3000 0.0000 -2.4000
v  2.5000 0.0000 -2.5000
v  2.6000 0.0000 -2.5000
v  2.5000 0.0000 -2.6000
v  2.6000 0.0000 -2.6000
v  0.7000 0.0000 -2.7000
v  0.8000 0.0000 -2.7000
v  0.7000 0.0000 -2.8000
v  0.8000 0.0000 -2.8000
v  1.6000 0.0000 -3.0000
v  1.7000 0.0000 -3.0000
v  1.6000 0.0000 -3.1000
v  1.7000 0.0000 -3.1000
v  3.4000 0.0000 -3.5000
v  3.5000 0.0000 -3.5000
v  3.4000 0.0000 -3.6000
v  3.5000 0.0000 -3.6000
v  2.2000 0.0000 -3.9000
v  2.3000 0.0000 -3.9000
v  0.3000 0.0000 -4.0000
v  0.4000 0.0000 -4.0000
v  2.2000 0.0000 -4.0000
v  2.3000 0.0000 -4.0000
v  0.3000 0.0000 -4.1000
v  0.4000 0.0000 -4.1000
v  1.5000 0.0000 -4.5000
v  1.6000 0.0000 -4.5000
v  2.5000 0.0000 -4.5000
v  2.6000 0.0000 -4.5000
v  1.5000 0.0000 -4.6000
v  1.6000 0.0000 -4.6000
v  1.7000 0.0000 -4.6000
v  2.5000 0.0000 -4.6000
v  2.6000 0.0000 -4.6000
v  1.6000 0.0000 -4.7000
v  1.7000 0.0000 -4.7000
v  3.2000 0.0000 -4.7000
v  3.3000 0.0000 -4.7000
v  1.0000 0.0000 -4.8000
v  1.1000 0.0000 -4.8000
v  3.2000 0.0000 -4.8000
v  3.3000 0.0000 -4.8000
v  1.0000 0.0000 -4.9000
v  1.1000 0.0000 -4.9000
v  2.6000 0.0000 -5.3000
v  2.7000 0.0000 -5.3000
v  2.6000 0.0000 -5.4000
v  2.7000 0.0000 -5.4000
v  0.6000 0.0000 -5.5000
v  0.7000 0.0000 -5.5000
v  0.6000 0.0000 -5.6000
v  0.7000 0.0000 -5.6000
v  0.2000 0.0000 -5.9000
v  0.3000 0.0000 -5.9000
v  0.2000 0.0000 -6.0000
v  0.3000 0.0000 -6.0000
v  2.5000 0.0000 -6.1000
v  2.6000 0.0000 -6.1000
v  2.5000 0.0000 -6.2000
v  2.6000 0.0000 -6.2000
v  0.7000 0.0000 -6.3000
v  0.8000 0.0000 -6.3000
v  0.7000 0.0000 -6.4000
v  0.8000 0.0000 -6.4000
v  3.0000 0.0000 -6.5000
v  3.1000 0.0000 -6.5000
v  1.6000 0.0000 -6.6000
v  1.7000 0.0000 -6.6000
v  3.0000 0.0000 -6.6000
v  3.1000 0.0000 -6.6000
v  1.6000 0.0000 -6.7000
v  1.7000 0.0000 -6.7000
v  2.2000 0.1000 -0.3000
v  2.3000 0.1000 -0.3000
v  3.2000 0.1000 -0.3000
v  3.3000 0.1000 -0.3000
v  0.3000 0.1000 -0.4000
v  0.4000 0.1000 -0.4000
v  2.2000 0.1000 -0.4000
v  2.3000 0.1000 -0.4000
v  3.2000 0.1000 -0.4000
v  3.3000 0.1000 -0.4000
v  0.3000 0.1000 -0.5000
v  0.4000 0.1000 -0.5000
v  1.5000 0.1000 -0.9000
v  1.6000 0.1000 -0.9000
v  2.5000 0.1000 -0.9000
v  2.6000 0.1000 -0.9000
v  1.5000 0.1000 -1.0000
v  1.6000 0.1000 -1.0000
v  1.7000 0.1000 -1.0000
v  2.5000 0.1000 -1.0000
v  2.6000 0.1000 -1.0000
v  1.6000 0.1000 -1.1000
v  1.7000 0.1000 -1.1000
v  1.0000 0.1000 -1.2000
v  1.1000 0.1000 -1.2000
v  3.5000 0.1000 -1.2000
v  1.0000 0.1000 -1.3000
v  1.1000 0.1000 -1.3000
v  3.5000 0.1000 -1.3000
v  3.1000 0.1000 -1.6000
v  3.2000 0.1000 -1.6000
v  3.1000 0.1000 -1.7000
v  3.2000 0.1000 -1.7000
v  0.6000 0.1000 -1.9000
v  0.7000 0.1000 -1.9000
v  0.6000 0.1000 -2.0000
v  0.7000 0.1000 -2.0000
v  0.2000 0.1000 -2.3000
v  0.3000 0.1000 -2.3000
v  0.2000 0.1000 -2.4000
v  0.3000 0.1000 -2.4000
v  2.5000 0.1000 -2.5000
v  2.6000 0.1000 -2.5000
v  2.5000 0.1000 -2.6000
v  2.6000 0.1000 -2.6000
v  0.7000 0.1000 -2.7000
v  0.8000 0.1000 -2.7000
v  0.7000 0.1000 -2.8000
v  0.8000 0.1000 -2.8000
v  1.6000 0.1000 -3.0000
v  1.7000 0.1000 -3.0000
v  1.6000 0.1000 -3.1000
v  1.7000 0.1000 -3.1000
v  3.4000 0.1000 -3.5000
v  3.5000 0.1000 -3.5000
v  3.4000 0.1000 -3.6000
v  3.5000 0.1000 -3.6000
v  2.2000 0.1000 -3.9000
v  2.3000 0.1000 -3.9000
v  0.3000 0.1000 -4.0000
v  0.4000 0.1000 -4.0000
v  2.2000 0.1000 -4.0000
v  2.3000 0.1000 -4.0000
v  0.3000 0.1000 -4.1000
v  0.4000 0.1000 -4.1000
v  1.5000 0.1000 -4.5000
v  1.6000 0.1000 -4.5000
v  2.5000 0.1000 -4.5000
v  2.6000 0.1000 -4.5000
v  1.5000 0.1000 -4.6000
v  1.6000 0.1000 -4.6000
v  1.7000 0.1000 -4.6000
v  2.5000 0.1000 -4.6000
v  2.6000 0.1000 -4.6000
v  1.6000 0.1000 -4.7000
v  1.7000 0.1000 -4.7000
v  3.2000 0.1000 -4.7000
v  3.3000 0.1000 -4.7000
v  1.0000 0.1000 -4.8000
v  1.1000 0.1000 -4.8000
v  3.2000 0.1000 -4.8000
v  3.3000 0.1000 -4.8000
v  1.0000 0.1000 -4.9000
v  1.1000 0.1000 -4.9000
v  2.6000 0.1000 -5.3000
v  2.7000 0.1000 -5.3000
v  2.6000 0.1000 -5.4000
v  2.7000 0.1000 -5.4000
v  0.6000 0.1000 -5.5000
v  0.7000 0.1000 -5.5000
v  0.6000 0.1000 -5.6000
v  0.7000 0.1000 -5.6000
v  0.2000 0.1000 -5.9000
v  0.3000 0.1000 -5.9000
v  0.2000 0.1000 -6.0000
v  0.3000 0.1000 -6.0000
v  2.5000 0.1000 -6.1000
v  2.6000 0.1000 -6.1000
v  2.5000 0.1000 -6.2000
v  2.6000 0.1000 -6.2000
v  0.7000 0.1000 -6.3000
v  0.8000 0.1000 -6.3000
v  0.7000 0.1000 -6.4000
v  0.8000 0.1000 -6.4000
v  3.0000 0.1000 -6.5000
v  3.1000 0.1000 -6.5000
v  1.6000 0.1000 -6.6000
v  1.7000 0.1000 -6.6000
v  3.0000 0.1000 -6.6000
v  3.1000 0.1000 -6.6000
v  1.6000 0.1000 -6.7000
v  1.7000 0.1000 -6.7000
# 236 vertices

vn -1.0000 0.0000 -0.0000
vn 1.0000 0.0000 -0.0000
vn 0.0000 0.0000 1.0000
vn 0.0000 0.0000 -1.0000
vn 0.0000 -1.0000 -0.0000
vn 0.0000 1.0000 -0.0000
# 6 vertex normals

vt 0.9824 0.5000 0.0000
vt 0.9863 0.5000 0.0000
vt 0.9434 0.5000 0.0000
vt 0.9277 0.5000 0.0000
# 4 texture coords

o Route_Vierge
g Route_Vierge
usemtl Route_Vierge_palette
s 1
f 1/1/1 2/1/1 3/1/1 
f 4/1/1 2/1/1 1/1/1 
f 5/1/2 6/1/2 7/1/2 
f 6/2/2 8/2/2 9/2/2 
f 7/1/2 6/1/2 9/1/2 
f 8/1/2 10/1/2 11/1/2 
f 9/2/2 8/2/2 11/2/2 
f 11/1/2 10/1/2 12/1/2 
f 5/1/3 1/1/3 3/1/3 
f 7/1/3 1/1/3 5/1/3 
f 2/1/4 4/1/4 10/1/4 
f 10/1/4 4/1/4 12/1/4 
f 13/1/5 5/1/5 3/1/5 
f 14/1/5 5/1/5 13/1/5 
f 15/1/5 5/1/5 14/1/5 
f 16/1/5 5/1/5 15/1/5 
f 17/1/5 13/1/5 3/1/5 
f 18/1/5 13/1/5 17/1/5 
f 19/3/5 14/3/5 13/3/5 
f 19/1/5 13/1/5 18/1/5 
f 20/1/5 15/1/5 14/1/5 
f 20/3/5 14/3/5 19/3/5 
f 21/3/5 16/3/5 15/3/5 
f 21/1/5 15/1/5 20/1/5 
f 22/1/5 5/1/5 16/1/5 
f 22/3/5 16/3/5 21/3/5 
f 23/2/5 18/2/5 17/2/5 
f 23/1/5 17/1/5 3/1/5 
f 24/1/5 21/1/5 20/1/5 
f 24/2/5 18/2/5 23/2/5 
f 24/1/5 19/1/5 18/1/5 
f 24/1/5 22/1/5 21/1/5 
f 24/1/5 20/1/5 19/1/5 
f 25/1/5 24/1/5 23/1/5 
f 25/1/5 22/1/5 24/1/5 
f 26/1/5 22/1/5 25/1/5 
f 27/1/5 22/1/5 26/1/5 
f 28/1/5 22/1/5 27/1/5 
f 29/1/5 25/1/5 23/1/5 
f 29/3/5 26/3/5 25/3/5 
f 30/1/5 27/1/5 26/1/5 
f 30/3/5 26/3/5 29/3/5 
f 31/1/5 27/1/5 30/1/5 
f 32/3/5 28/3/5 27/3/5 
f 32/1/5 27/1/5 31/1/5 
f 33/1/5 22/1/5 28/1/5 
f 33/3/5 28/3/5 32/3/5 
f 34/2/5 31/2/5 30/2/5 
f 34/1/5 30/1/5 29/1/5 
f 35/1/5 32/1/5 31/1/5 
f 35/2/5 31/2/5 34/2/5 
f 35/1/5 33/1/5 32/1/5 
f 36/1/5 34/1/5 29/1/5 
f 36/1/5 29/1/5 23/1/5 
f 36/1/5 35/1/5 34/1/5 
f 37/1/5 35/1/5 36/1/5 
f 38/1/5 5/1/5 22/1/5 
f 38/1/5 35/1/5 37/1/5 
f 38/1/5 33/1/5 35/1/5 
f 38/1/5 22/1/5 33/1/5 
f 6/1/5 5/1/5 38/1/5 
f 39/3/5 37/3/5 36/3/5 
f 39/1/5 36/1/5 23/1/5 
f 40/1/5 38/1/5 37/1/5 
f 40/3/5 37/3/5 39/3/5 
f 41/2/5 6/2/5 38/2/5 
f 41/1/5 38/1/5 40/1/5 
f 8/2/5 6/2/5 41/2/5 
f 42/1/5 40/1/5 39/1/5 
f 42/1/5 41/1/5 40/1/5 
f 42/1/5 8/1/5 41/1/5 
f 43/1/5 8/1/5 42/1/5 
f 44/1/5 42/1/5 39/1/5 
f 44/3/5 43/3/5 42/3/5 
f 45/1/5 8/1/5 43/1/5 
f 45/3/5 43/3/5 44/3/5 
f 46/1/5 39/1/5 23/1/5 
f 46/1/5 44/1/5 39/1/5 
f 46/1/5 45/1/5 44/1/5 
f 47/1/5 45/1/5 46/1/5 
f 48/1/5 46/1/5 23/1/5 
f 48/4/5 47/4/5 46/4/5 
f 49/1/5 45/1/5 47/1/5 
f 49/4/5 47/4/5 48/4/5 
f 50/1/5 23/1/5 3/1/5 
f 50/1/5 48/1/5 23/1/5 
f 50/1/5 49/1/5 48/1/5 
f 51/1/5 49/1/5 50/1/5 
f 52/1/5 50/1/5 3/1/5 
f 52/3/5 51/3/5 50/3/5 
f 53/1/5 49/1/5 51/1/5 
f 53/3/5 51/3/5 52/3/5 
f 54/1/5 45/1/5 49/1/5 
f 54/1/5 49/1/5 53/1/5 
f 54/1/5 53/1/5 52/1/5 
f 55/1/5 45/1/5 54/1/5 
f 56/1/5 54/1/5 52/1/5 
f 56/2/5 55/2/5 54/2/5 
f 57/1/5 45/1/5 55/1/5 
f 57/2/5 55/2/5 56/2/5 
f 58/1/5 56/1/5 52/1/5 
f 58/1/5 57/1/5 56/1/5 
f 59/1/5 57/1/5 58/1/5 
f 60/1/5 58/1/5 52/1/5 
f 60/2/5 59/2/5 58/2/5 
f 61/1/5 57/1/5 59/1/5 
f 61/2/5 59/2/5 60/2/5 
f 62/1/5 61/1/5 60/1/5 
f 62/1/5 57/1/5 61/1/5 
f 63/1/5 57/1/5 62/1/5 
f 64/1/5 62/1/5 60/1/5 
f 64/4/5 63/4/5 62/4/5 
f 65/1/5 57/1/5 63/1/5 
f 65/4/5 63/4/5 64/4/5 
f 66/1/5 8/1/5 45/1/5 
f 66/1/5 57/1/5 65/1/5 
f 66/1/5 65/1/5 64/1/5 
f 66/1/5 45/1/5 57/1/5 
f 67/1/5 8/1/5 66/1/5 
f 68/1/5 66/1/5 64/1/5 
f 68/3/5 67/3/5 66/3/5 
f 69/1/5 8/1/5 67/1/5 
f 69/3/5 67/3/5 68/3/5 
f 70/1/5 68/1/5 64/1/5 
f 70/1/5 69/1/5 68/1/5 
f 71/1/5 69/1/5 70/1/5 
f 72/1/5 64/1/5 60/1/5 
f 72/1/5 60/1/5 52/1/5 
f 72/1/5 70/1/5 64/1/5 
f 73/1/5 70/1/5 72/1/5 
f 74/3/5 71/3/5 70/3/5 
f 74/1/5 70/1/5 73/1/5 
f 75/1/5 69/1/5 71/1/5 
f 75/3/5 71/3/5 74/3/5 
f 76/2/5 73/2/5 72/2/5 
f 76/1/5 72/1/5 52/1/5 
f 77/1/5 74/1/5 73/1/5 
f 77/2/5 73/2/5 76/2/5 
f 77/1/5 75/1/5 74/1/5 
f 78/1/5 77/1/5 76/1/5 
f 78/1/5 75/1/5 77/1/5 
f 79/1/5 75/1/5 78/1/5 
f 80/1/5 69/1/5 75/1/5 
f 80/1/5 75/1/5 79/1/5 
f 81/1/5 69/1/5 80/1/5 
f 82/3/5 79/3/5 78/3/5 
f 82/1/5 78/1/5 76/1/5 
f 83/1/5 80/1/5 79/1/5 
f 83/3/5 79/3/5 82/3/5 
f 84/1/5 80/1/5 83/1/5 
f 85/3/5 81/3/5 80/3/5 
f 85/1/5 80/1/5 84/1/5 
f 86/1/5 69/1/5 81/1/5 
f 86/3/5 81/3/5 85/3/5 
f 87/2/5 84/2/5 83/2/5 
f 87/1/5 83/1/5 82/1/5 
f 88/1/5 85/1/5 84/1/5 
f 88/2/5 84/2/5 87/2/5 
f 88/1/5 86/1/5 85/1/5 
f 89/1/5 69/1/5 86/1/5 
f 89/1/5 86/1/5 88/1/5 
f 90/1/5 69/1/5 89/1/5 
f 91/1/5 87/1/5 82/1/5 
f 91/1/5 88/1/5 87/1/5 
f 91/1/5 82/1/5 76/1/5 
f 91/1/5 89/1/5 88/1/5 
f 92/1/5 89/1/5 91/1/5 
f 93/2/5 90/2/5 89/2/5 
f 93/1/5 89/1/5 92/1/5 
f 94/1/5 69/1/5 90/1/5 
f 94/2/5 90/2/5 93/2/5 
f 95/3/5 92/3/5 91/3/5 
f 95/1/5 91/1/5 76/1/5 
f 96/1/5 93/1/5 92/1/5 
f 96/3/5 92/3/5 95/3/5 
f 96/1/5 94/1/5 93/1/5 
f 97/1/5 96/1/5 95/1/5 
f 97/1/5 94/1/5 96/1/5 
f 98/1/5 94/1/5 97/1/5 
f 99/1/5 97/1/5 95/1/5 
f 99/3/5 98/3/5 97/3/5 
f 100/1/5 94/1/5 98/1/5 
f 100/3/5 98/3/5 99/3/5 
f 101/1/5 95/1/5 76/1/5 
f 101/1/5 99/1/5 95/1/5 
f 101/1/5 100/1/5 99/1/5 
f 102/1/5 100/1/5 101/1/5 
f 103/1/5 101/1/5 76/1/5 
f 103/4/5 102/4/5 101/4/5 
f 104/1/5 100/1/5 102/1/5 
f 104/4/5 102/4/5 103/4/5 
f 105/1/5 52/1/5 3/1/5 
f 105/1/5 76/1/5 52/1/5 
f 105/1/5 104/1/5 103/1/5 
f 105/1/5 103/1/5 76/1/5 
f 106/1/5 104/1/5 105/1/5 
f 107/1/5 105/1/5 3/1/5 
f 107/3/5 106/3/5 105/3/5 
f 108/1/5 104/1/5 106/1/5 
f 108/3/5 106/3/5 107/3/5 
f 109/1/5 100/1/5 104/1/5 
f 109/1/5 104/1/5 108/1/5 
f 109/1/5 108/1/5 107/1/5 
f 110/1/5 100/1/5 109/1/5 
f 111/1/5 109/1/5 107/1/5 
f 111/2/5 110/2/5 109/2/5 
f 112/1/5 100/1/5 110/1/5 
f 112/2/5 110/2/5 111/2/5 
f 113/1/5 111/1/5 107/1/5 
f 113/1/5 112/1/5 111/1/5 
f 114/1/5 112/1/5 113/1/5 
f 115/1/5 113/1/5 107/1/5 
f 115/2/5 114/2/5 113/2/5 
f 116/1/5 112/1/5 114/1/5 
f 116/2/5 114/2/5 115/2/5 
f 117/1/5 94/1/5 100/1/5 
f 117/1/5 112/1/5 116/1/5 
f 117/1/5 116/1/5 115/1/5 
f 117/1/5 100/1/5 112/1/5 
f 118/1/5 94/1/5 117/1/5 
f 119/1/5 117/1/5 115/1/5 
f 120/1/5 117/1/5 119/1/5 
f 121/3/5 118/3/5 117/3/5 
f 121/1/5 117/1/5 120/1/5 
f 122/1/5 94/1/5 118/1/5 
f 122/3/5 118/3/5 121/3/5 
f 123/4/5 120/4/5 119/4/5 
f 123/1/5 119/1/5 115/1/5 
f 124/1/5 121/1/5 120/1/5 
f 124/4/5 120/4/5 123/4/5 
f 124/1/5 122/1/5 121/1/5 
f 2/1/5 107/1/5 3/1/5 
f 2/1/5 115/1/5 107/1/5 
f 2/1/5 124/1/5 123/1/5 
f 2/1/5 123/1/5 115/1/5 
f 10/1/5 122/1/5 124/1/5 
f 10/1/5 124/1/5 2/1/5 
f 10/1/5 69/1/5 94/1/5 
f 10/1/5 8/1/5 69/1/5 
f 10/1/5 94/1/5 122/1/5 
f 1/1/6 7/1/6 125/1/6 
f 125/1/6 7/1/6 126/1/6 
f 126/1/6 7/1/6 127/1/6 
f 127/1/6 7/1/6 128/1/6 
f 1/1/6 125/1/6 129/1/6 
f 129/1/6 125/1/6 130/1/6 
f 125/3/6 126/3/6 131/3/6 
f 130/1/6 125/1/6 131/1/6 
f 126/1/6 127/1/6 132/1/6 
f 131/3/6 126/3/6 132/3/6 
f 127/3/6 128/3/6 133/3/6 
f 132/1/6 127/1/6 133/1/6 
f 128/1/6 7/1/6 134/1/6 
f 133/3/6 128/3/6 134/3/6 
f 129/2/6 130/2/6 135/2/6 
f 1/1/6 129/1/6 135/1/6 
f 132/1/6 133/1/6 136/1/6 
f 135/2/6 130/2/6 136/2/6 
f 130/1/6 131/1/6 136/1/6 
f 133/1/6 134/1/6 136/1/6 
f 131/1/6 132/1/6 136/1/6 
f 135/1/6 136/1/6 137/1/6 
f 136/1/6 134/1/6 137/1/6 
f 137/1/6 134/1/6 138/1/6 
f 138/1/6 134/1/6 139/1/6 
f 139/1/6 134/1/6 140/1/6 
f 135/1/6 137/1/6 141/1/6 
f 137/3/6 138/3/6 141/3/6 
f 138/1/6 139/1/6 142/1/6 
f 141/3/6 138/3/6 142/3/6 
f 142/1/6 139/1/6 143/1/6 
f 139/3/6 140/3/6 144/3/6 
f 143/1/6 139/1/6 144/1/6 
f 140/1/6 134/1/6 145/1/6 
f 144/3/6 140/3/6 145/3/6 
f 142/2/6 143/2/6 146/2/6 
f 141/1/6 142/1/6 146/1/6 
f 143/1/6 144/1/6 147/1/6 
f 146/2/6 143/2/6 147/2/6 
f 144/1/6 145/1/6 147/1/6 
f 141/1/6 146/1/6 148/1/6 
f 135/1/6 141/1/6 148/1/6 
f 146/1/6 147/1/6 148/1/6 
f 148/1/6 147/1/6 149/1/6 
f 134/1/6 7/1/6 150/1/6 
f 149/1/6 147/1/6 150/1/6 
f 147/1/6 145/1/6 150/1/6 
f 145/1/6 134/1/6 150/1/6 
f 150/1/6 7/1/6 9/1/6 
f 148/3/6 149/3/6 151/3/6 
f 135/1/6 148/1/6 151/1/6 
f 149/1/6 150/1/6 152/1/6 
f 151/3/6 149/3/6 152/3/6 
f 150/2/6 9/2/6 153/2/6 
f 152/1/6 150/1/6 153/1/6 
f 153/2/6 9/2/6 11/2/6 
f 151/1/6 152/1/6 154/1/6 
f 152/1/6 153/1/6 154/1/6 
f 153/1/6 11/1/6 154/1/6 
f 154/1/6 11/1/6 155/1/6 
f 151/1/6 154/1/6 156/1/6 
f 154/3/6 155/3/6 156/3/6 
f 155/1/6 11/1/6 157/1/6 
f 156/3/6 155/3/6 157/3/6 
f 135/1/6 151/1/6 158/1/6 
f 151/1/6 156/1/6 158/1/6 
f 156/1/6 157/1/6 158/1/6 
f 158/1/6 157/1/6 159/1/6 
f 135/1/6 158/1/6 160/1/6 
f 158/4/6 159/4/6 160/4/6 
f 159/1/6 157/1/6 161/1/6 
f 160/4/6 159/4/6 161/4/6 
f 1/1/6 135/1/6 162/1/6 
f 135/1/6 160/1/6 162/1/6 
f 160/1/6 161/1/6 162/1/6 
f 162/1/6 161/1/6 163/1/6 
f 1/1/6 162/1/6 164/1/6 
f 162/3/6 163/3/6 164/3/6 
f 163/1/6 161/1/6 165/1/6 
f 164/3/6 163/3/6 165/3/6 
f 161/1/6 157/1/6 166/1/6 
f 165/1/6 161/1/6 166/1/6 
f 164/1/6 165/1/6 166/1/6 
f 166/1/6 157/1/6 167/1/6 
f 164/1/6 166/1/6 168/1/6 
f 166/2/6 167/2/6 168/2/6 
f 167/1/6 157/1/6 169/1/6 
f 168/2/6 167/2/6 169/2/6 
f 164/1/6 168/1/6 170/1/6 
f 168/1/6 169/1/6 170/1/6 
f 170/1/6 169/1/6 171/1/6 
f 164/1/6 170/1/6 172/1/6 
f 170/2/6 171/2/6 172/2/6 
f 171/1/6 169/1/6 173/1/6 
f 172/2/6 171/2/6 173/2/6 
f 172/1/6 173/1/6 174/1/6 
f 173/1/6 169/1/6 174/1/6 
f 174/1/6 169/1/6 175/1/6 
f 172/1/6 174/1/6 176/1/6 
f 174/4/6 175/4/6 176/4/6 
f 175/1/6 169/1/6 177/1/6 
f 176/4/6 175/4/6 177/4/6 
f 157/1/6 11/1/6 178/1/6 
f 177/1/6 169/1/6 178/1/6 
f 176/1/6 177/1/6 178/1/6 
f 169/1/6 157/1/6 178/1/6 
f 178/1/6 11/1/6 179/1/6 
f 176/1/6 178/1/6 180/1/6 
f 178/3/6 179/3/6 180/3/6 
f 179/1/6 11/1/6 181/1/6 
f 180/3/6 179/3/6 181/3/6 
f 176/1/6 180/1/6 182/1/6 
f 180/1/6 181/1/6 182/1/6 
f 182/1/6 181/1/6 183/1/6 
f 172/1/6 176/1/6 184/1/6 
f 164/1/6 172/1/6 184/1/6 
f 176/1/6 182/1/6 184/1/6 
f 184/1/6 182/1/6 185/1/6 
f 182/3/6 183/3/6 186/3/6 
f 185/1/6 182/1/6 186/1/6 
f 183/1/6 181/1/6 187/1/6 
f 186/3/6 183/3/6 187/3/6 
f 184/2/6 185/2/6 188/2/6 
f 164/1/6 184/1/6 188/1/6 
f 185/1/6 186/1/6 189/1/6 
f 188/2/6 185/2/6 189/2/6 
f 186/1/6 187/1/6 189/1/6 
f 188/1/6 189/1/6 190/1/6 
f 189/1/6 187/1/6 190/1/6 
f 190/1/6 187/1/6 191/1/6 
f 187/1/6 181/1/6 192/1/6 
f 191/1/6 187/1/6 192/1/6 
f 192/1/6 181/1/6 193/1/6 
f 190/3/6 191/3/6 194/3/6 
f 188/1/6 190/1/6 194/1/6 
f 191/1/6 192/1/6 195/1/6 
f 194/3/6 191/3/6 195/3/6 
f 195/1/6 192/1/6 196/1/6 
f 192/3/6 193/3/6 197/3/6 
f 196/1/6 192/1/6 197/1/6 
f 193/1/6 181/1/6 198/1/6 
f 197/3/6 193/3/6 198/3/6 
f 195/2/6 196/2/6 199/2/6 
f 194/1/6 195/1/6 199/1/6 
f 196/1/6 197/1/6 200/1/6 
f 199/2/6 196/2/6 200/2/6 
f 197/1/6 198/1/6 200/1/6 
f 198/1/6 181/1/6 201/1/6 
f 200/1/6 198/1/6 201/1/6 
f 201/1/6 181/1/6 202/1/6 
f 194/1/6 199/1/6 203/1/6 
f 199/1/6 200/1/6 203/1/6 
f 188/1/6 194/1/6 203/1/6 
f 200/1/6 201/1/6 203/1/6 
f 203/1/6 201/1/6 204/1/6 
f 201/2/6 202/2/6 205/2/6 
f 204/1/6 201/1/6 205/1/6 
f 202/1/6 181/1/6 206/1/6 
f 205/2/6 202/2/6 206/2/6 
f 203/3/6 204/3/6 207/3/6 
f 188/1/6 203/1/6 207/1/6 
f 204/1/6 205/1/6 208/1/6 
f 207/3/6 204/3/6 208/3/6 
f 205/1/6 206/1/6 208/1/6 
f 207/1/6 208/1/6 209/1/6 
f 208/1/6 206/1/6 209/1/6 
f 209/1/6 206/1/6 210/1/6 
f 207/1/6 209/1/6 211/1/6 
f 209/3/6 210/3/6 211/3/6 
f 210/1/6 206/1/6 212/1/6 
f 211/3/6 210/3/6 212/3/6 
f 188/1/6 207/1/6 213/1/6 
f 207/1/6 211/1/6 213/1/6 
f 211/1/6 212/1/6 213/1/6 
f 213/1/6 212/1/6 214/1/6 
f 188/1/6 213/1/6 215/1/6 
f 213/4/6 214/4/6 215/4/6 
f 214/1/6 212/1/6 216/1/6 
f 215/4/6 214/4/6 216/4/6 
f 1/1/6 164/1/6 217/1/6 
f 164/1/6 188/1/6 217/1/6 
f 215/1/6 216/1/6 217/1/6 
f 188/1/6 215/1/6 217/1/6 
f 217/1/6 216/1/6 218/1/6 
f 1/1/6 217/1/6 219/1/6 
f 217/3/6 218/3/6 219/3/6 
f 218/1/6 216/1/6 220/1/6 
f 219/3/6 218/3/6 220/3/6 
f 216/1/6 212/1/6 221/1/6 
f 220/1/6 216/1/6 221/1/6 
f 219/1/6 220/1/6 221/1/6 
f 221/1/6 212/1/6 222/1/6 
f 219/1/6 221/1/6 223/1/6 
f 221/2/6 222/2/6 223/2/6 
f 222/1/6 212/1/6 224/1/6 
f 223/2/6 222/2/6 224/2/6 
f 219/1/6 223/1/6 225/1/6 
f 223/1/6 224/1/6 225/1/6 
f 225/1/6 224/1/6 226/1/6 
f 219/1/6 225/1/6 227/1/6 
f 225/2/6 226/2/6 227/2/6 
f 226/1/6 224/1/6 228/1/6 
f 227/2/6 226/2/6 228/2/6 
f 212/1/6 206/1/6 229/1/6 
f 228/1/6 224/1/6 229/1/6 
f 227/1/6 228/1/6 229/1/6 
f 224/1/6 212/1/6 229/1/6 
f 229/1/6 206/1/6 230/1/6 
f 227/1/6 229/1/6 231/1/6 
f 231/1/6 229/1/6 232/1/6 
f 229/3/6 230/3/6 233/3/6 
f 232/1/6 229/1/6 233/1/6 
f 230/1/6 206/1/6 234/1/6 
f 233/3/6 230/3/6 234/3/6 
f 231/4/6 232/4/6 235/4/6 
f 227/1/6 231/1/6 235/1/6 
f 232/1/6 233/1/6 236/1/6 
f 235/4/6 232/4/6 236/4/6 
f 233/1/6 234/1/6 236/1/6 
f 1/1/6 219/1/6 4/1/6 
f 219/1/6 227/1/6 4/1/6 
f 235/1/6 236/1/6 4/1/6 
f 227/1/6 235/1/6 4/1/6 
f 236/1/6 234/1/6 12/1/6 
f 4/1/6 236/1/6 12/1/6 
f 206/1/6 181/1/6 12/1/6 
f 181/1/6 11/1/6 12/1/6 
f 234/1/6 206/1/6 12/1/6 
# 0 polygons - 468 triangles

