# 3ds Max Wavefront OBJ Exporter v0.97b - (c)2007 guruware
# File Created: 05.11.2019 12:55:48

mtllib Lampadaire.mtl

#
# object Lampadaire
#

v  0.0000 0.1000 -0.2000
v  0.0000 0.0000 -0.6000
v  0.0000 0.0000 -0.2000
v  0.0000 0.1000 -0.6000
v  0.1000 0.1000 -0.1000
v  0.1000 0.0000 -0.2000
v  0.1000 0.0000 -0.1000
v  0.1000 0.1000 -0.2000
v  0.1000 0.1000 -0.6000
v  0.1000 0.0000 -0.7000
v  0.1000 0.0000 -0.6000
v  0.1000 0.1000 -0.7000
v  0.1000 0.2000 -0.2000
v  0.1000 0.2000 -0.6000
v  0.1000 1.0000 -0.2000
v  0.1000 1.0000 -0.6000
v  0.2000 0.1000 -0.0000
v  0.2000 0.0000 -0.1000
v  0.2000 0.0000 -0.0000
v  0.2000 0.1000 -0.1000
v  0.2000 0.1000 -0.7000
v  0.2000 0.0000 -0.8000
v  0.2000 0.0000 -0.7000
v  0.2000 0.1000 -0.8000
v  0.2000 0.2000 -0.1000
v  0.2000 0.1000 -0.2000
v  0.2000 0.2000 -0.2000
v  0.2000 0.2000 -0.6000
v  0.2000 0.1000 -0.6000
v  0.2000 0.2000 -0.7000
v  0.2000 1.0000 -0.1000
v  0.2000 1.0000 -0.2000
v  0.2000 1.0000 -0.6000
v  0.2000 1.0000 -0.7000
v  0.2000 4.8000 -0.3000
v  0.2000 1.0000 -0.5000
v  0.2000 1.0000 -0.3000
v  0.2000 4.8000 -0.5000
v  0.2000 5.1000 -0.7000
v  0.2000 5.0000 -1.0000
v  0.2000 5.0000 -0.7000
v  0.2000 5.1000 -0.8000
v  0.2000 5.2000 -0.3000
v  0.2000 5.0000 -0.5000
v  0.2000 5.0000 -0.3000
v  0.2000 5.2000 -0.5000
v  0.2000 5.2000 -0.8000
v  0.2000 5.2000 -0.9000
v  0.2000 5.2000 -1.0000
v  0.2000 5.3000 -0.9000
v  0.2000 5.2000 -1.7000
v  0.2000 5.3000 -1.2000
v  0.2000 5.4000 -1.2000
v  0.2000 5.4000 -1.5000
v  0.2000 5.5000 -1.5000
v  0.2000 5.5000 -1.7000
v  0.3000 4.8000 -0.2000
v  0.3000 1.0000 -0.3000
v  0.3000 1.0000 -0.2000
v  0.3000 4.8000 -0.3000
v  0.3000 4.8000 -0.5000
v  0.3000 1.0000 -0.6000
v  0.3000 1.0000 -0.5000
v  0.3000 4.8000 -0.6000
v  0.3000 5.0000 -0.3000
v  0.3000 5.0000 -0.5000
v  0.3000 5.1000 -0.7000
v  0.3000 5.0000 -0.7000
v  0.3000 5.1000 -1.6000
v  0.3000 5.0000 -1.6000
v  0.3000 5.0000 -1.0000
v  0.3000 5.2000 -0.2000
v  0.3000 5.0000 -0.2000
v  0.3000 5.2000 -0.3000
v  0.3000 5.2000 -0.5000
v  0.3000 5.1000 -0.8000
v  0.3000 5.2000 -0.7000
v  0.3000 5.2000 -0.8000
v  0.3000 5.2000 -1.0000
v  0.3000 5.1000 -1.7000
v  0.3000 5.2000 -1.7000
v  0.3000 5.3000 -0.7000
v  0.3000 5.2000 -0.9000
v  0.3000 5.3000 -0.9000
v  0.3000 5.4000 -0.3000
v  0.3000 5.4000 -0.5000
v  0.3000 5.4000 -1.1000
v  0.3000 5.3000 -1.2000
v  0.3000 5.3000 -1.1000
v  0.3000 5.4000 -1.2000
v  0.3000 5.5000 -1.4000
v  0.3000 5.4000 -1.5000
v  0.3000 5.4000 -1.4000
v  0.3000 5.5000 -1.5000
v  0.3000 5.5000 -1.7000
v  0.3000 5.2000 -1.8000
v  0.3000 5.5000 -1.8000
v  0.5000 1.0000 -0.2000
v  0.5000 1.0000 -0.3000
v  0.5000 4.8000 -0.2000
v  0.5000 4.8000 -0.3000
v  0.5000 1.0000 -0.5000
v  0.5000 1.0000 -0.6000
v  0.5000 4.8000 -0.5000
v  0.5000 4.8000 -0.6000
v  0.5000 5.0000 -0.3000
v  0.5000 5.0000 -0.5000
v  0.5000 5.0000 -0.7000
v  0.5000 5.1000 -0.7000
v  0.5000 5.0000 -1.0000
v  0.5000 5.0000 -1.6000
v  0.5000 5.1000 -1.6000
v  0.5000 5.0000 -0.2000
v  0.5000 5.2000 -0.2000
v  0.5000 5.2000 -0.3000
v  0.5000 5.1000 -0.8000
v  0.5000 5.2000 -0.5000
v  0.5000 5.2000 -0.7000
v  0.5000 5.2000 -0.8000
v  0.5000 5.1000 -1.7000
v  0.5000 5.2000 -1.0000
v  0.5000 5.2000 -1.7000
v  0.5000 5.2000 -0.9000
v  0.5000 5.3000 -0.7000
v  0.5000 5.3000 -0.9000
v  0.5000 5.4000 -0.3000
v  0.5000 5.4000 -0.5000
v  0.5000 5.3000 -1.1000
v  0.5000 5.3000 -1.2000
v  0.5000 5.4000 -1.1000
v  0.5000 5.4000 -1.2000
v  0.5000 5.4000 -1.4000
v  0.5000 5.4000 -1.5000
v  0.5000 5.5000 -1.4000
v  0.5000 5.5000 -1.5000
v  0.5000 5.2000 -1.8000
v  0.5000 5.5000 -1.7000
v  0.5000 5.5000 -1.8000
v  0.6000 0.0000 -0.0000
v  0.6000 0.0000 -0.1000
v  0.6000 0.1000 -0.0000
v  0.6000 0.1000 -0.1000
v  0.6000 0.0000 -0.7000
v  0.6000 0.0000 -0.8000
v  0.6000 0.1000 -0.7000
v  0.6000 0.1000 -0.8000
v  0.6000 0.1000 -0.2000
v  0.6000 0.2000 -0.1000
v  0.6000 0.2000 -0.2000
v  0.6000 0.1000 -0.6000
v  0.6000 0.2000 -0.6000
v  0.6000 0.2000 -0.7000
v  0.6000 1.0000 -0.1000
v  0.6000 1.0000 -0.2000
v  0.6000 1.0000 -0.6000
v  0.6000 1.0000 -0.7000
v  0.6000 1.0000 -0.3000
v  0.6000 1.0000 -0.5000
v  0.6000 4.8000 -0.3000
v  0.6000 4.8000 -0.5000
v  0.6000 5.0000 -0.7000
v  0.6000 5.0000 -1.0000
v  0.6000 5.1000 -0.7000
v  0.6000 5.1000 -0.8000
v  0.6000 5.0000 -0.3000
v  0.6000 5.0000 -0.5000
v  0.6000 5.2000 -0.3000
v  0.6000 5.2000 -0.5000
v  0.6000 5.2000 -0.8000
v  0.6000 5.2000 -0.9000
v  0.6000 5.2000 -1.0000
v  0.6000 5.2000 -1.7000
v  0.6000 5.3000 -0.9000
v  0.6000 5.3000 -1.2000
v  0.6000 5.4000 -1.2000
v  0.6000 5.4000 -1.5000
v  0.6000 5.5000 -1.5000
v  0.6000 5.5000 -1.7000
v  0.7000 0.0000 -0.1000
v  0.7000 0.0000 -0.2000
v  0.7000 0.1000 -0.1000
v  0.7000 0.1000 -0.2000
v  0.7000 0.0000 -0.6000
v  0.7000 0.0000 -0.7000
v  0.7000 0.1000 -0.6000
v  0.7000 0.1000 -0.7000
v  0.7000 0.2000 -0.2000
v  0.7000 0.2000 -0.6000
v  0.7000 1.0000 -0.2000
v  0.7000 1.0000 -0.6000
v  0.8000 0.0000 -0.2000
v  0.8000 0.0000 -0.6000
v  0.8000 0.1000 -0.2000
v  0.8000 0.1000 -0.6000
# 194 vertices

vn -1.0000 0.0000 -0.0000
vn 1.0000 0.0000 -0.0000
vn 0.0000 0.0000 1.0000
vn 0.0000 0.0000 -1.0000
vn 0.0000 -1.0000 -0.0000
vn 0.0000 1.0000 -0.0000
# 6 vertex normals

vt 0.9902 0.5000 0.0000
vt 0.9863 0.5000 0.0000
vt 0.9824 0.5000 0.0000
vt 0.4824 0.5000 0.0000
# 4 texture coords

o Lampadaire
g Lampadaire
usemtl Lampadaire_palette
s 1
f 1/1/1 2/1/1 3/1/1 
f 4/1/1 2/1/1 1/1/1 
f 5/1/1 6/1/1 7/1/1 
f 8/1/1 6/1/1 5/1/1 
f 9/1/1 10/1/1 11/1/1 
f 12/1/1 10/1/1 9/1/1 
f 13/2/1 9/2/1 8/2/1 
f 14/2/1 9/2/1 13/2/1 
f 15/1/1 14/1/1 13/1/1 
f 16/1/1 14/1/1 15/1/1 
f 17/1/1 18/1/1 19/1/1 
f 20/1/1 18/1/1 17/1/1 
f 21/1/1 22/1/1 23/1/1 
f 24/1/1 22/1/1 21/1/1 
f 25/2/1 26/2/1 20/2/1 
f 27/2/1 26/2/1 25/2/1 
f 28/2/1 21/2/1 29/2/1 
f 30/2/1 21/2/1 28/2/1 
f 31/1/1 27/1/1 25/1/1 
f 32/1/1 27/1/1 31/1/1 
f 33/1/1 30/1/1 28/1/1 
f 34/1/1 30/1/1 33/1/1 
f 35/2/1 36/2/1 37/2/1 
f 38/2/1 36/2/1 35/2/1 
f 39/2/1 40/2/1 41/2/1 
f 42/2/1 40/2/1 39/2/1 
f 43/2/1 44/2/1 45/2/1 
f 46/2/1 44/2/1 43/2/1 
f 47/2/1 40/2/1 42/2/1 
f 48/2/1 40/2/1 47/2/1 
f 49/2/1 40/2/1 48/2/1 
f 50/2/1 51/2/1 49/2/1 
f 50/2/1 49/2/1 48/2/1 
f 52/2/1 51/2/1 50/2/1 
f 53/2/1 51/2/1 52/2/1 
f 54/2/1 51/2/1 53/2/1 
f 55/2/1 51/2/1 54/2/1 
f 56/2/1 51/2/1 55/2/1 
f 57/2/1 58/2/1 59/2/1 
f 60/2/1 58/2/1 57/2/1 
f 61/2/1 62/2/1 63/2/1 
f 64/2/1 62/2/1 61/2/1 
f 65/3/1 61/3/1 60/3/1 
f 66/3/1 61/3/1 65/3/1 
f 67/2/1 68/2/1 66/2/1 
f 69/4/1 70/4/1 71/4/1 
f 72/2/1 65/2/1 73/2/1 
f 74/2/1 65/2/1 72/2/1 
f 75/2/1 76/2/1 67/2/1 
f 75/2/1 67/2/1 66/2/1 
f 77/2/1 76/2/1 75/2/1 
f 78/2/1 76/2/1 77/2/1 
f 79/4/1 80/4/1 69/4/1 
f 79/4/1 69/4/1 71/4/1 
f 81/4/1 80/4/1 79/4/1 
f 82/2/1 83/2/1 78/2/1 
f 82/2/1 78/2/1 77/2/1 
f 84/2/1 83/2/1 82/2/1 
f 85/3/1 75/3/1 74/3/1 
f 86/3/1 75/3/1 85/3/1 
f 87/2/1 88/2/1 89/2/1 
f 90/2/1 88/2/1 87/2/1 
f 91/2/1 92/2/1 93/2/1 
f 94/2/1 92/2/1 91/2/1 
f 95/2/1 96/2/1 81/2/1 
f 97/2/1 96/2/1 95/2/1 
f 98/2/2 99/2/2 100/2/2 
f 100/2/2 99/2/2 101/2/2 
f 102/2/2 103/2/2 104/2/2 
f 104/2/2 103/2/2 105/2/2 
f 101/3/2 104/3/2 106/3/2 
f 106/3/2 104/3/2 107/3/2 
f 107/2/2 108/2/2 109/2/2 
f 110/4/2 111/4/2 112/4/2 
f 113/2/2 106/2/2 114/2/2 
f 114/2/2 106/2/2 115/2/2 
f 109/2/2 116/2/2 117/2/2 
f 107/2/2 109/2/2 117/2/2 
f 117/2/2 116/2/2 118/2/2 
f 118/2/2 116/2/2 119/2/2 
f 112/4/2 120/4/2 121/4/2 
f 110/4/2 112/4/2 121/4/2 
f 121/4/2 120/4/2 122/4/2 
f 119/2/2 123/2/2 124/2/2 
f 118/2/2 119/2/2 124/2/2 
f 124/2/2 123/2/2 125/2/2 
f 115/3/2 117/3/2 126/3/2 
f 126/3/2 117/3/2 127/3/2 
f 128/2/2 129/2/2 130/2/2 
f 130/2/2 129/2/2 131/2/2 
f 132/2/2 133/2/2 134/2/2 
f 134/2/2 133/2/2 135/2/2 
f 122/2/2 136/2/2 137/2/2 
f 137/2/2 136/2/2 138/2/2 
f 139/1/2 140/1/2 141/1/2 
f 141/1/2 140/1/2 142/1/2 
f 143/1/2 144/1/2 145/1/2 
f 145/1/2 144/1/2 146/1/2 
f 142/2/2 147/2/2 148/2/2 
f 148/2/2 147/2/2 149/2/2 
f 150/2/2 145/2/2 151/2/2 
f 151/2/2 145/2/2 152/2/2 
f 148/1/2 149/1/2 153/1/2 
f 153/1/2 149/1/2 154/1/2 
f 151/1/2 152/1/2 155/1/2 
f 155/1/2 152/1/2 156/1/2 
f 157/2/2 158/2/2 159/2/2 
f 159/2/2 158/2/2 160/2/2 
f 161/2/2 162/2/2 163/2/2 
f 163/2/2 162/2/2 164/2/2 
f 165/2/2 166/2/2 167/2/2 
f 167/2/2 166/2/2 168/2/2 
f 164/2/2 162/2/2 169/2/2 
f 169/2/2 162/2/2 170/2/2 
f 170/2/2 162/2/2 171/2/2 
f 171/2/2 172/2/2 173/2/2 
f 170/2/2 171/2/2 173/2/2 
f 173/2/2 172/2/2 174/2/2 
f 174/2/2 172/2/2 175/2/2 
f 175/2/2 172/2/2 176/2/2 
f 176/2/2 172/2/2 177/2/2 
f 177/2/2 172/2/2 178/2/2 
f 179/1/2 180/1/2 181/1/2 
f 181/1/2 180/1/2 182/1/2 
f 183/1/2 184/1/2 185/1/2 
f 185/1/2 184/1/2 186/1/2 
f 182/2/2 185/2/2 187/2/2 
f 187/2/2 185/2/2 188/2/2 
f 187/1/2 188/1/2 189/1/2 
f 189/1/2 188/1/2 190/1/2 
f 191/1/2 192/1/2 193/1/2 
f 193/1/2 192/1/2 194/1/2 
f 139/1/3 17/1/3 19/1/3 
f 141/1/3 17/1/3 139/1/3 
f 18/1/3 5/1/3 7/1/3 
f 20/1/3 5/1/3 18/1/3 
f 142/2/3 25/2/3 20/2/3 
f 148/1/3 31/1/3 25/1/3 
f 148/2/3 25/2/3 142/2/3 
f 153/1/3 31/1/3 148/1/3 
f 179/1/3 142/1/3 140/1/3 
f 181/1/3 142/1/3 179/1/3 
f 6/1/3 1/1/3 3/1/3 
f 8/1/3 1/1/3 6/1/3 
f 26/2/3 13/2/3 8/2/3 
f 27/1/3 15/1/3 13/1/3 
f 27/2/3 13/2/3 26/2/3 
f 32/1/3 15/1/3 27/1/3 
f 98/2/3 57/2/3 59/2/3 
f 100/2/3 57/2/3 98/2/3 
f 113/2/3 72/2/3 73/2/3 
f 114/2/3 72/2/3 113/2/3 
f 182/2/3 149/2/3 147/2/3 
f 187/1/3 154/1/3 149/1/3 
f 187/2/3 149/2/3 182/2/3 
f 189/1/3 154/1/3 187/1/3 
f 191/1/3 182/1/3 180/1/3 
f 193/1/3 182/1/3 191/1/3 
f 58/2/3 35/2/3 37/2/3 
f 60/2/3 35/2/3 58/2/3 
f 65/2/3 43/2/3 45/2/3 
f 74/2/3 43/2/3 65/2/3 
f 101/3/3 65/3/3 60/3/3 
f 106/3/3 65/3/3 101/3/3 
f 115/3/3 85/3/3 74/3/3 
f 126/3/3 85/3/3 115/3/3 
f 157/2/3 101/2/3 99/2/3 
f 159/2/3 101/2/3 157/2/3 
f 165/2/3 115/2/3 106/2/3 
f 167/2/3 115/2/3 165/2/3 
f 68/2/3 39/2/3 41/2/3 
f 67/2/3 39/2/3 68/2/3 
f 118/2/3 82/2/3 77/2/3 
f 124/2/3 82/2/3 118/2/3 
f 161/2/3 109/2/3 108/2/3 
f 163/2/3 109/2/3 161/2/3 
f 76/2/3 47/2/3 42/2/3 
f 78/2/3 47/2/3 76/2/3 
f 164/2/3 119/2/3 116/2/3 
f 169/2/3 119/2/3 164/2/3 
f 83/2/3 50/2/3 48/2/3 
f 84/2/3 50/2/3 83/2/3 
f 170/2/3 125/2/3 123/2/3 
f 173/2/3 125/2/3 170/2/3 
f 128/2/3 87/2/3 89/2/3 
f 130/2/3 87/2/3 128/2/3 
f 88/2/3 53/2/3 52/2/3 
f 90/2/3 53/2/3 88/2/3 
f 174/2/3 131/2/3 129/2/3 
f 175/2/3 131/2/3 174/2/3 
f 132/2/3 91/2/3 93/2/3 
f 134/2/3 91/2/3 132/2/3 
f 92/2/3 55/2/3 54/2/3 
f 94/2/3 55/2/3 92/2/3 
f 176/2/3 135/2/3 133/2/3 
f 177/2/3 135/2/3 176/2/3 
f 36/2/4 38/2/4 63/2/4 
f 63/2/4 38/2/4 61/2/4 
f 44/2/4 46/2/4 66/2/4 
f 66/2/4 46/2/4 75/2/4 
f 61/3/4 66/3/4 104/3/4 
f 104/3/4 66/3/4 107/3/4 
f 75/3/4 86/3/4 117/3/4 
f 117/3/4 86/3/4 127/3/4 
f 102/2/4 104/2/4 158/2/4 
f 158/2/4 104/2/4 160/2/4 
f 107/2/4 117/2/4 166/2/4 
f 166/2/4 117/2/4 168/2/4 
f 2/1/4 4/1/4 11/1/4 
f 11/1/4 4/1/4 9/1/4 
f 9/2/4 14/2/4 29/2/4 
f 14/1/4 16/1/4 28/1/4 
f 29/2/4 14/2/4 28/2/4 
f 28/1/4 16/1/4 33/1/4 
f 62/2/4 64/2/4 103/2/4 
f 103/2/4 64/2/4 105/2/4 
f 150/2/4 151/2/4 185/2/4 
f 151/1/4 155/1/4 188/1/4 
f 185/2/4 151/2/4 188/2/4 
f 188/1/4 155/1/4 190/1/4 
f 183/1/4 185/1/4 192/1/4 
f 192/1/4 185/1/4 194/1/4 
f 10/1/4 12/1/4 23/1/4 
f 23/1/4 12/1/4 21/1/4 
f 21/2/4 30/2/4 145/2/4 
f 30/1/4 34/1/4 152/1/4 
f 145/2/4 30/2/4 152/2/4 
f 152/1/4 34/1/4 156/1/4 
f 143/1/4 145/1/4 184/1/4 
f 184/1/4 145/1/4 186/1/4 
f 22/1/4 24/1/4 144/1/4 
f 144/1/4 24/1/4 146/1/4 
f 40/2/4 49/2/4 71/2/4 
f 71/2/4 49/2/4 79/2/4 
f 110/2/4 121/2/4 162/2/4 
f 162/2/4 121/2/4 171/2/4 
f 70/4/4 69/4/4 111/4/4 
f 111/4/4 69/4/4 112/4/4 
f 51/2/4 56/2/4 81/2/4 
f 81/2/4 56/2/4 95/2/4 
f 80/4/4 81/4/4 120/4/4 
f 120/4/4 81/4/4 122/4/4 
f 122/2/4 137/2/4 172/2/4 
f 172/2/4 137/2/4 178/2/4 
f 96/2/4 97/2/4 136/2/4 
f 136/2/4 97/2/4 138/2/4 
f 18/1/5 139/1/5 19/1/5 
f 140/1/5 139/1/5 18/1/5 
f 6/1/5 18/1/5 7/1/5 
f 6/1/5 179/1/5 140/1/5 
f 6/1/5 140/1/5 18/1/5 
f 180/1/5 179/1/5 6/1/5 
f 2/1/5 6/1/5 3/1/5 
f 2/1/5 191/1/5 180/1/5 
f 2/1/5 180/1/5 6/1/5 
f 11/1/5 191/1/5 2/1/5 
f 183/1/5 191/1/5 11/1/5 
f 192/1/5 191/1/5 183/1/5 
f 10/1/5 183/1/5 11/1/5 
f 23/1/5 183/1/5 10/1/5 
f 143/1/5 183/1/5 23/1/5 
f 184/1/5 183/1/5 143/1/5 
f 22/1/5 143/1/5 23/1/5 
f 144/1/5 143/1/5 22/1/5 
f 65/2/5 113/2/5 73/2/5 
f 106/2/5 113/2/5 65/2/5 
f 44/2/5 65/2/5 45/2/5 
f 66/2/5 65/2/5 44/2/5 
f 107/2/5 165/2/5 106/2/5 
f 166/2/5 165/2/5 107/2/5 
f 68/2/5 107/2/5 66/2/5 
f 108/2/5 107/2/5 68/2/5 
f 40/2/5 68/2/5 41/2/5 
f 40/2/5 161/2/5 108/2/5 
f 40/2/5 108/2/5 68/2/5 
f 71/2/5 161/2/5 40/2/5 
f 110/2/5 161/2/5 71/2/5 
f 162/2/5 161/2/5 110/2/5 
f 70/4/5 110/4/5 71/4/5 
f 111/4/5 110/4/5 70/4/5 
f 80/4/5 112/4/5 69/4/5 
f 120/4/5 112/4/5 80/4/5 
f 51/2/5 79/2/5 49/2/5 
f 81/2/5 79/2/5 51/2/5 
f 122/2/5 171/2/5 121/2/5 
f 172/2/5 171/2/5 122/2/5 
f 96/2/5 122/2/5 81/2/5 
f 136/2/5 122/2/5 96/2/5 
f 17/1/6 141/1/6 20/1/6 
f 20/1/6 141/1/6 142/1/6 
f 5/1/6 20/1/6 8/1/6 
f 8/1/6 20/1/6 26/1/6 
f 142/1/6 181/1/6 147/1/6 
f 147/1/6 181/1/6 182/1/6 
f 1/1/6 8/1/6 4/1/6 
f 4/1/6 8/1/6 9/1/6 
f 182/1/6 193/1/6 185/1/6 
f 185/1/6 193/1/6 194/1/6 
f 9/1/6 29/1/6 12/1/6 
f 12/1/6 29/1/6 21/1/6 
f 150/1/6 185/1/6 145/1/6 
f 145/1/6 185/1/6 186/1/6 
f 21/1/6 145/1/6 24/1/6 
f 24/1/6 145/1/6 146/1/6 
f 31/1/6 153/1/6 32/1/6 
f 32/1/6 153/1/6 59/1/6 
f 59/1/6 153/1/6 98/1/6 
f 98/1/6 153/1/6 154/1/6 
f 15/1/6 32/1/6 37/1/6 
f 32/1/6 59/1/6 37/1/6 
f 37/1/6 59/1/6 58/1/6 
f 154/1/6 189/1/6 99/1/6 
f 98/1/6 154/1/6 99/1/6 
f 99/1/6 189/1/6 157/1/6 
f 15/1/6 37/1/6 36/1/6 
f 157/1/6 189/1/6 158/1/6 
f 36/1/6 63/1/6 16/1/6 
f 15/1/6 36/1/6 16/1/6 
f 16/1/6 63/1/6 33/1/6 
f 33/1/6 63/1/6 62/1/6 
f 102/1/6 158/1/6 103/1/6 
f 158/1/6 189/1/6 155/1/6 
f 103/1/6 158/1/6 155/1/6 
f 155/1/6 189/1/6 190/1/6 
f 33/1/6 62/1/6 34/1/6 
f 62/1/6 103/1/6 34/1/6 
f 103/1/6 155/1/6 34/1/6 
f 34/1/6 155/1/6 156/1/6 
f 57/2/6 100/2/6 60/2/6 
f 60/2/6 100/2/6 101/2/6 
f 35/2/6 60/2/6 38/2/6 
f 38/2/6 60/2/6 61/2/6 
f 101/2/6 159/2/6 104/2/6 
f 104/2/6 159/2/6 160/2/6 
f 61/2/6 104/2/6 64/2/6 
f 64/2/6 104/2/6 105/2/6 
f 39/2/6 67/2/6 42/2/6 
f 42/2/6 67/2/6 76/2/6 
f 109/2/6 163/2/6 116/2/6 
f 116/2/6 163/2/6 164/2/6 
f 72/2/6 114/2/6 74/2/6 
f 74/2/6 114/2/6 115/2/6 
f 43/2/6 74/2/6 46/2/6 
f 46/2/6 74/2/6 75/2/6 
f 115/2/6 167/2/6 117/2/6 
f 117/2/6 167/2/6 168/2/6 
f 75/2/6 117/2/6 77/2/6 
f 77/2/6 117/2/6 118/2/6 
f 47/2/6 78/2/6 48/2/6 
f 48/2/6 78/2/6 83/2/6 
f 119/2/6 169/2/6 123/2/6 
f 123/2/6 169/2/6 170/2/6 
f 82/2/6 124/2/6 84/2/6 
f 84/2/6 124/2/6 125/2/6 
f 50/2/6 84/2/6 89/2/6 
f 125/2/6 173/2/6 89/2/6 
f 84/2/6 125/2/6 89/2/6 
f 89/2/6 173/2/6 128/2/6 
f 50/2/6 89/2/6 52/2/6 
f 52/2/6 89/2/6 88/2/6 
f 128/2/6 173/2/6 129/2/6 
f 129/2/6 173/2/6 174/2/6 
f 85/3/6 126/3/6 86/3/6 
f 86/3/6 126/3/6 127/3/6 
f 87/2/6 130/2/6 90/2/6 
f 90/2/6 130/2/6 131/2/6 
f 90/2/6 131/2/6 93/2/6 
f 131/2/6 175/2/6 93/2/6 
f 53/2/6 90/2/6 93/2/6 
f 93/2/6 175/2/6 132/2/6 
f 53/2/6 93/2/6 54/2/6 
f 54/2/6 93/2/6 92/2/6 
f 132/2/6 175/2/6 133/2/6 
f 133/2/6 175/2/6 176/2/6 
f 91/2/6 134/2/6 94/2/6 
f 94/2/6 134/2/6 135/2/6 
f 55/2/6 94/2/6 56/2/6 
f 135/2/6 177/2/6 56/2/6 
f 94/2/6 135/2/6 56/2/6 
f 56/2/6 177/2/6 95/2/6 
f 95/2/6 177/2/6 137/2/6 
f 137/2/6 177/2/6 178/2/6 
f 95/2/6 137/2/6 97/2/6 
f 97/2/6 137/2/6 138/2/6 
# 0 polygons - 384 triangles

