# 3ds Max Wavefront OBJ Exporter v0.97b - (c)2007 guruware
# File Created: 11.11.2019 15:00:32

#
# object Porte_Bois_Vitre
#

v  -0.4000 2.4000 -2.0000
v  -0.4000 2.3000 -2.5000
v  -0.4000 2.3000 -2.0000
v  -0.4000 2.4000 -2.5000
v  -0.3000 0.9000 -0.0000
v  -0.3000 0.8000 -0.1000
v  -0.3000 0.8000 -0.0000
v  -0.3000 0.9000 -0.1000
v  -0.3000 1.1000 -0.0000
v  -0.3000 1.1000 -0.1000
v  -0.3000 2.7000 -0.7000
v  -0.3000 2.6000 -2.1000
v  -0.3000 2.6000 -0.6000
v  -0.3000 2.7000 -2.0000
v  -0.3000 3.6000 -0.0000
v  -0.3000 3.5000 -0.1000
v  -0.3000 3.5000 -0.0000
v  -0.3000 3.6000 -0.1000
v  -0.3000 3.8000 -0.0000
v  -0.3000 3.8000 -0.1000
v  -0.3000 4.2000 -0.7000
v  -0.3000 4.2000 -2.0000
v  -0.3000 4.3000 -0.6000
v  -0.3000 4.3000 -2.1000
v  -0.2000 0.8000 -0.0000
v  -0.2000 0.0000 -2.7000
v  -0.2000 0.0000 -0.0000
v  -0.2000 0.8000 -0.1000
v  -0.2000 0.9000 -0.1000
v  -0.2000 1.1000 -0.1000
v  -0.2000 2.0000 -2.3000
v  -0.2000 1.1000 -0.0000
v  -0.2000 2.0000 -2.5000
v  -0.2000 2.1000 -2.4000
v  -0.2000 2.1000 -2.5000
v  -0.2000 2.2000 -2.4000
v  -0.2000 2.2000 -2.5000
v  -0.2000 2.3000 -2.3000
v  -0.2000 2.3000 -2.5000
v  -0.2000 2.4000 -2.3000
v  -0.2000 2.4000 -2.5000
v  -0.2000 2.5000 -2.3000
v  -0.2000 2.5000 -2.5000
v  -0.2000 2.6000 -0.6000
v  -0.2000 2.6000 -2.1000
v  -0.2000 3.5000 -0.0000
v  -0.2000 3.5000 -0.1000
v  -0.2000 3.6000 -0.1000
v  -0.2000 3.8000 -0.1000
v  -0.2000 4.3000 -0.6000
v  -0.2000 3.8000 -0.0000
v  -0.2000 4.3000 -2.1000
v  -0.2000 4.6000 -0.0000
v  -0.2000 4.6000 -2.7000
v  -0.1000 2.2000 -2.4000
v  -0.1000 2.1000 -2.5000
v  -0.1000 2.1000 -2.4000
v  -0.1000 2.2000 -2.5000
v  0.3000 2.4000 -2.0000
v  0.3000 2.3000 -2.3000
v  0.3000 2.3000 -2.0000
v  0.3000 2.4000 -2.3000
v  -0.3000 2.3000 -2.0000
v  -0.3000 2.3000 -2.3000
v  -0.3000 2.4000 -2.0000
v  -0.3000 2.4000 -2.3000
v  0.1000 2.1000 -2.4000
v  0.1000 2.1000 -2.5000
v  0.1000 2.2000 -2.4000
v  0.1000 2.2000 -2.5000
v  0.2000 0.0000 -0.0000
v  0.2000 0.0000 -2.7000
v  0.2000 2.0000 -2.3000
v  0.2000 2.0000 -2.5000
v  0.2000 2.1000 -2.4000
v  0.2000 2.1000 -2.5000
v  0.2000 2.2000 -2.4000
v  0.2000 2.2000 -2.5000
v  0.2000 2.3000 -2.3000
v  0.2000 2.3000 -2.5000
v  0.2000 2.4000 -2.3000
v  0.2000 2.4000 -2.5000
v  0.2000 2.5000 -2.3000
v  0.2000 2.5000 -2.5000
v  0.2000 2.6000 -0.6000
v  0.2000 2.6000 -2.1000
v  0.2000 4.3000 -0.6000
v  0.2000 4.3000 -2.1000
v  0.2000 4.6000 -0.0000
v  0.2000 4.6000 -2.7000
v  0.3000 2.6000 -0.6000
v  0.3000 2.6000 -2.1000
v  0.3000 2.7000 -0.7000
v  0.3000 2.7000 -2.0000
v  0.3000 4.2000 -0.7000
v  0.3000 4.2000 -2.0000
v  0.3000 4.3000 -0.6000
v  0.3000 4.3000 -2.1000
v  0.4000 2.3000 -2.0000
v  0.4000 2.3000 -2.5000
v  0.4000 2.4000 -2.0000
v  0.4000 2.4000 -2.5000
v  -0.2000 0.9000 -0.0000
v  -0.2000 3.6000 -0.0000
v  -0.1000 2.7000 -2.0000
v  -0.1000 4.2000 -2.0000
v  0.1000 2.7000 -2.0000
v  0.1000 4.2000 -2.0000
v  -0.1000 2.7000 -0.7000
v  -0.1000 4.2000 -0.7000
v  0.1000 2.7000 -0.7000
v  0.1000 4.2000 -0.7000
# 112 vertices

vn -1.0000 0.0000 -0.0000
vn 1.0000 0.0000 -0.0000
vn 0.0000 0.0000 1.0000
vn 0.0000 0.0000 -1.0000
vn 0.0000 -1.0000 -0.0000
vn 0.0000 1.0000 -0.0000
# 6 vertex normals

vt 0.9941 0.5000 0.0000
vt 0.9238 0.5000 0.0000
vt 0.9199 0.5000 0.0000
vt 0.2637 0.5000 0.0000
vt 0.2559 0.5000 0.0000
vt 0.9277 0.5000 0.0000
vt 0.9902 0.5000 0.0000
vt 0.3105 0.5000 0.0000
# 8 texture coords

o Porte_Bois_Vitre
g Porte_Bois_Vitre
s 1
f 1/1/1 2/1/1 3/1/1 
f 4/1/1 2/1/1 1/1/1 
f 5/2/1 6/2/1 7/2/1 
f 8/2/1 6/2/1 5/2/1 
f 9/3/1 8/3/1 5/3/1 
f 10/3/1 8/3/1 9/3/1 
f 11/4/1 12/4/1 13/4/1 
f 14/4/1 12/4/1 11/4/1 
f 15/2/1 16/2/1 17/2/1 
f 18/2/1 16/2/1 15/2/1 
f 19/3/1 18/3/1 15/3/1 
f 20/3/1 18/3/1 19/3/1 
f 21/4/1 11/4/1 13/4/1 
f 22/4/1 12/4/1 14/4/1 
f 23/4/1 21/4/1 13/4/1 
f 23/4/1 22/4/1 21/4/1 
f 24/4/1 12/4/1 22/4/1 
f 24/4/1 22/4/1 23/4/1 
f 25/5/1 26/5/1 27/5/1 
f 28/5/1 26/5/1 25/5/1 
f 29/5/1 26/5/1 28/5/1 
f 30/5/1 26/5/1 29/5/1 
f 31/5/1 26/5/1 30/5/1 
f 31/5/1 30/5/1 32/5/1 
f 33/5/1 26/5/1 31/5/1 
f 34/6/1 33/6/1 31/6/1 
f 35/5/1 26/5/1 33/5/1 
f 35/6/1 33/6/1 34/6/1 
f 36/6/1 34/6/1 31/6/1 
f 37/5/1 26/5/1 35/5/1 
f 38/5/1 31/5/1 32/5/1 
f 38/6/1 37/6/1 36/6/1 
f 38/6/1 36/6/1 31/6/1 
f 39/5/1 26/5/1 37/5/1 
f 39/6/1 37/6/1 38/6/1 
f 40/5/1 38/5/1 32/5/1 
f 41/5/1 26/5/1 39/5/1 
f 42/5/1 40/5/1 32/5/1 
f 42/6/1 41/6/1 40/6/1 
f 43/5/1 26/5/1 41/5/1 
f 43/6/1 41/6/1 42/6/1 
f 44/5/1 42/5/1 32/5/1 
f 44/5/1 43/5/1 42/5/1 
f 45/5/1 43/5/1 44/5/1 
f 46/5/1 44/5/1 32/5/1 
f 47/5/1 44/5/1 46/5/1 
f 48/5/1 44/5/1 47/5/1 
f 49/5/1 44/5/1 48/5/1 
f 50/5/1 44/5/1 49/5/1 
f 50/5/1 49/5/1 51/5/1 
f 52/5/1 43/5/1 45/5/1 
f 53/5/1 50/5/1 51/5/1 
f 53/5/1 52/5/1 50/5/1 
f 54/5/1 26/5/1 43/5/1 
f 54/5/1 52/5/1 53/5/1 
f 54/5/1 43/5/1 52/5/1 
f 55/7/1 56/7/1 57/7/1 
f 58/7/1 56/7/1 55/7/1 
f 59/1/1 60/1/1 61/1/1 
f 62/1/1 60/1/1 59/1/1 
f 63/1/2 64/1/2 65/1/2 
f 65/1/2 64/1/2 66/1/2 
f 67/7/2 68/7/2 69/7/2 
f 69/7/2 68/7/2 70/7/2 
f 71/5/2 72/5/2 73/5/2 
f 73/5/2 72/5/2 74/5/2 
f 73/6/2 74/6/2 75/6/2 
f 74/5/2 72/5/2 76/5/2 
f 75/6/2 74/6/2 76/6/2 
f 73/6/2 75/6/2 77/6/2 
f 76/5/2 72/5/2 78/5/2 
f 71/5/2 73/5/2 79/5/2 
f 77/6/2 78/6/2 79/6/2 
f 73/6/2 77/6/2 79/6/2 
f 78/5/2 72/5/2 80/5/2 
f 79/6/2 78/6/2 80/6/2 
f 71/5/2 79/5/2 81/5/2 
f 80/5/2 72/5/2 82/5/2 
f 71/5/2 81/5/2 83/5/2 
f 81/6/2 82/6/2 83/6/2 
f 82/5/2 72/5/2 84/5/2 
f 83/6/2 82/6/2 84/6/2 
f 71/5/2 83/5/2 85/5/2 
f 83/5/2 84/5/2 85/5/2 
f 85/5/2 84/5/2 86/5/2 
f 71/5/2 85/5/2 87/5/2 
f 86/5/2 84/5/2 88/5/2 
f 71/5/2 87/5/2 89/5/2 
f 87/5/2 88/5/2 89/5/2 
f 84/5/2 72/5/2 90/5/2 
f 89/5/2 88/5/2 90/5/2 
f 88/5/2 84/5/2 90/5/2 
f 91/4/2 92/4/2 93/4/2 
f 93/4/2 92/4/2 94/4/2 
f 91/4/2 93/4/2 95/4/2 
f 94/4/2 92/4/2 96/4/2 
f 91/4/2 95/4/2 97/4/2 
f 95/4/2 96/4/2 97/4/2 
f 96/4/2 92/4/2 98/4/2 
f 97/4/2 96/4/2 98/4/2 
f 99/1/2 100/1/2 101/1/2 
f 101/1/2 100/1/2 102/1/2 
f 25/2/3 5/2/3 7/2/3 
f 103/3/3 9/3/3 5/3/3 
f 103/2/3 5/2/3 25/2/3 
f 32/3/3 9/3/3 103/3/3 
f 46/2/3 15/2/3 17/2/3 
f 104/3/3 19/3/3 15/3/3 
f 104/2/3 15/2/3 46/2/3 
f 51/3/3 19/3/3 104/3/3 
f 71/5/3 46/5/3 32/5/3 
f 71/5/3 53/5/3 51/5/3 
f 71/5/3 51/5/3 104/5/3 
f 71/5/3 104/5/3 46/5/3 
f 71/5/3 25/5/3 27/5/3 
f 71/5/3 103/5/3 25/5/3 
f 71/5/3 32/5/3 103/5/3 
f 89/5/3 53/5/3 71/5/3 
f 44/4/3 23/4/3 13/4/3 
f 50/4/3 23/4/3 44/4/3 
f 91/4/3 87/4/3 85/4/3 
f 97/4/3 87/4/3 91/4/3 
f 63/1/3 1/1/3 3/1/3 
f 65/1/3 1/1/3 63/1/3 
f 105/4/3 22/4/3 14/4/3 
f 106/4/3 22/4/3 105/4/3 
f 107/8/3 106/8/3 105/8/3 
f 108/8/3 106/8/3 107/8/3 
f 94/4/3 108/4/3 107/4/3 
f 96/4/3 108/4/3 94/4/3 
f 99/1/3 59/1/3 61/1/3 
f 101/1/3 59/1/3 99/1/3 
f 38/1/3 66/1/3 64/1/3 
f 40/1/3 66/1/3 38/1/3 
f 60/1/3 81/1/3 79/1/3 
f 62/1/3 81/1/3 60/1/3 
f 56/5/3 37/5/3 35/5/3 
f 58/5/3 37/5/3 56/5/3 
f 76/5/3 70/5/3 68/5/3 
f 78/5/3 70/5/3 76/5/3 
f 6/2/4 8/2/4 28/2/4 
f 8/3/4 10/3/4 29/3/4 
f 28/2/4 8/2/4 29/2/4 
f 29/3/4 10/3/4 30/3/4 
f 16/2/4 18/2/4 47/2/4 
f 18/3/4 20/3/4 48/3/4 
f 47/2/4 18/2/4 48/2/4 
f 48/3/4 20/3/4 49/3/4 
f 11/4/4 21/4/4 109/4/4 
f 109/4/4 21/4/4 110/4/4 
f 109/8/4 110/8/4 111/8/4 
f 111/8/4 110/8/4 112/8/4 
f 111/4/4 112/4/4 93/4/4 
f 93/4/4 112/4/4 95/4/4 
f 12/4/4 24/4/4 45/4/4 
f 45/4/4 24/4/4 52/4/4 
f 86/4/4 88/4/4 92/4/4 
f 92/4/4 88/4/4 98/4/4 
f 34/6/4 36/6/4 57/6/4 
f 57/6/4 36/6/4 55/6/4 
f 67/6/4 69/6/4 75/6/4 
f 75/6/4 69/6/4 77/6/4 
f 2/1/4 4/1/4 39/1/4 
f 39/1/4 4/1/4 41/1/4 
f 80/1/4 82/1/4 100/1/4 
f 100/1/4 82/1/4 102/1/4 
f 26/5/4 54/5/4 72/5/4 
f 72/5/4 54/5/4 90/5/4 
f 26/5/5 71/5/5 27/5/5 
f 72/5/5 71/5/5 26/5/5 
f 6/2/5 25/2/5 7/2/5 
f 28/2/5 25/2/5 6/2/5 
f 37/6/5 55/6/5 36/6/5 
f 58/6/5 55/6/5 37/6/5 
f 70/6/5 77/6/5 69/6/5 
f 78/6/5 77/6/5 70/6/5 
f 64/1/5 63/1/5 3/1/5 
f 60/1/5 99/1/5 61/1/5 
f 2/1/5 38/1/5 64/1/5 
f 2/1/5 64/1/5 3/1/5 
f 39/1/5 38/1/5 2/1/5 
f 80/1/5 60/1/5 79/1/5 
f 100/1/5 99/1/5 60/1/5 
f 100/1/5 60/1/5 80/1/5 
f 12/4/5 44/4/5 13/4/5 
f 45/4/5 44/4/5 12/4/5 
f 86/4/5 91/4/5 85/4/5 
f 92/4/5 91/4/5 86/4/5 
f 16/2/5 46/2/5 17/2/5 
f 47/2/5 46/2/5 16/2/5 
f 22/4/5 110/4/5 21/4/5 
f 106/8/5 112/8/5 110/8/5 
f 106/4/5 110/4/5 22/4/5 
f 108/4/5 95/4/5 112/4/5 
f 108/8/5 112/8/5 106/8/5 
f 96/4/5 95/4/5 108/4/5 
f 9/3/6 32/3/6 10/3/6 
f 10/3/6 32/3/6 30/3/6 
f 34/6/6 57/6/6 35/6/6 
f 35/6/6 57/6/6 56/6/6 
f 67/6/6 75/6/6 68/6/6 
f 68/6/6 75/6/6 76/6/6 
f 1/1/6 65/1/6 66/1/6 
f 59/1/6 101/1/6 62/1/6 
f 66/1/6 40/1/6 4/1/6 
f 1/1/6 66/1/6 4/1/6 
f 4/1/6 40/1/6 41/1/6 
f 81/1/6 62/1/6 82/1/6 
f 62/1/6 101/1/6 102/1/6 
f 82/1/6 62/1/6 102/1/6 
f 11/4/6 109/4/6 14/4/6 
f 109/8/6 111/8/6 105/8/6 
f 14/4/6 109/4/6 105/4/6 
f 111/4/6 93/4/6 107/4/6 
f 105/8/6 111/8/6 107/8/6 
f 107/4/6 93/4/6 94/4/6 
f 19/3/6 51/3/6 20/3/6 
f 20/3/6 51/3/6 49/3/6 
f 23/4/6 50/4/6 24/4/6 
f 24/4/6 50/4/6 52/4/6 
f 87/4/6 97/4/6 88/4/6 
f 88/4/6 97/4/6 98/4/6 
f 53/5/6 89/5/6 54/5/6 
f 54/5/6 89/5/6 90/5/6 
# 0 polygons - 224 triangles

