# MagicaVoxel @ Ephtracy

# group
o 

# material
mtllib Digicode.mtl
usemtl palette

# normals
vn -1 0 0
vn 1 0 0
vn 0 0 1
vn 0 0 -1
vn 0 -1 0
vn 0 1 0

# texcoords
vt 0.146484 0.5
vt 0.541016 0.5
vt 0.583984 0.5
vt 0.599609 0.5
vt 0.958984 0.5
vt 0.966797 0.5
vt 0.994141 0.5

# verts
v 0 2 0
v 0 2 -0.7
v 0 2.1 -0.1
v 0 2.1 -0.5
v 0 2.8 -0.1
v 0 2.8 -0.5
v 0 2.9 0
v 0 2.9 -0.7
v 0.1 2.1 -0.1
v 0.1 2.1 -0.5
v 0.1 2.5 -0.1
v 0.1 2.5 -0.5
v 0.1 2.6 -0.2
v 0.1 2.6 -0.4
v 0.1 2.7 -0.1
v 0.1 2.7 -0.2
v 0.1 2.7 -0.4
v 0.1 2.8 -0.1
v 0.1 2.8 -0.2
v 0.1 2.8 -0.5
v 0.2 2 0
v 0.2 2 -0.7
v 0.2 2.1 -0.1
v 0.2 2.1 -0.2
v 0.2 2.1 -0.3
v 0.2 2.1 -0.4
v 0.2 2.1 -0.5
v 0.2 2.1 -0.6
v 0.2 2.2 -0.1
v 0.2 2.2 -0.2
v 0.2 2.2 -0.3
v 0.2 2.2 -0.4
v 0.2 2.2 -0.5
v 0.2 2.2 -0.6
v 0.2 2.3 -0.1
v 0.2 2.3 -0.2
v 0.2 2.3 -0.3
v 0.2 2.3 -0.4
v 0.2 2.3 -0.5
v 0.2 2.3 -0.6
v 0.2 2.4 -0.1
v 0.2 2.4 -0.2
v 0.2 2.4 -0.3
v 0.2 2.4 -0.4
v 0.2 2.4 -0.5
v 0.2 2.4 -0.6
v 0.2 2.5 -0.1
v 0.2 2.5 -0.6
v 0.2 2.6 -0.2
v 0.2 2.6 -0.4
v 0.2 2.7 -0.1
v 0.2 2.7 -0.2
v 0.2 2.7 -0.4
v 0.2 2.8 -0.1
v 0.2 2.8 -0.2
v 0.2 2.8 -0.6
v 0.2 2.9 0
v 0.2 2.9 -0.7
v 0.3 2.1 -0.1
v 0.3 2.1 -0.2
v 0.3 2.1 -0.3
v 0.3 2.1 -0.4
v 0.3 2.1 -0.5
v 0.3 2.1 -0.6
v 0.3 2.2 -0.1
v 0.3 2.2 -0.2
v 0.3 2.2 -0.3
v 0.3 2.2 -0.4
v 0.3 2.2 -0.5
v 0.3 2.2 -0.6
v 0.3 2.3 -0.1
v 0.3 2.3 -0.2
v 0.3 2.3 -0.3
v 0.3 2.3 -0.4
v 0.3 2.3 -0.5
v 0.3 2.3 -0.6
v 0.3 2.4 -0.1
v 0.3 2.4 -0.2
v 0.3 2.4 -0.3
v 0.3 2.4 -0.4
v 0.3 2.4 -0.5
v 0.3 2.4 -0.6
v 0 2 0
v 0 2.9 0
v 0.2 2 0
v 0.2 2.9 0
v 0.2 2.1 -0.1
v 0.2 2.2 -0.1
v 0.2 2.3 -0.1
v 0.2 2.4 -0.1
v 0.3 2.1 -0.1
v 0.3 2.2 -0.1
v 0.3 2.3 -0.1
v 0.3 2.4 -0.1
v 0.2 2.1 -0.3
v 0.2 2.2 -0.3
v 0.2 2.3 -0.3
v 0.2 2.4 -0.3
v 0.3 2.1 -0.3
v 0.3 2.2 -0.3
v 0.3 2.3 -0.3
v 0.3 2.4 -0.3
v 0 2.1 -0.5
v 0 2.8 -0.5
v 0.1 2.1 -0.5
v 0.1 2.5 -0.5
v 0.1 2.8 -0.5
v 0.2 2.1 -0.5
v 0.2 2.2 -0.5
v 0.2 2.3 -0.5
v 0.2 2.4 -0.5
v 0.3 2.1 -0.5
v 0.3 2.2 -0.5
v 0.3 2.3 -0.5
v 0.3 2.4 -0.5
v 0 2.1 -0.1
v 0 2.8 -0.1
v 0.1 2.1 -0.1
v 0.1 2.5 -0.1
v 0.1 2.7 -0.1
v 0.1 2.8 -0.1
v 0.2 2.1 -0.2
v 0.2 2.2 -0.2
v 0.2 2.3 -0.2
v 0.2 2.4 -0.2
v 0.3 2.1 -0.2
v 0.3 2.2 -0.2
v 0.3 2.3 -0.2
v 0.3 2.4 -0.2
v 0.2 2.1 -0.4
v 0.2 2.2 -0.4
v 0.2 2.3 -0.4
v 0.2 2.4 -0.4
v 0.3 2.1 -0.4
v 0.3 2.2 -0.4
v 0.3 2.3 -0.4
v 0.3 2.4 -0.4
v 0.2 2.1 -0.6
v 0.2 2.2 -0.6
v 0.2 2.3 -0.6
v 0.2 2.4 -0.6
v 0.3 2.1 -0.6
v 0.3 2.2 -0.6
v 0.3 2.3 -0.6
v 0.3 2.4 -0.6
v 0 2 -0.7
v 0 2.9 -0.7
v 0.2 2 -0.7
v 0.2 2.9 -0.7
v 0 2 0
v 0.2 2 0
v 0 2 -0.7
v 0.2 2 -0.7
v 0.2 2.1 -0.1
v 0.3 2.1 -0.1
v 0.2 2.1 -0.2
v 0.3 2.1 -0.2
v 0.2 2.1 -0.3
v 0.3 2.1 -0.3
v 0.2 2.1 -0.4
v 0.3 2.1 -0.4
v 0.2 2.1 -0.5
v 0.3 2.1 -0.5
v 0.2 2.1 -0.6
v 0.3 2.1 -0.6
v 0.2 2.3 -0.1
v 0.3 2.3 -0.1
v 0.2 2.3 -0.2
v 0.3 2.3 -0.2
v 0.2 2.3 -0.3
v 0.3 2.3 -0.3
v 0.2 2.3 -0.4
v 0.3 2.3 -0.4
v 0.2 2.3 -0.5
v 0.3 2.3 -0.5
v 0.2 2.3 -0.6
v 0.3 2.3 -0.6
v 0 2.8 -0.1
v 0.1 2.8 -0.1
v 0.1 2.8 -0.2
v 0 2.8 -0.5
v 0.1 2.8 -0.5
v 0 2.1 -0.1
v 0.1 2.1 -0.1
v 0 2.1 -0.5
v 0.1 2.1 -0.5
v 0.2 2.2 -0.1
v 0.3 2.2 -0.1
v 0.2 2.2 -0.2
v 0.3 2.2 -0.2
v 0.2 2.2 -0.3
v 0.3 2.2 -0.3
v 0.2 2.2 -0.4
v 0.3 2.2 -0.4
v 0.2 2.2 -0.5
v 0.3 2.2 -0.5
v 0.2 2.2 -0.6
v 0.3 2.2 -0.6
v 0.2 2.4 -0.1
v 0.3 2.4 -0.1
v 0.2 2.4 -0.2
v 0.3 2.4 -0.2
v 0.2 2.4 -0.3
v 0.3 2.4 -0.3
v 0.2 2.4 -0.4
v 0.3 2.4 -0.4
v 0.2 2.4 -0.5
v 0.3 2.4 -0.5
v 0.2 2.4 -0.6
v 0.3 2.4 -0.6
v 0 2.9 0
v 0.2 2.9 0
v 0 2.9 -0.7
v 0.2 2.9 -0.7

# faces
f 3/7/1 2/7/1 1/7/1
f 4/7/1 2/7/1 3/7/1
f 5/7/1 3/7/1 1/7/1
f 6/7/1 2/7/1 4/7/1
f 7/7/1 5/7/1 1/7/1
f 7/7/1 6/7/1 5/7/1
f 8/7/1 2/7/1 6/7/1
f 8/7/1 6/7/1 7/7/1
f 11/7/1 10/7/1 9/7/1
f 12/7/1 10/7/1 11/7/1
f 13/3/1 12/3/1 11/3/1
f 14/3/1 12/3/1 13/3/1
f 15/3/1 13/3/1 11/3/1
f 16/4/1 14/4/1 13/4/1
f 16/3/1 13/3/1 15/3/1
f 17/3/1 12/3/1 14/3/1
f 17/4/1 14/4/1 16/4/1
f 18/4/1 16/4/1 15/4/1
f 19/3/1 17/3/1 16/3/1
f 19/4/1 16/4/1 18/4/1
f 20/3/1 12/3/1 17/3/1
f 20/3/1 17/3/1 19/3/1
f 21/7/2 22/7/2 23/7/2
f 23/7/2 22/7/2 24/7/2
f 24/7/2 22/7/2 25/7/2
f 25/7/2 22/7/2 26/7/2
f 26/7/2 22/7/2 27/7/2
f 27/7/2 22/7/2 28/7/2
f 21/7/2 23/7/2 29/7/2
f 24/7/2 25/7/2 30/7/2
f 30/7/2 25/7/2 31/7/2
f 26/7/2 27/7/2 32/7/2
f 32/7/2 27/7/2 33/7/2
f 28/7/2 22/7/2 34/7/2
f 32/7/2 33/7/2 35/7/2
f 33/7/2 34/7/2 35/7/2
f 30/7/2 31/7/2 35/7/2
f 21/7/2 29/7/2 35/7/2
f 31/7/2 32/7/2 35/7/2
f 29/7/2 30/7/2 35/7/2
f 35/7/2 34/7/2 36/7/2
f 36/7/2 34/7/2 37/7/2
f 37/7/2 34/7/2 38/7/2
f 38/7/2 34/7/2 39/7/2
f 34/7/2 22/7/2 40/7/2
f 39/7/2 34/7/2 40/7/2
f 21/7/2 35/7/2 41/7/2
f 36/7/2 37/7/2 42/7/2
f 42/7/2 37/7/2 43/7/2
f 38/7/2 39/7/2 44/7/2
f 44/7/2 39/7/2 45/7/2
f 40/7/2 22/7/2 46/7/2
f 42/7/2 43/7/2 47/7/2
f 45/7/2 46/7/2 47/7/2
f 44/7/2 45/7/2 47/7/2
f 21/7/2 41/7/2 47/7/2
f 43/7/2 44/7/2 47/7/2
f 41/7/2 42/7/2 47/7/2
f 46/7/2 22/7/2 48/7/2
f 47/7/2 46/7/2 48/7/2
f 47/3/2 48/3/2 49/3/2
f 49/3/2 48/3/2 50/3/2
f 21/7/2 47/7/2 51/7/2
f 47/3/2 49/3/2 51/3/2
f 49/4/2 50/4/2 52/4/2
f 51/3/2 49/3/2 52/3/2
f 50/3/2 48/3/2 53/3/2
f 52/4/2 50/4/2 53/4/2
f 51/4/2 52/4/2 54/4/2
f 21/7/2 51/7/2 54/7/2
f 52/3/2 53/3/2 55/3/2
f 54/4/2 52/4/2 55/4/2
f 53/3/2 48/3/2 56/3/2
f 55/3/2 53/3/2 56/3/2
f 48/7/2 22/7/2 56/7/2
f 54/7/2 55/7/2 57/7/2
f 21/7/2 54/7/2 57/7/2
f 55/7/2 56/7/2 57/7/2
f 56/7/2 22/7/2 58/7/2
f 57/7/2 56/7/2 58/7/2
f 59/1/2 60/1/2 65/1/2
f 65/1/2 60/1/2 66/1/2
f 61/6/2 62/6/2 67/6/2
f 67/6/2 62/6/2 68/6/2
f 63/2/2 64/2/2 69/2/2
f 69/2/2 64/2/2 70/2/2
f 71/5/2 72/5/2 77/5/2
f 77/5/2 72/5/2 78/5/2
f 73/5/2 74/5/2 79/5/2
f 79/5/2 74/5/2 80/5/2
f 75/5/2 76/5/2 81/5/2
f 81/5/2 76/5/2 82/5/2
f 85/7/3 84/7/3 83/7/3
f 86/7/3 84/7/3 85/7/3
f 91/1/3 88/1/3 87/1/3
f 92/1/3 88/1/3 91/1/3
f 93/5/3 90/5/3 89/5/3
f 94/5/3 90/5/3 93/5/3
f 99/6/3 96/6/3 95/6/3
f 100/6/3 96/6/3 99/6/3
f 101/5/3 98/5/3 97/5/3
f 102/5/3 98/5/3 101/5/3
f 105/7/3 104/7/3 103/7/3
f 106/7/3 104/7/3 105/7/3
f 107/7/3 104/7/3 106/7/3
f 112/2/3 109/2/3 108/2/3
f 113/2/3 109/2/3 112/2/3
f 114/5/3 111/5/3 110/5/3
f 115/5/3 111/5/3 114/5/3
f 116/7/4 117/7/4 118/7/4
f 118/7/4 117/7/4 119/7/4
f 119/7/4 117/7/4 120/7/4
f 120/7/4 117/7/4 121/7/4
f 122/1/4 123/1/4 126/1/4
f 126/1/4 123/1/4 127/1/4
f 124/5/4 125/5/4 128/5/4
f 128/5/4 125/5/4 129/5/4
f 130/6/4 131/6/4 134/6/4
f 134/6/4 131/6/4 135/6/4
f 132/5/4 133/5/4 136/5/4
f 136/5/4 133/5/4 137/5/4
f 138/2/4 139/2/4 142/2/4
f 142/2/4 139/2/4 143/2/4
f 140/5/4 141/5/4 144/5/4
f 144/5/4 141/5/4 145/5/4
f 146/7/4 147/7/4 148/7/4
f 148/7/4 147/7/4 149/7/4
f 152/7/5 151/7/5 150/7/5
f 153/7/5 151/7/5 152/7/5
f 156/1/5 155/1/5 154/1/5
f 157/1/5 155/1/5 156/1/5
f 160/6/5 159/6/5 158/6/5
f 161/6/5 159/6/5 160/6/5
f 164/2/5 163/2/5 162/2/5
f 165/2/5 163/2/5 164/2/5
f 168/5/5 167/5/5 166/5/5
f 169/5/5 167/5/5 168/5/5
f 172/5/5 171/5/5 170/5/5
f 173/5/5 171/5/5 172/5/5
f 176/5/5 175/5/5 174/5/5
f 177/5/5 175/5/5 176/5/5
f 180/7/5 179/7/5 178/7/5
f 181/7/5 180/7/5 178/7/5
f 182/7/5 180/7/5 181/7/5
f 183/7/6 184/7/6 185/7/6
f 185/7/6 184/7/6 186/7/6
f 187/1/6 188/1/6 189/1/6
f 189/1/6 188/1/6 190/1/6
f 191/6/6 192/6/6 193/6/6
f 193/6/6 192/6/6 194/6/6
f 195/2/6 196/2/6 197/2/6
f 197/2/6 196/2/6 198/2/6
f 199/5/6 200/5/6 201/5/6
f 201/5/6 200/5/6 202/5/6
f 203/5/6 204/5/6 205/5/6
f 205/5/6 204/5/6 206/5/6
f 207/5/6 208/5/6 209/5/6
f 209/5/6 208/5/6 210/5/6
f 211/7/6 212/7/6 213/7/6
f 213/7/6 212/7/6 214/7/6
