# MagicaVoxel @ Ephtracy

# group
o 

# material
mtllib Escalier_Dalle_Bord_Droit.mtl
usemtl palette

# normals
vn -1 0 0
vn 1 0 0
vn 0 0 1
vn 0 0 -1
vn 0 -1 0
vn 0 1 0

# texcoords
vt 0.880859 0.5
vt 0.923828 0.5
vt 0.927734 0.5

# verts
v 0 2 0
v 0 2 -1.6
v 0 2 -1.7
v 0 2.4 -0.9
v 0 2.4 -1.6
v 0 2.5 -1
v 0 2.5 -1.7
v 0 2.9 -0.2
v 0 2.9 -0.9
v 0 3 -0.3
v 0 3 -1
v 0 3.4 0
v 0 3.4 -0.2
v 0 3.5 0
v 0 3.5 -0.3
v 1.4 3 0
v 1.4 3 -0.2
v 1.4 3 -0.3
v 1.4 3.2 -0.1
v 1.4 3.2 -0.2
v 1.4 3.3 0
v 1.4 3.3 -0.1
v 1.4 3.3 -0.2
v 1.4 3.4 0
v 1.4 3.4 -0.1
v 1.4 3.4 -0.2
v 1.4 3.5 0
v 1.4 3.5 -0.3
v 2.1 2.5 0
v 2.1 2.5 -0.5
v 2.1 2.5 -0.7
v 2.1 2.5 -0.8
v 2.1 2.5 -0.9
v 2.1 2.5 -1
v 2.1 2.6 -0.1
v 2.1 2.6 -0.2
v 2.1 2.6 -0.6
v 2.1 2.6 -0.7
v 2.1 2.6 -0.8
v 2.1 2.6 -0.9
v 2.1 2.7 -0.1
v 2.1 2.7 -0.2
v 2.1 2.7 -0.3
v 2.1 2.7 -0.5
v 2.1 2.7 -0.6
v 2.1 2.8 -0.2
v 2.1 2.8 -0.3
v 2.1 2.8 -0.5
v 2.1 2.8 -0.6
v 2.1 2.9 0
v 2.1 2.9 -0.6
v 2.1 2.9 -0.7
v 2.1 2.9 -0.9
v 2.1 3 0
v 2.1 3 -1
v 2.8 2 0
v 2.8 2 -1.1
v 2.8 2 -1.2
v 2.8 2 -1.6
v 2.8 2 -1.7
v 2.8 2.1 -1.1
v 2.8 2.1 -1.2
v 2.8 2.1 -1.3
v 2.8 2.1 -1.4
v 2.8 2.2 -0.3
v 2.8 2.2 -0.4
v 2.8 2.2 -0.6
v 2.8 2.2 -0.7
v 2.8 2.2 -1.1
v 2.8 2.2 -1.2
v 2.8 2.2 -1.3
v 2.8 2.2 -1.4
v 2.8 2.3 -0.3
v 2.8 2.3 -0.4
v 2.8 2.3 -0.7
v 2.8 2.3 -0.8
v 2.8 2.3 -1.1
v 2.8 2.3 -1.2
v 2.8 2.4 0
v 2.8 2.4 -0.6
v 2.8 2.4 -0.8
v 2.8 2.4 -1.6
v 2.8 2.5 0
v 2.8 2.5 -1.7
v 0 2 0
v 0 3.4 0
v 0 3.5 0
v 0.1 3.4 0
v 0.1 3.5 0
v 1.3 3.3 0
v 1.3 3.4 0
v 1.3 3.5 0
v 1.4 3 0
v 1.4 3.3 0
v 1.4 3.4 0
v 1.4 3.5 0
v 2 2.9 0
v 2 3 0
v 2.1 2.5 0
v 2.1 2.9 0
v 2.1 3 0
v 2.2 2.4 0
v 2.2 2.5 0
v 2.3 2.4 0
v 2.3 2.5 0
v 2.7 2.4 0
v 2.7 2.5 0
v 2.8 2 0
v 2.8 2.4 0
v 2.8 2.5 0
v 0 3 -0.3
v 0 3.5 -0.3
v 0.1 3 -0.3
v 0.1 3.4 -0.3
v 0.2 3 -0.3
v 0.2 3.2 -0.3
v 0.2 3.3 -0.3
v 0.3 3 -0.3
v 0.3 3.2 -0.3
v 0.3 3.3 -0.3
v 0.4 3 -0.3
v 0.4 3.1 -0.3
v 0.5 3 -0.3
v 0.5 3.1 -0.3
v 0.6 3.2 -0.3
v 0.6 3.3 -0.3
v 0.7 3.2 -0.3
v 0.7 3.3 -0.3
v 0.8 3.2 -0.3
v 0.8 3.4 -0.3
v 0.9 3.3 -0.3
v 0.9 3.4 -0.3
v 1 3 -0.3
v 1 3.1 -0.3
v 1 3.2 -0.3
v 1 3.3 -0.3
v 1.1 3 -0.3
v 1.1 3.1 -0.3
v 1.1 3.3 -0.3
v 1.1 3.4 -0.3
v 1.2 3 -0.3
v 1.2 3.3 -0.3
v 1.2 3.4 -0.3
v 1.3 3 -0.3
v 1.3 3.4 -0.3
v 1.4 3 -0.3
v 1.4 3.5 -0.3
v 0 2.5 -1
v 0 3 -1
v 0.1 2.5 -1
v 0.1 2.9 -1
v 0.4 2.6 -1
v 0.4 2.7 -1
v 0.5 2.6 -1
v 0.5 2.7 -1
v 0.7 2.5 -1
v 0.8 2.5 -1
v 0.8 2.6 -1
v 0.8 2.8 -1
v 0.9 2.6 -1
v 0.9 2.7 -1
v 1 2.7 -1
v 1 2.8 -1
v 1.1 2.5 -1
v 1.1 2.7 -1
v 1.3 2.5 -1
v 1.3 2.7 -1
v 1.5 2.6 -1
v 1.5 2.7 -1
v 1.6 2.6 -1
v 1.6 2.7 -1
v 2 2.5 -1
v 2 2.9 -1
v 2.1 2.5 -1
v 2.1 3 -1
v 0 2 -1.7
v 0 2.5 -1.7
v 0.1 2 -1.7
v 0.1 2.4 -1.7
v 0.3 2.2 -1.7
v 0.3 2.3 -1.7
v 0.4 2.2 -1.7
v 0.4 2.3 -1.7
v 0.6 2.2 -1.7
v 0.6 2.3 -1.7
v 0.7 2 -1.7
v 0.7 2.1 -1.7
v 0.7 2.2 -1.7
v 0.7 2.3 -1.7
v 0.8 2.3 -1.7
v 0.8 2.4 -1.7
v 0.9 2 -1.7
v 0.9 2.1 -1.7
v 0.9 2.3 -1.7
v 0.9 2.4 -1.7
v 1.9 2.2 -1.7
v 1.9 2.3 -1.7
v 2 2.2 -1.7
v 2 2.3 -1.7
v 2.1 2.1 -1.7
v 2.1 2.2 -1.7
v 2.2 2.1 -1.7
v 2.2 2.2 -1.7
v 2.3 2 -1.7
v 2.3 2.1 -1.7
v 2.4 2 -1.7
v 2.4 2.1 -1.7
v 2.4 2.2 -1.7
v 2.5 2.1 -1.7
v 2.5 2.2 -1.7
v 2.7 2 -1.7
v 2.7 2.4 -1.7
v 2.8 2 -1.7
v 2.8 2.5 -1.7
v 0 2 0
v 2.8 2 0
v 2.7 2 -1.1
v 2.8 2 -1.1
v 2.7 2 -1.2
v 2.8 2 -1.2
v 0 2 -1.6
v 0.1 2 -1.6
v 0.7 2 -1.6
v 0.9 2 -1.6
v 2.3 2 -1.6
v 2.4 2 -1.6
v 2.7 2 -1.6
v 2.8 2 -1.6
v 0 2 -1.7
v 0.1 2 -1.7
v 0.7 2 -1.7
v 0.9 2 -1.7
v 2.3 2 -1.7
v 2.4 2 -1.7
v 2.7 2 -1.7
v 2.8 2 -1.7
v 2.1 2.5 0
v 2.2 2.5 0
v 2.3 2.5 0
v 2.7 2.5 0
v 2.8 2.5 0
v 2.2 2.5 -0.1
v 2.3 2.5 -0.1
v 2.4 2.5 -0.1
v 2.6 2.5 -0.1
v 2.4 2.5 -0.2
v 2.6 2.5 -0.2
v 2.1 2.5 -0.5
v 2.2 2.5 -0.5
v 2.1 2.5 -0.7
v 2.2 2.5 -0.7
v 2.1 2.5 -0.8
v 2.1 2.5 -0.9
v 0 2.5 -1
v 0.1 2.5 -1
v 0.7 2.5 -1
v 0.8 2.5 -1
v 1.1 2.5 -1
v 1.3 2.5 -1
v 2 2.5 -1
v 2.1 2.5 -1
v 0.7 2.5 -1.1
v 0.8 2.5 -1.1
v 0.2 2.5 -1.2
v 0.3 2.5 -1.2
v 0.7 2.5 -1.2
v 0.8 2.5 -1.2
v 1.4 2.5 -1.2
v 1.6 2.5 -1.2
v 2.1 2.5 -1.2
v 2.2 2.5 -1.2
v 0.2 2.5 -1.3
v 0.3 2.5 -1.3
v 0.7 2.5 -1.3
v 0.8 2.5 -1.3
v 1.4 2.5 -1.3
v 1.6 2.5 -1.3
v 1.7 2.5 -1.3
v 1.9 2.5 -1.3
v 2.2 2.5 -1.3
v 2.3 2.5 -1.3
v 0.5 2.5 -1.4
v 0.6 2.5 -1.4
v 2.1 2.5 -1.4
v 2.3 2.5 -1.4
v 2.4 2.5 -1.4
v 1.7 2.5 -1.5
v 1.9 2.5 -1.5
v 2.3 2.5 -1.5
v 2.4 2.5 -1.5
v 0.1 2.5 -1.6
v 0.5 2.5 -1.6
v 0.6 2.5 -1.6
v 2.7 2.5 -1.6
v 0 2.5 -1.7
v 2.8 2.5 -1.7
v 1.4 3 0
v 2 3 0
v 2.1 3 0
v 1.6 3 -0.1
v 1.7 3 -0.1
v 1.4 3 -0.2
v 1.6 3 -0.2
v 1.7 3 -0.2
v 0 3 -0.3
v 0.1 3 -0.3
v 0.2 3 -0.3
v 0.3 3 -0.3
v 0.4 3 -0.3
v 0.5 3 -0.3
v 1 3 -0.3
v 1.1 3 -0.3
v 1.2 3 -0.3
v 1.3 3 -0.3
v 1.4 3 -0.3
v 0.2 3 -0.4
v 0.3 3 -0.4
v 0.6 3 -0.4
v 0.8 3 -0.4
v 0.9 3 -0.4
v 1 3 -0.4
v 1.2 3 -0.4
v 1.3 3 -0.4
v 0.5 3 -0.5
v 0.6 3 -0.5
v 0.7 3 -0.5
v 0.9 3 -0.5
v 1 3 -0.5
v 1.8 3 -0.5
v 1.9 3 -0.5
v 0.3 3 -0.6
v 0.5 3 -0.6
v 0.6 3 -0.6
v 0.7 3 -0.6
v 0.8 3 -0.6
v 0.9 3 -0.6
v 1.8 3 -0.6
v 1.9 3 -0.6
v 0.2 3 -0.7
v 0.3 3 -0.7
v 0.5 3 -0.7
v 0.8 3 -0.7
v 0.9 3 -0.7
v 1.8 3 -0.7
v 1.9 3 -0.7
v 0.2 3 -0.8
v 0.3 3 -0.8
v 1.7 3 -0.8
v 1.8 3 -0.8
v 1.9 3 -0.8
v 2 3 -0.8
v 0.1 3 -0.9
v 1.7 3 -0.9
v 2 3 -0.9
v 0 3 -1
v 2.1 3 -1
v 0 3.5 0
v 0.1 3.5 0
v 1.3 3.5 0
v 1.4 3.5 0
v 1.1 3.5 -0.1
v 1.2 3.5 -0.1
v 0.1 3.5 -0.2
v 1.1 3.5 -0.2
v 1.2 3.5 -0.2
v 1.3 3.5 -0.2
v 0 3.5 -0.3
v 1.4 3.5 -0.3

# faces
f 4/2/1 2/2/1 1/2/1
f 5/3/1 3/3/1 2/3/1
f 5/2/1 2/2/1 4/2/1
f 6/3/1 5/3/1 4/3/1
f 7/3/1 3/3/1 5/3/1
f 7/3/1 5/3/1 6/3/1
f 8/2/1 4/2/1 1/2/1
f 9/3/1 6/3/1 4/3/1
f 9/2/1 4/2/1 8/2/1
f 10/3/1 9/3/1 8/3/1
f 11/3/1 6/3/1 9/3/1
f 11/3/1 9/3/1 10/3/1
f 12/2/1 8/2/1 1/2/1
f 13/3/1 10/3/1 8/3/1
f 13/2/1 8/2/1 12/2/1
f 14/3/1 13/3/1 12/3/1
f 15/3/1 10/3/1 13/3/1
f 15/3/1 13/3/1 14/3/1
f 16/2/2 17/2/2 19/2/2
f 17/3/2 18/3/2 20/3/2
f 19/2/2 17/2/2 20/2/2
f 16/2/2 19/2/2 21/2/2
f 19/1/2 20/1/2 22/1/2
f 21/2/2 19/2/2 22/2/2
f 20/3/2 18/3/2 23/3/2
f 22/1/2 20/1/2 23/1/2
f 21/1/2 22/1/2 24/1/2
f 22/2/2 23/2/2 25/2/2
f 24/1/2 22/1/2 25/1/2
f 23/3/2 18/3/2 26/3/2
f 25/2/2 23/2/2 26/2/2
f 24/3/2 25/3/2 27/3/2
f 25/3/2 26/3/2 27/3/2
f 26/3/2 18/3/2 28/3/2
f 27/3/2 26/3/2 28/3/2
f 29/2/2 30/2/2 35/2/2
f 30/2/2 31/2/2 35/2/2
f 31/2/2 32/2/2 35/2/2
f 35/2/2 32/2/2 36/2/2
f 36/2/2 32/2/2 37/2/2
f 37/2/2 32/2/2 38/2/2
f 32/1/2 33/1/2 39/1/2
f 38/2/2 32/2/2 39/2/2
f 33/3/2 34/3/2 40/3/2
f 39/1/2 33/1/2 40/1/2
f 29/2/2 35/2/2 41/2/2
f 35/1/2 36/1/2 41/1/2
f 36/2/2 37/2/2 42/2/2
f 41/1/2 36/1/2 42/1/2
f 42/2/2 37/2/2 43/2/2
f 43/2/2 37/2/2 44/2/2
f 37/1/2 38/1/2 45/1/2
f 44/2/2 37/2/2 45/2/2
f 41/2/2 42/2/2 46/2/2
f 42/1/2 43/1/2 46/1/2
f 43/2/2 44/2/2 47/2/2
f 46/1/2 43/1/2 47/1/2
f 44/1/2 45/1/2 48/1/2
f 47/2/2 44/2/2 48/2/2
f 45/1/2 38/1/2 49/1/2
f 48/1/2 45/1/2 49/1/2
f 41/2/2 46/2/2 50/2/2
f 29/2/2 41/2/2 50/2/2
f 48/2/2 49/2/2 50/2/2
f 46/2/2 47/2/2 50/2/2
f 47/2/2 48/2/2 50/2/2
f 49/1/2 38/1/2 51/1/2
f 50/2/2 49/2/2 51/2/2
f 38/2/2 39/2/2 52/2/2
f 51/1/2 38/1/2 52/1/2
f 39/2/2 40/2/2 52/2/2
f 40/3/2 34/3/2 53/3/2
f 52/2/2 40/2/2 53/2/2
f 50/3/2 51/3/2 54/3/2
f 51/3/2 52/3/2 54/3/2
f 52/3/2 53/3/2 54/3/2
f 53/3/2 34/3/2 55/3/2
f 54/3/2 53/3/2 55/3/2
f 56/2/2 57/2/2 61/2/2
f 57/1/2 58/1/2 61/1/2
f 58/2/2 59/2/2 62/2/2
f 61/1/2 58/1/2 62/1/2
f 62/2/2 59/2/2 63/2/2
f 63/2/2 59/2/2 64/2/2
f 56/2/2 61/2/2 65/2/2
f 61/2/2 62/2/2 65/2/2
f 62/2/2 63/2/2 65/2/2
f 65/2/2 63/2/2 66/2/2
f 66/2/2 63/2/2 67/2/2
f 67/2/2 63/2/2 68/2/2
f 68/2/2 63/2/2 69/2/2
f 69/2/2 63/2/2 70/2/2
f 63/1/2 64/1/2 71/1/2
f 70/2/2 63/2/2 71/2/2
f 64/2/2 59/2/2 72/2/2
f 71/1/2 64/1/2 72/1/2
f 56/2/2 65/2/2 73/2/2
f 65/1/2 66/1/2 73/1/2
f 66/2/2 67/2/2 74/2/2
f 73/1/2 66/1/2 74/1/2
f 67/1/2 68/1/2 75/1/2
f 68/2/2 69/2/2 75/2/2
f 75/2/2 69/2/2 76/2/2
f 69/1/2 70/1/2 77/1/2
f 76/2/2 69/2/2 77/2/2
f 70/2/2 71/2/2 78/2/2
f 77/1/2 70/1/2 78/1/2
f 71/2/2 72/2/2 78/2/2
f 56/2/2 73/2/2 79/2/2
f 73/2/2 74/2/2 79/2/2
f 75/1/2 76/1/2 80/1/2
f 79/2/2 74/2/2 80/2/2
f 67/1/2 75/1/2 80/1/2
f 74/2/2 67/2/2 80/2/2
f 76/2/2 77/2/2 81/2/2
f 80/1/2 76/1/2 81/1/2
f 77/2/2 78/2/2 81/2/2
f 59/3/2 60/3/2 82/3/2
f 81/2/2 78/2/2 82/2/2
f 72/2/2 59/2/2 82/2/2
f 78/2/2 72/2/2 82/2/2
f 80/3/2 81/3/2 83/3/2
f 79/3/2 80/3/2 83/3/2
f 81/3/2 82/3/2 83/3/2
f 82/3/2 60/3/2 84/3/2
f 83/3/2 82/3/2 84/3/2
f 88/2/3 86/2/3 85/2/3
f 88/3/3 87/3/3 86/3/3
f 89/3/3 87/3/3 88/3/3
f 90/2/3 88/2/3 85/2/3
f 90/2/3 89/2/3 88/2/3
f 91/2/3 89/2/3 90/2/3
f 92/2/3 89/2/3 91/2/3
f 93/2/3 90/2/3 85/2/3
f 94/1/3 91/1/3 90/1/3
f 94/2/3 90/2/3 93/2/3
f 95/3/3 92/3/3 91/3/3
f 95/1/3 91/1/3 94/1/3
f 96/3/3 92/3/3 95/3/3
f 97/2/3 93/2/3 85/2/3
f 98/2/3 93/2/3 97/2/3
f 99/2/3 97/2/3 85/2/3
f 100/3/3 98/3/3 97/3/3
f 100/2/3 97/2/3 99/2/3
f 101/3/3 98/3/3 100/3/3
f 102/2/3 99/2/3 85/2/3
f 103/2/3 99/2/3 102/2/3
f 104/2/3 102/2/3 85/2/3
f 104/1/3 103/1/3 102/1/3
f 105/1/3 103/1/3 104/1/3
f 106/2/3 104/2/3 85/2/3
f 106/2/3 105/2/3 104/2/3
f 107/2/3 105/2/3 106/2/3
f 108/2/3 106/2/3 85/2/3
f 109/3/3 107/3/3 106/3/3
f 109/2/3 106/2/3 108/2/3
f 110/3/3 107/3/3 109/3/3
f 111/3/4 112/3/4 113/3/4
f 113/3/4 112/3/4 114/3/4
f 113/2/4 114/2/4 115/2/4
f 115/2/4 114/2/4 116/2/4
f 116/2/4 114/2/4 117/2/4
f 115/2/4 116/2/4 118/2/4
f 116/1/4 117/1/4 119/1/4
f 118/2/4 116/2/4 119/2/4
f 117/2/4 114/2/4 120/2/4
f 119/1/4 117/1/4 120/1/4
f 118/2/4 119/2/4 121/2/4
f 119/2/4 120/2/4 121/2/4
f 121/2/4 120/2/4 122/2/4
f 121/1/4 122/1/4 123/1/4
f 122/2/4 120/2/4 124/2/4
f 123/1/4 122/1/4 124/1/4
f 123/2/4 124/2/4 125/2/4
f 124/2/4 120/2/4 125/2/4
f 120/2/4 114/2/4 126/2/4
f 125/2/4 120/2/4 126/2/4
f 123/2/4 125/2/4 127/2/4
f 125/1/4 126/1/4 127/1/4
f 126/2/4 114/2/4 128/2/4
f 127/1/4 126/1/4 128/1/4
f 123/2/4 127/2/4 129/2/4
f 127/2/4 128/2/4 129/2/4
f 114/3/4 112/3/4 130/3/4
f 129/2/4 128/2/4 130/2/4
f 128/2/4 114/2/4 130/2/4
f 129/1/4 130/1/4 131/1/4
f 130/3/4 112/3/4 132/3/4
f 131/1/4 130/1/4 132/1/4
f 123/2/4 129/2/4 133/2/4
f 133/2/4 129/2/4 134/2/4
f 129/1/4 131/1/4 135/1/4
f 134/2/4 129/2/4 135/2/4
f 131/2/4 132/2/4 136/2/4
f 135/1/4 131/1/4 136/1/4
f 133/1/4 134/1/4 137/1/4
f 134/2/4 135/2/4 138/2/4
f 137/1/4 134/1/4 138/1/4
f 135/2/4 136/2/4 138/2/4
f 136/2/4 132/2/4 139/2/4
f 138/2/4 136/2/4 139/2/4
f 132/3/4 112/3/4 140/3/4
f 139/2/4 132/2/4 140/2/4
f 138/2/4 139/2/4 141/2/4
f 137/2/4 138/2/4 141/2/4
f 139/1/4 140/1/4 142/1/4
f 141/2/4 139/2/4 142/2/4
f 140/3/4 112/3/4 143/3/4
f 142/1/4 140/1/4 143/1/4
f 141/2/4 142/2/4 144/2/4
f 142/2/4 143/2/4 144/2/4
f 143/3/4 112/3/4 145/3/4
f 144/2/4 143/2/4 145/2/4
f 144/3/4 145/3/4 146/3/4
f 145/3/4 112/3/4 147/3/4
f 146/3/4 145/3/4 147/3/4
f 148/3/4 149/3/4 150/3/4
f 150/3/4 149/3/4 151/3/4
f 150/2/4 151/2/4 152/2/4
f 152/2/4 151/2/4 153/2/4
f 150/2/4 152/2/4 154/2/4
f 152/1/4 153/1/4 154/1/4
f 153/2/4 151/2/4 155/2/4
f 154/1/4 153/1/4 155/1/4
f 150/2/4 154/2/4 156/2/4
f 154/2/4 155/2/4 156/2/4
f 156/2/4 155/2/4 157/2/4
f 157/2/4 155/2/4 158/2/4
f 155/2/4 151/2/4 159/2/4
f 158/2/4 155/2/4 159/2/4
f 157/2/4 158/2/4 160/2/4
f 158/1/4 159/1/4 160/1/4
f 160/1/4 159/1/4 161/1/4
f 160/2/4 161/2/4 162/2/4
f 161/1/4 159/1/4 162/1/4
f 159/2/4 151/2/4 163/2/4
f 162/1/4 159/1/4 163/1/4
f 160/2/4 162/2/4 164/2/4
f 157/2/4 160/2/4 164/2/4
f 162/2/4 163/2/4 164/2/4
f 164/2/4 163/2/4 165/2/4
f 164/1/4 165/1/4 166/1/4
f 165/2/4 163/2/4 167/2/4
f 166/1/4 165/1/4 167/1/4
f 166/2/4 167/2/4 168/2/4
f 167/2/4 163/2/4 169/2/4
f 168/2/4 167/2/4 169/2/4
f 166/2/4 168/2/4 170/2/4
f 168/1/4 169/1/4 170/1/4
f 169/2/4 163/2/4 171/2/4
f 170/1/4 169/1/4 171/1/4
f 166/2/4 170/2/4 172/2/4
f 170/2/4 171/2/4 172/2/4
f 151/3/4 149/3/4 173/3/4
f 172/2/4 171/2/4 173/2/4
f 163/2/4 151/2/4 173/2/4
f 171/2/4 163/2/4 173/2/4
f 172/3/4 173/3/4 174/3/4
f 173/3/4 149/3/4 175/3/4
f 174/3/4 173/3/4 175/3/4
f 176/3/4 177/3/4 178/3/4
f 178/3/4 177/3/4 179/3/4
f 178/2/4 179/2/4 180/2/4
f 180/2/4 179/2/4 181/2/4
f 178/2/4 180/2/4 182/2/4
f 180/1/4 181/1/4 182/1/4
f 181/2/4 179/2/4 183/2/4
f 182/1/4 181/1/4 183/1/4
f 178/2/4 182/2/4 184/2/4
f 182/2/4 183/2/4 184/2/4
f 183/2/4 179/2/4 185/2/4
f 184/2/4 183/2/4 185/2/4
f 178/2/4 184/2/4 186/2/4
f 186/2/4 184/2/4 187/2/4
f 184/1/4 185/1/4 188/1/4
f 187/2/4 184/2/4 188/2/4
f 185/2/4 179/2/4 189/2/4
f 188/1/4 185/1/4 189/1/4
f 187/2/4 188/2/4 190/2/4
f 189/2/4 179/2/4 190/2/4
f 188/2/4 189/2/4 190/2/4
f 179/3/4 177/3/4 191/3/4
f 190/2/4 179/2/4 191/2/4
f 186/1/4 187/1/4 192/1/4
f 187/2/4 190/2/4 193/2/4
f 192/1/4 187/1/4 193/1/4
f 190/1/4 191/1/4 194/1/4
f 193/2/4 190/2/4 194/2/4
f 191/3/4 177/3/4 195/3/4
f 194/1/4 191/1/4 195/1/4
f 193/2/4 194/2/4 196/2/4
f 192/2/4 193/2/4 196/2/4
f 194/2/4 195/2/4 196/2/4
f 196/2/4 195/2/4 197/2/4
f 192/2/4 196/2/4 198/2/4
f 196/1/4 197/1/4 198/1/4
f 197/2/4 195/2/4 199/2/4
f 198/1/4 197/1/4 199/1/4
f 192/2/4 198/2/4 200/2/4
f 198/2/4 199/2/4 200/2/4
f 200/2/4 199/2/4 201/2/4
f 192/2/4 200/2/4 202/2/4
f 200/1/4 201/1/4 202/1/4
f 201/2/4 199/2/4 203/2/4
f 202/1/4 201/1/4 203/1/4
f 192/2/4 202/2/4 204/2/4
f 202/2/4 203/2/4 204/2/4
f 204/2/4 203/2/4 205/2/4
f 204/1/4 205/1/4 206/1/4
f 205/2/4 203/2/4 207/2/4
f 206/1/4 205/1/4 207/1/4
f 203/2/4 199/2/4 208/2/4
f 207/2/4 203/2/4 208/2/4
f 206/2/4 207/2/4 209/2/4
f 207/1/4 208/1/4 209/1/4
f 208/2/4 199/2/4 210/2/4
f 209/1/4 208/1/4 210/1/4
f 206/2/4 209/2/4 211/2/4
f 209/2/4 210/2/4 211/2/4
f 195/3/4 177/3/4 212/3/4
f 211/2/4 210/2/4 212/2/4
f 199/2/4 195/2/4 212/2/4
f 210/2/4 199/2/4 212/2/4
f 211/3/4 212/3/4 213/3/4
f 212/3/4 177/3/4 214/3/4
f 213/3/4 212/3/4 214/3/4
f 217/2/5 216/2/5 215/2/5
f 218/2/5 216/2/5 217/2/5
f 219/2/5 217/2/5 215/2/5
f 219/1/5 218/1/5 217/1/5
f 220/1/5 218/1/5 219/1/5
f 221/2/5 219/2/5 215/2/5
f 221/2/5 220/2/5 219/2/5
f 222/2/5 220/2/5 221/2/5
f 223/2/5 220/2/5 222/2/5
f 224/2/5 220/2/5 223/2/5
f 225/2/5 220/2/5 224/2/5
f 226/2/5 220/2/5 225/2/5
f 227/2/5 220/2/5 226/2/5
f 228/2/5 220/2/5 227/2/5
f 229/3/5 222/3/5 221/3/5
f 230/2/5 223/2/5 222/2/5
f 230/3/5 222/3/5 229/3/5
f 231/1/5 224/1/5 223/1/5
f 231/2/5 223/2/5 230/2/5
f 232/2/5 225/2/5 224/2/5
f 232/1/5 224/1/5 231/1/5
f 233/1/5 226/1/5 225/1/5
f 233/2/5 225/2/5 232/2/5
f 234/2/5 227/2/5 226/2/5
f 234/1/5 226/1/5 233/1/5
f 235/3/5 228/3/5 227/3/5
f 235/2/5 227/2/5 234/2/5
f 236/3/5 228/3/5 235/3/5
f 237/2/6 238/2/6 242/2/6
f 238/1/6 239/1/6 242/1/6
f 239/2/6 240/2/6 243/2/6
f 242/1/6 239/1/6 243/1/6
f 243/2/6 240/2/6 244/2/6
f 244/2/6 240/2/6 245/2/6
f 242/2/6 243/2/6 246/2/6
f 243/2/6 244/2/6 246/2/6
f 244/1/6 245/1/6 246/1/6
f 245/2/6 240/2/6 247/2/6
f 246/1/6 245/1/6 247/1/6
f 237/2/6 242/2/6 248/2/6
f 242/2/6 246/2/6 248/2/6
f 246/2/6 247/2/6 248/2/6
f 248/2/6 247/2/6 249/2/6
f 248/1/6 249/1/6 250/1/6
f 249/2/6 247/2/6 251/2/6
f 250/1/6 249/1/6 251/1/6
f 250/2/6 251/2/6 252/2/6
f 252/2/6 251/2/6 253/2/6
f 253/2/6 251/2/6 261/2/6
f 255/2/6 256/2/6 262/2/6
f 256/1/6 257/1/6 262/1/6
f 259/2/6 260/2/6 263/2/6
f 262/1/6 257/1/6 263/1/6
f 260/2/6 261/2/6 263/2/6
f 257/2/6 258/2/6 263/2/6
f 258/2/6 259/2/6 263/2/6
f 255/2/6 262/2/6 264/2/6
f 262/2/6 263/2/6 264/2/6
f 264/2/6 263/2/6 265/2/6
f 265/2/6 263/2/6 266/2/6
f 263/2/6 261/2/6 267/2/6
f 266/2/6 263/2/6 267/2/6
f 267/2/6 261/2/6 268/2/6
f 268/2/6 261/2/6 269/2/6
f 261/2/6 251/2/6 270/2/6
f 269/2/6 261/2/6 270/2/6
f 251/2/6 247/2/6 271/2/6
f 270/2/6 251/2/6 271/2/6
f 255/2/6 264/2/6 272/2/6
f 264/1/6 265/1/6 272/1/6
f 265/2/6 266/2/6 273/2/6
f 272/1/6 265/1/6 273/1/6
f 266/1/6 267/1/6 274/1/6
f 273/2/6 266/2/6 274/2/6
f 267/2/6 268/2/6 275/2/6
f 274/1/6 267/1/6 275/1/6
f 268/1/6 269/1/6 276/1/6
f 275/2/6 268/2/6 276/2/6
f 269/2/6 270/2/6 277/2/6
f 276/1/6 269/1/6 277/1/6
f 277/2/6 270/2/6 278/2/6
f 278/2/6 270/2/6 279/2/6
f 271/2/6 247/2/6 280/2/6
f 270/1/6 271/1/6 280/1/6
f 280/2/6 247/2/6 281/2/6
f 275/2/6 276/2/6 282/2/6
f 274/2/6 275/2/6 282/2/6
f 272/2/6 273/2/6 282/2/6
f 273/2/6 274/2/6 282/2/6
f 277/2/6 278/2/6 282/2/6
f 276/2/6 277/2/6 282/2/6
f 282/2/6 278/2/6 283/2/6
f 280/1/6 281/1/6 284/1/6
f 279/2/6 270/2/6 284/2/6
f 270/1/6 280/1/6 284/1/6
f 281/2/6 247/2/6 285/2/6
f 284/1/6 281/1/6 285/1/6
f 285/2/6 247/2/6 286/2/6
f 283/2/6 278/2/6 287/2/6
f 278/1/6 279/1/6 287/1/6
f 279/2/6 284/2/6 288/2/6
f 287/1/6 279/1/6 288/1/6
f 284/2/6 285/2/6 288/2/6
f 285/1/6 286/1/6 289/1/6
f 288/2/6 285/2/6 289/2/6
f 286/2/6 247/2/6 290/2/6
f 289/1/6 286/1/6 290/1/6
f 255/2/6 272/2/6 291/2/6
f 254/3/6 255/3/6 291/3/6
f 272/2/6 282/2/6 291/2/6
f 282/1/6 283/1/6 292/1/6
f 291/2/6 282/2/6 292/2/6
f 283/2/6 287/2/6 293/2/6
f 292/1/6 283/1/6 293/1/6
f 289/2/6 290/2/6 293/2/6
f 287/2/6 288/2/6 293/2/6
f 288/2/6 289/2/6 293/2/6
f 240/3/6 241/3/6 294/3/6
f 293/2/6 290/2/6 294/2/6
f 247/2/6 240/2/6 294/2/6
f 290/2/6 247/2/6 294/2/6
f 292/3/6 293/3/6 295/3/6
f 291/3/6 292/3/6 295/3/6
f 293/3/6 294/3/6 295/3/6
f 254/3/6 291/3/6 295/3/6
f 294/3/6 241/3/6 296/3/6
f 295/3/6 294/3/6 296/3/6
f 297/2/6 298/2/6 300/2/6
f 300/2/6 298/2/6 301/2/6
f 297/2/6 300/2/6 302/2/6
f 300/1/6 301/1/6 303/1/6
f 302/2/6 300/2/6 303/2/6
f 301/2/6 298/2/6 304/2/6
f 303/1/6 301/1/6 304/1/6
f 302/2/6 303/2/6 315/2/6
f 303/2/6 304/2/6 315/2/6
f 306/2/6 307/2/6 316/2/6
f 307/1/6 308/1/6 316/1/6
f 312/2/6 313/2/6 317/2/6
f 316/1/6 308/1/6 317/1/6
f 308/2/6 309/2/6 317/2/6
f 309/2/6 310/2/6 317/2/6
f 311/2/6 312/2/6 317/2/6
f 310/2/6 311/2/6 317/2/6
f 317/2/6 313/2/6 318/2/6
f 318/2/6 313/2/6 319/2/6
f 319/2/6 313/2/6 320/2/6
f 320/2/6 313/2/6 321/2/6
f 313/1/6 314/1/6 322/1/6
f 321/2/6 313/2/6 322/2/6
f 314/2/6 315/2/6 323/2/6
f 322/1/6 314/1/6 323/1/6
f 316/2/6 317/2/6 324/2/6
f 317/2/6 318/2/6 324/2/6
f 318/1/6 319/1/6 325/1/6
f 324/2/6 318/2/6 325/2/6
f 325/1/6 319/1/6 326/1/6
f 320/1/6 321/1/6 327/1/6
f 319/2/6 320/2/6 327/2/6
f 321/2/6 322/2/6 328/2/6
f 327/1/6 321/1/6 328/1/6
f 322/2/6 323/2/6 328/2/6
f 304/2/6 298/2/6 329/2/6
f 328/2/6 323/2/6 329/2/6
f 315/2/6 304/2/6 329/2/6
f 323/2/6 315/2/6 329/2/6
f 329/2/6 298/2/6 330/2/6
f 316/2/6 324/2/6 331/2/6
f 324/1/6 325/1/6 332/1/6
f 331/2/6 324/2/6 332/2/6
f 325/2/6 326/2/6 333/2/6
f 332/1/6 325/1/6 333/1/6
f 326/1/6 319/1/6 334/1/6
f 333/2/6 326/2/6 334/2/6
f 327/2/6 328/2/6 335/2/6
f 334/1/6 319/1/6 335/1/6
f 319/2/6 327/2/6 335/2/6
f 328/2/6 329/2/6 335/2/6
f 335/2/6 329/2/6 336/2/6
f 329/1/6 330/1/6 337/1/6
f 336/2/6 329/2/6 337/2/6
f 330/2/6 298/2/6 338/2/6
f 337/1/6 330/1/6 338/1/6
f 306/2/6 316/2/6 339/2/6
f 316/2/6 331/2/6 339/2/6
f 331/1/6 332/1/6 340/1/6
f 339/2/6 331/2/6 340/2/6
f 332/2/6 333/2/6 341/2/6
f 340/1/6 332/1/6 341/1/6
f 333/2/6 334/2/6 341/2/6
f 334/2/6 335/2/6 341/2/6
f 335/1/6 336/1/6 342/1/6
f 341/2/6 335/2/6 342/2/6
f 337/2/6 338/2/6 343/2/6
f 342/1/6 336/1/6 343/1/6
f 336/2/6 337/2/6 343/2/6
f 343/2/6 338/2/6 344/2/6
f 338/2/6 298/2/6 345/2/6
f 344/2/6 338/2/6 345/2/6
f 339/1/6 340/1/6 346/1/6
f 306/2/6 339/2/6 346/2/6
f 343/2/6 344/2/6 347/2/6
f 346/1/6 340/1/6 347/1/6
f 341/2/6 342/2/6 347/2/6
f 342/2/6 343/2/6 347/2/6
f 340/2/6 341/2/6 347/2/6
f 347/2/6 344/2/6 348/2/6
f 344/1/6 345/1/6 349/1/6
f 348/2/6 344/2/6 349/2/6
f 345/2/6 298/2/6 350/2/6
f 349/1/6 345/1/6 350/1/6
f 298/3/6 299/3/6 351/3/6
f 350/2/6 298/2/6 351/2/6
f 306/2/6 346/2/6 352/2/6
f 305/3/6 306/3/6 352/3/6
f 347/2/6 348/2/6 352/2/6
f 346/2/6 347/2/6 352/2/6
f 349/1/6 350/1/6 353/1/6
f 352/2/6 348/2/6 353/2/6
f 348/1/6 349/1/6 353/1/6
f 350/1/6 351/1/6 353/1/6
f 351/3/6 299/3/6 354/3/6
f 353/1/6 351/1/6 354/1/6
f 305/3/6 352/3/6 355/3/6
f 352/3/6 353/3/6 355/3/6
f 353/3/6 354/3/6 355/3/6
f 354/3/6 299/3/6 356/3/6
f 355/3/6 354/3/6 356/3/6
f 358/2/6 359/2/6 361/2/6
f 361/2/6 359/2/6 362/2/6
f 357/3/6 358/3/6 363/3/6
f 358/2/6 361/2/6 363/2/6
f 361/1/6 362/1/6 364/1/6
f 363/2/6 361/2/6 364/2/6
f 362/2/6 359/2/6 365/2/6
f 364/1/6 362/1/6 365/1/6
f 359/3/6 360/3/6 366/3/6
f 365/2/6 359/2/6 366/2/6
f 363/3/6 364/3/6 367/3/6
f 364/3/6 365/3/6 367/3/6
f 365/3/6 366/3/6 367/3/6
f 357/3/6 363/3/6 367/3/6
f 366/3/6 360/3/6 368/3/6
f 367/3/6 366/3/6 368/3/6
