# 3ds Max Wavefront OBJ Exporter v0.97b - (c)2007 guruware
# File Created: 13.11.2019 14:01:23

mtllib Mur_T_IntérieurMiOrange.mtl

#
# object Mur_T_IntérieurMiOrange
#

v  -0.5750 0.0750 0.0750
v  -0.5750 0.0000 0.0500
v  -0.5750 0.0000 0.0750
v  -0.5750 0.0750 -0.0750
v  -0.5750 0.0000 -0.0750
v  -0.5750 0.0000 -0.0500
v  -0.5750 0.1250 0.1000
v  -0.5750 0.0750 0.1000
v  -0.5750 0.1250 0.0750
v  -0.5750 0.1250 -0.0750
v  -0.5750 0.0750 -0.1000
v  -0.5750 0.1250 -0.1000
v  -0.5750 1.9000 0.1000
v  -0.5750 1.9000 0.0750
v  -0.5750 1.9000 -0.0750
v  -0.5750 1.9000 -0.1000
v  -0.5750 1.9500 0.1000
v  -0.5750 1.9500 0.0750
v  -0.5750 1.9500 -0.0750
v  -0.5750 1.9500 -0.1000
v  -0.5750 1.9750 0.0750
v  -0.5750 1.9750 0.0500
v  -0.5750 1.9750 -0.0500
v  -0.5750 1.9750 -0.0750
v  -0.5750 2.0000 0.0750
v  -0.5750 2.0000 -0.0750
v  -0.1750 0.1250 0.5000
v  -0.1750 0.0750 0.1000
v  -0.1750 0.0750 0.5000
v  -0.1750 0.1250 0.1000
v  -0.1750 0.1250 -0.1000
v  -0.1750 0.0750 -0.5000
v  -0.1750 0.0750 -0.1000
v  -0.1750 0.1250 -0.5000
v  -0.1750 1.9000 0.5000
v  -0.1750 1.9000 0.1000
v  -0.1750 1.9000 -0.1000
v  -0.1750 1.9000 -0.5000
v  -0.1750 1.9500 0.5000
v  -0.1750 1.9500 0.1000
v  -0.1750 1.9500 -0.1000
v  -0.1750 1.9500 -0.5000
v  -0.1500 0.0750 0.5000
v  -0.1500 0.0000 0.0750
v  -0.1500 0.0000 0.5000
v  -0.1500 0.0750 0.0750
v  -0.1500 0.0750 -0.0750
v  -0.1500 0.0000 -0.5000
v  -0.1500 0.0000 -0.0750
v  -0.1500 0.0750 -0.5000
v  -0.1500 1.9750 0.5000
v  -0.1500 1.9500 0.0750
v  -0.1500 1.9500 0.5000
v  -0.1500 1.9750 0.0750
v  -0.1500 1.9750 -0.0750
v  -0.1500 1.9500 -0.5000
v  -0.1500 1.9500 -0.0750
v  -0.1500 1.9750 -0.5000
v  -0.1500 2.0000 0.5000
v  -0.1500 2.0000 0.0750
v  -0.1500 2.0000 -0.0750
v  -0.1500 2.0000 -0.5000
v  0.0000 0.0000 0.5000
v  0.0000 0.0000 -0.5000
v  0.0000 1.9750 0.5000
v  0.0000 1.9750 -0.5000
v  0.0000 2.0000 0.5000
v  0.0000 2.0000 -0.5000
v  -0.1500 0.1250 0.5000
v  -0.1500 1.9000 0.5000
v  -0.1250 0.0000 0.5000
v  -0.1250 1.9750 0.5000
v  -0.0250 0.0000 0.5000
v  -0.0250 1.9750 0.5000
v  -0.1500 0.1250 -0.5000
v  -0.1500 1.9000 -0.5000
v  -0.1250 0.0000 -0.5000
v  -0.1250 1.9750 -0.5000
v  -0.0250 0.0000 -0.5000
v  -0.0250 1.9750 -0.5000
v  -0.1250 0.0000 0.4750
v  -0.0250 0.0000 0.4750
v  -0.1500 0.0000 0.0500
v  -0.1500 0.0000 -0.0500
v  -0.1250 0.0000 -0.4750
v  -0.0250 0.0000 -0.4750
# 86 vertices

vn -1.0000 0.0000 -0.0000
vn 1.0000 0.0000 -0.0000
vn 0.0000 0.0000 1.0000
vn 0.0000 0.0000 -1.0000
vn 0.0000 -1.0000 -0.0000
vn 0.0000 1.0000 -0.0000
# 6 vertex normals

vt 0.9629 0.5000 0.0000
vt 0.1738 0.5000 0.0000
vt 0.2090 0.5000 0.0000
vt 0.9941 0.5000 0.0000
# 4 texture coords

o Mur_T_IntérieurMiOrange
g Mur_T_IntérieurMiOrange
usemtl Mur_T_IntérieurMiOrange_palette
s 1
f 1/1/1 2/1/1 3/1/1 
f 4/1/1 5/1/1 6/1/1 
f 7/2/1 1/2/1 8/2/1 
f 9/1/1 2/1/1 1/1/1 
f 9/2/1 1/2/1 7/2/1 
f 10/2/1 11/2/1 4/2/1 
f 10/1/1 4/1/1 6/1/1 
f 12/2/1 11/2/1 10/2/1 
f 13/3/1 9/3/1 7/3/1 
f 14/1/1 2/1/1 9/1/1 
f 14/3/1 9/3/1 13/3/1 
f 15/1/1 10/1/1 6/1/1 
f 15/3/1 12/3/1 10/3/1 
f 16/3/1 12/3/1 15/3/1 
f 17/2/1 14/2/1 13/2/1 
f 18/1/1 2/1/1 14/1/1 
f 18/2/1 14/2/1 17/2/1 
f 19/1/1 15/1/1 6/1/1 
f 19/2/1 16/2/1 15/2/1 
f 20/2/1 16/2/1 19/2/1 
f 21/1/1 2/1/1 18/1/1 
f 22/4/1 6/4/1 2/4/1 
f 22/1/1 2/1/1 21/1/1 
f 23/1/1 19/1/1 6/1/1 
f 23/4/1 6/4/1 22/4/1 
f 24/1/1 19/1/1 23/1/1 
f 25/4/1 22/4/1 21/4/1 
f 25/4/1 23/4/1 22/4/1 
f 25/4/1 24/4/1 23/4/1 
f 26/4/1 24/4/1 25/4/1 
f 27/2/1 28/2/1 29/2/1 
f 30/2/1 28/2/1 27/2/1 
f 31/2/1 32/2/1 33/2/1 
f 34/2/1 32/2/1 31/2/1 
f 35/3/1 30/3/1 27/3/1 
f 36/3/1 30/3/1 35/3/1 
f 37/3/1 34/3/1 31/3/1 
f 38/3/1 34/3/1 37/3/1 
f 39/2/1 36/2/1 35/2/1 
f 40/2/1 36/2/1 39/2/1 
f 41/2/1 38/2/1 37/2/1 
f 42/2/1 38/2/1 41/2/1 
f 43/1/1 44/1/1 45/1/1 
f 46/1/1 44/1/1 43/1/1 
f 47/1/1 48/1/1 49/1/1 
f 50/1/1 48/1/1 47/1/1 
f 51/1/1 52/1/1 53/1/1 
f 54/1/1 52/1/1 51/1/1 
f 55/1/1 56/1/1 57/1/1 
f 58/1/1 56/1/1 55/1/1 
f 59/4/1 54/4/1 51/4/1 
f 60/4/1 54/4/1 59/4/1 
f 61/4/1 58/4/1 55/4/1 
f 62/4/1 58/4/1 61/4/1 
f 63/1/2 64/1/2 65/1/2 
f 65/1/2 64/1/2 66/1/2 
f 65/4/2 66/4/2 67/4/2 
f 67/4/2 66/4/2 68/4/2 
f 43/2/3 27/2/3 29/2/3 
f 69/3/3 35/3/3 27/3/3 
f 69/2/3 27/2/3 43/2/3 
f 70/2/3 39/2/3 35/2/3 
f 70/3/3 35/3/3 69/3/3 
f 53/2/3 39/2/3 70/2/3 
f 71/1/3 69/1/3 43/1/3 
f 71/1/3 43/1/3 45/1/3 
f 71/1/3 51/1/3 53/1/3 
f 71/1/3 53/1/3 70/1/3 
f 71/1/3 70/1/3 69/1/3 
f 72/4/3 59/4/3 51/4/3 
f 72/1/3 51/1/3 71/1/3 
f 73/4/3 72/4/3 71/4/3 
f 74/4/3 59/4/3 72/4/3 
f 74/4/3 72/4/3 73/4/3 
f 63/1/3 74/1/3 73/1/3 
f 65/4/3 59/4/3 74/4/3 
f 65/1/3 74/1/3 63/1/3 
f 67/4/3 59/4/3 65/4/3 
f 28/2/3 7/2/3 8/2/3 
f 30/3/3 13/3/3 7/3/3 
f 30/2/3 7/2/3 28/2/3 
f 36/2/3 17/2/3 13/2/3 
f 36/3/3 13/3/3 30/3/3 
f 40/2/3 17/2/3 36/2/3 
f 44/1/3 1/1/3 3/1/3 
f 46/1/3 1/1/3 44/1/3 
f 52/1/3 21/1/3 18/1/3 
f 54/4/3 25/4/3 21/4/3 
f 54/1/3 21/1/3 52/1/3 
f 60/4/3 25/4/3 54/4/3 
f 5/1/4 4/1/4 49/1/4 
f 49/1/4 4/1/4 47/1/4 
f 19/1/4 24/1/4 57/1/4 
f 24/4/4 26/4/4 55/4/4 
f 57/1/4 24/1/4 55/1/4 
f 55/4/4 26/4/4 61/4/4 
f 11/2/4 12/2/4 33/2/4 
f 12/3/4 16/3/4 31/3/4 
f 33/2/4 12/2/4 31/2/4 
f 16/2/4 20/2/4 37/2/4 
f 31/3/4 16/3/4 37/3/4 
f 37/2/4 20/2/4 41/2/4 
f 32/2/4 34/2/4 50/2/4 
f 34/3/4 38/3/4 75/3/4 
f 50/2/4 34/2/4 75/2/4 
f 38/2/4 42/2/4 76/2/4 
f 75/3/4 38/3/4 76/3/4 
f 76/2/4 42/2/4 56/2/4 
f 50/1/4 75/1/4 77/1/4 
f 48/1/4 50/1/4 77/1/4 
f 56/1/4 58/1/4 77/1/4 
f 76/1/4 56/1/4 77/1/4 
f 75/1/4 76/1/4 77/1/4 
f 58/4/4 62/4/4 78/4/4 
f 77/1/4 58/1/4 78/1/4 
f 77/4/4 78/4/4 79/4/4 
f 78/4/4 62/4/4 80/4/4 
f 79/4/4 78/4/4 80/4/4 
f 79/1/4 80/1/4 64/1/4 
f 80/4/4 62/4/4 66/4/4 
f 64/1/4 80/1/4 66/1/4 
f 66/4/4 62/4/4 68/4/4 
f 81/1/5 71/1/5 45/1/5 
f 81/4/5 73/4/5 71/4/5 
f 82/1/5 63/1/5 73/1/5 
f 82/4/5 73/4/5 81/4/5 
f 44/1/5 81/1/5 45/1/5 
f 44/1/5 82/1/5 81/1/5 
f 2/1/5 44/1/5 3/1/5 
f 83/1/5 82/1/5 44/1/5 
f 83/1/5 44/1/5 2/1/5 
f 6/4/5 83/4/5 2/4/5 
f 84/1/5 82/1/5 83/1/5 
f 84/4/5 83/4/5 6/4/5 
f 5/1/5 84/1/5 6/1/5 
f 49/1/5 82/1/5 84/1/5 
f 49/1/5 84/1/5 5/1/5 
f 85/1/5 82/1/5 49/1/5 
f 86/1/5 63/1/5 82/1/5 
f 86/1/5 82/1/5 85/1/5 
f 48/1/5 85/1/5 49/1/5 
f 77/4/5 86/4/5 85/4/5 
f 77/1/5 85/1/5 48/1/5 
f 79/1/5 63/1/5 86/1/5 
f 79/4/5 86/4/5 77/4/5 
f 64/1/5 63/1/5 79/1/5 
f 28/2/5 43/2/5 29/2/5 
f 1/2/5 28/2/5 8/2/5 
f 46/2/5 43/2/5 28/2/5 
f 46/2/5 28/2/5 1/2/5 
f 11/2/5 47/2/5 4/2/5 
f 33/2/5 47/2/5 11/2/5 
f 32/2/5 47/2/5 33/2/5 
f 50/2/5 47/2/5 32/2/5 
f 39/2/6 53/2/6 40/2/6 
f 17/2/6 40/2/6 18/2/6 
f 40/2/6 53/2/6 52/2/6 
f 18/2/6 40/2/6 52/2/6 
f 19/2/6 57/2/6 20/2/6 
f 20/2/6 57/2/6 41/2/6 
f 41/2/6 57/2/6 42/2/6 
f 42/2/6 57/2/6 56/2/6 
f 59/4/6 67/4/6 60/4/6 
f 25/4/6 60/4/6 26/4/6 
f 60/4/6 67/4/6 61/4/6 
f 26/4/6 60/4/6 61/4/6 
f 61/4/6 67/4/6 62/4/6 
f 62/4/6 67/4/6 68/4/6 
# 0 polygons - 168 triangles

