# 3ds Max Wavefront OBJ Exporter v0.97b - (c)2007 guruware
# File Created: 05.11.2019 11:40:02

mtllib Boulette papier.mtl

#
# object Boulette_papier
#

v  -0.2500 0.1500 -0.0000
v  -0.2500 0.0500 -0.1000
v  -0.2500 0.0500 -0.0000
v  -0.2500 0.1500 -0.1000
v  -0.1500 -0.0500 0.1000
v  -0.1500 -0.1500 -0.1000
v  -0.1500 -0.1500 0.1000
v  -0.1500 -0.0500 -0.0000
v  -0.1500 -0.0500 -0.1000
v  -0.1500 0.0500 -0.0000
v  -0.1500 -0.0500 -0.2000
v  -0.1500 0.0500 -0.1000
v  -0.1500 0.1500 0.1000
v  -0.1500 0.0500 0.1000
v  -0.1500 0.1500 -0.0000
v  -0.1500 0.1500 -0.1000
v  -0.1500 0.1500 -0.2000
v  -0.0500 -0.0500 0.2000
v  -0.0500 -0.1500 0.1000
v  -0.0500 -0.1500 0.2000
v  -0.0500 -0.0500 0.1000
v  -0.0500 -0.0500 -0.1000
v  -0.0500 -0.1500 -0.2000
v  -0.0500 -0.1500 -0.1000
v  -0.0500 -0.0500 -0.2000
v  -0.0500 0.0500 0.1000
v  -0.0500 -0.0500 -0.0000
v  -0.0500 0.0500 -0.0000
v  -0.0500 0.1500 0.1000
v  -0.0500 0.1500 -0.0000
v  -0.0500 0.1500 -0.1000
v  -0.0500 0.1500 -0.2000
v  0.0500 -0.1500 0.2000
v  0.0500 -0.1500 0.1000
v  0.0500 -0.0500 0.2000
v  0.0500 -0.0500 0.1000
v  0.0500 -0.0500 -0.0000
v  0.0500 0.0500 0.1000
v  0.0500 0.0500 -0.0000
v  0.0500 0.0500 -0.1000
v  0.0500 0.1500 -0.0000
v  0.0500 0.1500 -0.1000
v  0.1500 -0.1500 -0.0000
v  0.1500 -0.1500 -0.2000
v  0.1500 -0.0500 -0.0000
v  0.1500 -0.0500 -0.1000
v  0.1500 -0.0500 -0.2000
v  0.1500 0.0500 -0.0000
v  0.1500 0.0500 -0.1000
v  0.2500 -0.1500 0.1000
v  0.2500 -0.1500 -0.0000
v  0.2500 -0.0500 0.1000
v  0.2500 -0.0500 -0.0000
v  0.1500 -0.1500 0.1000
v  0.1500 -0.0500 0.1000
v  0.0500 -0.1500 -0.0000
# 56 vertices

vn -1.0000 0.0000 -0.0000
vn 1.0000 0.0000 -0.0000
vn 0.0000 0.0000 1.0000
vn 0.0000 0.0000 -1.0000
vn 0.0000 -1.0000 -0.0000
vn 0.0000 1.0000 -0.0000
# 6 vertex normals

vt 0.9629 0.5000 0.0000
vt 0.9590 0.5000 0.0000
vt 0.9668 0.5000 0.0000
# 3 texture coords

o Boulette_papier
g Boulette_papier
usemtl palette
s 1
f 1/1/1 2/1/1 3/1/1 
f 4/1/1 2/1/1 1/1/1 
f 5/2/1 6/2/1 7/2/1 
f 8/2/1 6/2/1 5/2/1 
f 9/2/1 6/2/1 8/2/1 
f 10/2/1 11/2/1 9/2/1 
f 10/2/1 9/2/1 8/2/1 
f 12/2/1 11/2/1 10/2/1 
f 13/1/1 10/1/1 14/1/1 
f 15/1/1 10/1/1 13/1/1 
f 16/2/1 11/2/1 12/2/1 
f 17/2/1 11/2/1 16/2/1 
f 18/3/1 19/3/1 20/3/1 
f 21/3/1 19/3/1 18/3/1 
f 22/2/1 23/2/1 24/2/1 
f 25/2/1 23/2/1 22/2/1 
f 26/2/1 27/2/1 21/2/1 
f 28/2/1 27/2/1 26/2/1 
f 26/1/2 28/1/2 29/1/2 
f 29/1/2 28/1/2 30/1/2 
f 22/2/2 25/2/2 31/2/2 
f 31/2/2 25/2/2 32/2/2 
f 33/3/2 34/3/2 35/3/2 
f 35/3/2 34/3/2 36/3/2 
f 36/2/2 37/2/2 38/2/2 
f 38/2/2 37/2/2 39/2/2 
f 39/2/2 40/2/2 41/2/2 
f 41/2/2 40/2/2 42/2/2 
f 43/2/2 44/2/2 45/2/2 
f 45/2/2 44/2/2 46/2/2 
f 46/2/2 44/2/2 47/2/2 
f 45/2/2 46/2/2 48/2/2 
f 48/2/2 46/2/2 49/2/2 
f 50/3/2 51/3/2 52/3/2 
f 52/3/2 51/3/2 53/3/2 
f 33/3/3 18/3/3 20/3/3 
f 35/3/3 18/3/3 33/3/3 
f 19/2/3 5/2/3 7/2/3 
f 21/2/3 5/2/3 19/2/3 
f 26/1/3 13/1/3 14/1/3 
f 29/1/3 13/1/3 26/1/3 
f 36/2/3 26/2/3 21/2/3 
f 38/2/3 26/2/3 36/2/3 
f 54/1/3 36/1/3 34/1/3 
f 55/1/3 36/1/3 54/1/3 
f 50/3/3 55/3/3 54/3/3 
f 52/3/3 55/3/3 50/3/3 
f 10/1/3 1/1/3 3/1/3 
f 15/1/3 1/1/3 10/1/3 
f 27/2/3 10/2/3 8/2/3 
f 28/2/3 10/2/3 27/2/3 
f 39/2/3 30/2/3 28/2/3 
f 41/2/3 30/2/3 39/2/3 
f 45/2/3 39/2/3 37/2/3 
f 48/2/3 39/2/3 45/2/3 
f 43/3/4 45/3/4 51/3/4 
f 51/3/4 45/3/4 53/3/4 
f 2/1/4 4/1/4 12/1/4 
f 12/1/4 4/1/4 16/1/4 
f 6/2/4 9/2/4 24/2/4 
f 24/2/4 9/2/4 22/2/4 
f 22/2/4 31/2/4 40/2/4 
f 40/2/4 31/2/4 42/2/4 
f 22/2/4 40/2/4 46/2/4 
f 46/2/4 40/2/4 49/2/4 
f 11/2/4 17/2/4 25/2/4 
f 25/2/4 17/2/4 32/2/4 
f 23/2/4 25/2/4 44/2/4 
f 44/2/4 25/2/4 47/2/4 
f 19/3/5 33/3/5 20/3/5 
f 34/3/5 33/3/5 19/3/5 
f 56/2/5 19/2/5 7/2/5 
f 56/2/5 34/2/5 19/2/5 
f 56/1/5 54/1/5 34/1/5 
f 43/3/5 50/3/5 54/3/5 
f 43/1/5 54/1/5 56/1/5 
f 51/3/5 50/3/5 43/3/5 
f 6/2/5 56/2/5 7/2/5 
f 6/2/5 43/2/5 56/2/5 
f 24/2/5 43/2/5 6/2/5 
f 23/2/5 43/2/5 24/2/5 
f 44/2/5 43/2/5 23/2/5 
f 11/2/5 22/2/5 9/2/5 
f 25/2/5 22/2/5 11/2/5 
f 10/1/5 26/1/5 14/1/5 
f 28/1/5 26/1/5 10/1/5 
f 2/1/5 10/1/5 3/1/5 
f 12/1/5 10/1/5 2/1/5 
f 18/3/6 35/3/6 21/3/6 
f 21/3/6 35/3/6 36/3/6 
f 5/2/6 21/2/6 8/2/6 
f 8/2/6 21/2/6 27/2/6 
f 36/1/6 55/1/6 37/1/6 
f 55/3/6 52/3/6 45/3/6 
f 37/1/6 55/1/6 45/1/6 
f 45/3/6 52/3/6 53/3/6 
f 22/2/6 46/2/6 25/2/6 
f 25/2/6 46/2/6 47/2/6 
f 26/2/6 38/2/6 28/2/6 
f 28/2/6 38/2/6 39/2/6 
f 39/2/6 48/2/6 40/2/6 
f 40/2/6 48/2/6 49/2/6 
f 13/1/6 29/1/6 15/1/6 
f 15/1/6 29/1/6 30/1/6 
f 1/1/6 15/1/6 4/1/6 
f 15/3/6 30/3/6 16/3/6 
f 4/1/6 15/1/6 16/1/6 
f 30/2/6 41/2/6 31/2/6 
f 16/3/6 30/3/6 31/3/6 
f 31/2/6 41/2/6 42/2/6 
f 16/2/6 31/2/6 17/2/6 
f 17/2/6 31/2/6 32/2/6 
# 0 polygons - 112 triangles

