# 3ds Max Wavefront OBJ Exporter v0.97b - (c)2007 guruware
# File Created: 13.11.2019 14:00:24

mtllib Mur_T_IntérieurMi2Orange.mtl

#
# object Mur_T_IntérieurMi2Orange
#

v  -0.6000 1.9750 0.0750
v  -0.6000 0.0000 0.0500
v  -0.6000 0.0000 0.0750
v  -0.6000 1.9750 0.0500
v  -0.6000 0.0000 -0.0500
v  -0.6000 1.9750 -0.0500
v  -0.6000 0.0000 -0.0750
v  -0.6000 1.9750 -0.0750
v  -0.6000 2.0000 0.0750
v  -0.6000 2.0000 -0.0750
v  -0.1750 1.9750 0.5000
v  -0.1750 0.0000 0.0750
v  -0.1750 0.0000 0.5000
v  -0.1750 1.9750 0.0750
v  -0.1750 1.9750 -0.0750
v  -0.1750 0.0000 -0.5000
v  -0.1750 0.0000 -0.0750
v  -0.1750 1.9750 -0.5000
v  -0.1750 2.0000 0.5000
v  -0.1750 2.0000 0.0750
v  -0.1750 2.0000 -0.0750
v  -0.1750 2.0000 -0.5000
v  -0.0250 0.0000 0.5000
v  -0.0250 0.0000 -0.5000
v  -0.0250 0.0750 0.5000
v  -0.0250 0.0750 -0.5000
v  -0.0250 1.9500 0.5000
v  -0.0250 1.9500 -0.5000
v  -0.0250 1.9750 0.5000
v  -0.0250 1.9750 -0.5000
v  -0.0250 2.0000 0.5000
v  -0.0250 2.0000 -0.5000
v  0.0000 0.0750 0.5000
v  0.0000 0.0750 -0.5000
v  0.0000 0.1250 0.5000
v  0.0000 0.1250 -0.5000
v  0.0000 1.9000 0.5000
v  0.0000 1.9000 -0.5000
v  0.0000 1.9500 0.5000
v  0.0000 1.9500 -0.5000
v  -0.1500 0.0000 0.5000
v  -0.1500 1.9750 0.5000
v  -0.0500 0.0000 0.5000
v  -0.0500 1.9750 0.5000
v  -0.0250 0.1250 0.5000
v  -0.0250 1.9000 0.5000
v  -0.1500 0.0000 -0.5000
v  -0.1500 1.9750 -0.5000
v  -0.0500 0.0000 -0.5000
v  -0.0500 1.9750 -0.5000
v  -0.0250 0.1250 -0.5000
v  -0.0250 1.9000 -0.5000
v  -0.1500 0.0000 0.4750
v  -0.0500 0.0000 0.4750
v  -0.1750 0.0000 0.0500
v  -0.1750 0.0000 -0.0500
v  -0.1500 0.0000 -0.4750
v  -0.0500 0.0000 -0.4750
# 58 vertices

vn -1.0000 0.0000 -0.0000
vn 1.0000 0.0000 -0.0000
vn 0.0000 0.0000 1.0000
vn 0.0000 0.0000 -1.0000
vn 0.0000 -1.0000 -0.0000
vn 0.0000 1.0000 -0.0000
# 6 vertex normals

vt 0.9629 0.5000 0.0000
vt 0.9941 0.5000 0.0000
vt 0.1738 0.5000 0.0000
vt 0.2090 0.5000 0.0000
# 4 texture coords

o Mur_T_IntérieurMi2Orange
g Mur_T_IntérieurMi2Orange
usemtl Mur_T_IntérieurMi2Orange_palette
s 1
f 1/1/1 2/1/1 3/1/1 
f 4/2/1 5/2/1 2/2/1 
f 4/1/1 2/1/1 1/1/1 
f 6/1/1 7/1/1 5/1/1 
f 6/2/1 5/2/1 4/2/1 
f 8/1/1 7/1/1 6/1/1 
f 9/2/1 4/2/1 1/2/1 
f 9/2/1 6/2/1 4/2/1 
f 9/2/1 8/2/1 6/2/1 
f 10/2/1 8/2/1 9/2/1 
f 11/1/1 12/1/1 13/1/1 
f 14/1/1 12/1/1 11/1/1 
f 15/1/1 16/1/1 17/1/1 
f 18/1/1 16/1/1 15/1/1 
f 19/2/1 14/2/1 11/2/1 
f 20/2/1 14/2/1 19/2/1 
f 21/2/1 18/2/1 15/2/1 
f 22/2/1 18/2/1 21/2/1 
f 23/1/2 24/1/2 25/1/2 
f 25/1/2 24/1/2 26/1/2 
f 27/1/2 28/1/2 29/1/2 
f 29/1/2 28/1/2 30/1/2 
f 29/2/2 30/2/2 31/2/2 
f 31/2/2 30/2/2 32/2/2 
f 33/3/2 34/3/2 35/3/2 
f 35/3/2 34/3/2 36/3/2 
f 35/4/2 36/4/2 37/4/2 
f 37/4/2 36/4/2 38/4/2 
f 37/3/2 38/3/2 39/3/2 
f 39/3/2 38/3/2 40/3/2 
f 41/1/3 11/1/3 13/1/3 
f 42/2/3 19/2/3 11/2/3 
f 42/1/3 11/1/3 41/1/3 
f 43/2/3 42/2/3 41/2/3 
f 44/2/3 19/2/3 42/2/3 
f 44/2/3 42/2/3 43/2/3 
f 23/1/3 44/1/3 43/1/3 
f 25/1/3 44/1/3 23/1/3 
f 45/1/3 44/1/3 25/1/3 
f 46/1/3 44/1/3 45/1/3 
f 27/1/3 44/1/3 46/1/3 
f 29/2/3 19/2/3 44/2/3 
f 29/1/3 44/1/3 27/1/3 
f 31/2/3 19/2/3 29/2/3 
f 33/3/3 45/3/3 25/3/3 
f 35/4/3 46/4/3 45/4/3 
f 35/3/3 45/3/3 33/3/3 
f 37/3/3 27/3/3 46/3/3 
f 37/4/3 46/4/3 35/4/3 
f 39/3/3 27/3/3 37/3/3 
f 12/1/3 1/1/3 3/1/3 
f 14/2/3 9/2/3 1/2/3 
f 14/1/3 1/1/3 12/1/3 
f 20/2/3 9/2/3 14/2/3 
f 7/1/4 8/1/4 17/1/4 
f 8/2/4 10/2/4 15/2/4 
f 17/1/4 8/1/4 15/1/4 
f 15/2/4 10/2/4 21/2/4 
f 16/1/4 18/1/4 47/1/4 
f 18/2/4 22/2/4 48/2/4 
f 47/1/4 18/1/4 48/1/4 
f 47/2/4 48/2/4 49/2/4 
f 48/2/4 22/2/4 50/2/4 
f 49/2/4 48/2/4 50/2/4 
f 49/1/4 50/1/4 24/1/4 
f 24/1/4 50/1/4 26/1/4 
f 26/1/4 50/1/4 51/1/4 
f 51/1/4 50/1/4 52/1/4 
f 52/1/4 50/1/4 28/1/4 
f 50/2/4 22/2/4 30/2/4 
f 28/1/4 50/1/4 30/1/4 
f 30/2/4 22/2/4 32/2/4 
f 26/3/4 51/3/4 34/3/4 
f 51/4/4 52/4/4 36/4/4 
f 34/3/4 51/3/4 36/3/4 
f 52/3/4 28/3/4 38/3/4 
f 36/4/4 52/4/4 38/4/4 
f 38/3/4 28/3/4 40/3/4 
f 53/1/5 41/1/5 13/1/5 
f 53/2/5 43/2/5 41/2/5 
f 54/1/5 23/1/5 43/1/5 
f 54/2/5 43/2/5 53/2/5 
f 12/1/5 53/1/5 13/1/5 
f 12/1/5 54/1/5 53/1/5 
f 2/1/5 12/1/5 3/1/5 
f 55/1/5 54/1/5 12/1/5 
f 55/1/5 12/1/5 2/1/5 
f 5/2/5 55/2/5 2/2/5 
f 56/1/5 54/1/5 55/1/5 
f 56/2/5 55/2/5 5/2/5 
f 7/1/5 56/1/5 5/1/5 
f 17/1/5 54/1/5 56/1/5 
f 17/1/5 56/1/5 7/1/5 
f 57/1/5 54/1/5 17/1/5 
f 58/1/5 23/1/5 54/1/5 
f 58/1/5 54/1/5 57/1/5 
f 16/1/5 57/1/5 17/1/5 
f 47/2/5 58/2/5 57/2/5 
f 47/1/5 57/1/5 16/1/5 
f 49/1/5 23/1/5 58/1/5 
f 49/2/5 58/2/5 47/2/5 
f 24/1/5 23/1/5 49/1/5 
f 26/3/5 33/3/5 25/3/5 
f 34/3/5 33/3/5 26/3/5 
f 27/3/6 39/3/6 28/3/6 
f 28/3/6 39/3/6 40/3/6 
f 19/2/6 31/2/6 20/2/6 
f 9/2/6 20/2/6 10/2/6 
f 20/2/6 31/2/6 21/2/6 
f 10/2/6 20/2/6 21/2/6 
f 21/2/6 31/2/6 22/2/6 
f 22/2/6 31/2/6 32/2/6 
# 0 polygons - 112 triangles

