# 3ds Max Wavefront OBJ Exporter v0.97b - (c)2007 guruware
# File Created: 05.11.2019 12:59:49

mtllib Trottoir Asphalte.mtl

#
# object Trottoir_Asphalte
#

v  0.0000 0.2000 -0.9000
v  0.0000 0.0000 -1.4000
v  0.0000 0.0000 -0.0000
v  0.0000 0.2000 -1.0000
v  0.0000 0.2000 -1.1000
v  0.0000 0.2000 -1.2000
v  0.0000 0.2000 -1.3000
v  0.0000 0.2000 -1.4000
v  0.0000 0.0000 -1.7000
v  0.0000 0.3000 -0.0000
v  0.0000 0.3000 -0.9000
v  0.0000 0.3000 -1.0000
v  0.0000 0.3000 -1.1000
v  0.0000 0.3000 -1.2000
v  0.0000 0.3000 -1.3000
v  0.0000 0.3000 -1.4000
v  0.0000 0.3000 -1.7000
v  3.5000 0.0000 -1.4000
v  3.5000 0.0000 -1.6000
v  3.5000 0.1000 -1.6000
v  3.5000 0.0000 -1.7000
v  3.5000 0.1000 -1.7000
v  3.5000 0.0000 -0.0000
v  3.5000 0.2000 -0.9000
v  3.5000 0.2000 -1.0000
v  3.5000 0.2000 -1.3000
v  3.5000 0.2000 -1.4000
v  3.5000 0.2000 -1.5000
v  3.5000 0.3000 -0.0000
v  3.5000 0.3000 -0.9000
v  3.5000 0.3000 -1.0000
v  3.5000 0.3000 -1.3000
v  3.5000 0.3000 -1.4000
v  3.5000 0.3000 -1.5000
v  3.5000 0.3000 -1.7000
v  0.4000 0.0000 -1.7000
v  0.4000 0.1000 -1.7000
v  0.4000 0.3000 -1.7000
v  0.5000 0.0000 -1.7000
v  0.5000 0.1000 -1.7000
v  0.5000 0.3000 -1.7000
v  0.9000 0.0000 -1.7000
v  0.9000 0.1000 -1.7000
v  0.9000 0.3000 -1.7000
v  1.0000 0.0000 -1.7000
v  1.0000 0.1000 -1.7000
v  1.0000 0.3000 -1.7000
v  1.4000 0.0000 -1.7000
v  1.4000 0.2000 -1.7000
v  1.4000 0.3000 -1.7000
v  1.5000 0.0000 -1.7000
v  1.5000 0.2000 -1.7000
v  1.5000 0.3000 -1.7000
v  1.9000 0.0000 -1.7000
v  1.9000 0.1000 -1.7000
v  1.9000 0.3000 -1.7000
v  2.0000 0.0000 -1.7000
v  2.0000 0.1000 -1.7000
v  2.0000 0.3000 -1.7000
v  2.4000 0.0000 -1.7000
v  2.4000 0.1000 -1.7000
v  2.4000 0.2000 -1.7000
v  2.4000 0.3000 -1.7000
v  2.5000 0.0000 -1.7000
v  2.5000 0.1000 -1.7000
v  2.5000 0.2000 -1.7000
v  2.5000 0.3000 -1.7000
v  2.9000 0.0000 -1.7000
v  2.9000 0.1000 -1.7000
v  2.9000 0.2000 -1.7000
v  2.9000 0.3000 -1.7000
v  3.0000 0.0000 -1.7000
v  3.0000 0.1000 -1.7000
v  3.0000 0.2000 -1.7000
v  3.0000 0.3000 -1.7000
v  3.4000 0.0000 -1.7000
v  3.4000 0.1000 -1.7000
v  3.4000 0.3000 -1.7000
v  0.4000 0.0000 -1.4000
v  0.5000 0.0000 -1.4000
v  0.9000 0.0000 -1.4000
v  1.0000 0.0000 -1.4000
v  1.4000 0.0000 -1.4000
v  1.5000 0.0000 -1.4000
v  1.9000 0.0000 -1.4000
v  2.0000 0.0000 -1.4000
v  2.4000 0.0000 -1.4000
v  2.5000 0.0000 -1.4000
v  2.9000 0.0000 -1.4000
v  3.0000 0.0000 -1.4000
v  3.4000 0.0000 -1.4000
v  0.4000 0.0000 -1.6000
v  0.5000 0.0000 -1.6000
v  0.9000 0.0000 -1.6000
v  1.0000 0.0000 -1.6000
v  1.4000 0.0000 -1.6000
v  1.5000 0.0000 -1.6000
v  1.9000 0.0000 -1.6000
v  2.0000 0.0000 -1.6000
v  2.4000 0.0000 -1.6000
v  2.5000 0.0000 -1.6000
v  2.9000 0.0000 -1.6000
v  3.0000 0.0000 -1.6000
v  3.4000 0.0000 -1.6000
v  0.4000 0.3000 -0.1000
v  0.5000 0.3000 -0.1000
v  1.3000 0.3000 -0.1000
v  1.4000 0.3000 -0.1000
v  1.9000 0.3000 -0.1000
v  2.0000 0.3000 -0.1000
v  2.7000 0.3000 -0.1000
v  2.8000 0.3000 -0.1000
v  0.4000 0.3000 -0.2000
v  0.5000 0.3000 -0.2000
v  1.3000 0.3000 -0.2000
v  1.4000 0.3000 -0.2000
v  1.9000 0.3000 -0.2000
v  2.0000 0.3000 -0.2000
v  2.7000 0.3000 -0.2000
v  2.8000 0.3000 -0.2000
v  0.2000 0.3000 -0.3000
v  0.3000 0.3000 -0.3000
v  0.2000 0.3000 -0.4000
v  0.3000 0.3000 -0.4000
v  1.0000 0.3000 -0.4000
v  1.1000 0.3000 -0.4000
v  3.3000 0.3000 -0.4000
v  3.4000 0.3000 -0.4000
v  0.3000 0.3000 -0.5000
v  0.4000 0.3000 -0.5000
v  1.0000 0.3000 -0.5000
v  1.1000 0.3000 -0.5000
v  2.2000 0.3000 -0.5000
v  2.3000 0.3000 -0.5000
v  3.3000 0.3000 -0.5000
v  3.4000 0.3000 -0.5000
v  0.3000 0.3000 -0.6000
v  0.4000 0.3000 -0.6000
v  2.2000 0.3000 -0.6000
v  2.3000 0.3000 -0.6000
v  2.7000 0.3000 -0.6000
v  2.8000 0.3000 -0.6000
v  1.0000 0.3000 -0.7000
v  1.1000 0.3000 -0.7000
v  1.5000 0.3000 -0.7000
v  1.6000 0.3000 -0.7000
v  2.7000 0.3000 -0.7000
v  2.8000 0.3000 -0.7000
v  1.0000 0.3000 -0.8000
v  1.1000 0.3000 -0.8000
v  1.5000 0.3000 -0.8000
v  1.6000 0.3000 -0.8000
v  2.9000 0.3000 -0.8000
v  3.0000 0.3000 -0.8000
v  0.1000 0.3000 -0.9000
v  2.3000 0.3000 -0.9000
v  2.4000 0.3000 -0.9000
v  2.9000 0.3000 -0.9000
v  3.0000 0.3000 -0.9000
v  3.4000 0.3000 -0.9000
v  0.1000 0.3000 -1.0000
v  1.2000 0.3000 -1.0000
v  1.3000 0.3000 -1.0000
v  2.3000 0.3000 -1.0000
v  2.4000 0.3000 -1.0000
v  3.4000 0.3000 -1.0000
v  0.1000 0.3000 -1.1000
v  1.2000 0.3000 -1.1000
v  1.3000 0.3000 -1.1000
v  1.4000 0.3000 -1.1000
v  1.5000 0.3000 -1.1000
v  0.1000 0.3000 -1.2000
v  1.4000 0.3000 -1.2000
v  1.5000 0.3000 -1.2000
v  0.1000 0.3000 -1.3000
v  0.4000 0.3000 -1.3000
v  0.5000 0.3000 -1.3000
v  0.7000 0.3000 -1.3000
v  1.0000 0.3000 -1.3000
v  1.9000 0.3000 -1.3000
v  2.0000 0.3000 -1.3000
v  2.9000 0.3000 -1.3000
v  3.2000 0.3000 -1.3000
v  3.4000 0.3000 -1.3000
v  0.1000 0.3000 -1.4000
v  0.4000 0.3000 -1.4000
v  0.5000 0.3000 -1.4000
v  0.7000 0.3000 -1.4000
v  0.9000 0.3000 -1.4000
v  1.0000 0.3000 -1.4000
v  1.4000 0.3000 -1.4000
v  1.5000 0.3000 -1.4000
v  1.9000 0.3000 -1.4000
v  2.0000 0.3000 -1.4000
v  2.4000 0.3000 -1.4000
v  2.5000 0.3000 -1.4000
v  2.9000 0.3000 -1.4000
v  3.0000 0.3000 -1.4000
v  3.2000 0.3000 -1.4000
v  3.4000 0.3000 -1.4000
v  0.9000 0.3000 -1.5000
v  1.0000 0.3000 -1.5000
v  1.9000 0.3000 -1.5000
v  2.0000 0.3000 -1.5000
v  2.9000 0.3000 -1.5000
v  3.0000 0.3000 -1.5000
v  3.4000 0.3000 -1.5000
# 207 vertices

vn -1.0000 0.0000 -0.0000
vn 1.0000 0.0000 -0.0000
vn 0.0000 0.0000 1.0000
vn 0.0000 0.0000 -1.0000
vn 0.0000 -1.0000 -0.0000
vn 0.0000 1.0000 -0.0000
# 6 vertex normals

vt 0.9824 0.5000 0.0000
vt 0.9746 0.5000 0.0000
vt 0.9863 0.5000 0.0000
vt 0.9785 0.5000 0.0000
vt 0.9355 0.5000 0.0000
vt 0.9434 0.5000 0.0000
# 6 texture coords

o Trottoir_Asphalte
g Trottoir_Asphalte
usemtl Trottoir_Asphalte_palette
s 1
f 1/1/1 2/1/1 3/1/1 
f 4/1/1 2/1/1 1/1/1 
f 5/1/1 2/1/1 4/1/1 
f 6/1/1 2/1/1 5/1/1 
f 7/1/1 2/1/1 6/1/1 
f 8/2/1 9/2/1 2/2/1 
f 8/1/1 2/1/1 7/1/1 
f 10/1/1 1/1/1 3/1/1 
f 11/2/1 4/2/1 1/2/1 
f 11/1/1 1/1/1 10/1/1 
f 12/1/1 5/1/1 4/1/1 
f 12/2/1 4/2/1 11/2/1 
f 13/3/1 6/3/1 5/3/1 
f 13/1/1 5/1/1 12/1/1 
f 14/1/1 7/1/1 6/1/1 
f 14/3/1 6/3/1 13/3/1 
f 15/3/1 8/3/1 7/3/1 
f 15/1/1 7/1/1 14/1/1 
f 16/2/1 9/2/1 8/2/1 
f 16/3/1 8/3/1 15/3/1 
f 17/2/1 9/2/1 16/2/1 
f 18/4/2 19/4/2 20/4/2 
f 19/5/2 21/5/2 20/5/2 
f 20/5/2 21/5/2 22/5/2 
f 23/1/2 18/1/2 24/1/2 
f 24/1/2 18/1/2 25/1/2 
f 25/1/2 18/1/2 26/1/2 
f 18/4/2 20/4/2 27/4/2 
f 26/1/2 18/1/2 27/1/2 
f 20/4/2 22/4/2 27/4/2 
f 27/4/2 22/4/2 28/4/2 
f 23/1/2 24/1/2 29/1/2 
f 24/3/2 25/3/2 30/3/2 
f 29/1/2 24/1/2 30/1/2 
f 25/1/2 26/1/2 31/1/2 
f 30/3/2 25/3/2 31/3/2 
f 26/3/2 27/3/2 32/3/2 
f 31/1/2 26/1/2 32/1/2 
f 27/5/2 28/5/2 33/5/2 
f 32/3/2 27/3/2 33/3/2 
f 28/4/2 22/4/2 34/4/2 
f 33/5/2 28/5/2 34/5/2 
f 34/4/2 22/4/2 35/4/2 
f 23/1/3 10/1/3 3/1/3 
f 29/1/3 10/1/3 23/1/3 
f 9/2/4 17/2/4 36/2/4 
f 36/2/4 17/2/4 37/2/4 
f 37/2/4 17/2/4 38/2/4 
f 36/5/4 37/5/4 39/5/4 
f 37/4/4 38/4/4 40/4/4 
f 39/5/4 37/5/4 40/5/4 
f 40/4/4 38/4/4 41/4/4 
f 39/2/4 40/2/4 42/2/4 
f 40/2/4 41/2/4 42/2/4 
f 42/2/4 41/2/4 43/2/4 
f 43/2/4 41/2/4 44/2/4 
f 42/5/4 43/5/4 45/5/4 
f 43/4/4 44/4/4 46/4/4 
f 45/5/4 43/5/4 46/5/4 
f 46/4/4 44/4/4 47/4/4 
f 45/2/4 46/2/4 48/2/4 
f 46/2/4 47/2/4 48/2/4 
f 48/2/4 47/2/4 49/2/4 
f 49/2/4 47/2/4 50/2/4 
f 48/5/4 49/5/4 51/5/4 
f 49/4/4 50/4/4 52/4/4 
f 51/5/4 49/5/4 52/5/4 
f 52/4/4 50/4/4 53/4/4 
f 51/2/4 52/2/4 54/2/4 
f 52/2/4 53/2/4 54/2/4 
f 54/2/4 53/2/4 55/2/4 
f 55/2/4 53/2/4 56/2/4 
f 54/1/4 55/1/4 57/1/4 
f 55/4/4 56/4/4 58/4/4 
f 57/1/4 55/1/4 58/1/4 
f 58/4/4 56/4/4 59/4/4 
f 57/2/4 58/2/4 60/2/4 
f 58/2/4 59/2/4 60/2/4 
f 60/2/4 59/2/4 61/2/4 
f 61/2/4 59/2/4 62/2/4 
f 62/2/4 59/2/4 63/2/4 
f 60/6/4 61/6/4 64/6/4 
f 61/5/4 62/5/4 65/5/4 
f 64/6/4 61/6/4 65/6/4 
f 62/4/4 63/4/4 66/4/4 
f 65/5/4 62/5/4 66/5/4 
f 66/4/4 63/4/4 67/4/4 
f 64/2/4 65/2/4 68/2/4 
f 65/2/4 66/2/4 68/2/4 
f 66/2/4 67/2/4 68/2/4 
f 68/2/4 67/2/4 69/2/4 
f 69/2/4 67/2/4 70/2/4 
f 70/2/4 67/2/4 71/2/4 
f 68/6/4 69/6/4 72/6/4 
f 69/5/4 70/5/4 73/5/4 
f 72/6/4 69/6/4 73/6/4 
f 70/4/4 71/4/4 74/4/4 
f 73/5/4 70/5/4 74/5/4 
f 74/4/4 71/4/4 75/4/4 
f 72/2/4 73/2/4 76/2/4 
f 73/2/4 74/2/4 76/2/4 
f 74/2/4 75/2/4 76/2/4 
f 76/2/4 75/2/4 77/2/4 
f 77/2/4 75/2/4 78/2/4 
f 76/5/4 77/5/4 21/5/4 
f 77/4/4 78/4/4 22/4/4 
f 21/5/4 77/5/4 22/5/4 
f 22/4/4 78/4/4 35/4/4 
f 2/1/5 23/1/5 3/1/5 
f 79/1/5 23/1/5 2/1/5 
f 80/1/5 23/1/5 79/1/5 
f 81/1/5 23/1/5 80/1/5 
f 82/1/5 23/1/5 81/1/5 
f 83/1/5 23/1/5 82/1/5 
f 84/1/5 23/1/5 83/1/5 
f 85/1/5 23/1/5 84/1/5 
f 86/1/5 23/1/5 85/1/5 
f 87/1/5 23/1/5 86/1/5 
f 88/1/5 23/1/5 87/1/5 
f 89/1/5 23/1/5 88/1/5 
f 90/1/5 23/1/5 89/1/5 
f 91/1/5 23/1/5 90/1/5 
f 18/1/5 23/1/5 91/1/5 
f 92/2/5 79/2/5 2/2/5 
f 92/4/5 80/4/5 79/4/5 
f 93/2/5 81/2/5 80/2/5 
f 93/4/5 80/4/5 92/4/5 
f 94/4/5 82/4/5 81/4/5 
f 94/2/5 81/2/5 93/2/5 
f 95/2/5 83/2/5 82/2/5 
f 95/4/5 82/4/5 94/4/5 
f 96/4/5 84/4/5 83/4/5 
f 96/2/5 83/2/5 95/2/5 
f 97/2/5 85/2/5 84/2/5 
f 97/4/5 84/4/5 96/4/5 
f 98/4/5 86/4/5 85/4/5 
f 98/2/5 85/2/5 97/2/5 
f 99/2/5 87/2/5 86/2/5 
f 99/4/5 86/4/5 98/4/5 
f 100/4/5 88/4/5 87/4/5 
f 100/2/5 87/2/5 99/2/5 
f 101/2/5 89/2/5 88/2/5 
f 101/4/5 88/4/5 100/4/5 
f 102/4/5 90/4/5 89/4/5 
f 102/2/5 89/2/5 101/2/5 
f 103/2/5 91/2/5 90/2/5 
f 103/4/5 90/4/5 102/4/5 
f 104/4/5 18/4/5 91/4/5 
f 104/2/5 91/2/5 103/2/5 
f 19/4/5 18/4/5 104/4/5 
f 9/2/5 92/2/5 2/2/5 
f 36/5/5 93/5/5 92/5/5 
f 36/2/5 92/2/5 9/2/5 
f 39/2/5 94/2/5 93/2/5 
f 39/5/5 93/5/5 36/5/5 
f 42/5/5 95/5/5 94/5/5 
f 42/2/5 94/2/5 39/2/5 
f 45/2/5 96/2/5 95/2/5 
f 45/5/5 95/5/5 42/5/5 
f 48/5/5 97/5/5 96/5/5 
f 48/2/5 96/2/5 45/2/5 
f 51/2/5 98/2/5 97/2/5 
f 51/5/5 97/5/5 48/5/5 
f 54/1/5 99/1/5 98/1/5 
f 54/2/5 98/2/5 51/2/5 
f 57/2/5 100/2/5 99/2/5 
f 57/1/5 99/1/5 54/1/5 
f 60/6/5 101/6/5 100/6/5 
f 60/2/5 100/2/5 57/2/5 
f 64/2/5 102/2/5 101/2/5 
f 64/6/5 101/6/5 60/6/5 
f 68/6/5 103/6/5 102/6/5 
f 68/2/5 102/2/5 64/2/5 
f 72/2/5 104/2/5 103/2/5 
f 72/6/5 103/6/5 68/6/5 
f 76/5/5 19/5/5 104/5/5 
f 76/2/5 104/2/5 72/2/5 
f 21/5/5 19/5/5 76/5/5 
f 10/1/6 29/1/6 105/1/6 
f 105/1/6 29/1/6 106/1/6 
f 106/1/6 29/1/6 107/1/6 
f 107/1/6 29/1/6 108/1/6 
f 108/1/6 29/1/6 109/1/6 
f 109/1/6 29/1/6 110/1/6 
f 110/1/6 29/1/6 111/1/6 
f 111/1/6 29/1/6 112/1/6 
f 10/1/6 105/1/6 113/1/6 
f 105/2/6 106/2/6 113/2/6 
f 106/1/6 107/1/6 114/1/6 
f 113/2/6 106/2/6 114/2/6 
f 107/3/6 108/3/6 115/3/6 
f 114/1/6 107/1/6 115/1/6 
f 108/1/6 109/1/6 116/1/6 
f 115/3/6 108/3/6 116/3/6 
f 109/3/6 110/3/6 117/3/6 
f 116/1/6 109/1/6 117/1/6 
f 110/1/6 111/1/6 118/1/6 
f 117/3/6 110/3/6 118/3/6 
f 111/2/6 112/2/6 119/2/6 
f 118/1/6 111/1/6 119/1/6 
f 112/1/6 29/1/6 120/1/6 
f 119/2/6 112/2/6 120/2/6 
f 118/1/6 119/1/6 121/1/6 
f 117/1/6 118/1/6 121/1/6 
f 119/1/6 120/1/6 121/1/6 
f 116/1/6 117/1/6 121/1/6 
f 115/1/6 116/1/6 121/1/6 
f 114/1/6 115/1/6 121/1/6 
f 113/1/6 114/1/6 121/1/6 
f 10/1/6 113/1/6 121/1/6 
f 121/1/6 120/1/6 122/1/6 
f 10/1/6 121/1/6 123/1/6 
f 121/3/6 122/3/6 123/3/6 
f 122/1/6 120/1/6 124/1/6 
f 123/3/6 122/3/6 124/3/6 
f 124/1/6 120/1/6 125/1/6 
f 125/1/6 120/1/6 126/1/6 
f 120/1/6 29/1/6 127/1/6 
f 126/1/6 120/1/6 127/1/6 
f 127/1/6 29/1/6 128/1/6 
f 123/1/6 124/1/6 129/1/6 
f 124/1/6 125/1/6 129/1/6 
f 129/1/6 125/1/6 130/1/6 
f 125/2/6 126/2/6 131/2/6 
f 130/1/6 125/1/6 131/1/6 
f 126/1/6 127/1/6 132/1/6 
f 131/2/6 126/2/6 132/2/6 
f 132/1/6 127/1/6 133/1/6 
f 133/1/6 127/1/6 134/1/6 
f 127/2/6 128/2/6 135/2/6 
f 134/1/6 127/1/6 135/1/6 
f 128/1/6 29/1/6 136/1/6 
f 135/2/6 128/2/6 136/2/6 
f 129/2/6 130/2/6 137/2/6 
f 123/1/6 129/1/6 137/1/6 
f 130/1/6 131/1/6 138/1/6 
f 137/2/6 130/2/6 138/2/6 
f 131/1/6 132/1/6 138/1/6 
f 132/1/6 133/1/6 138/1/6 
f 133/2/6 134/2/6 139/2/6 
f 138/1/6 133/1/6 139/1/6 
f 134/1/6 135/1/6 140/1/6 
f 139/2/6 134/2/6 140/2/6 
f 135/1/6 136/1/6 140/1/6 
f 140/1/6 136/1/6 141/1/6 
f 141/1/6 136/1/6 142/1/6 
f 138/1/6 139/1/6 143/1/6 
f 137/1/6 138/1/6 143/1/6 
f 139/1/6 140/1/6 143/1/6 
f 140/1/6 141/1/6 143/1/6 
f 143/1/6 141/1/6 144/1/6 
f 144/1/6 141/1/6 145/1/6 
f 145/1/6 141/1/6 146/1/6 
f 141/3/6 142/3/6 147/3/6 
f 146/1/6 141/1/6 147/1/6 
f 142/1/6 136/1/6 148/1/6 
f 147/3/6 142/3/6 148/3/6 
f 137/1/6 143/1/6 149/1/6 
f 143/3/6 144/3/6 149/3/6 
f 144/1/6 145/1/6 150/1/6 
f 149/3/6 144/3/6 150/3/6 
f 145/3/6 146/3/6 151/3/6 
f 150/1/6 145/1/6 151/1/6 
f 146/1/6 147/1/6 152/1/6 
f 151/3/6 146/3/6 152/3/6 
f 147/1/6 148/1/6 152/1/6 
f 148/1/6 136/1/6 153/1/6 
f 152/1/6 148/1/6 153/1/6 
f 153/1/6 136/1/6 154/1/6 
f 10/1/6 123/1/6 11/1/6 
f 150/1/6 151/1/6 11/1/6 
f 149/1/6 150/1/6 11/1/6 
f 152/1/6 153/1/6 11/1/6 
f 137/1/6 149/1/6 11/1/6 
f 151/1/6 152/1/6 11/1/6 
f 123/1/6 137/1/6 11/1/6 
f 11/1/6 153/1/6 155/1/6 
f 155/1/6 153/1/6 156/1/6 
f 156/1/6 153/1/6 157/1/6 
f 153/3/6 154/3/6 158/3/6 
f 157/1/6 153/1/6 158/1/6 
f 154/1/6 136/1/6 159/1/6 
f 158/3/6 154/3/6 159/3/6 
f 136/1/6 29/1/6 160/1/6 
f 159/1/6 136/1/6 160/1/6 
f 160/1/6 29/1/6 30/1/6 
f 11/2/6 155/2/6 12/2/6 
f 155/1/6 156/1/6 161/1/6 
f 12/2/6 155/2/6 161/2/6 
f 161/1/6 156/1/6 162/1/6 
f 162/1/6 156/1/6 163/1/6 
f 156/2/6 157/2/6 164/2/6 
f 163/1/6 156/1/6 164/1/6 
f 158/1/6 159/1/6 165/1/6 
f 164/2/6 157/2/6 165/2/6 
f 157/1/6 158/1/6 165/1/6 
f 159/1/6 160/1/6 165/1/6 
f 160/3/6 30/3/6 166/3/6 
f 165/1/6 160/1/6 166/1/6 
f 166/3/6 30/3/6 31/3/6 
f 161/1/6 162/1/6 13/1/6 
f 12/1/6 161/1/6 13/1/6 
f 13/1/6 162/1/6 167/1/6 
f 162/3/6 163/3/6 168/3/6 
f 167/1/6 162/1/6 168/1/6 
f 163/1/6 164/1/6 169/1/6 
f 168/3/6 163/3/6 169/3/6 
f 166/1/6 31/1/6 169/1/6 
f 164/1/6 165/1/6 169/1/6 
f 165/1/6 166/1/6 169/1/6 
f 169/1/6 31/1/6 170/1/6 
f 170/1/6 31/1/6 171/1/6 
f 13/3/6 167/3/6 14/3/6 
f 167/1/6 168/1/6 172/1/6 
f 14/3/6 167/3/6 172/3/6 
f 168/1/6 169/1/6 172/1/6 
f 169/1/6 170/1/6 172/1/6 
f 170/2/6 171/2/6 173/2/6 
f 172/1/6 170/1/6 173/1/6 
f 171/1/6 31/1/6 174/1/6 
f 173/2/6 171/2/6 174/2/6 
f 172/1/6 173/1/6 15/1/6 
f 14/1/6 172/1/6 15/1/6 
f 173/1/6 174/1/6 15/1/6 
f 15/1/6 174/1/6 175/1/6 
f 175/1/6 174/1/6 176/1/6 
f 176/1/6 174/1/6 177/1/6 
f 177/1/6 174/1/6 178/1/6 
f 178/1/6 174/1/6 179/1/6 
f 174/1/6 31/1/6 180/1/6 
f 179/1/6 174/1/6 180/1/6 
f 180/1/6 31/1/6 181/1/6 
f 181/1/6 31/1/6 182/1/6 
f 182/1/6 31/1/6 183/1/6 
f 183/1/6 31/1/6 184/1/6 
f 184/1/6 31/1/6 32/1/6 
f 15/3/6 175/3/6 16/3/6 
f 175/6/6 176/6/6 185/6/6 
f 16/3/6 175/3/6 185/3/6 
f 176/3/6 177/3/6 186/3/6 
f 185/6/6 176/6/6 186/6/6 
f 177/6/6 178/6/6 187/6/6 
f 186/3/6 177/3/6 187/3/6 
f 178/3/6 179/3/6 188/3/6 
f 187/6/6 178/6/6 188/6/6 
f 188/3/6 179/3/6 189/3/6 
f 179/6/6 180/6/6 190/6/6 
f 189/3/6 179/3/6 190/3/6 
f 190/6/6 180/6/6 191/6/6 
f 191/6/6 180/6/6 192/6/6 
f 180/3/6 181/3/6 193/3/6 
f 192/6/6 180/6/6 193/6/6 
f 181/6/6 182/6/6 194/6/6 
f 193/3/6 181/3/6 194/3/6 
f 194/6/6 182/6/6 195/6/6 
f 195/6/6 182/6/6 196/6/6 
f 182/3/6 183/3/6 197/3/6 
f 196/6/6 182/6/6 197/6/6 
f 197/3/6 183/3/6 198/3/6 
f 183/6/6 184/6/6 199/6/6 
f 198/3/6 183/3/6 199/3/6 
f 184/3/6 32/3/6 200/3/6 
f 199/6/6 184/6/6 200/6/6 
f 200/3/6 32/3/6 33/3/6 
f 188/2/6 189/2/6 201/2/6 
f 187/2/6 188/2/6 201/2/6 
f 189/6/6 190/6/6 201/6/6 
f 190/2/6 191/2/6 202/2/6 
f 201/6/6 190/6/6 202/6/6 
f 192/2/6 193/2/6 203/2/6 
f 193/5/6 194/5/6 203/5/6 
f 194/2/6 195/2/6 204/2/6 
f 203/5/6 194/5/6 204/5/6 
f 197/5/6 198/5/6 205/5/6 
f 196/2/6 197/2/6 205/2/6 
f 198/2/6 199/2/6 206/2/6 
f 205/5/6 198/5/6 206/5/6 
f 199/2/6 200/2/6 206/2/6 
f 200/5/6 33/5/6 207/5/6 
f 206/2/6 200/2/6 207/2/6 
f 207/5/6 33/5/6 34/5/6 
f 16/2/6 185/2/6 17/2/6 
f 185/2/6 186/2/6 17/2/6 
f 186/4/6 187/4/6 38/4/6 
f 17/2/6 186/2/6 38/2/6 
f 187/2/6 201/2/6 41/2/6 
f 38/4/6 187/4/6 41/4/6 
f 201/4/6 202/4/6 44/4/6 
f 41/2/6 201/2/6 44/2/6 
f 202/2/6 191/2/6 47/2/6 
f 44/4/6 202/4/6 47/4/6 
f 191/4/6 192/4/6 50/4/6 
f 47/2/6 191/2/6 50/2/6 
f 192/2/6 203/2/6 53/2/6 
f 50/4/6 192/4/6 53/4/6 
f 203/4/6 204/4/6 56/4/6 
f 53/2/6 203/2/6 56/2/6 
f 204/2/6 195/2/6 59/2/6 
f 56/4/6 204/4/6 59/4/6 
f 195/4/6 196/4/6 63/4/6 
f 59/2/6 195/2/6 63/2/6 
f 196/2/6 205/2/6 67/2/6 
f 63/4/6 196/4/6 67/4/6 
f 205/4/6 206/4/6 71/4/6 
f 67/2/6 205/2/6 71/2/6 
f 206/2/6 207/2/6 75/2/6 
f 71/4/6 206/4/6 75/4/6 
f 207/4/6 34/4/6 78/4/6 
f 75/2/6 207/2/6 78/2/6 
f 78/4/6 34/4/6 35/4/6 
# 0 polygons - 410 triangles

