# MagicaVoxel @ Ephtracy

# group
o 

# material
mtllib Bureau Classique porte.mtl
usemtl palette

# normals
vn -1 0 0
vn 1 0 0
vn 0 0 1
vn 0 0 -1
vn 0 -1 0
vn 0 1 0

# texcoords
vt 0.654297 0.5
vt 0.716797 0.5
vt 0.728516 0.5
vt 0.927734 0.5
vt 0.935547 0.5
vt 0.958984 0.5
vt 0.994141 0.5

# verts
v 0 2 0
v 0 2 -0.2
v 0 2 -1.6
v 0 2 -1.8
v 0 3.8 0
v 0 3.8 -0.2
v 0 3.8 -1.6
v 0 3.8 -1.8
v 0 3.9 0
v 0 3.9 -1.8
v 2.2 2 0
v 2.2 2 -0.1
v 2.2 2 -0.2
v 2.2 2 -1.6
v 2.2 2 -1.7
v 2.2 2 -1.8
v 2.2 3.8 0
v 2.2 3.8 -0.1
v 2.2 3.8 -0.2
v 2.2 3.8 -1.6
v 2.2 3.8 -1.7
v 2.2 3.8 -1.8
v 2.3 2 -0.1
v 2.3 2 -0.2
v 2.3 2 -1.6
v 2.3 2 -1.7
v 2.3 2 -1.8
v 2.3 2 -1.9
v 2.3 3.8 -0.1
v 2.3 3.8 -0.2
v 2.3 3.8 -1.6
v 2.3 3.8 -1.7
v 2.3 3.8 -1.8
v 2.3 3.8 -1.9
v 3.3 2.8 -1.9
v 3.3 2.8 -2
v 3.3 3.1 -1.9
v 3.3 3.1 -2
v 3.3 3.4 -1.1
v 3.3 3.4 -1.2
v 3.3 3.5 -1.1
v 3.3 3.5 -1.2
v 3.4 3 -0.9
v 3.4 3 -1.6
v 3.4 3.4 -1.1
v 3.4 3.4 -1.6
v 3.4 3.5 -1.2
v 3.4 3.5 -1.8
v 3.4 3.8 -0.9
v 3.4 3.8 -1.1
v 3.4 3.8 -1.2
v 3.4 3.8 -1.8
v 0.1 2 0
v 0.1 2 -0.2
v 0.1 2 -1.6
v 0.1 2 -1.8
v 0.1 3.7 0
v 0.1 3.7 -0.2
v 0.1 3.7 -1.6
v 0.1 3.7 -1.8
v 0.3 3.7 0
v 0.3 3.7 -0.2
v 0.3 3.7 -1.6
v 0.3 3.7 -1.8
v 0.3 3.8 0
v 0.3 3.8 -0.2
v 0.3 3.8 -1.6
v 0.3 3.8 -1.8
v 2.4 3 -0.9
v 2.4 3 -1.6
v 2.4 3.4 -1.2
v 2.4 3.4 -1.6
v 2.4 3.5 -1.1
v 2.4 3.5 -1.2
v 2.4 3.5 -1.6
v 2.4 3.5 -1.7
v 2.4 3.5 -1.8
v 2.4 3.7 -1.2
v 2.4 3.7 -1.3
v 2.4 3.8 -0.9
v 2.4 3.8 -1.1
v 2.4 3.8 -1.2
v 2.4 3.8 -1.3
v 2.4 3.8 -1.6
v 2.4 3.8 -1.7
v 2.4 3.8 -1.8
v 3.4 2.8 -1.9
v 3.4 2.8 -2
v 3.4 3.1 -1.9
v 3.4 3.1 -2
v 3.5 2 -0.1
v 3.5 2 -0.2
v 3.5 2 -1.6
v 3.5 2 -1.7
v 3.5 2 -1.8
v 3.5 2 -1.9
v 3.5 3.8 -0.1
v 3.5 3.8 -0.2
v 3.5 3.8 -1.6
v 3.5 3.8 -1.7
v 3.5 3.8 -1.8
v 3.5 3.8 -1.9
v 3.6 2 0
v 3.6 2 -0.1
v 3.6 2 -0.2
v 3.6 2 -1.6
v 3.6 2 -1.7
v 3.6 2 -1.8
v 3.6 3.8 0
v 3.6 3.8 -0.1
v 3.6 3.8 -0.2
v 3.6 3.8 -1.6
v 3.6 3.8 -1.7
v 3.6 3.8 -1.8
v 3.6 3.9 0
v 3.6 3.9 -1.8
v 0 2 0
v 0 3.8 0
v 0 3.9 0
v 0.1 2 0
v 0.1 3.7 0
v 0.3 3.7 0
v 0.3 3.8 0
v 2.2 2 0
v 2.2 3.8 0
v 2.3 2 0
v 2.3 3.8 0
v 3.5 2 0
v 3.5 3.8 0
v 3.6 2 0
v 3.6 3.8 0
v 3.6 3.9 0
v 2.2 2 -0.2
v 2.2 3.8 -0.2
v 2.3 2 -0.2
v 2.3 3.8 -0.2
v 3.5 2 -0.2
v 3.5 3.8 -0.2
v 3.6 2 -0.2
v 3.6 3.8 -0.2
v 2.4 3.5 -1.1
v 2.4 3.8 -1.1
v 3.3 3.4 -1.1
v 3.3 3.5 -1.1
v 3.4 3.4 -1.1
v 3.4 3.8 -1.1
v 2.4 3.4 -1.2
v 2.4 3.5 -1.2
v 3.3 3.4 -1.2
v 3.3 3.5 -1.2
v 0 2 -1.6
v 0 3.8 -1.6
v 0.1 2 -1.6
v 0.1 3.7 -1.6
v 0.3 3.7 -1.6
v 0.3 3.8 -1.6
v 2.4 3 -1.6
v 2.4 3.4 -1.6
v 3.4 3 -1.6
v 3.4 3.4 -1.6
v 2.2 2 -1.7
v 2.2 3.8 -1.7
v 2.3 2 -1.7
v 2.3 3.8 -1.7
v 3.5 2 -1.7
v 3.5 3.8 -1.7
v 3.6 2 -1.7
v 3.6 3.8 -1.7
v 2.4 3.5 -1.8
v 2.4 3.8 -1.8
v 3.4 3.5 -1.8
v 3.4 3.8 -1.8
v 2.2 2 -0.1
v 2.2 3.8 -0.1
v 2.3 2 -0.1
v 2.3 3.8 -0.1
v 3.5 2 -0.1
v 3.5 3.8 -0.1
v 3.6 2 -0.1
v 3.6 3.8 -0.1
v 0 2 -0.2
v 0 3.8 -0.2
v 0.1 2 -0.2
v 0.1 3.7 -0.2
v 0.3 3.7 -0.2
v 0.3 3.8 -0.2
v 2.4 3 -0.9
v 2.4 3.8 -0.9
v 3.4 3 -0.9
v 3.4 3.8 -0.9
v 2.4 3.5 -1.2
v 2.4 3.7 -1.2
v 2.4 3.8 -1.2
v 3.4 3.5 -1.2
v 3.4 3.8 -1.2
v 2.2 2 -1.6
v 2.2 3.8 -1.6
v 2.3 2 -1.6
v 2.3 3.8 -1.6
v 3.5 2 -1.6
v 3.5 3.8 -1.6
v 3.6 2 -1.6
v 3.6 3.8 -1.6
v 0 2 -1.8
v 0 3.8 -1.8
v 0 3.9 -1.8
v 0.1 2 -1.8
v 0.1 3.7 -1.8
v 0.3 3.7 -1.8
v 0.3 3.8 -1.8
v 2.2 2 -1.8
v 2.2 3.8 -1.8
v 2.3 2 -1.8
v 2.3 3.8 -1.8
v 3.5 2 -1.8
v 3.5 3.8 -1.8
v 3.6 2 -1.8
v 3.6 3.8 -1.8
v 3.6 3.9 -1.8
v 2.3 2 -1.9
v 2.3 3.8 -1.9
v 3.3 2.8 -1.9
v 3.3 3.1 -1.9
v 3.4 2.8 -1.9
v 3.4 3.1 -1.9
v 3.5 2 -1.9
v 3.5 3.8 -1.9
v 3.3 2.8 -2
v 3.3 3.1 -2
v 3.4 2.8 -2
v 3.4 3.1 -2
v 0 2 0
v 0.1 2 0
v 2.2 2 0
v 2.3 2 0
v 3.5 2 0
v 3.6 2 0
v 2.2 2 -0.1
v 2.3 2 -0.1
v 2.4 2 -0.1
v 3.5 2 -0.1
v 3.6 2 -0.1
v 0 2 -0.2
v 0.1 2 -0.2
v 2.2 2 -0.2
v 2.3 2 -0.2
v 2.4 2 -0.2
v 3.5 2 -0.2
v 3.6 2 -0.2
v 0 2 -1.6
v 0.1 2 -1.6
v 2.2 2 -1.6
v 2.3 2 -1.6
v 2.4 2 -1.6
v 3.5 2 -1.6
v 3.6 2 -1.6
v 2.2 2 -1.7
v 2.3 2 -1.7
v 2.4 2 -1.7
v 3.5 2 -1.7
v 3.6 2 -1.7
v 0 2 -1.8
v 0.1 2 -1.8
v 2.2 2 -1.8
v 2.3 2 -1.8
v 3.5 2 -1.8
v 3.6 2 -1.8
v 2.3 2 -1.9
v 3.5 2 -1.9
v 3.3 2.8 -1.9
v 3.4 2.8 -1.9
v 3.3 2.8 -2
v 3.4 2.8 -2
v 3.3 3.4 -1.1
v 3.4 3.4 -1.1
v 2.4 3.4 -1.2
v 3.3 3.4 -1.2
v 2.4 3.4 -1.6
v 3.4 3.4 -1.6
v 2.4 3.5 -1.1
v 3.3 3.5 -1.1
v 2.4 3.5 -1.2
v 3.3 3.5 -1.2
v 0.1 3.7 0
v 0.3 3.7 0
v 0.1 3.7 -0.2
v 0.3 3.7 -0.2
v 0.1 3.7 -1.6
v 0.3 3.7 -1.6
v 0.1 3.7 -1.8
v 0.3 3.7 -1.8
v 0.3 3.8 0
v 2.2 3.8 0
v 2.2 3.8 -0.1
v 2.3 3.8 -0.1
v 3.5 3.8 -0.1
v 3.6 3.8 -0.1
v 0 3.8 -0.2
v 0.3 3.8 -0.2
v 2.2 3.8 -0.2
v 2.3 3.8 -0.2
v 3.5 3.8 -0.2
v 3.6 3.8 -0.2
v 2.4 3.8 -0.9
v 3.4 3.8 -0.9
v 2.4 3.8 -1.1
v 3.4 3.8 -1.1
v 2.4 3.8 -1.2
v 3.4 3.8 -1.2
v 2.4 3.8 -1.3
v 0 3.8 -1.6
v 0.3 3.8 -1.6
v 2.2 3.8 -1.6
v 2.3 3.8 -1.6
v 2.4 3.8 -1.6
v 3.5 3.8 -1.6
v 3.6 3.8 -1.6
v 2.2 3.8 -1.7
v 2.3 3.8 -1.7
v 2.4 3.8 -1.7
v 3.5 3.8 -1.7
v 3.6 3.8 -1.7
v 0.3 3.8 -1.8
v 2.2 3.8 -1.8
v 2.4 3.8 -1.8
v 3.4 3.8 -1.8
v 2.4 3 -0.9
v 3.4 3 -0.9
v 2.4 3 -1.6
v 3.4 3 -1.6
v 3.3 3.1 -1.9
v 3.4 3.1 -1.9
v 3.3 3.1 -2
v 3.4 3.1 -2
v 2.4 3.5 -1.2
v 3.4 3.5 -1.2
v 2.4 3.5 -1.6
v 2.4 3.5 -1.7
v 2.4 3.5 -1.8
v 3.4 3.5 -1.8
v 2.3 3.8 -1.8
v 3.5 3.8 -1.8
v 2.3 3.8 -1.9
v 3.5 3.8 -1.9
v 0 3.9 0
v 3.6 3.9 0
v 0 3.9 -1.8
v 3.6 3.9 -1.8

# faces
f 5/5/1 2/5/1 1/5/1
f 6/5/1 2/5/1 5/5/1
f 7/5/1 4/5/1 3/5/1
f 8/5/1 4/5/1 7/5/1
f 9/6/1 6/6/1 5/6/1
f 9/6/1 7/6/1 6/6/1
f 9/6/1 8/6/1 7/6/1
f 10/6/1 8/6/1 9/6/1
f 17/5/1 12/5/1 11/5/1
f 18/5/1 12/5/1 17/5/1
f 19/2/1 14/2/1 13/2/1
f 20/2/1 14/2/1 19/2/1
f 21/5/1 16/5/1 15/5/1
f 22/5/1 16/5/1 21/5/1
f 29/3/1 24/3/1 23/3/1
f 30/3/1 24/3/1 29/3/1
f 31/3/1 26/3/1 25/3/1
f 32/3/1 26/3/1 31/3/1
f 33/4/1 28/4/1 27/4/1
f 34/4/1 28/4/1 33/4/1
f 37/7/1 36/7/1 35/7/1
f 38/7/1 36/7/1 37/7/1
f 41/4/1 40/4/1 39/4/1
f 42/4/1 40/4/1 41/4/1
f 45/4/1 44/4/1 43/4/1
f 46/4/1 44/4/1 45/4/1
f 49/4/1 45/4/1 43/4/1
f 50/4/1 45/4/1 49/4/1
f 51/4/1 48/4/1 47/4/1
f 52/4/1 48/4/1 51/4/1
f 53/5/2 54/5/2 57/5/2
f 57/5/2 54/5/2 58/5/2
f 55/5/2 56/5/2 59/5/2
f 59/5/2 56/5/2 60/5/2
f 61/5/2 62/5/2 65/5/2
f 65/5/2 62/5/2 66/5/2
f 63/5/2 64/5/2 67/5/2
f 67/5/2 64/5/2 68/5/2
f 69/1/2 70/1/2 71/1/2
f 71/1/2 70/1/2 72/1/2
f 69/1/2 71/1/2 73/1/2
f 73/1/2 71/1/2 74/1/2
f 74/4/2 75/4/2 78/4/2
f 78/4/2 75/4/2 79/4/2
f 69/1/2 73/1/2 80/1/2
f 80/1/2 73/1/2 81/1/2
f 78/1/2 79/1/2 82/1/2
f 79/4/2 75/4/2 83/4/2
f 82/1/2 79/1/2 83/1/2
f 75/3/2 76/3/2 84/3/2
f 83/4/2 75/4/2 84/4/2
f 76/4/2 77/4/2 85/4/2
f 84/3/2 76/3/2 85/3/2
f 85/4/2 77/4/2 86/4/2
f 87/7/2 88/7/2 89/7/2
f 89/7/2 88/7/2 90/7/2
f 91/4/2 92/4/2 97/4/2
f 97/4/2 92/4/2 98/4/2
f 93/4/2 94/4/2 99/4/2
f 99/4/2 94/4/2 100/4/2
f 95/4/2 96/4/2 101/4/2
f 101/4/2 96/4/2 102/4/2
f 103/5/2 104/5/2 109/5/2
f 109/5/2 104/5/2 110/5/2
f 105/4/2 106/4/2 111/4/2
f 111/4/2 106/4/2 112/4/2
f 107/5/2 108/5/2 113/5/2
f 113/5/2 108/5/2 114/5/2
f 111/6/2 112/6/2 115/6/2
f 109/6/2 110/6/2 115/6/2
f 113/6/2 114/6/2 115/6/2
f 112/6/2 113/6/2 115/6/2
f 110/6/2 111/6/2 115/6/2
f 115/6/2 114/6/2 116/6/2
f 120/5/3 118/5/3 117/5/3
f 121/5/3 118/5/3 120/5/3
f 122/5/3 118/5/3 121/5/3
f 123/6/3 119/6/3 118/6/3
f 123/5/3 118/5/3 122/5/3
f 125/6/3 119/6/3 123/6/3
f 126/5/3 125/5/3 124/5/3
f 127/6/3 119/6/3 125/6/3
f 127/5/3 125/5/3 126/5/3
f 128/4/3 127/4/3 126/4/3
f 129/6/3 119/6/3 127/6/3
f 129/4/3 127/4/3 128/4/3
f 130/5/3 129/5/3 128/5/3
f 131/6/3 119/6/3 129/6/3
f 131/5/3 129/5/3 130/5/3
f 132/6/3 119/6/3 131/6/3
f 135/2/3 134/2/3 133/2/3
f 136/2/3 134/2/3 135/2/3
f 139/4/3 138/4/3 137/4/3
f 140/4/3 138/4/3 139/4/3
f 144/4/3 142/4/3 141/4/3
f 145/4/3 144/4/3 143/4/3
f 146/4/3 142/4/3 144/4/3
f 146/4/3 144/4/3 145/4/3
f 149/4/3 148/4/3 147/4/3
f 150/4/3 148/4/3 149/4/3
f 153/5/3 152/5/3 151/5/3
f 154/5/3 152/5/3 153/5/3
f 155/5/3 152/5/3 154/5/3
f 156/5/3 152/5/3 155/5/3
f 159/4/3 158/4/3 157/4/3
f 160/4/3 158/4/3 159/4/3
f 163/5/3 162/5/3 161/5/3
f 164/5/3 162/5/3 163/5/3
f 167/5/3 166/5/3 165/5/3
f 168/5/3 166/5/3 167/5/3
f 171/4/3 170/4/3 169/4/3
f 172/4/3 170/4/3 171/4/3
f 173/5/4 174/5/4 175/5/4
f 175/5/4 174/5/4 176/5/4
f 177/5/4 178/5/4 179/5/4
f 179/5/4 178/5/4 180/5/4
f 181/5/4 182/5/4 183/5/4
f 183/5/4 182/5/4 184/5/4
f 184/5/4 182/5/4 185/5/4
f 185/5/4 182/5/4 186/5/4
f 187/4/4 188/4/4 189/4/4
f 189/4/4 188/4/4 190/4/4
f 191/4/4 192/4/4 194/4/4
f 192/4/4 193/4/4 194/4/4
f 194/4/4 193/4/4 195/4/4
f 196/2/4 197/2/4 198/2/4
f 198/2/4 197/2/4 199/2/4
f 200/4/4 201/4/4 202/4/4
f 202/4/4 201/4/4 203/4/4
f 204/5/4 205/5/4 207/5/4
f 207/5/4 205/5/4 208/5/4
f 208/5/4 205/5/4 209/5/4
f 205/6/4 206/6/4 210/6/4
f 209/5/4 205/5/4 210/5/4
f 210/6/4 206/6/4 212/6/4
f 211/5/4 212/5/4 213/5/4
f 212/6/4 206/6/4 214/6/4
f 213/5/4 212/5/4 214/5/4
f 214/6/4 206/6/4 216/6/4
f 215/5/4 216/5/4 217/5/4
f 216/6/4 206/6/4 218/6/4
f 217/5/4 216/5/4 218/5/4
f 218/6/4 206/6/4 219/6/4
f 220/4/4 221/4/4 222/4/4
f 222/4/4 221/4/4 223/4/4
f 220/4/4 222/4/4 224/4/4
f 223/4/4 221/4/4 225/4/4
f 220/4/4 224/4/4 226/4/4
f 224/4/4 225/4/4 226/4/4
f 225/4/4 221/4/4 227/4/4
f 226/4/4 225/4/4 227/4/4
f 228/7/4 229/7/4 230/7/4
f 230/7/4 229/7/4 231/7/4
f 238/5/5 235/5/5 234/5/5
f 239/4/5 236/4/5 235/4/5
f 239/5/5 235/5/5 238/5/5
f 240/4/5 236/4/5 239/4/5
f 241/5/5 237/5/5 236/5/5
f 241/4/5 236/4/5 240/4/5
f 242/5/5 237/5/5 241/5/5
f 243/5/5 233/5/5 232/5/5
f 244/5/5 233/5/5 243/5/5
f 246/3/5 240/3/5 239/3/5
f 247/4/5 241/4/5 240/4/5
f 247/3/5 240/3/5 246/3/5
f 248/4/5 241/4/5 247/4/5
f 252/2/5 246/2/5 245/2/5
f 253/1/5 247/1/5 246/1/5
f 253/2/5 246/2/5 252/2/5
f 254/4/5 249/4/5 248/4/5
f 254/1/5 247/1/5 253/1/5
f 254/4/5 248/4/5 247/4/5
f 255/4/5 249/4/5 254/4/5
f 256/4/5 249/4/5 255/4/5
f 258/3/5 254/3/5 253/3/5
f 259/4/5 255/4/5 254/4/5
f 259/3/5 254/3/5 258/3/5
f 260/4/5 255/4/5 259/4/5
f 262/5/5 251/5/5 250/5/5
f 263/5/5 251/5/5 262/5/5
f 264/5/5 258/5/5 257/5/5
f 265/4/5 259/4/5 258/4/5
f 265/5/5 258/5/5 264/5/5
f 265/4/5 260/4/5 259/4/5
f 266/5/5 261/5/5 260/5/5
f 266/4/5 260/4/5 265/4/5
f 267/5/5 261/5/5 266/5/5
f 268/4/5 266/4/5 265/4/5
f 269/4/5 266/4/5 268/4/5
f 272/7/5 271/7/5 270/7/5
f 273/7/5 271/7/5 272/7/5
f 277/4/5 275/4/5 274/4/5
f 278/4/5 277/4/5 276/4/5
f 279/4/5 275/4/5 277/4/5
f 279/4/5 277/4/5 278/4/5
f 282/4/5 281/4/5 280/4/5
f 283/4/5 281/4/5 282/4/5
f 286/5/5 285/5/5 284/5/5
f 287/5/5 285/5/5 286/5/5
f 290/5/5 289/5/5 288/5/5
f 291/5/5 289/5/5 290/5/5
f 294/6/5 293/6/5 292/6/5
f 299/6/5 294/6/5 292/6/5
f 299/6/5 295/6/5 294/6/5
f 300/6/5 295/6/5 299/6/5
f 301/6/5 295/6/5 300/6/5
f 302/6/5 297/6/5 296/6/5
f 303/6/5 297/6/5 302/6/5
f 306/6/5 305/6/5 304/6/5
f 307/6/5 305/6/5 306/6/5
f 310/6/5 309/6/5 308/6/5
f 311/6/5 299/6/5 298/6/5
f 311/6/5 300/6/5 299/6/5
f 312/6/5 300/6/5 311/6/5
f 313/6/5 300/6/5 312/6/5
f 315/6/5 309/6/5 310/6/5
f 318/6/5 314/6/5 313/6/5
f 318/6/5 313/6/5 312/6/5
f 319/6/5 314/6/5 318/6/5
f 320/6/5 309/6/5 315/6/5
f 321/6/5 317/6/5 316/6/5
f 322/6/5 317/6/5 321/6/5
f 323/6/5 318/6/5 312/6/5
f 324/6/5 318/6/5 323/6/5
f 325/6/5 309/6/5 320/6/5
f 326/6/5 309/6/5 325/6/5
f 327/4/6 328/4/6 329/4/6
f 329/4/6 328/4/6 330/4/6
f 331/7/6 332/7/6 333/7/6
f 333/7/6 332/7/6 334/7/6
f 335/4/6 336/4/6 337/4/6
f 337/4/6 336/4/6 338/4/6
f 338/4/6 336/4/6 339/4/6
f 339/4/6 336/4/6 340/4/6
f 341/4/6 342/4/6 343/4/6
f 343/4/6 342/4/6 344/4/6
f 345/6/6 346/6/6 347/6/6
f 347/6/6 346/6/6 348/6/6
