# 3ds Max Wavefront OBJ Exporter v0.97b - (c)2007 guruware
# File Created: 07.11.2019 18:21:18

mtllib Route Ligne blanche.mtl

#
# object Route_Ligne_blanche
#

v  0.0000 0.1000 -0.0000
v  0.0000 0.0000 -0.1000
v  0.0000 0.0000 -0.0000
v  0.0000 0.1000 -0.1000
v  0.0000 0.0000 -7.1000
v  0.0000 0.1000 -7.1000
v  0.0000 0.0000 -7.2000
v  0.0000 0.1000 -7.2000
v  3.6000 0.0000 -0.0000
v  3.6000 0.0000 -0.1000
v  3.6000 0.1000 -0.0000
v  3.6000 0.0000 -7.1000
v  3.6000 0.1000 -0.1000
v  3.6000 0.0000 -7.2000
v  3.6000 0.1000 -7.1000
v  3.6000 0.1000 -7.2000
v  2.3000 0.0000 -0.2000
v  2.4000 0.0000 -0.2000
v  0.4000 0.0000 -0.3000
v  0.5000 0.0000 -0.3000
v  2.3000 0.0000 -0.3000
v  2.4000 0.0000 -0.3000
v  0.4000 0.0000 -0.4000
v  0.5000 0.0000 -0.4000
v  1.9000 0.0000 -0.6000
v  2.0000 0.0000 -0.6000
v  1.9000 0.0000 -0.7000
v  2.0000 0.0000 -0.7000
v  2.7000 0.0000 -0.7000
v  2.8000 0.0000 -0.7000
v  2.7000 0.0000 -0.8000
v  2.8000 0.0000 -0.8000
v  1.2000 0.0000 -1.0000
v  1.3000 0.0000 -1.0000
v  1.2000 0.0000 -1.1000
v  1.3000 0.0000 -1.1000
v  0.9000 0.0000 -1.5000
v  1.0000 0.0000 -1.5000
v  0.9000 0.0000 -1.6000
v  1.0000 0.0000 -1.6000
v  1.1000 0.0000 -1.6000
v  3.0000 0.0000 -1.6000
v  3.1000 0.0000 -1.6000
v  1.0000 0.0000 -1.7000
v  1.1000 0.0000 -1.7000
v  3.0000 0.0000 -1.7000
v  3.1000 0.0000 -1.7000
v  0.3000 0.0000 -2.2000
v  0.4000 0.0000 -2.2000
v  0.3000 0.0000 -2.3000
v  0.4000 0.0000 -2.3000
v  0.9000 0.0000 -2.5000
v  1.0000 0.0000 -2.5000
v  2.5000 0.0000 -2.5000
v  2.6000 0.0000 -2.5000
v  0.9000 0.0000 -2.6000
v  1.0000 0.0000 -2.6000
v  2.5000 0.0000 -2.6000
v  2.6000 0.0000 -2.6000
v  0.6000 0.0000 -3.4000
v  1.6000 0.0000 -3.4000
v  2.4000 0.0000 -3.4000
v  2.5000 0.0000 -3.4000
v  2.6000 0.0000 -3.4000
v  2.7000 0.0000 -3.4000
v  2.8000 0.0000 -3.4000
v  3.0000 0.0000 -3.4000
v  3.1000 0.0000 -3.4000
v  3.4000 0.0000 -3.4000
v  0.8000 0.0000 -3.5000
v  0.9000 0.0000 -3.5000
v  2.5000 0.0000 -3.5000
v  2.6000 0.0000 -3.5000
v  2.7000 0.0000 -3.5000
v  2.8000 0.0000 -3.5000
v  2.9000 0.0000 -3.5000
v  3.0000 0.0000 -3.5000
v  3.1000 0.0000 -3.5000
v  0.8000 0.0000 -3.6000
v  0.9000 0.0000 -3.6000
v  1.0000 0.0000 -3.6000
v  1.1000 0.0000 -3.6000
v  1.4000 0.0000 -3.6000
v  1.5000 0.0000 -3.6000
v  2.8000 0.0000 -3.6000
v  2.9000 0.0000 -3.6000
v  3.0000 0.0000 -3.6000
v  3.1000 0.0000 -3.6000
v  0.9000 0.0000 -3.7000
v  1.0000 0.0000 -3.7000
v  1.1000 0.0000 -3.7000
v  1.4000 0.0000 -3.7000
v  1.5000 0.0000 -3.7000
v  2.5000 0.0000 -3.7000
v  2.6000 0.0000 -3.7000
v  3.0000 0.0000 -3.7000
v  3.1000 0.0000 -3.7000
v  0.6000 0.0000 -3.8000
v  0.9000 0.0000 -3.8000
v  1.0000 0.0000 -3.8000
v  1.6000 0.0000 -3.8000
v  2.4000 0.0000 -3.8000
v  2.5000 0.0000 -3.8000
v  2.6000 0.0000 -3.8000
v  3.4000 0.0000 -3.8000
v  0.1000 0.0000 -3.9000
v  0.2000 0.0000 -3.9000
v  0.1000 0.0000 -4.0000
v  0.2000 0.0000 -4.0000
v  3.1000 0.0000 -4.2000
v  3.2000 0.0000 -4.2000
v  3.1000 0.0000 -4.3000
v  3.2000 0.0000 -4.3000
v  2.1000 0.0000 -4.4000
v  2.2000 0.0000 -4.4000
v  2.1000 0.0000 -4.5000
v  2.2000 0.0000 -4.5000
v  2.5000 0.0000 -4.7000
v  2.6000 0.0000 -4.7000
v  1.2000 0.0000 -4.8000
v  1.3000 0.0000 -4.8000
v  2.5000 0.0000 -4.8000
v  2.6000 0.0000 -4.8000
v  1.2000 0.0000 -4.9000
v  1.3000 0.0000 -4.9000
v  0.2000 0.0000 -5.0000
v  0.3000 0.0000 -5.0000
v  0.2000 0.0000 -5.1000
v  0.3000 0.0000 -5.1000
v  0.4000 0.0000 -5.1000
v  0.5000 0.0000 -5.1000
v  0.4000 0.0000 -5.2000
v  0.5000 0.0000 -5.2000
v  2.7000 0.0000 -5.5000
v  2.8000 0.0000 -5.5000
v  2.7000 0.0000 -5.6000
v  2.8000 0.0000 -5.6000
v  1.1000 0.0000 -5.8000
v  1.2000 0.0000 -5.8000
v  1.1000 0.0000 -5.9000
v  1.2000 0.0000 -5.9000
v  0.4000 0.0000 -6.1000
v  0.5000 0.0000 -6.1000
v  0.4000 0.0000 -6.2000
v  0.5000 0.0000 -6.2000
v  3.3000 0.0000 -6.4000
v  3.4000 0.0000 -6.4000
v  3.3000 0.0000 -6.5000
v  3.4000 0.0000 -6.5000
v  0.7000 0.0000 -6.8000
v  0.8000 0.0000 -6.8000
v  0.7000 0.0000 -6.9000
v  0.8000 0.0000 -6.9000
v  1.7000 0.0000 -6.9000
v  1.8000 0.0000 -6.9000
v  2.0000 0.0000 -6.9000
v  2.1000 0.0000 -6.9000
v  1.7000 0.0000 -7.0000
v  1.8000 0.0000 -7.0000
v  2.0000 0.0000 -7.0000
v  2.1000 0.0000 -7.0000
v  2.4000 0.0000 -7.0000
v  2.5000 0.0000 -7.0000
v  2.4000 0.0000 -7.1000
v  2.5000 0.0000 -7.1000
v  2.3000 0.1000 -0.2000
v  2.4000 0.1000 -0.2000
v  0.4000 0.1000 -0.3000
v  0.5000 0.1000 -0.3000
v  2.3000 0.1000 -0.3000
v  2.4000 0.1000 -0.3000
v  0.4000 0.1000 -0.4000
v  0.5000 0.1000 -0.4000
v  1.9000 0.1000 -0.6000
v  2.0000 0.1000 -0.6000
v  1.9000 0.1000 -0.7000
v  2.0000 0.1000 -0.7000
v  2.7000 0.1000 -0.7000
v  2.8000 0.1000 -0.7000
v  2.7000 0.1000 -0.8000
v  2.8000 0.1000 -0.8000
v  1.2000 0.1000 -1.0000
v  1.3000 0.1000 -1.0000
v  1.2000 0.1000 -1.1000
v  1.3000 0.1000 -1.1000
v  0.9000 0.1000 -1.5000
v  1.0000 0.1000 -1.5000
v  0.9000 0.1000 -1.6000
v  1.0000 0.1000 -1.6000
v  1.1000 0.1000 -1.6000
v  3.0000 0.1000 -1.6000
v  3.1000 0.1000 -1.6000
v  1.0000 0.1000 -1.7000
v  1.1000 0.1000 -1.7000
v  3.0000 0.1000 -1.7000
v  3.1000 0.1000 -1.7000
v  0.3000 0.1000 -2.2000
v  0.4000 0.1000 -2.2000
v  0.3000 0.1000 -2.3000
v  0.4000 0.1000 -2.3000
v  0.9000 0.1000 -2.5000
v  1.0000 0.1000 -2.5000
v  2.5000 0.1000 -2.5000
v  2.6000 0.1000 -2.5000
v  0.9000 0.1000 -2.6000
v  1.0000 0.1000 -2.6000
v  2.5000 0.1000 -2.6000
v  2.6000 0.1000 -2.6000
v  0.6000 0.1000 -3.4000
v  1.6000 0.1000 -3.4000
v  2.4000 0.1000 -3.4000
v  2.5000 0.1000 -3.4000
v  2.6000 0.1000 -3.4000
v  2.7000 0.1000 -3.4000
v  2.8000 0.1000 -3.4000
v  3.0000 0.1000 -3.4000
v  3.1000 0.1000 -3.4000
v  3.4000 0.1000 -3.4000
v  0.8000 0.1000 -3.5000
v  0.9000 0.1000 -3.5000
v  2.5000 0.1000 -3.5000
v  2.6000 0.1000 -3.5000
v  2.7000 0.1000 -3.5000
v  2.8000 0.1000 -3.5000
v  2.9000 0.1000 -3.5000
v  3.0000 0.1000 -3.5000
v  3.1000 0.1000 -3.5000
v  0.8000 0.1000 -3.6000
v  0.9000 0.1000 -3.6000
v  1.0000 0.1000 -3.6000
v  1.1000 0.1000 -3.6000
v  1.4000 0.1000 -3.6000
v  1.5000 0.1000 -3.6000
v  2.8000 0.1000 -3.6000
v  2.9000 0.1000 -3.6000
v  3.0000 0.1000 -3.6000
v  3.1000 0.1000 -3.6000
v  0.9000 0.1000 -3.7000
v  1.0000 0.1000 -3.7000
v  1.1000 0.1000 -3.7000
v  1.4000 0.1000 -3.7000
v  1.5000 0.1000 -3.7000
v  2.5000 0.1000 -3.7000
v  2.6000 0.1000 -3.7000
v  3.0000 0.1000 -3.7000
v  3.1000 0.1000 -3.7000
v  0.6000 0.1000 -3.8000
v  0.9000 0.1000 -3.8000
v  1.0000 0.1000 -3.8000
v  1.6000 0.1000 -3.8000
v  2.4000 0.1000 -3.8000
v  2.5000 0.1000 -3.8000
v  2.6000 0.1000 -3.8000
v  3.4000 0.1000 -3.8000
v  0.1000 0.1000 -3.9000
v  0.2000 0.1000 -3.9000
v  0.1000 0.1000 -4.0000
v  0.2000 0.1000 -4.0000
v  3.1000 0.1000 -4.2000
v  3.2000 0.1000 -4.2000
v  3.1000 0.1000 -4.3000
v  3.2000 0.1000 -4.3000
v  2.1000 0.1000 -4.4000
v  2.2000 0.1000 -4.4000
v  2.1000 0.1000 -4.5000
v  2.2000 0.1000 -4.5000
v  2.5000 0.1000 -4.7000
v  2.6000 0.1000 -4.7000
v  1.2000 0.1000 -4.8000
v  1.3000 0.1000 -4.8000
v  2.5000 0.1000 -4.8000
v  2.6000 0.1000 -4.8000
v  1.2000 0.1000 -4.9000
v  1.3000 0.1000 -4.9000
v  0.2000 0.1000 -5.0000
v  0.3000 0.1000 -5.0000
v  0.2000 0.1000 -5.1000
v  0.3000 0.1000 -5.1000
v  0.4000 0.1000 -5.1000
v  0.5000 0.1000 -5.1000
v  0.4000 0.1000 -5.2000
v  0.5000 0.1000 -5.2000
v  2.7000 0.1000 -5.5000
v  2.8000 0.1000 -5.5000
v  2.7000 0.1000 -5.6000
v  2.8000 0.1000 -5.6000
v  1.1000 0.1000 -5.8000
v  1.2000 0.1000 -5.8000
v  1.1000 0.1000 -5.9000
v  1.2000 0.1000 -5.9000
v  0.4000 0.1000 -6.1000
v  0.5000 0.1000 -6.1000
v  0.4000 0.1000 -6.2000
v  0.5000 0.1000 -6.2000
v  3.3000 0.1000 -6.4000
v  3.4000 0.1000 -6.4000
v  3.3000 0.1000 -6.5000
v  3.4000 0.1000 -6.5000
v  0.7000 0.1000 -6.8000
v  0.8000 0.1000 -6.8000
v  0.7000 0.1000 -6.9000
v  0.8000 0.1000 -6.9000
v  1.7000 0.1000 -6.9000
v  1.8000 0.1000 -6.9000
v  2.0000 0.1000 -6.9000
v  2.1000 0.1000 -6.9000
v  1.7000 0.1000 -7.0000
v  1.8000 0.1000 -7.0000
v  2.0000 0.1000 -7.0000
v  2.1000 0.1000 -7.0000
v  2.4000 0.1000 -7.0000
v  2.5000 0.1000 -7.0000
v  2.4000 0.1000 -7.1000
v  2.5000 0.1000 -7.1000
# 314 vertices

vn -1.0000 0.0000 -0.0000
vn 1.0000 0.0000 -0.0000
vn 0.0000 0.0000 1.0000
vn 0.0000 0.0000 -1.0000
vn 0.0000 -1.0000 -0.0000
vn 0.0000 1.0000 -0.0000
# 6 vertex normals

vt 0.9434 0.5000 0.0000
vt 0.9824 0.5000 0.0000
vt 0.9863 0.5000 0.0000
vt 0.9277 0.5000 0.0000
vt 0.9590 0.5000 0.0000
vt 0.9629 0.5000 0.0000
# 6 texture coords

o Route_Ligne_blanche
g Route_Ligne_blanche
usemtl Route_Ligne_blanche_palette
s 1
f 1/1/1 2/1/1 3/1/1 
f 4/2/1 5/2/1 2/2/1 
f 4/1/1 2/1/1 1/1/1 
f 6/1/1 7/1/1 5/1/1 
f 6/2/1 5/2/1 4/2/1 
f 8/1/1 7/1/1 6/1/1 
f 9/1/2 10/1/2 11/1/2 
f 10/2/2 12/2/2 13/2/2 
f 11/1/2 10/1/2 13/1/2 
f 12/1/2 14/1/2 15/1/2 
f 13/2/2 12/2/2 15/2/2 
f 15/1/2 14/1/2 16/1/2 
f 9/1/3 1/1/3 3/1/3 
f 11/1/3 1/1/3 9/1/3 
f 7/1/4 8/1/4 14/1/4 
f 14/1/4 8/1/4 16/1/4 
f 2/1/5 9/1/5 3/1/5 
f 10/1/5 9/1/5 2/1/5 
f 17/2/5 10/2/5 2/2/5 
f 18/2/5 10/2/5 17/2/5 
f 19/2/5 17/2/5 2/2/5 
f 20/2/5 17/2/5 19/2/5 
f 21/1/5 18/1/5 17/1/5 
f 21/2/5 17/2/5 20/2/5 
f 22/2/5 10/2/5 18/2/5 
f 22/1/5 18/1/5 21/1/5 
f 23/3/5 20/3/5 19/3/5 
f 23/2/5 19/2/5 2/2/5 
f 24/2/5 21/2/5 20/2/5 
f 24/3/5 20/3/5 23/3/5 
f 24/2/5 22/2/5 21/2/5 
f 25/2/5 24/2/5 23/2/5 
f 25/2/5 22/2/5 24/2/5 
f 26/2/5 22/2/5 25/2/5 
f 27/2/5 25/2/5 23/2/5 
f 27/4/5 26/4/5 25/4/5 
f 28/2/5 22/2/5 26/2/5 
f 28/4/5 26/4/5 27/4/5 
f 29/2/5 10/2/5 22/2/5 
f 29/2/5 22/2/5 28/2/5 
f 30/2/5 10/2/5 29/2/5 
f 31/2/5 28/2/5 27/2/5 
f 31/2/5 29/2/5 28/2/5 
f 31/3/5 30/3/5 29/3/5 
f 32/2/5 10/2/5 30/2/5 
f 32/3/5 30/3/5 31/3/5 
f 33/2/5 31/2/5 27/2/5 
f 33/2/5 27/2/5 23/2/5 
f 33/2/5 32/2/5 31/2/5 
f 34/2/5 32/2/5 33/2/5 
f 35/2/5 33/2/5 23/2/5 
f 35/1/5 34/1/5 33/1/5 
f 36/2/5 32/2/5 34/2/5 
f 36/1/5 34/1/5 35/1/5 
f 37/2/5 35/2/5 23/2/5 
f 37/2/5 36/2/5 35/2/5 
f 38/2/5 36/2/5 37/2/5 
f 39/2/5 37/2/5 23/2/5 
f 39/1/5 38/1/5 37/1/5 
f 40/2/5 36/2/5 38/2/5 
f 40/1/5 38/1/5 39/1/5 
f 41/2/5 36/2/5 40/2/5 
f 42/2/5 10/2/5 32/2/5 
f 42/2/5 36/2/5 41/2/5 
f 42/2/5 32/2/5 36/2/5 
f 43/2/5 10/2/5 42/2/5 
f 44/3/5 41/3/5 40/3/5 
f 44/2/5 40/2/5 39/2/5 
f 45/2/5 42/2/5 41/2/5 
f 45/3/5 41/3/5 44/3/5 
f 46/4/5 43/4/5 42/4/5 
f 46/2/5 42/2/5 45/2/5 
f 47/2/5 10/2/5 43/2/5 
f 47/4/5 43/4/5 46/4/5 
f 48/2/5 23/2/5 2/2/5 
f 48/2/5 46/2/5 45/2/5 
f 48/2/5 47/2/5 46/2/5 
f 48/2/5 44/2/5 39/2/5 
f 48/2/5 39/2/5 23/2/5 
f 48/2/5 45/2/5 44/2/5 
f 49/2/5 47/2/5 48/2/5 
f 50/2/5 48/2/5 2/2/5 
f 50/1/5 49/1/5 48/1/5 
f 51/2/5 47/2/5 49/2/5 
f 51/1/5 49/1/5 50/1/5 
f 52/2/5 51/2/5 50/2/5 
f 52/2/5 47/2/5 51/2/5 
f 53/2/5 47/2/5 52/2/5 
f 54/2/5 47/2/5 53/2/5 
f 55/2/5 47/2/5 54/2/5 
f 56/2/5 52/2/5 50/2/5 
f 56/1/5 53/1/5 52/1/5 
f 57/2/5 54/2/5 53/2/5 
f 57/1/5 53/1/5 56/1/5 
f 58/3/5 55/3/5 54/3/5 
f 58/2/5 54/2/5 57/2/5 
f 59/2/5 47/2/5 55/2/5 
f 59/3/5 55/3/5 58/3/5 
f 60/2/5 58/2/5 57/2/5 
f 60/2/5 57/2/5 56/2/5 
f 60/2/5 59/2/5 58/2/5 
f 60/2/5 56/2/5 50/2/5 
f 61/2/5 59/2/5 60/2/5 
f 62/2/5 59/2/5 61/2/5 
f 63/2/5 59/2/5 62/2/5 
f 64/2/5 47/2/5 59/2/5 
f 64/2/5 59/2/5 63/2/5 
f 65/2/5 47/2/5 64/2/5 
f 66/2/5 47/2/5 65/2/5 
f 67/2/5 47/2/5 66/2/5 
f 68/2/5 10/2/5 47/2/5 
f 68/2/5 47/2/5 67/2/5 
f 69/2/5 10/2/5 68/2/5 
f 70/5/5 61/5/5 60/5/5 
f 71/5/5 61/5/5 70/5/5 
f 72/5/5 63/5/5 62/5/5 
f 72/6/5 64/6/5 63/6/5 
f 73/5/5 65/5/5 64/5/5 
f 73/6/5 64/6/5 72/6/5 
f 74/6/5 66/6/5 65/6/5 
f 74/5/5 65/5/5 73/5/5 
f 75/5/5 67/5/5 66/5/5 
f 75/6/5 66/6/5 74/6/5 
f 76/5/5 67/5/5 75/5/5 
f 77/6/5 68/6/5 67/6/5 
f 77/5/5 67/5/5 76/5/5 
f 78/5/5 69/5/5 68/5/5 
f 78/6/5 68/6/5 77/6/5 
f 79/6/5 71/6/5 70/6/5 
f 79/5/5 70/5/5 60/5/5 
f 80/5/5 61/5/5 71/5/5 
f 80/6/5 71/6/5 79/6/5 
f 81/5/5 61/5/5 80/5/5 
f 82/5/5 61/5/5 81/5/5 
f 83/5/5 61/5/5 82/5/5 
f 84/5/5 61/5/5 83/5/5 
f 85/5/5 74/5/5 73/5/5 
f 85/5/5 73/5/5 72/5/5 
f 85/6/5 76/6/5 75/6/5 
f 85/5/5 75/5/5 74/5/5 
f 86/5/5 77/5/5 76/5/5 
f 86/6/5 76/6/5 85/6/5 
f 86/5/5 78/5/5 77/5/5 
f 87/5/5 78/5/5 86/5/5 
f 88/5/5 69/5/5 78/5/5 
f 88/5/5 78/5/5 87/5/5 
f 89/5/5 81/5/5 80/5/5 
f 89/5/5 80/5/5 79/5/5 
f 90/6/5 82/6/5 81/6/5 
f 90/5/5 81/5/5 89/5/5 
f 91/5/5 83/5/5 82/5/5 
f 91/6/5 82/6/5 90/6/5 
f 92/6/5 84/6/5 83/6/5 
f 92/5/5 83/5/5 91/5/5 
f 93/5/5 61/5/5 84/5/5 
f 93/6/5 84/6/5 92/6/5 
f 94/5/5 87/5/5 86/5/5 
f 94/5/5 72/5/5 62/5/5 
f 94/5/5 85/5/5 72/5/5 
f 94/5/5 86/5/5 85/5/5 
f 95/5/5 87/5/5 94/5/5 
f 96/6/5 88/6/5 87/6/5 
f 96/5/5 87/5/5 95/5/5 
f 97/5/5 69/5/5 88/5/5 
f 97/6/5 88/6/5 96/6/5 
f 98/5/5 79/5/5 60/5/5 
f 98/2/5 60/2/5 50/2/5 
f 98/5/5 89/5/5 79/5/5 
f 99/6/5 90/6/5 89/6/5 
f 99/5/5 89/5/5 98/5/5 
f 100/5/5 92/5/5 91/5/5 
f 100/6/5 90/6/5 99/6/5 
f 100/5/5 93/5/5 92/5/5 
f 100/5/5 91/5/5 90/5/5 
f 101/2/5 62/2/5 61/2/5 
f 101/5/5 93/5/5 100/5/5 
f 101/5/5 61/5/5 93/5/5 
f 102/5/5 94/5/5 62/5/5 
f 102/2/5 62/2/5 101/2/5 
f 103/6/5 95/6/5 94/6/5 
f 103/5/5 94/5/5 102/5/5 
f 104/5/5 97/5/5 96/5/5 
f 104/6/5 95/6/5 103/6/5 
f 104/5/5 96/5/5 95/5/5 
f 105/5/5 69/5/5 97/5/5 
f 105/5/5 97/5/5 104/5/5 
f 105/2/5 10/2/5 69/2/5 
f 106/2/5 99/2/5 98/2/5 
f 106/2/5 50/2/5 2/2/5 
f 106/2/5 105/2/5 104/2/5 
f 106/2/5 101/2/5 100/2/5 
f 106/2/5 102/2/5 101/2/5 
f 106/2/5 100/2/5 99/2/5 
f 106/2/5 98/2/5 50/2/5 
f 106/2/5 103/2/5 102/2/5 
f 106/2/5 104/2/5 103/2/5 
f 107/2/5 105/2/5 106/2/5 
f 108/2/5 106/2/5 2/2/5 
f 108/3/5 107/3/5 106/3/5 
f 109/2/5 105/2/5 107/2/5 
f 109/3/5 107/3/5 108/3/5 
f 110/2/5 109/2/5 108/2/5 
f 110/2/5 105/2/5 109/2/5 
f 111/2/5 105/2/5 110/2/5 
f 112/2/5 110/2/5 108/2/5 
f 112/3/5 111/3/5 110/3/5 
f 113/2/5 105/2/5 111/2/5 
f 113/3/5 111/3/5 112/3/5 
f 114/2/5 112/2/5 108/2/5 
f 114/2/5 113/2/5 112/2/5 
f 115/2/5 113/2/5 114/2/5 
f 116/2/5 114/2/5 108/2/5 
f 116/4/5 115/4/5 114/4/5 
f 117/2/5 113/2/5 115/2/5 
f 117/4/5 115/4/5 116/4/5 
f 118/2/5 117/2/5 116/2/5 
f 118/2/5 113/2/5 117/2/5 
f 119/2/5 113/2/5 118/2/5 
f 120/2/5 116/2/5 108/2/5 
f 120/2/5 118/2/5 116/2/5 
f 121/2/5 118/2/5 120/2/5 
f 122/4/5 119/4/5 118/4/5 
f 122/2/5 118/2/5 121/2/5 
f 123/2/5 113/2/5 119/2/5 
f 123/4/5 119/4/5 122/4/5 
f 124/1/5 121/1/5 120/1/5 
f 124/2/5 120/2/5 108/2/5 
f 125/2/5 122/2/5 121/2/5 
f 125/1/5 121/1/5 124/1/5 
f 125/2/5 123/2/5 122/2/5 
f 126/2/5 124/2/5 108/2/5 
f 126/2/5 125/2/5 124/2/5 
f 127/2/5 125/2/5 126/2/5 
f 128/2/5 126/2/5 108/2/5 
f 128/3/5 127/3/5 126/3/5 
f 129/2/5 125/2/5 127/2/5 
f 129/3/5 127/3/5 128/3/5 
f 130/2/5 125/2/5 129/2/5 
f 131/2/5 125/2/5 130/2/5 
f 132/2/5 129/2/5 128/2/5 
f 132/2/5 130/2/5 129/2/5 
f 132/4/5 131/4/5 130/4/5 
f 133/2/5 125/2/5 131/2/5 
f 133/4/5 131/4/5 132/4/5 
f 134/2/5 123/2/5 125/2/5 
f 134/2/5 125/2/5 133/2/5 
f 134/2/5 133/2/5 132/2/5 
f 134/2/5 113/2/5 123/2/5 
f 135/2/5 113/2/5 134/2/5 
f 136/2/5 134/2/5 132/2/5 
f 136/1/5 135/1/5 134/1/5 
f 137/2/5 113/2/5 135/2/5 
f 137/1/5 135/1/5 136/1/5 
f 138/2/5 136/2/5 132/2/5 
f 138/2/5 137/2/5 136/2/5 
f 139/2/5 137/2/5 138/2/5 
f 140/2/5 138/2/5 132/2/5 
f 140/3/5 139/3/5 138/3/5 
f 141/2/5 137/2/5 139/2/5 
f 141/3/5 139/3/5 140/3/5 
f 142/2/5 132/2/5 128/2/5 
f 142/2/5 140/2/5 132/2/5 
f 142/2/5 141/2/5 140/2/5 
f 143/2/5 141/2/5 142/2/5 
f 144/2/5 142/2/5 128/2/5 
f 144/1/5 143/1/5 142/1/5 
f 145/2/5 141/2/5 143/2/5 
f 145/1/5 143/1/5 144/1/5 
f 146/2/5 105/2/5 113/2/5 
f 146/2/5 141/2/5 145/2/5 
f 146/2/5 145/2/5 144/2/5 
f 146/2/5 137/2/5 141/2/5 
f 146/2/5 113/2/5 137/2/5 
f 147/2/5 10/2/5 105/2/5 
f 147/2/5 105/2/5 146/2/5 
f 148/2/5 146/2/5 144/2/5 
f 148/3/5 147/3/5 146/3/5 
f 149/2/5 10/2/5 147/2/5 
f 149/3/5 147/3/5 148/3/5 
f 150/2/5 148/2/5 144/2/5 
f 150/2/5 149/2/5 148/2/5 
f 151/2/5 149/2/5 150/2/5 
f 152/2/5 150/2/5 144/2/5 
f 152/1/5 151/1/5 150/1/5 
f 153/2/5 149/2/5 151/2/5 
f 153/1/5 151/1/5 152/1/5 
f 154/2/5 149/2/5 153/2/5 
f 155/2/5 149/2/5 154/2/5 
f 156/2/5 149/2/5 155/2/5 
f 157/2/5 149/2/5 156/2/5 
f 158/2/5 153/2/5 152/2/5 
f 158/2/5 154/2/5 153/2/5 
f 158/3/5 155/3/5 154/3/5 
f 159/2/5 156/2/5 155/2/5 
f 159/3/5 155/3/5 158/3/5 
f 160/1/5 157/1/5 156/1/5 
f 160/2/5 156/2/5 159/2/5 
f 161/2/5 149/2/5 157/2/5 
f 161/1/5 157/1/5 160/1/5 
f 162/2/5 149/2/5 161/2/5 
f 163/2/5 149/2/5 162/2/5 
f 5/2/5 108/2/5 2/2/5 
f 5/2/5 144/2/5 128/2/5 
f 5/2/5 128/2/5 108/2/5 
f 5/2/5 162/2/5 161/2/5 
f 5/2/5 161/2/5 160/2/5 
f 5/2/5 158/2/5 152/2/5 
f 5/2/5 159/2/5 158/2/5 
f 5/2/5 160/2/5 159/2/5 
f 5/2/5 152/2/5 144/2/5 
f 164/1/5 163/1/5 162/1/5 
f 164/2/5 162/2/5 5/2/5 
f 165/2/5 149/2/5 163/2/5 
f 165/1/5 163/1/5 164/1/5 
f 12/2/5 10/2/5 149/2/5 
f 12/2/5 149/2/5 165/2/5 
f 7/1/5 165/1/5 164/1/5 
f 7/1/5 164/1/5 5/1/5 
f 7/1/5 12/1/5 165/1/5 
f 14/1/5 12/1/5 7/1/5 
f 1/1/6 11/1/6 4/1/6 
f 4/1/6 11/1/6 13/1/6 
f 4/2/6 13/2/6 166/2/6 
f 166/2/6 13/2/6 167/2/6 
f 4/2/6 166/2/6 168/2/6 
f 168/2/6 166/2/6 169/2/6 
f 166/1/6 167/1/6 170/1/6 
f 169/2/6 166/2/6 170/2/6 
f 167/2/6 13/2/6 171/2/6 
f 170/1/6 167/1/6 171/1/6 
f 168/3/6 169/3/6 172/3/6 
f 4/2/6 168/2/6 172/2/6 
f 169/2/6 170/2/6 173/2/6 
f 172/3/6 169/3/6 173/3/6 
f 170/2/6 171/2/6 173/2/6 
f 172/2/6 173/2/6 174/2/6 
f 173/2/6 171/2/6 174/2/6 
f 174/2/6 171/2/6 175/2/6 
f 172/2/6 174/2/6 176/2/6 
f 174/4/6 175/4/6 176/4/6 
f 175/2/6 171/2/6 177/2/6 
f 176/4/6 175/4/6 177/4/6 
f 171/2/6 13/2/6 178/2/6 
f 177/2/6 171/2/6 178/2/6 
f 178/2/6 13/2/6 179/2/6 
f 176/2/6 177/2/6 180/2/6 
f 177/2/6 178/2/6 180/2/6 
f 178/3/6 179/3/6 180/3/6 
f 179/2/6 13/2/6 181/2/6 
f 180/3/6 179/3/6 181/3/6 
f 176/2/6 180/2/6 182/2/6 
f 172/2/6 176/2/6 182/2/6 
f 180/2/6 181/2/6 182/2/6 
f 182/2/6 181/2/6 183/2/6 
f 172/2/6 182/2/6 184/2/6 
f 182/1/6 183/1/6 184/1/6 
f 183/2/6 181/2/6 185/2/6 
f 184/1/6 183/1/6 185/1/6 
f 172/2/6 184/2/6 186/2/6 
f 184/2/6 185/2/6 186/2/6 
f 186/2/6 185/2/6 187/2/6 
f 172/2/6 186/2/6 188/2/6 
f 186/1/6 187/1/6 188/1/6 
f 187/2/6 185/2/6 189/2/6 
f 188/1/6 187/1/6 189/1/6 
f 189/2/6 185/2/6 190/2/6 
f 181/2/6 13/2/6 191/2/6 
f 190/2/6 185/2/6 191/2/6 
f 185/2/6 181/2/6 191/2/6 
f 191/2/6 13/2/6 192/2/6 
f 189/3/6 190/3/6 193/3/6 
f 188/2/6 189/2/6 193/2/6 
f 190/2/6 191/2/6 194/2/6 
f 193/3/6 190/3/6 194/3/6 
f 191/4/6 192/4/6 195/4/6 
f 194/2/6 191/2/6 195/2/6 
f 192/2/6 13/2/6 196/2/6 
f 195/4/6 192/4/6 196/4/6 
f 4/2/6 172/2/6 197/2/6 
f 194/2/6 195/2/6 197/2/6 
f 195/2/6 196/2/6 197/2/6 
f 188/2/6 193/2/6 197/2/6 
f 172/2/6 188/2/6 197/2/6 
f 193/2/6 194/2/6 197/2/6 
f 197/2/6 196/2/6 198/2/6 
f 4/2/6 197/2/6 199/2/6 
f 197/1/6 198/1/6 199/1/6 
f 198/2/6 196/2/6 200/2/6 
f 199/1/6 198/1/6 200/1/6 
f 199/2/6 200/2/6 201/2/6 
f 200/2/6 196/2/6 201/2/6 
f 201/2/6 196/2/6 202/2/6 
f 202/2/6 196/2/6 203/2/6 
f 203/2/6 196/2/6 204/2/6 
f 199/2/6 201/2/6 205/2/6 
f 201/1/6 202/1/6 205/1/6 
f 202/2/6 203/2/6 206/2/6 
f 205/1/6 202/1/6 206/1/6 
f 203/3/6 204/3/6 207/3/6 
f 206/2/6 203/2/6 207/2/6 
f 204/2/6 196/2/6 208/2/6 
f 207/3/6 204/3/6 208/3/6 
f 206/2/6 207/2/6 209/2/6 
f 205/2/6 206/2/6 209/2/6 
f 207/2/6 208/2/6 209/2/6 
f 199/2/6 205/2/6 209/2/6 
f 209/2/6 208/2/6 210/2/6 
f 210/2/6 208/2/6 211/2/6 
f 211/2/6 208/2/6 212/2/6 
f 208/2/6 196/2/6 213/2/6 
f 212/2/6 208/2/6 213/2/6 
f 213/2/6 196/2/6 214/2/6 
f 214/2/6 196/2/6 215/2/6 
f 215/2/6 196/2/6 216/2/6 
f 196/2/6 13/2/6 217/2/6 
f 216/2/6 196/2/6 217/2/6 
f 217/2/6 13/2/6 218/2/6 
f 209/5/6 210/5/6 219/5/6 
f 219/5/6 210/5/6 220/5/6 
f 211/5/6 212/5/6 221/5/6 
f 212/6/6 213/6/6 221/6/6 
f 213/5/6 214/5/6 222/5/6 
f 221/6/6 213/6/6 222/6/6 
f 214/6/6 215/6/6 223/6/6 
f 222/5/6 214/5/6 223/5/6 
f 215/5/6 216/5/6 224/5/6 
f 223/6/6 215/6/6 224/6/6 
f 224/5/6 216/5/6 225/5/6 
f 216/6/6 217/6/6 226/6/6 
f 225/5/6 216/5/6 226/5/6 
f 217/5/6 218/5/6 227/5/6 
f 226/6/6 217/6/6 227/6/6 
f 219/6/6 220/6/6 228/6/6 
f 209/5/6 219/5/6 228/5/6 
f 220/5/6 210/5/6 229/5/6 
f 228/6/6 220/6/6 229/6/6 
f 229/5/6 210/5/6 230/5/6 
f 230/5/6 210/5/6 231/5/6 
f 231/5/6 210/5/6 232/5/6 
f 232/5/6 210/5/6 233/5/6 
f 222/5/6 223/5/6 234/5/6 
f 221/5/6 222/5/6 234/5/6 
f 224/6/6 225/6/6 234/6/6 
f 223/5/6 224/5/6 234/5/6 
f 225/5/6 226/5/6 235/5/6 
f 234/6/6 225/6/6 235/6/6 
f 226/5/6 227/5/6 235/5/6 
f 235/5/6 227/5/6 236/5/6 
f 227/5/6 218/5/6 237/5/6 
f 236/5/6 227/5/6 237/5/6 
f 229/5/6 230/5/6 238/5/6 
f 228/5/6 229/5/6 238/5/6 
f 230/6/6 231/6/6 239/6/6 
f 238/5/6 230/5/6 239/5/6 
f 231/5/6 232/5/6 240/5/6 
f 239/6/6 231/6/6 240/6/6 
f 232/6/6 233/6/6 241/6/6 
f 240/5/6 232/5/6 241/5/6 
f 233/5/6 210/5/6 242/5/6 
f 241/6/6 233/6/6 242/6/6 
f 235/5/6 236/5/6 243/5/6 
f 211/5/6 221/5/6 243/5/6 
f 221/5/6 234/5/6 243/5/6 
f 234/5/6 235/5/6 243/5/6 
f 243/5/6 236/5/6 244/5/6 
f 236/6/6 237/6/6 245/6/6 
f 244/5/6 236/5/6 245/5/6 
f 237/5/6 218/5/6 246/5/6 
f 245/6/6 237/6/6 246/6/6 
f 209/5/6 228/5/6 247/5/6 
f 199/2/6 209/2/6 247/2/6 
f 228/5/6 238/5/6 247/5/6 
f 238/6/6 239/6/6 248/6/6 
f 247/5/6 238/5/6 248/5/6 
f 240/5/6 241/5/6 249/5/6 
f 248/6/6 239/6/6 249/6/6 
f 241/5/6 242/5/6 249/5/6 
f 239/5/6 240/5/6 249/5/6 
f 210/2/6 211/2/6 250/2/6 
f 249/5/6 242/5/6 250/5/6 
f 242/5/6 210/5/6 250/5/6 
f 211/5/6 243/5/6 251/5/6 
f 250/2/6 211/2/6 251/2/6 
f 243/6/6 244/6/6 252/6/6 
f 251/5/6 243/5/6 252/5/6 
f 245/5/6 246/5/6 253/5/6 
f 252/6/6 244/6/6 253/6/6 
f 244/5/6 245/5/6 253/5/6 
f 246/5/6 218/5/6 254/5/6 
f 253/5/6 246/5/6 254/5/6 
f 218/2/6 13/2/6 254/2/6 
f 247/2/6 248/2/6 255/2/6 
f 4/2/6 199/2/6 255/2/6 
f 253/2/6 254/2/6 255/2/6 
f 249/2/6 250/2/6 255/2/6 
f 250/2/6 251/2/6 255/2/6 
f 248/2/6 249/2/6 255/2/6 
f 199/2/6 247/2/6 255/2/6 
f 251/2/6 252/2/6 255/2/6 
f 252/2/6 253/2/6 255/2/6 
f 255/2/6 254/2/6 256/2/6 
f 4/2/6 255/2/6 257/2/6 
f 255/3/6 256/3/6 257/3/6 
f 256/2/6 254/2/6 258/2/6 
f 257/3/6 256/3/6 258/3/6 
f 257/2/6 258/2/6 259/2/6 
f 258/2/6 254/2/6 259/2/6 
f 259/2/6 254/2/6 260/2/6 
f 257/2/6 259/2/6 261/2/6 
f 259/3/6 260/3/6 261/3/6 
f 260/2/6 254/2/6 262/2/6 
f 261/3/6 260/3/6 262/3/6 
f 257/2/6 261/2/6 263/2/6 
f 261/2/6 262/2/6 263/2/6 
f 263/2/6 262/2/6 264/2/6 
f 257/2/6 263/2/6 265/2/6 
f 263/4/6 264/4/6 265/4/6 
f 264/2/6 262/2/6 266/2/6 
f 265/4/6 264/4/6 266/4/6 
f 265/2/6 266/2/6 267/2/6 
f 266/2/6 262/2/6 267/2/6 
f 267/2/6 262/2/6 268/2/6 
f 257/2/6 265/2/6 269/2/6 
f 265/2/6 267/2/6 269/2/6 
f 269/2/6 267/2/6 270/2/6 
f 267/4/6 268/4/6 271/4/6 
f 270/2/6 267/2/6 271/2/6 
f 268/2/6 262/2/6 272/2/6 
f 271/4/6 268/4/6 272/4/6 
f 269/1/6 270/1/6 273/1/6 
f 257/2/6 269/2/6 273/2/6 
f 270/2/6 271/2/6 274/2/6 
f 273/1/6 270/1/6 274/1/6 
f 271/2/6 272/2/6 274/2/6 
f 257/2/6 273/2/6 275/2/6 
f 273/2/6 274/2/6 275/2/6 
f 275/2/6 274/2/6 276/2/6 
f 257/2/6 275/2/6 277/2/6 
f 275/3/6 276/3/6 277/3/6 
f 276/2/6 274/2/6 278/2/6 
f 277/3/6 276/3/6 278/3/6 
f 278/2/6 274/2/6 279/2/6 
f 279/2/6 274/2/6 280/2/6 
f 277/2/6 278/2/6 281/2/6 
f 278/2/6 279/2/6 281/2/6 
f 279/4/6 280/4/6 281/4/6 
f 280/2/6 274/2/6 282/2/6 
f 281/4/6 280/4/6 282/4/6 
f 274/2/6 272/2/6 283/2/6 
f 282/2/6 274/2/6 283/2/6 
f 281/2/6 282/2/6 283/2/6 
f 272/2/6 262/2/6 283/2/6 
f 283/2/6 262/2/6 284/2/6 
f 281/2/6 283/2/6 285/2/6 
f 283/1/6 284/1/6 285/1/6 
f 284/2/6 262/2/6 286/2/6 
f 285/1/6 284/1/6 286/1/6 
f 281/2/6 285/2/6 287/2/6 
f 285/2/6 286/2/6 287/2/6 
f 287/2/6 286/2/6 288/2/6 
f 281/2/6 287/2/6 289/2/6 
f 287/3/6 288/3/6 289/3/6 
f 288/2/6 286/2/6 290/2/6 
f 289/3/6 288/3/6 290/3/6 
f 277/2/6 281/2/6 291/2/6 
f 281/2/6 289/2/6 291/2/6 
f 289/2/6 290/2/6 291/2/6 
f 291/2/6 290/2/6 292/2/6 
f 277/2/6 291/2/6 293/2/6 
f 291/1/6 292/1/6 293/1/6 
f 292/2/6 290/2/6 294/2/6 
f 293/1/6 292/1/6 294/1/6 
f 262/2/6 254/2/6 295/2/6 
f 294/2/6 290/2/6 295/2/6 
f 293/2/6 294/2/6 295/2/6 
f 290/2/6 286/2/6 295/2/6 
f 286/2/6 262/2/6 295/2/6 
f 254/2/6 13/2/6 296/2/6 
f 295/2/6 254/2/6 296/2/6 
f 293/2/6 295/2/6 297/2/6 
f 295/3/6 296/3/6 297/3/6 
f 296/2/6 13/2/6 298/2/6 
f 297/3/6 296/3/6 298/3/6 
f 293/2/6 297/2/6 299/2/6 
f 297/2/6 298/2/6 299/2/6 
f 299/2/6 298/2/6 300/2/6 
f 293/2/6 299/2/6 301/2/6 
f 299/1/6 300/1/6 301/1/6 
f 300/2/6 298/2/6 302/2/6 
f 301/1/6 300/1/6 302/1/6 
f 302/2/6 298/2/6 303/2/6 
f 303/2/6 298/2/6 304/2/6 
f 304/2/6 298/2/6 305/2/6 
f 305/2/6 298/2/6 306/2/6 
f 301/2/6 302/2/6 307/2/6 
f 302/2/6 303/2/6 307/2/6 
f 303/3/6 304/3/6 307/3/6 
f 304/2/6 305/2/6 308/2/6 
f 307/3/6 304/3/6 308/3/6 
f 305/1/6 306/1/6 309/1/6 
f 308/2/6 305/2/6 309/2/6 
f 306/2/6 298/2/6 310/2/6 
f 309/1/6 306/1/6 310/1/6 
f 310/2/6 298/2/6 311/2/6 
f 311/2/6 298/2/6 312/2/6 
f 4/2/6 257/2/6 6/2/6 
f 277/2/6 293/2/6 6/2/6 
f 257/2/6 277/2/6 6/2/6 
f 310/2/6 311/2/6 6/2/6 
f 309/2/6 310/2/6 6/2/6 
f 301/2/6 307/2/6 6/2/6 
f 307/2/6 308/2/6 6/2/6 
f 308/2/6 309/2/6 6/2/6 
f 293/2/6 301/2/6 6/2/6 
f 311/1/6 312/1/6 313/1/6 
f 6/2/6 311/2/6 313/2/6 
f 312/2/6 298/2/6 314/2/6 
f 313/1/6 312/1/6 314/1/6 
f 298/2/6 13/2/6 15/2/6 
f 314/2/6 298/2/6 15/2/6 
f 313/1/6 314/1/6 8/1/6 
f 6/1/6 313/1/6 8/1/6 
f 314/1/6 15/1/6 8/1/6 
f 8/1/6 15/1/6 16/1/6 
# 0 polygons - 624 triangles

