# 3ds Max Wavefront OBJ Exporter v0.97b - (c)2007 guruware
# File Created: 13.11.2019 16:44:45

mtllib Mur_Angle_IntérieurBlanc_ExtérieurOrange.mtl

#
# object Mur_Angle_IntérieurBlanc_ExtérieurOrange
#

v  -0.6000 0.0750 0.0250
v  -0.6000 0.0000 0.0250
v  -0.6000 0.0000 0.0500
v  -0.6000 0.1250 0.0250
v  -0.6000 0.0750 -0.0000
v  -0.6000 0.1250 -0.0000
v  -0.6000 1.9000 0.0250
v  -0.6000 1.9000 -0.0000
v  -0.6000 1.9500 0.0250
v  -0.6000 1.9500 -0.0000
v  -0.6000 1.9750 0.1750
v  -0.6000 0.0000 0.1500
v  -0.6000 0.0000 0.1750
v  -0.6000 1.9750 0.1500
v  -0.6000 1.9750 0.0500
v  -0.6000 1.9750 0.0250
v  -0.6000 2.0000 0.1750
v  -0.6000 2.0000 0.0250
v  -0.1750 1.9750 0.6000
v  -0.1750 0.0000 0.1750
v  -0.1750 0.0000 0.6000
v  -0.1750 1.9750 0.1750
v  -0.1750 2.0000 0.6000
v  -0.1750 2.0000 0.1750
v  -0.0250 0.0000 0.6000
v  -0.0250 0.0000 0.0250
v  -0.0250 0.0750 0.6000
v  -0.0250 0.0750 0.0250
v  -0.0250 1.9500 0.6000
v  -0.0250 1.9500 0.0250
v  -0.0250 1.9750 0.6000
v  -0.0250 1.9750 0.0250
v  -0.0250 2.0000 0.6000
v  -0.0250 2.0000 0.0250
v  0.0000 0.0750 0.6000
v  0.0000 0.0750 -0.0000
v  0.0000 0.1250 0.6000
v  0.0000 0.1250 -0.0000
v  0.0000 1.9000 0.6000
v  0.0000 1.9000 -0.0000
v  0.0000 1.9500 0.6000
v  0.0000 1.9500 -0.0000
v  -0.1500 0.0000 0.6000
v  -0.1500 1.9750 0.6000
v  -0.0500 0.0000 0.6000
v  -0.0500 1.9750 0.6000
v  -0.0250 0.1250 0.6000
v  -0.0250 1.9000 0.6000
v  -0.1500 0.0000 0.5750
v  -0.0500 0.0000 0.5750
v  -0.1750 0.0000 0.1500
v  -0.1750 0.0000 0.0500
# 52 vertices

vn -1.0000 0.0000 -0.0000
vn 1.0000 0.0000 -0.0000
vn 0.0000 0.0000 1.0000
vn 0.0000 0.0000 -1.0000
vn 0.0000 -1.0000 -0.0000
vn 0.0000 1.0000 -0.0000
# 6 vertex normals

vt 0.9629 0.5000 0.0000
vt 0.1738 0.5000 0.0000
vt 0.2090 0.5000 0.0000
vt 0.9941 0.5000 0.0000
# 4 texture coords

o Mur_Angle_IntérieurBlanc_ExtérieurOrange
g Mur_Angle_IntérieurBlanc_ExtérieurOrange
usemtl Mur_Angle_IntérieurBlanc_ExtérieurOrange_palette
s 1
f 1/1/1 2/1/1 3/1/1 
f 4/1/1 1/1/1 3/1/1 
f 4/2/1 5/2/1 1/2/1 
f 6/2/1 5/2/1 4/2/1 
f 7/1/1 4/1/1 3/1/1 
f 7/3/1 6/3/1 4/3/1 
f 8/3/1 6/3/1 7/3/1 
f 9/1/1 7/1/1 3/1/1 
f 9/2/1 8/2/1 7/2/1 
f 10/2/1 8/2/1 9/2/1 
f 11/1/1 12/1/1 13/1/1 
f 14/4/1 3/4/1 12/4/1 
f 14/1/1 12/1/1 11/1/1 
f 15/1/1 9/1/1 3/1/1 
f 15/4/1 3/4/1 14/4/1 
f 16/1/1 9/1/1 15/1/1 
f 17/4/1 14/4/1 11/4/1 
f 17/4/1 15/4/1 14/4/1 
f 17/4/1 16/4/1 15/4/1 
f 18/4/1 16/4/1 17/4/1 
f 19/1/1 20/1/1 21/1/1 
f 22/1/1 20/1/1 19/1/1 
f 23/4/1 22/4/1 19/4/1 
f 24/4/1 22/4/1 23/4/1 
f 25/1/2 26/1/2 27/1/2 
f 27/1/2 26/1/2 28/1/2 
f 29/1/2 30/1/2 31/1/2 
f 31/1/2 30/1/2 32/1/2 
f 31/4/2 32/4/2 33/4/2 
f 33/4/2 32/4/2 34/4/2 
f 35/2/2 36/2/2 37/2/2 
f 37/2/2 36/2/2 38/2/2 
f 37/3/2 38/3/2 39/3/2 
f 39/3/2 38/3/2 40/3/2 
f 39/2/2 40/2/2 41/2/2 
f 41/2/2 40/2/2 42/2/2 
f 43/1/3 19/1/3 21/1/3 
f 44/4/3 23/4/3 19/4/3 
f 44/1/3 19/1/3 43/1/3 
f 45/4/3 44/4/3 43/4/3 
f 46/4/3 23/4/3 44/4/3 
f 46/4/3 44/4/3 45/4/3 
f 25/1/3 46/1/3 45/1/3 
f 27/1/3 46/1/3 25/1/3 
f 47/1/3 46/1/3 27/1/3 
f 48/1/3 46/1/3 47/1/3 
f 29/1/3 46/1/3 48/1/3 
f 31/4/3 23/4/3 46/4/3 
f 31/1/3 46/1/3 29/1/3 
f 33/4/3 23/4/3 31/4/3 
f 35/2/3 47/2/3 27/2/3 
f 37/3/3 48/3/3 47/3/3 
f 37/2/3 47/2/3 35/2/3 
f 39/2/3 29/2/3 48/2/3 
f 39/3/3 48/3/3 37/3/3 
f 41/2/3 29/2/3 39/2/3 
f 20/1/3 11/1/3 13/1/3 
f 22/4/3 17/4/3 11/4/3 
f 22/1/3 11/1/3 20/1/3 
f 24/4/3 17/4/3 22/4/3 
f 2/1/4 1/1/4 26/1/4 
f 26/1/4 1/1/4 28/1/4 
f 9/1/4 16/1/4 30/1/4 
f 16/4/4 18/4/4 32/4/4 
f 30/1/4 16/1/4 32/1/4 
f 32/4/4 18/4/4 34/4/4 
f 5/2/4 6/2/4 36/2/4 
f 6/3/4 8/3/4 38/3/4 
f 36/2/4 6/2/4 38/2/4 
f 8/2/4 10/2/4 40/2/4 
f 38/3/4 8/3/4 40/3/4 
f 40/2/4 10/2/4 42/2/4 
f 49/1/5 43/1/5 21/1/5 
f 49/4/5 45/4/5 43/4/5 
f 50/1/5 25/1/5 45/1/5 
f 50/4/5 45/4/5 49/4/5 
f 20/1/5 49/1/5 21/1/5 
f 20/1/5 50/1/5 49/1/5 
f 12/1/5 20/1/5 13/1/5 
f 51/1/5 50/1/5 20/1/5 
f 51/1/5 20/1/5 12/1/5 
f 3/4/5 51/4/5 12/4/5 
f 52/1/5 50/1/5 51/1/5 
f 52/4/5 51/4/5 3/4/5 
f 2/1/5 52/1/5 3/1/5 
f 26/1/5 25/1/5 50/1/5 
f 26/1/5 52/1/5 2/1/5 
f 26/1/5 50/1/5 52/1/5 
f 28/2/5 35/2/5 27/2/5 
f 5/2/5 28/2/5 1/2/5 
f 36/2/5 35/2/5 28/2/5 
f 36/2/5 28/2/5 5/2/5 
f 29/2/6 41/2/6 30/2/6 
f 9/2/6 30/2/6 10/2/6 
f 30/2/6 41/2/6 42/2/6 
f 10/2/6 30/2/6 42/2/6 
f 23/4/6 33/4/6 24/4/6 
f 17/4/6 24/4/6 18/4/6 
f 24/4/6 33/4/6 34/4/6 
f 18/4/6 24/4/6 34/4/6 
# 0 polygons - 100 triangles

