# 3ds Max Wavefront OBJ Exporter v0.97b - (c)2007 guruware
# File Created: 28.11.2019 12:21:01

mtllib lampe_murale.mtl

#
# object lampe_murale
#

v  -0.1750 -0.1250 0.0375
v  -0.1750 -0.1500 0.0125
v  -0.1750 -0.1500 0.0375
v  -0.1750 -0.1250 0.0125
v  -0.1750 -0.1000 0.0625
v  -0.1750 -0.1250 0.0625
v  -0.1750 -0.1000 0.0375
v  -0.1750 -0.1000 0.0125
v  -0.1750 -0.0750 0.0875
v  -0.1750 -0.1000 0.0875
v  -0.1750 -0.0750 0.0625
v  -0.1750 -0.0750 0.0375
v  -0.0750 0.0000 -0.0625
v  -0.0750 -0.0500 -0.0875
v  -0.0750 -0.0500 -0.0625
v  -0.0750 0.0000 -0.0875
v  -0.0250 -0.0750 0.0375
v  -0.0250 -0.1000 0.0125
v  -0.0250 -0.1000 0.0375
v  -0.0250 -0.0750 0.0125
v  -0.0250 -0.1000 -0.0125
v  -0.0250 -0.0750 -0.0125
v  -0.0250 -0.0500 0.0375
v  -0.0250 -0.0500 0.0125
v  -0.0250 -0.0500 -0.0125
v  -0.0250 -0.0750 -0.0375
v  -0.0250 -0.0500 -0.0375
v  -0.0250 -0.0250 0.0125
v  -0.0250 -0.0500 -0.0625
v  -0.0250 -0.0250 -0.0125
v  -0.0250 -0.0250 -0.0375
v  -0.0250 -0.0250 -0.0625
v  -0.0250 0.0000 -0.0125
v  -0.0250 0.0000 -0.0375
v  -0.0250 0.0000 -0.0625
v  0.0250 -0.1000 0.0375
v  0.0250 -0.1000 0.0125
v  0.0250 -0.0750 0.0375
v  0.0250 -0.1000 -0.0125
v  0.0250 -0.0750 0.0125
v  0.0250 -0.0750 -0.0125
v  0.0250 -0.0500 0.0375
v  0.0250 -0.0500 0.0125
v  0.0250 -0.0750 -0.0375
v  0.0250 -0.0500 -0.0125
v  0.0250 -0.0500 -0.0375
v  0.0250 -0.0250 0.0125
v  0.0250 -0.0250 -0.0125
v  0.0250 -0.0500 -0.0625
v  0.0250 -0.0250 -0.0375
v  0.0250 -0.0250 -0.0625
v  0.0250 0.0000 -0.0125
v  0.0250 0.0000 -0.0375
v  0.0250 0.0000 -0.0625
v  0.0750 -0.0500 -0.0625
v  0.0750 -0.0500 -0.0875
v  0.0750 0.0000 -0.0625
v  0.0750 0.0000 -0.0875
v  0.1750 -0.1500 0.0375
v  0.1750 -0.1500 0.0125
v  0.1750 -0.1250 0.0375
v  0.1750 -0.1250 0.0125
v  0.1750 -0.1250 0.0625
v  0.1750 -0.1000 0.0625
v  0.1750 -0.1000 0.0375
v  0.1750 -0.1000 0.0125
v  0.1750 -0.1000 0.0875
v  0.1750 -0.0750 0.0875
v  0.1750 -0.0750 0.0375
v  -0.1500 -0.1000 0.0875
v  -0.1500 -0.0750 0.0875
v  -0.1500 -0.1250 0.0625
v  -0.1500 -0.1000 0.0625
v  0.1500 -0.1250 0.0625
v  0.1500 -0.1000 0.0625
v  -0.1500 -0.1250 0.0375
v  0.0000 -0.0750 0.0375
v  0.0000 -0.0500 0.0375
v  0.0250 -0.1500 0.0375
v  0.0250 -0.1250 0.0375
v  0.0750 -0.1500 0.0375
v  0.0750 -0.1250 0.0375
v  0.1250 -0.1500 0.0375
v  0.1250 -0.1250 0.0375
v  0.1500 -0.1500 0.0375
v  0.1500 -0.1250 0.0375
v  0.0000 -0.0500 0.0125
v  0.0000 -0.0250 0.0125
v  0.0000 -0.0250 -0.0125
v  -0.0500 -0.0250 -0.0625
v  -0.0500 0.0000 -0.0625
v  0.0500 -0.0250 -0.0625
v  0.0500 0.0000 -0.0625
v  -0.1500 -0.1000 0.0375
v  -0.1250 -0.1000 0.0375
v  -0.1250 -0.0750 0.0375
v  -0.1000 -0.1000 0.0375
v  -0.1000 -0.0750 0.0375
v  -0.0500 -0.1000 0.0375
v  0.0500 -0.1000 0.0375
v  0.0500 -0.0750 0.0375
v  0.0750 -0.1000 0.0375
v  0.1000 -0.1000 0.0375
v  0.1000 -0.0750 0.0375
v  0.1250 -0.1000 0.0375
v  0.1500 -0.1000 0.0375
v  0.1500 -0.0750 0.0375
v  -0.1500 -0.1250 0.0125
v  -0.1500 -0.1000 0.0125
v  -0.0500 -0.1250 0.0125
v  -0.0500 -0.1000 0.0125
v  -0.0250 -0.1250 0.0125
v  0.0250 -0.1500 0.0125
v  0.0250 -0.1250 0.0125
v  0.0750 -0.1500 0.0125
v  0.0750 -0.1250 0.0125
v  0.0750 -0.1000 0.0125
v  0.1000 -0.1250 0.0125
v  0.1000 -0.1000 0.0125
v  0.1250 -0.1500 0.0125
v  0.1250 -0.1250 0.0125
v  0.1250 -0.1000 0.0125
v  0.1500 -0.1500 0.0125
v  0.1500 -0.1250 0.0125
v  0.1500 -0.1000 0.0125
v  0.0000 -0.0750 -0.0125
v  0.0000 -0.0750 -0.0375
v  0.0000 -0.0500 -0.0375
v  -0.0500 -0.0250 -0.0875
v  -0.0500 0.0000 -0.0875
v  0.0000 -0.0250 -0.0875
v  0.0000 0.0000 -0.0875
v  0.0250 -0.0500 -0.0875
v  0.0250 -0.0250 -0.0875
v  0.0500 -0.0250 -0.0875
v  0.0500 0.0000 -0.0875
v  0.0000 -0.0500 -0.0625
v  -0.1500 -0.0750 0.0625
v  -0.1250 -0.0750 0.0625
v  -0.1000 -0.0750 0.0625
v  0.0250 -0.0750 0.0625
v  0.0500 -0.0750 0.0625
v  0.1000 -0.0750 0.0625
v  0.1500 -0.0750 0.0625
v  0.0000 0.0000 -0.0375
v  0.0000 0.0000 -0.0625
# 146 vertices

vn -1.0000 0.0000 -0.0000
vn 1.0000 0.0000 -0.0000
vn 0.0000 0.0000 1.0000
vn 0.0000 0.0000 -1.0000
vn 0.0000 -1.0000 -0.0000
vn 0.0000 1.0000 -0.0000
# 6 vertex normals

vt 0.3809 0.5000 0.0000
vt 0.3691 0.5000 0.0000
vt 0.3770 0.5000 0.0000
vt 0.9590 0.5000 0.0000
# 4 texture coords

o lampe_murale
g lampe_murale
usemtl lampe_murale_lampe_murale_palette
s 1
f 1/1/1 2/1/1 3/1/1 
f 4/1/1 2/1/1 1/1/1 
f 5/1/1 1/1/1 6/1/1 
f 7/2/1 4/2/1 1/2/1 
f 7/1/1 1/1/1 5/1/1 
f 8/2/1 4/2/1 7/2/1 
f 9/3/1 5/3/1 10/3/1 
f 11/2/1 7/2/1 5/2/1 
f 11/3/1 5/3/1 9/3/1 
f 12/2/1 7/2/1 11/2/1 
f 13/1/1 14/1/1 15/1/1 
f 16/1/1 14/1/1 13/1/1 
f 17/2/1 18/2/1 19/2/1 
f 20/3/1 21/3/1 18/3/1 
f 20/2/1 18/2/1 17/2/1 
f 22/3/1 21/3/1 20/3/1 
f 23/1/1 20/1/1 17/1/1 
f 24/2/1 22/2/1 20/2/1 
f 24/1/1 20/1/1 23/1/1 
f 25/1/1 26/1/1 22/1/1 
f 25/2/1 22/2/1 24/2/1 
f 27/1/1 26/1/1 25/1/1 
f 28/3/1 29/3/1 27/3/1 
f 28/3/1 27/3/1 25/3/1 
f 28/3/1 25/3/1 24/3/1 
f 30/3/1 29/3/1 28/3/1 
f 31/3/1 29/3/1 30/3/1 
f 32/3/1 29/3/1 31/3/1 
f 33/2/1 31/2/1 30/2/1 
f 34/1/1 32/1/1 31/1/1 
f 34/2/1 31/2/1 33/2/1 
f 35/1/1 32/1/1 34/1/1 
f 36/3/2 37/3/2 38/3/2 
f 37/3/2 39/3/2 38/3/2 
f 38/3/2 39/3/2 40/3/2 
f 40/3/2 39/3/2 41/3/2 
f 38/3/2 40/3/2 42/3/2 
f 40/2/2 41/2/2 43/2/2 
f 42/3/2 40/3/2 43/3/2 
f 41/3/2 44/3/2 45/3/2 
f 43/2/2 41/2/2 45/2/2 
f 45/3/2 44/3/2 46/3/2 
f 43/1/2 45/1/2 47/1/2 
f 45/2/2 46/2/2 48/2/2 
f 47/1/2 45/1/2 48/1/2 
f 46/1/2 49/1/2 50/1/2 
f 48/2/2 46/2/2 50/2/2 
f 50/1/2 49/1/2 51/1/2 
f 48/2/2 50/2/2 52/2/2 
f 50/3/2 51/3/2 53/3/2 
f 52/2/2 50/2/2 53/2/2 
f 53/3/2 51/3/2 54/3/2 
f 55/3/2 56/3/2 57/3/2 
f 57/3/2 56/3/2 58/3/2 
f 59/1/2 60/1/2 61/1/2 
f 61/1/2 60/1/2 62/1/2 
f 63/1/2 61/1/2 64/1/2 
f 61/2/2 62/2/2 65/2/2 
f 64/1/2 61/1/2 65/1/2 
f 65/2/2 62/2/2 66/2/2 
f 67/1/2 64/1/2 68/1/2 
f 64/1/2 65/1/2 68/1/2 
f 68/1/2 65/1/2 69/1/2 
f 70/3/3 9/3/3 10/3/3 
f 71/3/3 9/3/3 70/3/3 
f 67/1/3 71/1/3 70/1/3 
f 68/1/3 71/1/3 67/1/3 
f 72/1/3 5/1/3 6/1/3 
f 73/1/3 5/1/3 72/1/3 
f 74/4/3 73/4/3 72/4/3 
f 75/4/3 73/4/3 74/4/3 
f 63/1/3 75/1/3 74/1/3 
f 64/1/3 75/1/3 63/1/3 
f 76/1/3 1/1/3 3/1/3 
f 77/1/3 23/1/3 17/1/3 
f 78/1/3 23/1/3 77/1/3 
f 79/1/3 76/1/3 3/1/3 
f 80/1/3 76/1/3 79/1/3 
f 38/3/3 78/3/3 77/3/3 
f 42/3/3 78/3/3 38/3/3 
f 81/3/3 80/3/3 79/3/3 
f 82/3/3 80/3/3 81/3/3 
f 83/2/3 82/2/3 81/2/3 
f 84/2/3 82/2/3 83/2/3 
f 85/3/3 84/3/3 83/3/3 
f 86/3/3 84/3/3 85/3/3 
f 59/1/3 86/1/3 85/1/3 
f 61/1/3 86/1/3 59/1/3 
f 87/3/3 28/3/3 24/3/3 
f 88/3/3 28/3/3 87/3/3 
f 43/1/3 88/1/3 87/1/3 
f 47/1/3 88/1/3 43/1/3 
f 89/2/3 33/2/3 30/2/3 
f 48/2/3 33/2/3 89/2/3 
f 52/2/3 33/2/3 48/2/3 
f 90/1/3 13/1/3 15/1/3 
f 91/1/3 13/1/3 90/1/3 
f 29/1/3 90/1/3 15/1/3 
f 32/3/3 91/3/3 90/3/3 
f 32/1/3 90/1/3 29/1/3 
f 35/3/3 91/3/3 32/3/3 
f 92/3/3 51/3/3 49/3/3 
f 92/1/3 54/1/3 51/1/3 
f 93/1/3 54/1/3 92/1/3 
f 55/3/3 92/3/3 49/3/3 
f 55/3/3 93/3/3 92/3/3 
f 57/3/3 93/3/3 55/3/3 
f 7/2/4 12/2/4 94/2/4 
f 94/2/4 12/2/4 95/2/4 
f 95/2/4 12/2/4 96/2/4 
f 95/3/4 96/3/4 97/3/4 
f 97/3/4 96/3/4 98/3/4 
f 97/1/4 98/1/4 99/1/4 
f 99/1/4 98/1/4 19/1/4 
f 19/1/4 98/1/4 17/1/4 
f 36/3/4 38/3/4 100/3/4 
f 100/3/4 38/3/4 101/3/4 
f 100/2/4 101/2/4 102/2/4 
f 102/2/4 101/2/4 103/2/4 
f 103/2/4 101/2/4 104/2/4 
f 103/3/4 104/3/4 105/3/4 
f 105/3/4 104/3/4 106/3/4 
f 106/3/4 104/3/4 107/3/4 
f 106/1/4 107/1/4 65/1/4 
f 65/1/4 107/1/4 69/1/4 
f 2/1/4 4/1/4 108/1/4 
f 4/2/4 8/2/4 108/2/4 
f 108/2/4 8/2/4 109/2/4 
f 2/1/4 108/1/4 110/1/4 
f 108/3/4 109/3/4 110/3/4 
f 110/3/4 109/3/4 111/3/4 
f 2/1/4 110/1/4 112/1/4 
f 110/2/4 111/2/4 112/2/4 
f 112/2/4 111/2/4 18/2/4 
f 2/1/4 112/1/4 113/1/4 
f 112/1/4 18/1/4 113/1/4 
f 113/1/4 18/1/4 114/1/4 
f 114/1/4 18/1/4 37/1/4 
f 113/3/4 114/3/4 115/3/4 
f 114/1/4 37/1/4 116/1/4 
f 115/3/4 114/3/4 116/3/4 
f 116/1/4 37/1/4 117/1/4 
f 115/2/4 116/2/4 118/2/4 
f 116/3/4 117/3/4 118/3/4 
f 118/3/4 117/3/4 119/3/4 
f 115/2/4 118/2/4 120/2/4 
f 118/1/4 119/1/4 121/1/4 
f 120/2/4 118/2/4 121/2/4 
f 121/1/4 119/1/4 122/1/4 
f 120/3/4 121/3/4 123/3/4 
f 121/3/4 122/3/4 123/3/4 
f 123/3/4 122/3/4 124/3/4 
f 124/3/4 122/3/4 125/3/4 
f 123/1/4 124/1/4 60/1/4 
f 124/2/4 125/2/4 62/2/4 
f 60/1/4 124/1/4 62/1/4 
f 62/2/4 125/2/4 66/2/4 
f 21/3/4 22/3/4 126/3/4 
f 21/3/4 126/3/4 39/3/4 
f 39/3/4 126/3/4 41/3/4 
f 26/1/4 27/1/4 127/1/4 
f 127/1/4 27/1/4 128/1/4 
f 127/3/4 128/3/4 44/3/4 
f 44/3/4 128/3/4 46/3/4 
f 14/1/4 16/1/4 129/1/4 
f 129/1/4 16/1/4 130/1/4 
f 14/1/4 129/1/4 131/1/4 
f 129/3/4 130/3/4 131/3/4 
f 131/3/4 130/3/4 132/3/4 
f 14/1/4 131/1/4 133/1/4 
f 131/1/4 132/1/4 133/1/4 
f 133/1/4 132/1/4 134/1/4 
f 133/3/4 134/3/4 135/3/4 
f 134/1/4 132/1/4 135/1/4 
f 135/1/4 132/1/4 136/1/4 
f 133/3/4 135/3/4 56/3/4 
f 135/3/4 136/3/4 56/3/4 
f 56/3/4 136/3/4 58/3/4 
f 2/1/5 79/1/5 3/1/5 
f 113/3/5 81/3/5 79/3/5 
f 113/1/5 79/1/5 2/1/5 
f 115/2/5 83/2/5 81/2/5 
f 115/3/5 81/3/5 113/3/5 
f 120/3/5 85/3/5 83/3/5 
f 120/2/5 83/2/5 115/2/5 
f 123/1/5 59/1/5 85/1/5 
f 123/3/5 85/3/5 120/3/5 
f 60/1/5 59/1/5 123/1/5 
f 1/1/5 72/1/5 6/1/5 
f 76/4/5 74/4/5 72/4/5 
f 76/1/5 72/1/5 1/1/5 
f 80/4/5 74/4/5 76/4/5 
f 82/4/5 74/4/5 80/4/5 
f 84/4/5 74/4/5 82/4/5 
f 86/1/5 63/1/5 74/1/5 
f 86/4/5 74/4/5 84/4/5 
f 61/1/5 63/1/5 86/1/5 
f 5/3/5 70/3/5 10/3/5 
f 73/1/5 67/1/5 70/1/5 
f 73/3/5 70/3/5 5/3/5 
f 75/1/5 67/1/5 73/1/5 
f 64/1/5 67/1/5 75/1/5 
f 21/3/5 37/3/5 18/3/5 
f 39/3/5 37/3/5 21/3/5 
f 26/1/5 126/1/5 22/1/5 
f 127/3/5 41/3/5 126/3/5 
f 127/1/5 126/1/5 26/1/5 
f 44/3/5 41/3/5 127/3/5 
f 29/3/5 128/3/5 27/3/5 
f 137/1/5 46/1/5 128/1/5 
f 137/3/5 128/3/5 29/3/5 
f 49/1/5 46/1/5 137/1/5 
f 14/1/5 29/1/5 15/1/5 
f 14/1/5 137/1/5 29/1/5 
f 14/1/5 49/1/5 137/1/5 
f 133/3/5 55/3/5 49/3/5 
f 133/1/5 49/1/5 14/1/5 
f 56/3/5 55/3/5 133/3/5 
f 7/2/6 94/2/6 8/2/6 
f 94/3/6 95/3/6 109/3/6 
f 8/2/6 94/2/6 109/2/6 
f 95/3/6 97/3/6 109/3/6 
f 97/3/6 99/3/6 109/3/6 
f 99/2/6 19/2/6 111/2/6 
f 109/3/6 99/3/6 111/3/6 
f 111/2/6 19/2/6 18/2/6 
f 36/1/6 100/1/6 37/1/6 
f 100/1/6 102/1/6 37/1/6 
f 102/3/6 103/3/6 117/3/6 
f 37/1/6 102/1/6 117/1/6 
f 103/1/6 105/1/6 119/1/6 
f 117/3/6 103/3/6 119/3/6 
f 105/3/6 106/3/6 122/3/6 
f 119/1/6 105/1/6 122/1/6 
f 106/2/6 65/2/6 125/2/6 
f 122/3/6 106/3/6 125/3/6 
f 125/2/6 65/2/6 66/2/6 
f 9/3/6 71/3/6 11/3/6 
f 71/1/6 68/1/6 138/1/6 
f 11/3/6 71/3/6 138/3/6 
f 138/1/6 68/1/6 139/1/6 
f 139/1/6 68/1/6 140/1/6 
f 140/1/6 68/1/6 141/1/6 
f 141/1/6 68/1/6 142/1/6 
f 142/1/6 68/1/6 143/1/6 
f 143/1/6 68/1/6 144/1/6 
f 11/2/6 138/2/6 12/2/6 
f 138/2/6 139/2/6 12/2/6 
f 139/3/6 140/3/6 96/3/6 
f 12/2/6 139/2/6 96/2/6 
f 140/1/6 141/1/6 98/1/6 
f 96/3/6 140/3/6 98/3/6 
f 98/1/6 141/1/6 17/1/6 
f 17/1/6 141/1/6 77/1/6 
f 141/3/6 142/3/6 38/3/6 
f 77/1/6 141/1/6 38/1/6 
f 142/2/6 143/2/6 101/2/6 
f 38/3/6 142/3/6 101/3/6 
f 143/3/6 144/3/6 104/3/6 
f 101/2/6 143/2/6 104/2/6 
f 144/1/6 68/1/6 107/1/6 
f 104/3/6 144/3/6 107/3/6 
f 107/1/6 68/1/6 69/1/6 
f 23/1/6 78/1/6 24/1/6 
f 78/3/6 42/3/6 87/3/6 
f 24/1/6 78/1/6 87/1/6 
f 87/3/6 42/3/6 43/3/6 
f 28/3/6 88/3/6 30/3/6 
f 88/1/6 47/1/6 89/1/6 
f 30/3/6 88/3/6 89/3/6 
f 89/1/6 47/1/6 48/1/6 
f 33/2/6 52/2/6 34/2/6 
f 34/2/6 52/2/6 145/2/6 
f 145/2/6 52/2/6 53/2/6 
f 34/1/6 145/1/6 35/1/6 
f 145/3/6 53/3/6 146/3/6 
f 35/1/6 145/1/6 146/1/6 
f 146/3/6 53/3/6 54/3/6 
f 13/1/6 91/1/6 16/1/6 
f 91/3/6 35/3/6 130/3/6 
f 16/1/6 91/1/6 130/1/6 
f 35/3/6 146/3/6 130/3/6 
f 146/1/6 54/1/6 132/1/6 
f 130/3/6 146/3/6 132/3/6 
f 54/1/6 93/1/6 132/1/6 
f 93/3/6 57/3/6 136/3/6 
f 132/1/6 93/1/6 136/1/6 
f 136/3/6 57/3/6 58/3/6 
# 0 polygons - 288 triangles

