# 3ds Max Wavefront OBJ Exporter v0.97b - (c)2007 guruware
# File Created: 28.11.2019 12:26:51

mtllib Tableau_Bateau.mtl

#
# object Tableau_Bateau
#

v  -0.0500 -0.2875 0.4250
v  -0.0500 -0.3375 -0.4750
v  -0.0500 -0.3375 0.4750
v  -0.0500 -0.2875 -0.4250
v  -0.0500 0.2875 0.4250
v  -0.0500 0.2875 -0.4250
v  -0.0500 0.3375 0.4750
v  -0.0500 0.3375 -0.4750
v  -0.0250 -0.1875 0.4250
v  -0.0250 -0.2875 -0.4250
v  -0.0250 -0.2875 0.4250
v  -0.0250 -0.1875 0.1750
v  -0.0250 -0.1875 -0.2000
v  -0.0250 -0.1875 -0.4250
v  -0.0250 -0.1625 0.2000
v  -0.0250 -0.1625 0.1750
v  -0.0250 -0.1625 -0.2000
v  -0.0250 -0.1625 -0.2250
v  -0.0250 -0.1375 0.2250
v  -0.0250 -0.1375 0.2000
v  -0.0250 -0.1375 -0.2250
v  -0.0250 -0.1375 -0.2500
v  -0.0250 -0.1125 0.2500
v  -0.0250 -0.1125 0.2250
v  -0.0250 -0.1125 -0.2500
v  -0.0250 -0.1125 -0.2750
v  -0.0250 -0.0875 0.2750
v  -0.0250 -0.0875 0.2500
v  -0.0250 -0.0875 -0.2750
v  -0.0250 -0.0875 -0.3000
v  -0.0250 -0.0625 0.2750
v  -0.0250 -0.0625 0.1000
v  -0.0250 -0.0625 0.0500
v  -0.0250 -0.0625 -0.0000
v  -0.0250 -0.0625 -0.0250
v  -0.0250 -0.0625 -0.0750
v  -0.0250 -0.0625 -0.1250
v  -0.0250 -0.0625 -0.3000
v  -0.0250 -0.0375 0.1500
v  -0.0250 -0.0375 0.1000
v  -0.0250 -0.0375 -0.1250
v  -0.0250 -0.0375 -0.1750
v  -0.0250 -0.0125 0.2000
v  -0.0250 -0.0125 0.1500
v  -0.0250 -0.0125 0.0500
v  -0.0250 -0.0125 0.0250
v  -0.0250 -0.0125 -0.0500
v  -0.0250 -0.0125 -0.0750
v  -0.0250 -0.0125 -0.1750
v  -0.0250 -0.0125 -0.2250
v  -0.0250 0.0125 0.2000
v  -0.0250 0.0125 0.1750
v  -0.0250 0.0125 -0.2000
v  -0.0250 0.0125 -0.2250
v  -0.0250 0.0375 0.1750
v  -0.0250 0.0375 0.1500
v  -0.0250 0.0375 -0.1750
v  -0.0250 0.0375 -0.2000
v  -0.0250 0.0625 0.1500
v  -0.0250 0.0625 0.1250
v  -0.0250 0.0625 -0.1500
v  -0.0250 0.0625 -0.1750
v  -0.0250 0.0875 0.1250
v  -0.0250 0.0875 0.1000
v  -0.0250 0.0875 -0.1250
v  -0.0250 0.0875 -0.1500
v  -0.0250 0.0875 -0.2250
v  -0.0250 0.0875 -0.2750
v  -0.0250 0.1125 0.3000
v  -0.0250 0.1125 0.2500
v  -0.0250 0.1125 0.1000
v  -0.0250 0.1125 0.0750
v  -0.0250 0.1125 -0.1000
v  -0.0250 0.1125 -0.1250
v  -0.0250 0.1125 -0.1750
v  -0.0250 0.1125 -0.2250
v  -0.0250 0.1125 -0.2750
v  -0.0250 0.1125 -0.3250
v  -0.0250 0.1375 0.3750
v  -0.0250 0.1375 0.3000
v  -0.0250 0.1375 0.2500
v  -0.0250 0.1375 0.2000
v  -0.0250 0.1375 0.0750
v  -0.0250 0.1375 0.0500
v  -0.0250 0.1375 -0.0750
v  -0.0250 0.1375 -0.1000
v  -0.0250 0.1375 -0.1250
v  -0.0250 0.1375 -0.1750
v  -0.0250 0.1375 -0.3250
v  -0.0250 0.1375 -0.3500
v  -0.0250 0.1625 0.2000
v  -0.0250 0.1625 0.1750
v  -0.0250 0.1625 0.0500
v  -0.0250 0.1625 0.0250
v  -0.0250 0.1625 -0.0000
v  -0.0250 0.1625 -0.0250
v  -0.0250 0.1625 -0.0500
v  -0.0250 0.1625 -0.0750
v  -0.0250 0.1625 -0.1250
v  -0.0250 0.1625 -0.1500
v  -0.0250 0.1625 -0.3250
v  -0.0250 0.1625 -0.3500
v  -0.0250 0.1875 0.3750
v  -0.0250 0.1875 0.3500
v  -0.0250 0.1875 0.2000
v  -0.0250 0.1875 0.1750
v  -0.0250 0.1875 0.0250
v  -0.0250 0.1875 -0.0000
v  -0.0250 0.1875 -0.0250
v  -0.0250 0.1875 -0.0500
v  -0.0250 0.1875 -0.1500
v  -0.0250 0.1875 -0.1750
v  -0.0250 0.1875 -0.3000
v  -0.0250 0.1875 -0.3250
v  -0.0250 0.2125 0.3500
v  -0.0250 0.2125 0.3250
v  -0.0250 0.2125 0.2250
v  -0.0250 0.2125 0.2000
v  -0.0250 0.2125 -0.0000
v  -0.0250 0.2125 -0.0250
v  -0.0250 0.2125 -0.1750
v  -0.0250 0.2125 -0.2250
v  -0.0250 0.2125 -0.2750
v  -0.0250 0.2125 -0.3000
v  -0.0250 0.2375 0.3250
v  -0.0250 0.2375 0.2250
v  -0.0250 0.2375 -0.2250
v  -0.0250 0.2375 -0.2750
v  -0.0250 0.2875 0.4250
v  -0.0250 0.2875 -0.4250
v  0.0000 -0.3375 0.4750
v  0.0000 -0.3375 -0.4750
v  0.0000 -0.3125 0.4500
v  0.0000 -0.3125 -0.4500
v  0.0000 -0.2875 0.4250
v  0.0000 -0.2875 -0.4250
v  0.0000 -0.1875 0.4250
v  0.0000 -0.1875 0.1750
v  0.0000 -0.1875 -0.2000
v  0.0000 -0.1875 -0.4250
v  0.0000 -0.1625 0.2000
v  0.0000 -0.1625 0.1750
v  0.0000 -0.1625 -0.2000
v  0.0000 -0.1625 -0.2250
v  0.0000 -0.1375 0.2250
v  0.0000 -0.1375 0.2000
v  0.0000 -0.1375 -0.2250
v  0.0000 -0.1375 -0.2500
v  0.0000 -0.1125 0.2500
v  0.0000 -0.1125 0.2250
v  0.0000 -0.1125 -0.2500
v  0.0000 -0.1125 -0.2750
v  0.0000 -0.0875 0.2750
v  0.0000 -0.0875 0.2500
v  0.0000 -0.0875 -0.2750
v  0.0000 -0.0875 -0.3000
v  0.0000 -0.0625 0.2750
v  0.0000 -0.0625 0.1000
v  0.0000 -0.0625 0.0500
v  0.0000 -0.0625 -0.0000
v  0.0000 -0.0625 -0.0250
v  0.0000 -0.0625 -0.0750
v  0.0000 -0.0625 -0.1250
v  0.0000 -0.0625 -0.3000
v  0.0000 -0.0375 0.1500
v  0.0000 -0.0375 0.1000
v  0.0000 -0.0375 -0.1250
v  0.0000 -0.0375 -0.1750
v  0.0000 -0.0125 0.2000
v  0.0000 -0.0125 0.1500
v  0.0000 -0.0125 0.0500
v  0.0000 -0.0125 0.0250
v  0.0000 -0.0125 -0.0500
v  0.0000 -0.0125 -0.0750
v  0.0000 -0.0125 -0.1750
v  0.0000 -0.0125 -0.2250
v  0.0000 0.0125 0.2000
v  0.0000 0.0125 0.1750
v  0.0000 0.0125 -0.2000
v  0.0000 0.0125 -0.2250
v  0.0000 0.0375 0.1750
v  0.0000 0.0375 0.1500
v  0.0000 0.0375 -0.1750
v  0.0000 0.0375 -0.2000
v  0.0000 0.0625 0.1500
v  0.0000 0.0625 0.1250
v  0.0000 0.0625 -0.1500
v  0.0000 0.0625 -0.1750
v  0.0000 0.0875 0.1250
v  0.0000 0.0875 0.1000
v  0.0000 0.0875 -0.1250
v  0.0000 0.0875 -0.1500
v  0.0000 0.0875 -0.2250
v  0.0000 0.0875 -0.2750
v  0.0000 0.1125 0.3000
v  0.0000 0.1125 0.2500
v  0.0000 0.1125 0.1000
v  0.0000 0.1125 0.0750
v  0.0000 0.1125 -0.1000
v  0.0000 0.1125 -0.1250
v  0.0000 0.1125 -0.1750
v  0.0000 0.1125 -0.2250
v  0.0000 0.1125 -0.2750
v  0.0000 0.1125 -0.3250
v  0.0000 0.1375 0.3750
v  0.0000 0.1375 0.3000
v  0.0000 0.1375 0.2500
v  0.0000 0.1375 0.2000
v  0.0000 0.1375 0.0750
v  0.0000 0.1375 0.0500
v  0.0000 0.1375 -0.0750
v  0.0000 0.1375 -0.1000
v  0.0000 0.1375 -0.1250
v  0.0000 0.1375 -0.1750
v  0.0000 0.1375 -0.3250
v  0.0000 0.1375 -0.3500
v  0.0000 0.1625 0.2000
v  0.0000 0.1625 0.1750
v  0.0000 0.1625 0.0500
v  0.0000 0.1625 0.0250
v  0.0000 0.1625 -0.0000
v  0.0000 0.1625 -0.0250
v  0.0000 0.1625 -0.0500
v  0.0000 0.1625 -0.0750
v  0.0000 0.1625 -0.1250
v  0.0000 0.1625 -0.1500
v  0.0000 0.1625 -0.3250
v  0.0000 0.1625 -0.3500
v  0.0000 0.1875 0.3750
v  0.0000 0.1875 0.3500
v  0.0000 0.1875 0.2000
v  0.0000 0.1875 0.1750
v  0.0000 0.1875 0.0250
v  0.0000 0.1875 -0.0000
v  0.0000 0.1875 -0.0250
v  0.0000 0.1875 -0.0500
v  0.0000 0.1875 -0.1500
v  0.0000 0.1875 -0.1750
v  0.0000 0.1875 -0.3000
v  0.0000 0.1875 -0.3250
v  0.0000 0.2125 0.3500
v  0.0000 0.2125 0.3250
v  0.0000 0.2125 0.2250
v  0.0000 0.2125 0.2000
v  0.0000 0.2125 -0.0000
v  0.0000 0.2125 -0.0250
v  0.0000 0.2125 -0.1750
v  0.0000 0.2125 -0.2250
v  0.0000 0.2125 -0.2750
v  0.0000 0.2125 -0.3000
v  0.0000 0.2375 0.3250
v  0.0000 0.2375 0.2250
v  0.0000 0.2375 -0.2250
v  0.0000 0.2375 -0.2750
v  0.0000 0.2875 0.4250
v  0.0000 0.2875 -0.4250
v  0.0000 0.3125 0.4500
v  0.0000 0.3125 -0.4500
v  0.0000 0.3375 0.4750
v  0.0000 0.3375 -0.4750
# 260 vertices

vn -1.0000 0.0000 -0.0000
vn 1.0000 0.0000 -0.0000
vn 0.0000 0.0000 1.0000
vn 0.0000 0.0000 -1.0000
vn 0.0000 -1.0000 -0.0000
vn 0.0000 1.0000 -0.0000
# 6 vertex normals

vt 0.2598 0.5000 0.0000
vt 0.7480 0.5000 0.0000
vt 0.6777 0.5000 0.0000
vt 0.2441 0.5000 0.0000
vt 0.2715 0.5000 0.0000
vt 0.9590 0.5000 0.0000
vt 0.9121 0.5000 0.0000
vt 0.2637 0.5000 0.0000
# 8 texture coords

o Tableau_Bateau
g Tableau_Bateau
usemtl Tableau_Bateau_Tableau_Bateau_palette
s 1
f 1/1/1 2/1/1 3/1/1 
f 4/1/1 2/1/1 1/1/1 
f 5/1/1 1/1/1 3/1/1 
f 6/1/1 2/1/1 4/1/1 
f 7/1/1 5/1/1 3/1/1 
f 7/1/1 6/1/1 5/1/1 
f 8/1/1 2/1/1 6/1/1 
f 8/1/1 6/1/1 7/1/1 
f 9/2/1 10/2/1 11/2/1 
f 12/2/1 10/2/1 9/2/1 
f 13/2/1 10/2/1 12/2/1 
f 14/2/1 10/2/1 13/2/1 
f 15/3/1 12/3/1 9/3/1 
f 16/4/1 13/4/1 12/4/1 
f 16/3/1 12/3/1 15/3/1 
f 17/3/1 14/3/1 13/3/1 
f 17/4/1 13/4/1 16/4/1 
f 18/3/1 14/3/1 17/3/1 
f 19/3/1 15/3/1 9/3/1 
f 20/4/1 16/4/1 15/4/1 
f 20/3/1 15/3/1 19/3/1 
f 20/4/1 17/4/1 16/4/1 
f 20/4/1 18/4/1 17/4/1 
f 21/3/1 14/3/1 18/3/1 
f 21/4/1 18/4/1 20/4/1 
f 22/3/1 14/3/1 21/3/1 
f 23/3/1 19/3/1 9/3/1 
f 24/4/1 20/4/1 19/4/1 
f 24/3/1 19/3/1 23/3/1 
f 24/4/1 21/4/1 20/4/1 
f 24/4/1 22/4/1 21/4/1 
f 25/3/1 14/3/1 22/3/1 
f 25/4/1 22/4/1 24/4/1 
f 26/3/1 14/3/1 25/3/1 
f 27/3/1 23/3/1 9/3/1 
f 28/4/1 24/4/1 23/4/1 
f 28/3/1 23/3/1 27/3/1 
f 28/4/1 25/4/1 24/4/1 
f 28/4/1 26/4/1 25/4/1 
f 29/3/1 14/3/1 26/3/1 
f 29/4/1 26/4/1 28/4/1 
f 30/3/1 14/3/1 29/3/1 
f 31/5/1 28/5/1 27/5/1 
f 31/3/1 27/3/1 9/3/1 
f 31/5/1 30/5/1 29/5/1 
f 31/5/1 29/5/1 28/5/1 
f 32/5/1 30/5/1 31/5/1 
f 33/5/1 30/5/1 32/5/1 
f 34/5/1 30/5/1 33/5/1 
f 35/5/1 30/5/1 34/5/1 
f 36/5/1 30/5/1 35/5/1 
f 37/5/1 30/5/1 36/5/1 
f 38/3/1 14/3/1 30/3/1 
f 38/5/1 30/5/1 37/5/1 
f 39/3/1 32/3/1 31/3/1 
f 40/6/1 33/6/1 32/6/1 
f 40/3/1 32/3/1 39/3/1 
f 41/6/1 37/6/1 36/6/1 
f 41/3/1 38/3/1 37/3/1 
f 42/3/1 38/3/1 41/3/1 
f 43/3/1 39/3/1 31/3/1 
f 44/6/1 40/6/1 39/6/1 
f 44/3/1 39/3/1 43/3/1 
f 45/6/1 33/6/1 40/6/1 
f 45/6/1 40/6/1 44/6/1 
f 45/3/1 34/3/1 33/3/1 
f 46/3/1 34/3/1 45/3/1 
f 47/3/1 36/3/1 35/3/1 
f 48/6/1 42/6/1 41/6/1 
f 48/3/1 36/3/1 47/3/1 
f 48/6/1 41/6/1 36/6/1 
f 49/3/1 38/3/1 42/3/1 
f 49/6/1 42/6/1 48/6/1 
f 50/3/1 38/3/1 49/3/1 
f 51/6/1 44/6/1 43/6/1 
f 51/3/1 43/3/1 31/3/1 
f 51/6/1 46/6/1 45/6/1 
f 51/6/1 45/6/1 44/6/1 
f 52/6/1 46/6/1 51/6/1 
f 53/6/1 48/6/1 47/6/1 
f 53/6/1 50/6/1 49/6/1 
f 53/6/1 49/6/1 48/6/1 
f 54/3/1 38/3/1 50/3/1 
f 54/6/1 50/6/1 53/6/1 
f 55/6/1 46/6/1 52/6/1 
f 55/3/1 52/3/1 51/3/1 
f 56/6/1 46/6/1 55/6/1 
f 57/6/1 53/6/1 47/6/1 
f 58/3/1 54/3/1 53/3/1 
f 58/6/1 53/6/1 57/6/1 
f 59/6/1 46/6/1 56/6/1 
f 59/3/1 56/3/1 55/3/1 
f 60/6/1 46/6/1 59/6/1 
f 61/6/1 57/6/1 47/6/1 
f 62/3/1 58/3/1 57/3/1 
f 62/6/1 57/6/1 61/6/1 
f 63/6/1 46/6/1 60/6/1 
f 63/3/1 60/3/1 59/3/1 
f 64/6/1 46/6/1 63/6/1 
f 65/6/1 61/6/1 47/6/1 
f 66/3/1 62/3/1 61/3/1 
f 66/6/1 61/6/1 65/6/1 
f 67/3/1 54/3/1 58/3/1 
f 67/3/1 62/3/1 66/3/1 
f 67/3/1 38/3/1 54/3/1 
f 67/3/1 58/3/1 62/3/1 
f 68/3/1 38/3/1 67/3/1 
f 69/3/1 31/3/1 9/3/1 
f 69/3/1 64/3/1 63/3/1 
f 69/3/1 63/3/1 59/3/1 
f 69/3/1 51/3/1 31/3/1 
f 69/3/1 55/3/1 51/3/1 
f 69/3/1 59/3/1 55/3/1 
f 70/3/1 64/3/1 69/3/1 
f 71/6/1 46/6/1 64/6/1 
f 71/3/1 64/3/1 70/3/1 
f 72/6/1 46/6/1 71/6/1 
f 73/6/1 65/6/1 47/6/1 
f 74/3/1 66/3/1 65/3/1 
f 74/6/1 65/6/1 73/6/1 
f 74/3/1 67/3/1 66/3/1 
f 75/3/1 67/3/1 74/3/1 
f 76/7/1 68/7/1 67/7/1 
f 76/3/1 67/3/1 75/3/1 
f 77/3/1 38/3/1 68/3/1 
f 77/7/1 68/7/1 76/7/1 
f 78/3/1 14/3/1 38/3/1 
f 78/3/1 38/3/1 77/3/1 
f 79/3/1 69/3/1 9/3/1 
f 80/7/1 70/7/1 69/7/1 
f 80/3/1 69/3/1 79/3/1 
f 81/3/1 72/3/1 71/3/1 
f 81/7/1 70/7/1 80/7/1 
f 81/3/1 71/3/1 70/3/1 
f 82/3/1 72/3/1 81/3/1 
f 83/6/1 46/6/1 72/6/1 
f 83/3/1 72/3/1 82/3/1 
f 84/6/1 46/6/1 83/6/1 
f 85/6/1 73/6/1 47/6/1 
f 86/3/1 75/3/1 74/3/1 
f 86/6/1 73/6/1 85/6/1 
f 86/3/1 74/3/1 73/3/1 
f 87/3/1 75/3/1 86/3/1 
f 88/7/1 76/7/1 75/7/1 
f 88/3/1 75/3/1 87/3/1 
f 88/7/1 77/7/1 76/7/1 
f 88/7/1 78/7/1 77/7/1 
f 89/3/1 14/3/1 78/3/1 
f 89/7/1 78/7/1 88/7/1 
f 90/3/1 14/3/1 89/3/1 
f 91/7/1 80/7/1 79/7/1 
f 91/7/1 82/7/1 81/7/1 
f 91/3/1 83/3/1 82/3/1 
f 91/3/1 84/3/1 83/3/1 
f 91/7/1 81/7/1 80/7/1 
f 92/3/1 84/3/1 91/3/1 
f 93/6/1 46/6/1 84/6/1 
f 93/3/1 84/3/1 92/3/1 
f 94/3/1 34/3/1 46/3/1 
f 94/6/1 46/6/1 93/6/1 
f 95/5/1 35/5/1 34/5/1 
f 95/3/1 34/3/1 94/3/1 
f 96/3/1 47/3/1 35/3/1 
f 96/5/1 35/5/1 95/5/1 
f 97/6/1 85/6/1 47/6/1 
f 97/3/1 47/3/1 96/3/1 
f 98/3/1 87/3/1 86/3/1 
f 98/6/1 85/6/1 97/6/1 
f 98/3/1 86/3/1 85/3/1 
f 99/7/1 90/7/1 89/7/1 
f 99/3/1 87/3/1 98/3/1 
f 99/7/1 88/7/1 87/7/1 
f 99/7/1 89/7/1 88/7/1 
f 100/7/1 90/7/1 99/7/1 
f 101/7/1 90/7/1 100/7/1 
f 102/3/1 14/3/1 90/3/1 
f 102/7/1 90/7/1 101/7/1 
f 103/7/1 92/7/1 91/7/1 
f 103/7/1 91/7/1 79/7/1 
f 103/3/1 79/3/1 9/3/1 
f 104/7/1 92/7/1 103/7/1 
f 105/7/1 92/7/1 104/7/1 
f 106/3/1 94/3/1 93/3/1 
f 106/7/1 92/7/1 105/7/1 
f 106/3/1 93/3/1 92/3/1 
f 107/6/1 95/6/1 94/6/1 
f 107/3/1 94/3/1 106/3/1 
f 108/5/1 96/5/1 95/5/1 
f 108/6/1 95/6/1 107/6/1 
f 109/6/1 97/6/1 96/6/1 
f 109/5/1 96/5/1 108/5/1 
f 110/3/1 98/3/1 97/3/1 
f 110/6/1 97/6/1 109/6/1 
f 110/3/1 100/3/1 99/3/1 
f 110/3/1 99/3/1 98/3/1 
f 111/7/1 101/7/1 100/7/1 
f 111/3/1 100/3/1 110/3/1 
f 112/7/1 101/7/1 111/7/1 
f 113/7/1 101/7/1 112/7/1 
f 114/3/1 102/3/1 101/3/1 
f 114/7/1 101/7/1 113/7/1 
f 115/7/1 105/7/1 104/7/1 
f 115/3/1 104/3/1 103/3/1 
f 116/7/1 105/7/1 115/7/1 
f 117/7/1 105/7/1 116/7/1 
f 118/3/1 108/3/1 107/3/1 
f 118/7/1 105/7/1 117/7/1 
f 118/3/1 107/3/1 106/3/1 
f 118/3/1 106/3/1 105/3/1 
f 119/5/1 109/5/1 108/5/1 
f 119/3/1 108/3/1 118/3/1 
f 120/3/1 110/3/1 109/3/1 
f 120/5/1 109/5/1 119/5/1 
f 120/3/1 111/3/1 110/3/1 
f 120/3/1 112/3/1 111/3/1 
f 121/7/1 113/7/1 112/7/1 
f 121/3/1 112/3/1 120/3/1 
f 122/7/1 113/7/1 121/7/1 
f 123/7/1 113/7/1 122/7/1 
f 124/3/1 114/3/1 113/3/1 
f 124/7/1 113/7/1 123/7/1 
f 125/7/1 117/7/1 116/7/1 
f 125/3/1 116/3/1 115/3/1 
f 126/3/1 120/3/1 119/3/1 
f 126/7/1 117/7/1 125/7/1 
f 126/3/1 119/3/1 118/3/1 
f 126/3/1 122/3/1 121/3/1 
f 126/3/1 121/3/1 120/3/1 
f 126/3/1 118/3/1 117/3/1 
f 127/7/1 123/7/1 122/7/1 
f 127/3/1 122/3/1 126/3/1 
f 128/3/1 124/3/1 123/3/1 
f 128/7/1 123/7/1 127/7/1 
f 129/3/1 125/3/1 115/3/1 
f 129/3/1 127/3/1 126/3/1 
f 129/3/1 128/3/1 127/3/1 
f 129/3/1 103/3/1 9/3/1 
f 129/3/1 126/3/1 125/3/1 
f 129/3/1 115/3/1 103/3/1 
f 130/3/1 14/3/1 102/3/1 
f 130/3/1 128/3/1 129/3/1 
f 130/3/1 114/3/1 124/3/1 
f 130/3/1 102/3/1 114/3/1 
f 130/3/1 124/3/1 128/3/1 
f 131/1/2 132/1/2 133/1/2 
f 133/1/2 132/1/2 134/1/2 
f 133/8/2 134/8/2 135/8/2 
f 135/8/2 134/8/2 136/8/2 
f 133/8/2 135/8/2 137/8/2 
f 135/2/2 136/2/2 137/2/2 
f 137/2/2 136/2/2 138/2/2 
f 138/2/2 136/2/2 139/2/2 
f 136/8/2 134/8/2 140/8/2 
f 139/2/2 136/2/2 140/2/2 
f 137/3/2 138/3/2 141/3/2 
f 138/4/2 139/4/2 142/4/2 
f 141/3/2 138/3/2 142/3/2 
f 139/3/2 140/3/2 143/3/2 
f 142/4/2 139/4/2 143/4/2 
f 143/3/2 140/3/2 144/3/2 
f 137/3/2 141/3/2 145/3/2 
f 141/4/2 142/4/2 146/4/2 
f 145/3/2 141/3/2 146/3/2 
f 142/4/2 143/4/2 146/4/2 
f 143/4/2 144/4/2 146/4/2 
f 144/3/2 140/3/2 147/3/2 
f 146/4/2 144/4/2 147/4/2 
f 147/3/2 140/3/2 148/3/2 
f 137/3/2 145/3/2 149/3/2 
f 145/4/2 146/4/2 150/4/2 
f 149/3/2 145/3/2 150/3/2 
f 146/4/2 147/4/2 150/4/2 
f 147/4/2 148/4/2 150/4/2 
f 148/3/2 140/3/2 151/3/2 
f 150/4/2 148/4/2 151/4/2 
f 151/3/2 140/3/2 152/3/2 
f 137/3/2 149/3/2 153/3/2 
f 149/4/2 150/4/2 154/4/2 
f 153/3/2 149/3/2 154/3/2 
f 150/4/2 151/4/2 154/4/2 
f 151/4/2 152/4/2 154/4/2 
f 152/3/2 140/3/2 155/3/2 
f 154/4/2 152/4/2 155/4/2 
f 155/3/2 140/3/2 156/3/2 
f 153/5/2 154/5/2 157/5/2 
f 137/3/2 153/3/2 157/3/2 
f 155/5/2 156/5/2 157/5/2 
f 154/5/2 155/5/2 157/5/2 
f 157/5/2 156/5/2 158/5/2 
f 158/5/2 156/5/2 159/5/2 
f 159/5/2 156/5/2 160/5/2 
f 160/5/2 156/5/2 161/5/2 
f 161/5/2 156/5/2 162/5/2 
f 162/5/2 156/5/2 163/5/2 
f 156/3/2 140/3/2 164/3/2 
f 163/5/2 156/5/2 164/5/2 
f 157/3/2 158/3/2 165/3/2 
f 158/6/2 159/6/2 166/6/2 
f 165/3/2 158/3/2 166/3/2 
f 162/6/2 163/6/2 167/6/2 
f 163/3/2 164/3/2 167/3/2 
f 167/3/2 164/3/2 168/3/2 
f 157/3/2 165/3/2 169/3/2 
f 165/6/2 166/6/2 170/6/2 
f 169/3/2 165/3/2 170/3/2 
f 166/6/2 159/6/2 171/6/2 
f 170/6/2 166/6/2 171/6/2 
f 159/3/2 160/3/2 171/3/2 
f 171/3/2 160/3/2 172/3/2 
f 161/3/2 162/3/2 173/3/2 
f 167/6/2 168/6/2 174/6/2 
f 173/3/2 162/3/2 174/3/2 
f 162/6/2 167/6/2 174/6/2 
f 168/3/2 164/3/2 175/3/2 
f 174/6/2 168/6/2 175/6/2 
f 175/3/2 164/3/2 176/3/2 
f 169/6/2 170/6/2 177/6/2 
f 157/3/2 169/3/2 177/3/2 
f 171/6/2 172/6/2 177/6/2 
f 170/6/2 171/6/2 177/6/2 
f 177/6/2 172/6/2 178/6/2 
f 173/6/2 174/6/2 179/6/2 
f 175/6/2 176/6/2 179/6/2 
f 174/6/2 175/6/2 179/6/2 
f 176/3/2 164/3/2 180/3/2 
f 179/6/2 176/6/2 180/6/2 
f 178/6/2 172/6/2 181/6/2 
f 177/3/2 178/3/2 181/3/2 
f 181/6/2 172/6/2 182/6/2 
f 173/6/2 179/6/2 183/6/2 
f 179/3/2 180/3/2 184/3/2 
f 183/6/2 179/6/2 184/6/2 
f 182/6/2 172/6/2 185/6/2 
f 181/3/2 182/3/2 185/3/2 
f 185/6/2 172/6/2 186/6/2 
f 173/6/2 183/6/2 187/6/2 
f 183/3/2 184/3/2 188/3/2 
f 187/6/2 183/6/2 188/6/2 
f 186/6/2 172/6/2 189/6/2 
f 185/3/2 186/3/2 189/3/2 
f 189/6/2 172/6/2 190/6/2 
f 173/6/2 187/6/2 191/6/2 
f 187/3/2 188/3/2 192/3/2 
f 191/6/2 187/6/2 192/6/2 
f 184/3/2 180/3/2 193/3/2 
f 192/3/2 188/3/2 193/3/2 
f 180/3/2 164/3/2 193/3/2 
f 188/3/2 184/3/2 193/3/2 
f 193/3/2 164/3/2 194/3/2 
f 137/3/2 157/3/2 195/3/2 
f 189/3/2 190/3/2 195/3/2 
f 185/3/2 189/3/2 195/3/2 
f 157/3/2 177/3/2 195/3/2 
f 177/3/2 181/3/2 195/3/2 
f 181/3/2 185/3/2 195/3/2 
f 195/3/2 190/3/2 196/3/2 
f 190/6/2 172/6/2 197/6/2 
f 196/3/2 190/3/2 197/3/2 
f 197/6/2 172/6/2 198/6/2 
f 173/6/2 191/6/2 199/6/2 
f 191/3/2 192/3/2 200/3/2 
f 199/6/2 191/6/2 200/6/2 
f 192/3/2 193/3/2 200/3/2 
f 200/3/2 193/3/2 201/3/2 
f 193/7/2 194/7/2 202/7/2 
f 201/3/2 193/3/2 202/3/2 
f 194/3/2 164/3/2 203/3/2 
f 202/7/2 194/7/2 203/7/2 
f 164/3/2 140/3/2 204/3/2 
f 203/3/2 164/3/2 204/3/2 
f 137/3/2 195/3/2 205/3/2 
f 195/7/2 196/7/2 206/7/2 
f 205/3/2 195/3/2 206/3/2 
f 197/3/2 198/3/2 207/3/2 
f 206/7/2 196/7/2 207/7/2 
f 196/3/2 197/3/2 207/3/2 
f 207/3/2 198/3/2 208/3/2 
f 198/6/2 172/6/2 209/6/2 
f 208/3/2 198/3/2 209/3/2 
f 209/6/2 172/6/2 210/6/2 
f 173/6/2 199/6/2 211/6/2 
f 200/3/2 201/3/2 212/3/2 
f 211/6/2 199/6/2 212/6/2 
f 199/3/2 200/3/2 212/3/2 
f 212/3/2 201/3/2 213/3/2 
f 201/7/2 202/7/2 214/7/2 
f 213/3/2 201/3/2 214/3/2 
f 202/7/2 203/7/2 214/7/2 
f 203/7/2 204/7/2 214/7/2 
f 204/3/2 140/3/2 215/3/2 
f 214/7/2 204/7/2 215/7/2 
f 215/3/2 140/3/2 216/3/2 
f 205/7/2 206/7/2 217/7/2 
f 207/7/2 208/7/2 217/7/2 
f 208/3/2 209/3/2 217/3/2 
f 209/3/2 210/3/2 217/3/2 
f 206/7/2 207/7/2 217/7/2 
f 217/3/2 210/3/2 218/3/2 
f 210/6/2 172/6/2 219/6/2 
f 218/3/2 210/3/2 219/3/2 
f 172/3/2 160/3/2 220/3/2 
f 219/6/2 172/6/2 220/6/2 
f 160/5/2 161/5/2 221/5/2 
f 220/3/2 160/3/2 221/3/2 
f 161/3/2 173/3/2 222/3/2 
f 221/5/2 161/5/2 222/5/2 
f 173/6/2 211/6/2 223/6/2 
f 222/3/2 173/3/2 223/3/2 
f 212/3/2 213/3/2 224/3/2 
f 223/6/2 211/6/2 224/6/2 
f 211/3/2 212/3/2 224/3/2 
f 215/7/2 216/7/2 225/7/2 
f 224/3/2 213/3/2 225/3/2 
f 213/7/2 214/7/2 225/7/2 
f 214/7/2 215/7/2 225/7/2 
f 225/7/2 216/7/2 226/7/2 
f 226/7/2 216/7/2 227/7/2 
f 216/3/2 140/3/2 228/3/2 
f 227/7/2 216/7/2 228/7/2 
f 217/7/2 218/7/2 229/7/2 
f 205/7/2 217/7/2 229/7/2 
f 137/3/2 205/3/2 229/3/2 
f 229/7/2 218/7/2 230/7/2 
f 230/7/2 218/7/2 231/7/2 
f 219/3/2 220/3/2 232/3/2 
f 231/7/2 218/7/2 232/7/2 
f 218/3/2 219/3/2 232/3/2 
f 220/6/2 221/6/2 233/6/2 
f 232/3/2 220/3/2 233/3/2 
f 221/5/2 222/5/2 234/5/2 
f 233/6/2 221/6/2 234/6/2 
f 222/6/2 223/6/2 235/6/2 
f 234/5/2 222/5/2 235/5/2 
f 223/3/2 224/3/2 236/3/2 
f 235/6/2 223/6/2 236/6/2 
f 225/3/2 226/3/2 236/3/2 
f 224/3/2 225/3/2 236/3/2 
f 226/7/2 227/7/2 237/7/2 
f 236/3/2 226/3/2 237/3/2 
f 237/7/2 227/7/2 238/7/2 
f 238/7/2 227/7/2 239/7/2 
f 227/3/2 228/3/2 240/3/2 
f 239/7/2 227/7/2 240/7/2 
f 230/7/2 231/7/2 241/7/2 
f 229/3/2 230/3/2 241/3/2 
f 241/7/2 231/7/2 242/7/2 
f 242/7/2 231/7/2 243/7/2 
f 233/3/2 234/3/2 244/3/2 
f 243/7/2 231/7/2 244/7/2 
f 232/3/2 233/3/2 244/3/2 
f 231/3/2 232/3/2 244/3/2 
f 234/5/2 235/5/2 245/5/2 
f 244/3/2 234/3/2 245/3/2 
f 235/3/2 236/3/2 246/3/2 
f 245/5/2 235/5/2 246/5/2 
f 236/3/2 237/3/2 246/3/2 
f 237/3/2 238/3/2 246/3/2 
f 238/7/2 239/7/2 247/7/2 
f 246/3/2 238/3/2 247/3/2 
f 247/7/2 239/7/2 248/7/2 
f 248/7/2 239/7/2 249/7/2 
f 239/3/2 240/3/2 250/3/2 
f 249/7/2 239/7/2 250/7/2 
f 242/7/2 243/7/2 251/7/2 
f 241/3/2 242/3/2 251/3/2 
f 245/3/2 246/3/2 252/3/2 
f 251/7/2 243/7/2 252/7/2 
f 244/3/2 245/3/2 252/3/2 
f 247/3/2 248/3/2 252/3/2 
f 246/3/2 247/3/2 252/3/2 
f 243/3/2 244/3/2 252/3/2 
f 248/7/2 249/7/2 253/7/2 
f 252/3/2 248/3/2 253/3/2 
f 249/3/2 250/3/2 254/3/2 
f 253/7/2 249/7/2 254/7/2 
f 133/8/2 137/8/2 255/8/2 
f 241/3/2 251/3/2 255/3/2 
f 253/3/2 254/3/2 255/3/2 
f 137/3/2 229/3/2 255/3/2 
f 251/3/2 252/3/2 255/3/2 
f 252/3/2 253/3/2 255/3/2 
f 229/3/2 241/3/2 255/3/2 
f 228/3/2 140/3/2 256/3/2 
f 255/3/2 254/3/2 256/3/2 
f 254/3/2 250/3/2 256/3/2 
f 240/3/2 228/3/2 256/3/2 
f 250/3/2 240/3/2 256/3/2 
f 140/8/2 134/8/2 256/8/2 
f 131/1/2 133/1/2 257/1/2 
f 133/8/2 255/8/2 257/8/2 
f 255/8/2 256/8/2 257/8/2 
f 256/8/2 134/8/2 258/8/2 
f 257/8/2 256/8/2 258/8/2 
f 134/1/2 132/1/2 258/1/2 
f 131/1/2 257/1/2 259/1/2 
f 257/1/2 258/1/2 259/1/2 
f 258/1/2 132/1/2 260/1/2 
f 259/1/2 258/1/2 260/1/2 
f 131/1/3 7/1/3 3/1/3 
f 259/1/3 7/1/3 131/1/3 
f 10/1/3 6/1/3 4/1/3 
f 14/1/3 6/1/3 10/1/3 
f 130/1/3 6/1/3 14/1/3 
f 1/1/4 5/1/4 11/1/4 
f 11/1/4 5/1/4 9/1/4 
f 9/1/4 5/1/4 129/1/4 
f 2/1/4 8/1/4 132/1/4 
f 132/1/4 8/1/4 260/1/4 
f 2/1/5 131/1/5 3/1/5 
f 132/1/5 131/1/5 2/1/5 
f 6/1/5 129/1/5 5/1/5 
f 130/1/5 129/1/5 6/1/5 
f 1/1/6 11/1/6 4/1/6 
f 4/1/6 11/1/6 10/1/6 
f 7/1/6 259/1/6 8/1/6 
f 8/1/6 259/1/6 260/1/6 
# 0 polygons - 516 triangles

