# 3ds Max Wavefront OBJ Exporter v0.97b - (c)2007 guruware
# File Created: 05.11.2019 12:51:49

mtllib Herbe_2.mtl

#
# object Herbe_2
#

v  -0.1500 0.1000 -0.1000
v  -0.1500 0.0000 -0.2000
v  -0.1500 0.0000 -0.1000
v  -0.1500 0.1000 -0.2000
v  -0.1500 0.2000 0.1000
v  -0.1500 0.0000 -0.0000
v  -0.1500 0.0000 0.1000
v  -0.1500 0.2000 -0.0000
v  -0.0500 0.1000 -0.0000
v  -0.0500 0.0000 -0.1000
v  -0.0500 0.0000 -0.0000
v  -0.0500 0.1000 -0.1000
v  0.0500 0.1000 -0.1000
v  0.0500 0.0000 -0.2000
v  0.0500 0.0000 -0.1000
v  0.0500 0.1000 -0.2000
v  0.0500 0.2000 0.2000
v  0.0500 0.0000 0.1000
v  0.0500 0.0000 0.2000
v  0.0500 0.2000 0.1000
v  -0.0500 0.0000 0.1000
v  -0.0500 0.0000 -0.2000
v  -0.0500 0.1000 -0.2000
v  -0.0500 0.2000 0.1000
v  -0.0500 0.2000 -0.0000
v  0.0500 0.0000 -0.0000
v  0.0500 0.1000 -0.0000
v  0.1500 0.0000 -0.1000
v  0.1500 0.0000 -0.2000
v  0.1500 0.1000 -0.1000
v  0.1500 0.1000 -0.2000
v  0.1500 0.0000 0.2000
v  0.1500 0.0000 0.1000
v  0.1500 0.2000 0.2000
v  0.1500 0.2000 0.1000
# 35 vertices

vn -1.0000 0.0000 -0.0000
vn 1.0000 0.0000 -0.0000
vn 0.0000 0.0000 1.0000
vn 0.0000 0.0000 -1.0000
vn 0.0000 -1.0000 -0.0000
vn 0.0000 1.0000 -0.0000
# 6 vertex normals

vt 0.5918 0.5000 0.0000
# 1 texture coords

o Herbe_2
g Herbe_2
usemtl Herbe_2_palette
s 1
f 1/1/1 2/1/1 3/1/1 
f 4/1/1 2/1/1 1/1/1 
f 5/1/1 6/1/1 7/1/1 
f 8/1/1 6/1/1 5/1/1 
f 9/1/1 10/1/1 11/1/1 
f 12/1/1 10/1/1 9/1/1 
f 13/1/1 14/1/1 15/1/1 
f 16/1/1 14/1/1 13/1/1 
f 17/1/1 18/1/1 19/1/1 
f 20/1/1 18/1/1 17/1/1 
f 21/1/2 11/1/2 9/1/2 
f 10/1/2 22/1/2 12/1/2 
f 12/1/2 22/1/2 23/1/2 
f 21/1/2 9/1/2 24/1/2 
f 24/1/2 9/1/2 25/1/2 
f 26/1/2 15/1/2 27/1/2 
f 27/1/2 15/1/2 13/1/2 
f 28/1/2 29/1/2 30/1/2 
f 30/1/2 29/1/2 31/1/2 
f 32/1/2 33/1/2 34/1/2 
f 34/1/2 33/1/2 35/1/2 
f 32/1/3 17/1/3 19/1/3 
f 34/1/3 17/1/3 32/1/3 
f 21/1/3 5/1/3 7/1/3 
f 24/1/3 5/1/3 21/1/3 
f 26/1/3 9/1/3 11/1/3 
f 27/1/3 9/1/3 26/1/3 
f 10/1/3 1/1/3 3/1/3 
f 12/1/3 1/1/3 10/1/3 
f 28/1/3 13/1/3 15/1/3 
f 30/1/3 13/1/3 28/1/3 
f 18/1/4 20/1/4 33/1/4 
f 33/1/4 20/1/4 35/1/4 
f 6/1/4 8/1/4 11/1/4 
f 11/1/4 8/1/4 9/1/4 
f 9/1/4 8/1/4 25/1/4 
f 10/1/4 12/1/4 15/1/4 
f 15/1/4 12/1/4 13/1/4 
f 2/1/4 4/1/4 22/1/4 
f 22/1/4 4/1/4 23/1/4 
f 14/1/4 16/1/4 29/1/4 
f 29/1/4 16/1/4 31/1/4 
f 18/1/5 32/1/5 19/1/5 
f 33/1/5 32/1/5 18/1/5 
f 6/1/5 21/1/5 7/1/5 
f 11/1/5 21/1/5 6/1/5 
f 10/1/5 26/1/5 11/1/5 
f 15/1/5 26/1/5 10/1/5 
f 2/1/5 10/1/5 3/1/5 
f 22/1/5 10/1/5 2/1/5 
f 14/1/5 28/1/5 15/1/5 
f 29/1/5 28/1/5 14/1/5 
f 9/1/6 27/1/6 12/1/6 
f 12/1/6 27/1/6 13/1/6 
f 1/1/6 12/1/6 4/1/6 
f 4/1/6 12/1/6 23/1/6 
f 13/1/6 30/1/6 16/1/6 
f 16/1/6 30/1/6 31/1/6 
f 17/1/6 34/1/6 20/1/6 
f 20/1/6 34/1/6 35/1/6 
f 5/1/6 24/1/6 8/1/6 
f 8/1/6 24/1/6 25/1/6 
# 0 polygons - 62 triangles

