# 3ds Max Wavefront OBJ Exporter v0.97b - (c)2007 guruware
# File Created: 05.11.2019 12:41:25

mtllib Feu tricolore.mtl

#
# object Feu_tricolore
#

v  -0.4000 0.1000 0.2000
v  -0.4000 0.0000 -0.2000
v  -0.4000 0.0000 0.2000
v  -0.4000 0.1000 -0.2000
v  -0.3000 0.1000 0.3000
v  -0.3000 0.0000 0.2000
v  -0.3000 0.0000 0.3000
v  -0.3000 0.1000 0.2000
v  -0.3000 0.1000 -0.2000
v  -0.3000 0.0000 -0.3000
v  -0.3000 0.0000 -0.2000
v  -0.3000 0.1000 -0.3000
v  -0.3000 0.2000 0.2000
v  -0.3000 0.2000 -0.2000
v  -0.3000 1.0000 0.2000
v  -0.3000 1.0000 -0.2000
v  -0.3000 5.4000 -0.0000
v  -0.3000 3.8000 -0.4000
v  -0.3000 3.8000 -0.0000
v  -0.3000 5.4000 -0.4000
v  -0.2000 0.1000 0.4000
v  -0.2000 0.0000 0.3000
v  -0.2000 0.0000 0.4000
v  -0.2000 0.1000 0.3000
v  -0.2000 0.1000 -0.3000
v  -0.2000 0.0000 -0.4000
v  -0.2000 0.0000 -0.3000
v  -0.2000 0.1000 -0.4000
v  -0.2000 0.2000 0.3000
v  -0.2000 0.1000 0.2000
v  -0.2000 0.2000 0.2000
v  -0.2000 0.2000 -0.2000
v  -0.2000 0.1000 -0.2000
v  -0.2000 0.2000 -0.3000
v  -0.2000 1.0000 0.3000
v  -0.2000 1.0000 0.2000
v  -0.2000 1.0000 -0.2000
v  -0.2000 1.0000 -0.3000
v  -0.2000 3.8000 -0.0000
v  -0.2000 1.0000 -0.1000
v  -0.2000 1.0000 0.1000
v  -0.2000 3.8000 -0.1000
v  -0.2000 3.9000 0.1000
v  -0.2000 3.9000 -0.0000
v  -0.2000 5.3000 0.1000
v  -0.2000 5.3000 -0.0000
v  -0.1000 3.8000 -0.1000
v  -0.1000 1.0000 -0.2000
v  -0.1000 1.0000 -0.1000
v  -0.1000 3.8000 -0.2000
v  -0.1000 3.9000 0.1000
v  -0.1000 1.0000 0.1000
v  -0.1000 1.0000 0.2000
v  -0.1000 4.0000 0.2000
v  -0.1000 4.0000 0.1000
v  -0.1000 4.2000 -0.1000
v  -0.1000 4.1000 -0.2000
v  -0.1000 4.1000 -0.1000
v  -0.1000 4.2000 -0.2000
v  -0.1000 4.2000 -0.3000
v  -0.1000 4.0000 -0.4000
v  -0.1000 4.0000 -0.3000
v  -0.1000 4.2000 -0.4000
v  -0.1000 4.3000 -0.2000
v  -0.1000 4.3000 -0.3000
v  -0.1000 4.5000 -0.2000
v  -0.1000 4.4000 -0.3000
v  -0.1000 4.4000 -0.2000
v  -0.1000 4.5000 -0.3000
v  -0.1000 4.6000 -0.1000
v  -0.1000 4.5000 -0.1000
v  -0.1000 4.6000 -0.2000
v  -0.1000 4.7000 -0.3000
v  -0.1000 4.5000 -0.4000
v  -0.1000 4.7000 -0.4000
v  -0.1000 4.8000 -0.2000
v  -0.1000 4.7000 -0.2000
v  -0.1000 4.8000 -0.3000
v  -0.1000 5.0000 -0.2000
v  -0.1000 4.9000 -0.3000
v  -0.1000 4.9000 -0.2000
v  -0.1000 5.0000 -0.3000
v  -0.1000 5.2000 0.2000
v  -0.1000 5.2000 0.1000
v  -0.1000 5.2000 -0.3000
v  -0.1000 5.0000 -0.4000
v  -0.1000 5.2000 -0.4000
v  0.2000 4.0000 -0.3000
v  0.2000 3.9000 -0.4000
v  0.2000 3.9000 -0.3000
v  0.2000 4.2000 -0.1000
v  0.2000 4.1000 -0.2000
v  0.2000 4.1000 -0.1000
v  0.2000 4.2000 -0.2000
v  0.2000 4.2000 -0.3000
v  0.2000 4.5000 -0.2000
v  0.2000 4.5000 -0.3000
v  0.2000 4.6000 -0.1000
v  0.2000 4.5000 -0.1000
v  0.2000 4.6000 -0.2000
v  0.2000 4.7000 -0.3000
v  0.2000 5.0000 -0.2000
v  0.2000 4.7000 -0.2000
v  0.2000 5.0000 -0.3000
v  0.2000 5.2000 -0.3000
v  0.2000 5.3000 -0.3000
v  0.2000 5.3000 -0.4000
v  -0.2000 3.9000 -0.3000
v  -0.2000 3.9000 -0.4000
v  -0.2000 4.0000 -0.3000
v  -0.2000 4.1000 -0.1000
v  -0.2000 4.1000 -0.2000
v  -0.2000 4.2000 -0.1000
v  -0.2000 4.2000 -0.2000
v  -0.2000 4.2000 -0.3000
v  -0.2000 4.5000 -0.2000
v  -0.2000 4.5000 -0.3000
v  -0.2000 4.5000 -0.1000
v  -0.2000 4.6000 -0.1000
v  -0.2000 4.6000 -0.2000
v  -0.2000 4.7000 -0.3000
v  -0.2000 4.7000 -0.2000
v  -0.2000 5.0000 -0.2000
v  -0.2000 5.0000 -0.3000
v  -0.2000 5.2000 -0.3000
v  -0.2000 5.3000 -0.3000
v  -0.2000 5.3000 -0.4000
v  0.1000 1.0000 -0.1000
v  0.1000 1.0000 -0.2000
v  0.1000 3.8000 -0.1000
v  0.1000 3.8000 -0.2000
v  0.1000 1.0000 0.2000
v  0.1000 1.0000 0.1000
v  0.1000 3.9000 0.1000
v  0.1000 4.0000 0.2000
v  0.1000 4.0000 0.1000
v  0.1000 4.1000 -0.1000
v  0.1000 4.1000 -0.2000
v  0.1000 4.2000 -0.1000
v  0.1000 4.2000 -0.2000
v  0.1000 4.0000 -0.3000
v  0.1000 4.0000 -0.4000
v  0.1000 4.2000 -0.3000
v  0.1000 4.2000 -0.4000
v  0.1000 4.3000 -0.2000
v  0.1000 4.3000 -0.3000
v  0.1000 4.4000 -0.2000
v  0.1000 4.4000 -0.3000
v  0.1000 4.5000 -0.2000
v  0.1000 4.5000 -0.3000
v  0.1000 4.5000 -0.1000
v  0.1000 4.6000 -0.1000
v  0.1000 4.6000 -0.2000
v  0.1000 4.5000 -0.4000
v  0.1000 4.7000 -0.3000
v  0.1000 4.7000 -0.4000
v  0.1000 4.7000 -0.2000
v  0.1000 4.8000 -0.2000
v  0.1000 4.8000 -0.3000
v  0.1000 4.9000 -0.2000
v  0.1000 4.9000 -0.3000
v  0.1000 5.0000 -0.2000
v  0.1000 5.0000 -0.3000
v  0.1000 5.2000 0.2000
v  0.1000 5.2000 0.1000
v  0.1000 5.0000 -0.4000
v  0.1000 5.2000 -0.3000
v  0.1000 5.2000 -0.4000
v  0.2000 0.0000 0.4000
v  0.2000 0.0000 0.3000
v  0.2000 0.1000 0.4000
v  0.2000 0.1000 0.3000
v  0.2000 0.0000 -0.3000
v  0.2000 0.0000 -0.4000
v  0.2000 0.1000 -0.3000
v  0.2000 0.1000 -0.4000
v  0.2000 0.1000 0.2000
v  0.2000 0.2000 0.3000
v  0.2000 0.2000 0.2000
v  0.2000 0.1000 -0.2000
v  0.2000 0.2000 -0.2000
v  0.2000 0.2000 -0.3000
v  0.2000 1.0000 0.3000
v  0.2000 1.0000 0.2000
v  0.2000 1.0000 -0.2000
v  0.2000 1.0000 -0.3000
v  0.2000 1.0000 0.1000
v  0.2000 1.0000 -0.1000
v  0.2000 3.8000 -0.0000
v  0.2000 3.8000 -0.1000
v  0.2000 3.9000 0.1000
v  0.2000 3.9000 -0.0000
v  0.2000 5.3000 0.1000
v  0.2000 5.3000 -0.0000
v  0.3000 0.0000 0.3000
v  0.3000 0.0000 0.2000
v  0.3000 0.1000 0.3000
v  0.3000 0.1000 0.2000
v  0.3000 0.0000 -0.2000
v  0.3000 0.0000 -0.3000
v  0.3000 0.1000 -0.2000
v  0.3000 0.1000 -0.3000
v  0.3000 0.2000 0.2000
v  0.3000 0.2000 -0.2000
v  0.3000 1.0000 0.2000
v  0.3000 1.0000 -0.2000
v  0.3000 3.8000 -0.0000
v  0.3000 3.8000 -0.4000
v  0.3000 5.4000 -0.0000
v  0.3000 5.4000 -0.4000
v  0.4000 0.0000 0.2000
v  0.4000 0.0000 -0.2000
v  0.4000 0.1000 0.2000
v  0.4000 0.1000 -0.2000
v  -0.1000 3.9000 -0.3000
v  -0.1000 5.3000 -0.3000
v  0.1000 3.9000 -0.3000
v  0.1000 5.3000 -0.3000
# 218 vertices

vn -1.0000 0.0000 -0.0000
vn 1.0000 0.0000 -0.0000
vn 0.0000 0.0000 1.0000
vn 0.0000 0.0000 -1.0000
vn 0.0000 -1.0000 -0.0000
vn 0.0000 1.0000 -0.0000
# 6 vertex normals

vt 0.9902 0.5000 0.0000
vt 0.9863 0.5000 0.0000
vt 0.9941 0.5000 0.0000
vt 0.5566 0.5000 0.0000
vt 0.2090 0.5000 0.0000
vt 0.1465 0.5000 0.0000
# 6 texture coords

o Feu_tricolore
g Feu_tricolore
usemtl Feu_tricolore_palette
s 1
f 1/1/1 2/1/1 3/1/1 
f 4/1/1 2/1/1 1/1/1 
f 5/1/1 6/1/1 7/1/1 
f 8/1/1 6/1/1 5/1/1 
f 9/1/1 10/1/1 11/1/1 
f 12/1/1 10/1/1 9/1/1 
f 13/2/1 9/2/1 8/2/1 
f 14/2/1 9/2/1 13/2/1 
f 15/1/1 14/1/1 13/1/1 
f 16/1/1 14/1/1 15/1/1 
f 17/3/1 18/3/1 19/3/1 
f 20/3/1 18/3/1 17/3/1 
f 21/1/1 22/1/1 23/1/1 
f 24/1/1 22/1/1 21/1/1 
f 25/1/1 26/1/1 27/1/1 
f 28/1/1 26/1/1 25/1/1 
f 29/2/1 30/2/1 24/2/1 
f 31/2/1 30/2/1 29/2/1 
f 32/2/1 25/2/1 33/2/1 
f 34/2/1 25/2/1 32/2/1 
f 35/1/1 31/1/1 29/1/1 
f 36/1/1 31/1/1 35/1/1 
f 37/1/1 34/1/1 32/1/1 
f 38/1/1 34/1/1 37/1/1 
f 39/2/1 40/2/1 41/2/1 
f 42/2/1 40/2/1 39/2/1 
f 43/2/1 39/2/1 41/2/1 
f 44/2/1 39/2/1 43/2/1 
f 45/3/1 44/3/1 43/3/1 
f 46/3/1 44/3/1 45/3/1 
f 47/2/1 48/2/1 49/2/1 
f 50/2/1 48/2/1 47/2/1 
f 51/2/1 52/2/1 53/2/1 
f 54/2/1 51/2/1 53/2/1 
f 55/2/1 51/2/1 54/2/1 
f 56/2/1 57/2/1 58/2/1 
f 59/2/1 57/2/1 56/2/1 
f 60/4/1 61/4/1 62/4/1 
f 63/4/1 61/4/1 60/4/1 
f 64/4/1 60/4/1 59/4/1 
f 65/4/1 60/4/1 64/4/1 
f 66/5/1 67/5/1 68/5/1 
f 69/5/1 67/5/1 66/5/1 
f 70/2/1 66/2/1 71/2/1 
f 72/2/1 66/2/1 70/2/1 
f 73/5/1 74/5/1 69/5/1 
f 75/5/1 74/5/1 73/5/1 
f 76/5/1 73/5/1 77/5/1 
f 78/5/1 73/5/1 76/5/1 
f 79/6/1 80/6/1 81/6/1 
f 82/6/1 80/6/1 79/6/1 
f 83/3/1 55/3/1 54/3/1 
f 84/3/1 55/3/1 83/3/1 
f 85/6/1 86/6/1 82/6/1 
f 87/6/1 86/6/1 85/6/1 
f 88/3/1 89/3/1 90/3/1 
f 91/3/1 92/3/1 93/3/1 
f 94/3/1 92/3/1 91/3/1 
f 95/3/1 89/3/1 88/3/1 
f 96/3/1 95/3/1 94/3/1 
f 97/3/1 89/3/1 95/3/1 
f 97/3/1 95/3/1 96/3/1 
f 98/3/1 96/3/1 99/3/1 
f 100/3/1 96/3/1 98/3/1 
f 101/3/1 89/3/1 97/3/1 
f 102/3/1 101/3/1 103/3/1 
f 104/3/1 89/3/1 101/3/1 
f 104/3/1 101/3/1 102/3/1 
f 105/3/1 89/3/1 104/3/1 
f 106/3/1 89/3/1 105/3/1 
f 107/3/1 89/3/1 106/3/1 
f 108/3/2 109/3/2 110/3/2 
f 111/3/2 112/3/2 113/3/2 
f 113/3/2 112/3/2 114/3/2 
f 110/3/2 109/3/2 115/3/2 
f 114/3/2 115/3/2 116/3/2 
f 115/3/2 109/3/2 117/3/2 
f 116/3/2 115/3/2 117/3/2 
f 118/3/2 116/3/2 119/3/2 
f 119/3/2 116/3/2 120/3/2 
f 117/3/2 109/3/2 121/3/2 
f 122/3/2 121/3/2 123/3/2 
f 121/3/2 109/3/2 124/3/2 
f 123/3/2 121/3/2 124/3/2 
f 124/3/2 109/3/2 125/3/2 
f 125/3/2 109/3/2 126/3/2 
f 126/3/2 109/3/2 127/3/2 
f 128/2/2 129/2/2 130/2/2 
f 130/2/2 129/2/2 131/2/2 
f 132/2/2 133/2/2 134/2/2 
f 132/2/2 134/2/2 135/2/2 
f 135/2/2 134/2/2 136/2/2 
f 137/2/2 138/2/2 139/2/2 
f 139/2/2 138/2/2 140/2/2 
f 141/4/2 142/4/2 143/4/2 
f 143/4/2 142/4/2 144/4/2 
f 140/4/2 143/4/2 145/4/2 
f 145/4/2 143/4/2 146/4/2 
f 147/5/2 148/5/2 149/5/2 
f 149/5/2 148/5/2 150/5/2 
f 151/2/2 149/2/2 152/2/2 
f 152/2/2 149/2/2 153/2/2 
f 150/5/2 154/5/2 155/5/2 
f 155/5/2 154/5/2 156/5/2 
f 157/5/2 155/5/2 158/5/2 
f 158/5/2 155/5/2 159/5/2 
f 160/6/2 161/6/2 162/6/2 
f 162/6/2 161/6/2 163/6/2 
f 135/3/2 136/3/2 164/3/2 
f 164/3/2 136/3/2 165/3/2 
f 163/6/2 166/6/2 167/6/2 
f 167/6/2 166/6/2 168/6/2 
f 169/1/2 170/1/2 171/1/2 
f 171/1/2 170/1/2 172/1/2 
f 173/1/2 174/1/2 175/1/2 
f 175/1/2 174/1/2 176/1/2 
f 172/2/2 177/2/2 178/2/2 
f 178/2/2 177/2/2 179/2/2 
f 180/2/2 175/2/2 181/2/2 
f 181/2/2 175/2/2 182/2/2 
f 178/1/2 179/1/2 183/1/2 
f 183/1/2 179/1/2 184/1/2 
f 181/1/2 182/1/2 185/1/2 
f 185/1/2 182/1/2 186/1/2 
f 187/2/2 188/2/2 189/2/2 
f 189/2/2 188/2/2 190/2/2 
f 187/2/2 189/2/2 191/2/2 
f 191/2/2 189/2/2 192/2/2 
f 191/3/2 192/3/2 193/3/2 
f 193/3/2 192/3/2 194/3/2 
f 195/1/2 196/1/2 197/1/2 
f 197/1/2 196/1/2 198/1/2 
f 199/1/2 200/1/2 201/1/2 
f 201/1/2 200/1/2 202/1/2 
f 198/2/2 201/2/2 203/2/2 
f 203/2/2 201/2/2 204/2/2 
f 203/1/2 204/1/2 205/1/2 
f 205/1/2 204/1/2 206/1/2 
f 207/3/2 208/3/2 209/3/2 
f 209/3/2 208/3/2 210/3/2 
f 211/1/2 212/1/2 213/1/2 
f 213/1/2 212/1/2 214/1/2 
f 169/1/3 21/1/3 23/1/3 
f 171/1/3 21/1/3 169/1/3 
f 22/1/3 5/1/3 7/1/3 
f 24/1/3 5/1/3 22/1/3 
f 172/2/3 29/2/3 24/2/3 
f 178/1/3 35/1/3 29/1/3 
f 178/2/3 29/2/3 172/2/3 
f 183/1/3 35/1/3 178/1/3 
f 195/1/3 172/1/3 170/1/3 
f 197/1/3 172/1/3 195/1/3 
f 6/1/3 1/1/3 3/1/3 
f 8/1/3 1/1/3 6/1/3 
f 30/2/3 13/2/3 8/2/3 
f 31/1/3 15/1/3 13/1/3 
f 31/2/3 13/2/3 30/2/3 
f 36/1/3 15/1/3 31/1/3 
f 132/2/3 54/2/3 53/2/3 
f 135/3/3 83/3/3 54/3/3 
f 135/2/3 54/2/3 132/2/3 
f 164/3/3 83/3/3 135/3/3 
f 198/2/3 179/2/3 177/2/3 
f 203/1/3 184/1/3 179/1/3 
f 203/2/3 179/2/3 198/2/3 
f 205/1/3 184/1/3 203/1/3 
f 211/1/3 198/1/3 196/1/3 
f 213/1/3 198/1/3 211/1/3 
f 52/2/3 43/2/3 41/2/3 
f 51/3/3 45/3/3 43/3/3 
f 51/2/3 43/2/3 52/2/3 
f 55/3/3 45/3/3 51/3/3 
f 84/3/3 45/3/3 55/3/3 
f 165/3/3 45/3/3 84/3/3 
f 187/2/3 134/2/3 133/2/3 
f 191/3/3 136/3/3 134/3/3 
f 191/2/3 134/2/3 187/2/3 
f 191/3/3 165/3/3 136/3/3 
f 193/3/3 45/3/3 165/3/3 
f 193/3/3 165/3/3 191/3/3 
f 39/3/3 17/3/3 19/3/3 
f 44/3/3 17/3/3 39/3/3 
f 46/3/3 17/3/3 44/3/3 
f 194/3/3 17/3/3 46/3/3 
f 207/3/3 192/3/3 189/3/3 
f 207/3/3 194/3/3 192/3/3 
f 209/3/3 17/3/3 194/3/3 
f 209/3/3 194/3/3 207/3/3 
f 57/4/3 114/4/3 112/4/3 
f 59/4/3 114/4/3 57/4/3 
f 66/5/3 120/5/3 116/5/3 
f 72/5/3 120/5/3 66/5/3 
f 92/4/3 140/4/3 138/4/3 
f 94/4/3 140/4/3 92/4/3 
f 96/5/3 153/5/3 149/5/3 
f 100/5/3 153/5/3 96/5/3 
f 40/2/4 42/2/4 49/2/4 
f 49/2/4 42/2/4 47/2/4 
f 111/3/4 113/3/4 58/3/4 
f 58/3/4 113/3/4 56/3/4 
f 118/3/4 119/3/4 71/3/4 
f 71/3/4 119/3/4 70/3/4 
f 128/2/4 130/2/4 188/2/4 
f 188/2/4 130/2/4 190/2/4 
f 137/3/4 139/3/4 93/3/4 
f 93/3/4 139/3/4 91/3/4 
f 151/3/4 152/3/4 99/3/4 
f 99/3/4 152/3/4 98/3/4 
f 2/1/4 4/1/4 11/1/4 
f 11/1/4 4/1/4 9/1/4 
f 9/2/4 14/2/4 33/2/4 
f 14/1/4 16/1/4 32/1/4 
f 33/2/4 14/2/4 32/2/4 
f 32/1/4 16/1/4 37/1/4 
f 114/3/4 116/3/4 59/3/4 
f 59/3/4 116/3/4 64/3/4 
f 64/3/4 116/3/4 68/3/4 
f 68/3/4 116/3/4 66/3/4 
f 122/3/4 123/3/4 77/3/4 
f 77/3/4 123/3/4 76/3/4 
f 76/3/4 123/3/4 81/3/4 
f 81/3/4 123/3/4 79/3/4 
f 48/2/4 50/2/4 129/2/4 
f 129/2/4 50/2/4 131/2/4 
f 64/3/4 68/3/4 145/3/4 
f 145/3/4 68/3/4 147/3/4 
f 76/3/4 81/3/4 158/3/4 
f 158/3/4 81/3/4 160/3/4 
f 147/3/4 149/3/4 94/3/4 
f 140/3/4 145/3/4 94/3/4 
f 145/3/4 147/3/4 94/3/4 
f 94/3/4 149/3/4 96/3/4 
f 160/3/4 162/3/4 103/3/4 
f 158/3/4 160/3/4 103/3/4 
f 157/3/4 158/3/4 103/3/4 
f 103/3/4 162/3/4 102/3/4 
f 180/2/4 181/2/4 201/2/4 
f 181/1/4 185/1/4 204/1/4 
f 201/2/4 181/2/4 204/2/4 
f 204/1/4 185/1/4 206/1/4 
f 199/1/4 201/1/4 212/1/4 
f 212/1/4 201/1/4 214/1/4 
f 10/1/4 12/1/4 27/1/4 
f 27/1/4 12/1/4 25/1/4 
f 108/3/4 110/3/4 215/3/4 
f 110/4/4 115/4/4 62/4/4 
f 215/3/4 110/3/4 62/3/4 
f 62/4/4 115/4/4 60/4/4 
f 117/5/4 121/5/4 69/5/4 
f 69/5/4 121/5/4 73/5/4 
f 124/6/4 125/6/4 82/6/4 
f 125/3/4 126/3/4 85/3/4 
f 82/6/4 125/6/4 85/6/4 
f 85/3/4 126/3/4 216/3/4 
f 215/4/4 62/4/4 217/4/4 
f 217/4/4 62/4/4 141/4/4 
f 60/4/4 65/4/4 143/4/4 
f 143/4/4 65/4/4 146/4/4 
f 67/5/4 69/5/4 148/5/4 
f 148/5/4 69/5/4 150/5/4 
f 73/5/4 78/5/4 155/5/4 
f 155/5/4 78/5/4 159/5/4 
f 80/6/4 82/6/4 161/6/4 
f 161/6/4 82/6/4 163/6/4 
f 85/6/4 216/6/4 167/6/4 
f 167/6/4 216/6/4 218/6/4 
f 25/2/4 34/2/4 175/2/4 
f 34/1/4 38/1/4 182/1/4 
f 175/2/4 34/2/4 182/2/4 
f 182/1/4 38/1/4 186/1/4 
f 217/3/4 141/3/4 90/3/4 
f 141/4/4 143/4/4 88/4/4 
f 90/3/4 141/3/4 88/3/4 
f 88/4/4 143/4/4 95/4/4 
f 150/5/4 155/5/4 97/5/4 
f 97/5/4 155/5/4 101/5/4 
f 163/6/4 167/6/4 104/6/4 
f 167/3/4 218/3/4 105/3/4 
f 104/6/4 167/6/4 105/6/4 
f 105/3/4 218/3/4 106/3/4 
f 173/1/4 175/1/4 200/1/4 
f 200/1/4 175/1/4 202/1/4 
f 18/3/4 20/3/4 109/3/4 
f 109/3/4 20/3/4 127/3/4 
f 61/4/4 63/4/4 142/4/4 
f 142/4/4 63/4/4 144/4/4 
f 74/5/4 75/5/4 154/5/4 
f 154/5/4 75/5/4 156/5/4 
f 86/6/4 87/6/4 166/6/4 
f 166/6/4 87/6/4 168/6/4 
f 26/1/4 28/1/4 174/1/4 
f 174/1/4 28/1/4 176/1/4 
f 18/3/4 109/3/4 89/3/4 
f 127/3/4 20/3/4 107/3/4 
f 18/3/4 89/3/4 208/3/4 
f 89/3/4 107/3/4 208/3/4 
f 107/3/4 20/3/4 210/3/4 
f 208/3/4 107/3/4 210/3/4 
f 22/1/5 169/1/5 23/1/5 
f 170/1/5 169/1/5 22/1/5 
f 6/1/5 22/1/5 7/1/5 
f 6/1/5 195/1/5 170/1/5 
f 6/1/5 170/1/5 22/1/5 
f 196/1/5 195/1/5 6/1/5 
f 2/1/5 6/1/5 3/1/5 
f 2/1/5 211/1/5 196/1/5 
f 2/1/5 196/1/5 6/1/5 
f 11/1/5 211/1/5 2/1/5 
f 199/1/5 211/1/5 11/1/5 
f 212/1/5 211/1/5 199/1/5 
f 10/1/5 199/1/5 11/1/5 
f 27/1/5 199/1/5 10/1/5 
f 173/1/5 199/1/5 27/1/5 
f 200/1/5 199/1/5 173/1/5 
f 26/1/5 173/1/5 27/1/5 
f 174/1/5 173/1/5 26/1/5 
f 42/3/5 39/3/5 19/3/5 
f 190/3/5 207/3/5 189/3/5 
f 50/3/5 47/3/5 42/3/5 
f 131/3/5 190/3/5 130/3/5 
f 18/3/5 50/3/5 42/3/5 
f 18/3/5 131/3/5 50/3/5 
f 18/3/5 42/3/5 19/3/5 
f 208/3/5 190/3/5 131/3/5 
f 208/3/5 131/3/5 18/3/5 
f 208/3/5 207/3/5 190/3/5 
f 61/4/5 141/4/5 62/4/5 
f 142/4/5 141/4/5 61/4/5 
f 114/3/5 56/3/5 113/3/5 
f 59/3/5 56/3/5 114/3/5 
f 140/3/5 91/3/5 139/3/5 
f 94/3/5 91/3/5 140/3/5 
f 67/5/5 147/5/5 68/5/5 
f 148/5/5 147/5/5 67/5/5 
f 117/5/5 66/5/5 116/5/5 
f 69/5/5 66/5/5 117/5/5 
f 150/5/5 96/5/5 149/5/5 
f 97/5/5 96/5/5 150/5/5 
f 74/5/5 150/5/5 69/5/5 
f 154/5/5 150/5/5 74/5/5 
f 120/3/5 70/3/5 119/3/5 
f 72/3/5 70/3/5 120/3/5 
f 153/3/5 98/3/5 152/3/5 
f 100/3/5 98/3/5 153/3/5 
f 80/6/5 160/6/5 81/6/5 
f 161/6/5 160/6/5 80/6/5 
f 124/6/5 79/6/5 123/6/5 
f 82/6/5 79/6/5 124/6/5 
f 163/6/5 102/6/5 162/6/5 
f 104/6/5 102/6/5 163/6/5 
f 86/6/5 163/6/5 82/6/5 
f 166/6/5 163/6/5 86/6/5 
f 127/3/5 216/3/5 126/3/5 
f 127/3/5 106/3/5 218/3/5 
f 127/3/5 218/3/5 216/3/5 
f 107/3/5 106/3/5 127/3/5 
f 21/1/6 171/1/6 24/1/6 
f 24/1/6 171/1/6 172/1/6 
f 5/1/6 24/1/6 8/1/6 
f 8/1/6 24/1/6 30/1/6 
f 172/1/6 197/1/6 177/1/6 
f 177/1/6 197/1/6 198/1/6 
f 1/1/6 8/1/6 4/1/6 
f 4/1/6 8/1/6 9/1/6 
f 198/1/6 213/1/6 201/1/6 
f 201/1/6 213/1/6 214/1/6 
f 9/1/6 33/1/6 12/1/6 
f 12/1/6 33/1/6 25/1/6 
f 180/1/6 201/1/6 175/1/6 
f 175/1/6 201/1/6 202/1/6 
f 25/1/6 175/1/6 28/1/6 
f 28/1/6 175/1/6 176/1/6 
f 35/1/6 183/1/6 36/1/6 
f 36/1/6 183/1/6 53/1/6 
f 53/1/6 183/1/6 132/1/6 
f 132/1/6 183/1/6 184/1/6 
f 15/1/6 36/1/6 41/1/6 
f 36/1/6 53/1/6 41/1/6 
f 41/1/6 53/1/6 52/1/6 
f 184/1/6 205/1/6 133/1/6 
f 132/1/6 184/1/6 133/1/6 
f 133/1/6 205/1/6 187/1/6 
f 15/1/6 41/1/6 40/1/6 
f 187/1/6 205/1/6 188/1/6 
f 40/1/6 49/1/6 16/1/6 
f 15/1/6 40/1/6 16/1/6 
f 16/1/6 49/1/6 37/1/6 
f 37/1/6 49/1/6 48/1/6 
f 128/1/6 188/1/6 129/1/6 
f 188/1/6 205/1/6 185/1/6 
f 129/1/6 188/1/6 185/1/6 
f 185/1/6 205/1/6 206/1/6 
f 37/1/6 48/1/6 38/1/6 
f 48/1/6 129/1/6 38/1/6 
f 129/1/6 185/1/6 38/1/6 
f 38/1/6 185/1/6 186/1/6 
f 108/3/6 215/3/6 109/3/6 
f 217/3/6 90/3/6 109/3/6 
f 215/3/6 217/3/6 109/3/6 
f 109/3/6 90/3/6 89/3/6 
f 111/3/6 58/3/6 112/3/6 
f 112/3/6 58/3/6 57/3/6 
f 137/3/6 93/3/6 138/3/6 
f 138/3/6 93/3/6 92/3/6 
f 114/4/6 59/4/6 115/4/6 
f 115/4/6 59/4/6 60/4/6 
f 140/4/6 94/4/6 143/4/6 
f 143/4/6 94/4/6 95/4/6 
f 60/4/6 143/4/6 63/4/6 
f 63/4/6 143/4/6 144/4/6 
f 64/4/6 145/4/6 65/4/6 
f 65/4/6 145/4/6 146/4/6 
f 118/3/6 71/3/6 116/3/6 
f 116/3/6 71/3/6 66/3/6 
f 151/3/6 99/3/6 149/3/6 
f 149/3/6 99/3/6 96/3/6 
f 122/5/6 77/5/6 121/5/6 
f 121/5/6 77/5/6 73/5/6 
f 157/5/6 103/5/6 155/5/6 
f 155/5/6 103/5/6 101/5/6 
f 73/5/6 155/5/6 75/5/6 
f 75/5/6 155/5/6 156/5/6 
f 76/5/6 158/5/6 78/5/6 
f 78/5/6 158/5/6 159/5/6 
f 83/3/6 164/3/6 84/3/6 
f 84/3/6 164/3/6 165/3/6 
f 85/6/6 167/6/6 87/6/6 
f 87/6/6 167/6/6 168/6/6 
f 45/3/6 193/3/6 46/3/6 
f 46/3/6 193/3/6 194/3/6 
f 17/3/6 209/3/6 20/3/6 
f 20/3/6 209/3/6 210/3/6 
# 0 polygons - 432 triangles

