# 3ds Max Wavefront OBJ Exporter v0.97b - (c)2007 guruware
# File Created: 07.11.2019 18:23:29

mtllib Trottoir Asphalte Coin.mtl

#
# object Trottoir_Asphalte_Coin
#

v  0.0000 0.1000 -0.2000
v  0.0000 0.0000 -0.2000
v  0.0000 0.0000 -0.0000
v  0.0000 0.0000 -0.3000
v  0.0000 0.1000 -0.3000
v  0.0000 0.0000 -0.7000
v  0.0000 0.1000 -0.7000
v  0.0000 0.0000 -0.8000
v  0.0000 0.1000 -0.8000
v  0.0000 0.0000 -1.2000
v  0.0000 0.2000 -0.2000
v  0.0000 0.2000 -0.3000
v  0.0000 0.2000 -1.2000
v  0.0000 0.0000 -1.3000
v  0.0000 0.2000 -1.3000
v  0.0000 0.0000 -1.7000
v  0.0000 0.3000 -0.0000
v  0.0000 0.3000 -0.2000
v  0.0000 0.3000 -0.3000
v  0.0000 0.3000 -0.7000
v  0.0000 0.3000 -0.8000
v  0.0000 0.3000 -1.2000
v  0.0000 0.3000 -1.3000
v  0.0000 0.3000 -1.7000
v  3.5000 0.0000 -1.4000
v  3.5000 0.0000 -1.6000
v  3.5000 0.1000 -1.6000
v  3.5000 0.0000 -1.7000
v  3.5000 0.1000 -1.7000
v  3.5000 0.0000 -0.0000
v  3.5000 0.2000 -0.9000
v  3.5000 0.2000 -1.0000
v  3.5000 0.2000 -1.3000
v  3.5000 0.2000 -1.4000
v  3.5000 0.2000 -1.5000
v  3.5000 0.3000 -0.0000
v  3.5000 0.3000 -0.9000
v  3.5000 0.3000 -1.0000
v  3.5000 0.3000 -1.3000
v  3.5000 0.3000 -1.4000
v  3.5000 0.3000 -1.5000
v  3.5000 0.3000 -1.7000
v  0.3000 0.0000 -0.0000
v  0.3000 0.2000 -0.0000
v  0.3000 0.3000 -0.0000
v  0.4000 0.0000 -0.0000
v  0.4000 0.2000 -0.0000
v  0.4000 0.3000 -0.0000
v  0.4000 0.0000 -1.7000
v  0.4000 0.1000 -1.7000
v  0.4000 0.3000 -1.7000
v  0.5000 0.0000 -1.7000
v  0.5000 0.1000 -1.7000
v  0.5000 0.3000 -1.7000
v  0.9000 0.0000 -1.7000
v  0.9000 0.1000 -1.7000
v  0.9000 0.3000 -1.7000
v  1.0000 0.0000 -1.7000
v  1.0000 0.1000 -1.7000
v  1.0000 0.3000 -1.7000
v  1.4000 0.0000 -1.7000
v  1.4000 0.2000 -1.7000
v  1.4000 0.3000 -1.7000
v  1.5000 0.0000 -1.7000
v  1.5000 0.2000 -1.7000
v  1.5000 0.3000 -1.7000
v  1.9000 0.0000 -1.7000
v  1.9000 0.1000 -1.7000
v  1.9000 0.3000 -1.7000
v  2.0000 0.0000 -1.7000
v  2.0000 0.1000 -1.7000
v  2.0000 0.3000 -1.7000
v  2.4000 0.0000 -1.7000
v  2.4000 0.1000 -1.7000
v  2.4000 0.2000 -1.7000
v  2.4000 0.3000 -1.7000
v  2.5000 0.0000 -1.7000
v  2.5000 0.1000 -1.7000
v  2.5000 0.2000 -1.7000
v  2.5000 0.3000 -1.7000
v  2.9000 0.0000 -1.7000
v  2.9000 0.1000 -1.7000
v  2.9000 0.2000 -1.7000
v  2.9000 0.3000 -1.7000
v  3.0000 0.0000 -1.7000
v  3.0000 0.1000 -1.7000
v  3.0000 0.2000 -1.7000
v  3.0000 0.3000 -1.7000
v  3.4000 0.0000 -1.7000
v  3.4000 0.1000 -1.7000
v  3.4000 0.3000 -1.7000
v  0.1000 0.0000 -0.1000
v  0.3000 0.0000 -0.1000
v  0.4000 0.0000 -0.1000
v  0.1000 0.0000 -0.2000
v  0.1000 0.0000 -0.3000
v  0.1000 0.0000 -0.7000
v  0.1000 0.0000 -0.8000
v  0.1000 0.0000 -1.2000
v  0.1000 0.0000 -1.3000
v  0.1000 0.0000 -1.4000
v  0.4000 0.0000 -1.4000
v  0.5000 0.0000 -1.4000
v  0.9000 0.0000 -1.4000
v  1.0000 0.0000 -1.4000
v  1.4000 0.0000 -1.4000
v  1.5000 0.0000 -1.4000
v  1.9000 0.0000 -1.4000
v  2.0000 0.0000 -1.4000
v  2.4000 0.0000 -1.4000
v  2.5000 0.0000 -1.4000
v  2.9000 0.0000 -1.4000
v  3.0000 0.0000 -1.4000
v  3.4000 0.0000 -1.4000
v  0.4000 0.0000 -1.6000
v  0.5000 0.0000 -1.6000
v  0.9000 0.0000 -1.6000
v  1.0000 0.0000 -1.6000
v  1.4000 0.0000 -1.6000
v  1.5000 0.0000 -1.6000
v  1.9000 0.0000 -1.6000
v  2.0000 0.0000 -1.6000
v  2.4000 0.0000 -1.6000
v  2.5000 0.0000 -1.6000
v  2.9000 0.0000 -1.6000
v  3.0000 0.0000 -1.6000
v  3.4000 0.0000 -1.6000
v  0.3000 0.3000 -0.1000
v  0.4000 0.3000 -0.1000
v  0.5000 0.3000 -0.1000
v  1.3000 0.3000 -0.1000
v  1.4000 0.3000 -0.1000
v  1.9000 0.3000 -0.1000
v  2.0000 0.3000 -0.1000
v  2.7000 0.3000 -0.1000
v  2.8000 0.3000 -0.1000
v  0.3000 0.3000 -0.2000
v  0.4000 0.3000 -0.2000
v  0.5000 0.3000 -0.2000
v  1.3000 0.3000 -0.2000
v  1.4000 0.3000 -0.2000
v  1.9000 0.3000 -0.2000
v  2.0000 0.3000 -0.2000
v  2.7000 0.3000 -0.2000
v  2.8000 0.3000 -0.2000
v  0.3000 0.3000 -0.3000
v  0.3000 0.3000 -0.4000
v  0.4000 0.3000 -0.4000
v  1.0000 0.3000 -0.4000
v  1.1000 0.3000 -0.4000
v  3.3000 0.3000 -0.4000
v  3.4000 0.3000 -0.4000
v  1.0000 0.3000 -0.5000
v  1.1000 0.3000 -0.5000
v  2.2000 0.3000 -0.5000
v  2.3000 0.3000 -0.5000
v  3.3000 0.3000 -0.5000
v  3.4000 0.3000 -0.5000
v  2.2000 0.3000 -0.6000
v  2.3000 0.3000 -0.6000
v  2.7000 0.3000 -0.6000
v  2.8000 0.3000 -0.6000
v  0.2000 0.3000 -0.7000
v  0.3000 0.3000 -0.7000
v  1.0000 0.3000 -0.7000
v  1.1000 0.3000 -0.7000
v  1.5000 0.3000 -0.7000
v  1.6000 0.3000 -0.7000
v  2.7000 0.3000 -0.7000
v  2.8000 0.3000 -0.7000
v  0.2000 0.3000 -0.8000
v  0.3000 0.3000 -0.8000
v  0.4000 0.3000 -0.8000
v  1.0000 0.3000 -0.8000
v  1.1000 0.3000 -0.8000
v  1.5000 0.3000 -0.8000
v  1.6000 0.3000 -0.8000
v  2.9000 0.3000 -0.8000
v  3.0000 0.3000 -0.8000
v  2.3000 0.3000 -0.9000
v  2.4000 0.3000 -0.9000
v  2.9000 0.3000 -0.9000
v  3.0000 0.3000 -0.9000
v  3.4000 0.3000 -0.9000
v  0.3000 0.3000 -1.0000
v  0.4000 0.3000 -1.0000
v  1.2000 0.3000 -1.0000
v  1.3000 0.3000 -1.0000
v  2.3000 0.3000 -1.0000
v  2.4000 0.3000 -1.0000
v  3.4000 0.3000 -1.0000
v  1.2000 0.3000 -1.1000
v  1.3000 0.3000 -1.1000
v  1.4000 0.3000 -1.1000
v  1.5000 0.3000 -1.1000
v  0.2000 0.3000 -1.2000
v  0.3000 0.3000 -1.2000
v  0.4000 0.3000 -1.2000
v  1.4000 0.3000 -1.2000
v  1.5000 0.3000 -1.2000
v  0.2000 0.3000 -1.3000
v  0.3000 0.3000 -1.3000
v  0.4000 0.3000 -1.3000
v  0.5000 0.3000 -1.3000
v  0.7000 0.3000 -1.3000
v  1.0000 0.3000 -1.3000
v  1.9000 0.3000 -1.3000
v  2.0000 0.3000 -1.3000
v  2.9000 0.3000 -1.3000
v  3.2000 0.3000 -1.3000
v  3.4000 0.3000 -1.3000
v  0.3000 0.3000 -1.4000
v  0.4000 0.3000 -1.4000
v  0.5000 0.3000 -1.4000
v  0.7000 0.3000 -1.4000
v  0.9000 0.3000 -1.4000
v  1.0000 0.3000 -1.4000
v  1.4000 0.3000 -1.4000
v  1.5000 0.3000 -1.4000
v  1.9000 0.3000 -1.4000
v  2.0000 0.3000 -1.4000
v  2.4000 0.3000 -1.4000
v  2.5000 0.3000 -1.4000
v  2.9000 0.3000 -1.4000
v  3.0000 0.3000 -1.4000
v  3.2000 0.3000 -1.4000
v  3.4000 0.3000 -1.4000
v  0.9000 0.3000 -1.5000
v  1.0000 0.3000 -1.5000
v  1.9000 0.3000 -1.5000
v  2.0000 0.3000 -1.5000
v  2.9000 0.3000 -1.5000
v  3.0000 0.3000 -1.5000
v  3.4000 0.3000 -1.5000
# 234 vertices

vn -1.0000 0.0000 -0.0000
vn 1.0000 0.0000 -0.0000
vn 0.0000 0.0000 1.0000
vn 0.0000 0.0000 -1.0000
vn 0.0000 -1.0000 -0.0000
vn 0.0000 1.0000 -0.0000
# 6 vertex normals

vt 0.9746 0.5000 0.0000
vt 0.9824 0.5000 0.0000
vt 0.9355 0.5000 0.0000
vt 0.9785 0.5000 0.0000
vt 0.9863 0.5000 0.0000
vt 0.9434 0.5000 0.0000
# 6 texture coords

o Trottoir_Asphalte_Coin
g Trottoir_Asphalte_Coin
usemtl Trottoir_Asphalte_Coin_palette
s 1
f 1/1/1 2/1/1 3/1/1 
f 1/2/1 4/2/1 2/2/1 
f 5/1/1 6/1/1 4/1/1 
f 5/2/1 4/2/1 1/2/1 
f 7/3/1 8/3/1 6/3/1 
f 7/1/1 6/1/1 5/1/1 
f 9/1/1 10/1/1 8/1/1 
f 9/3/1 8/3/1 7/3/1 
f 11/1/1 1/1/1 3/1/1 
f 11/3/1 5/3/1 1/3/1 
f 12/1/1 7/1/1 5/1/1 
f 12/3/1 5/3/1 11/3/1 
f 13/3/1 14/3/1 10/3/1 
f 13/1/1 10/1/1 9/1/1 
f 15/1/1 16/1/1 14/1/1 
f 15/3/1 14/3/1 13/3/1 
f 17/1/1 11/1/1 3/1/1 
f 18/4/1 12/4/1 11/4/1 
f 18/1/1 11/1/1 17/1/1 
f 19/1/1 7/1/1 12/1/1 
f 19/4/1 12/4/1 18/4/1 
f 20/4/1 9/4/1 7/4/1 
f 20/1/1 7/1/1 19/1/1 
f 21/1/1 13/1/1 9/1/1 
f 21/4/1 9/4/1 20/4/1 
f 22/4/1 15/4/1 13/4/1 
f 22/1/1 13/1/1 21/1/1 
f 23/1/1 16/1/1 15/1/1 
f 23/4/1 15/4/1 22/4/1 
f 24/1/1 16/1/1 23/1/1 
f 25/4/2 26/4/2 27/4/2 
f 26/3/2 28/3/2 27/3/2 
f 27/3/2 28/3/2 29/3/2 
f 30/2/2 25/2/2 31/2/2 
f 31/2/2 25/2/2 32/2/2 
f 32/2/2 25/2/2 33/2/2 
f 25/4/2 27/4/2 34/4/2 
f 33/2/2 25/2/2 34/2/2 
f 27/4/2 29/4/2 34/4/2 
f 34/4/2 29/4/2 35/4/2 
f 30/2/2 31/2/2 36/2/2 
f 31/5/2 32/5/2 37/5/2 
f 36/2/2 31/2/2 37/2/2 
f 32/2/2 33/2/2 38/2/2 
f 37/5/2 32/5/2 38/5/2 
f 33/5/2 34/5/2 39/5/2 
f 38/2/2 33/2/2 39/2/2 
f 34/3/2 35/3/2 40/3/2 
f 39/5/2 34/5/2 40/5/2 
f 35/4/2 29/4/2 41/4/2 
f 40/3/2 35/3/2 41/3/2 
f 41/4/2 29/4/2 42/4/2 
f 43/1/3 17/1/3 3/1/3 
f 44/1/3 17/1/3 43/1/3 
f 45/1/3 17/1/3 44/1/3 
f 46/5/3 44/5/3 43/5/3 
f 47/6/3 45/6/3 44/6/3 
f 47/5/3 44/5/3 46/5/3 
f 48/6/3 45/6/3 47/6/3 
f 30/2/3 47/2/3 46/2/3 
f 30/2/3 48/2/3 47/2/3 
f 36/2/3 48/2/3 30/2/3 
f 16/1/4 24/1/4 49/1/4 
f 49/1/4 24/1/4 50/1/4 
f 50/1/4 24/1/4 51/1/4 
f 49/3/4 50/3/4 52/3/4 
f 50/4/4 51/4/4 53/4/4 
f 52/3/4 50/3/4 53/3/4 
f 53/4/4 51/4/4 54/4/4 
f 52/1/4 53/1/4 55/1/4 
f 53/1/4 54/1/4 55/1/4 
f 55/1/4 54/1/4 56/1/4 
f 56/1/4 54/1/4 57/1/4 
f 55/3/4 56/3/4 58/3/4 
f 56/4/4 57/4/4 59/4/4 
f 58/3/4 56/3/4 59/3/4 
f 59/4/4 57/4/4 60/4/4 
f 58/1/4 59/1/4 61/1/4 
f 59/1/4 60/1/4 61/1/4 
f 61/1/4 60/1/4 62/1/4 
f 62/1/4 60/1/4 63/1/4 
f 61/3/4 62/3/4 64/3/4 
f 62/4/4 63/4/4 65/4/4 
f 64/3/4 62/3/4 65/3/4 
f 65/4/4 63/4/4 66/4/4 
f 64/1/4 65/1/4 67/1/4 
f 65/1/4 66/1/4 67/1/4 
f 67/1/4 66/1/4 68/1/4 
f 68/1/4 66/1/4 69/1/4 
f 67/2/4 68/2/4 70/2/4 
f 68/4/4 69/4/4 71/4/4 
f 70/2/4 68/2/4 71/2/4 
f 71/4/4 69/4/4 72/4/4 
f 70/1/4 71/1/4 73/1/4 
f 71/1/4 72/1/4 73/1/4 
f 73/1/4 72/1/4 74/1/4 
f 74/1/4 72/1/4 75/1/4 
f 75/1/4 72/1/4 76/1/4 
f 73/6/4 74/6/4 77/6/4 
f 74/3/4 75/3/4 78/3/4 
f 77/6/4 74/6/4 78/6/4 
f 75/4/4 76/4/4 79/4/4 
f 78/3/4 75/3/4 79/3/4 
f 79/4/4 76/4/4 80/4/4 
f 77/1/4 78/1/4 81/1/4 
f 78/1/4 79/1/4 81/1/4 
f 79/1/4 80/1/4 81/1/4 
f 81/1/4 80/1/4 82/1/4 
f 82/1/4 80/1/4 83/1/4 
f 83/1/4 80/1/4 84/1/4 
f 81/6/4 82/6/4 85/6/4 
f 82/3/4 83/3/4 86/3/4 
f 85/6/4 82/6/4 86/6/4 
f 83/4/4 84/4/4 87/4/4 
f 86/3/4 83/3/4 87/3/4 
f 87/4/4 84/4/4 88/4/4 
f 85/1/4 86/1/4 89/1/4 
f 86/1/4 87/1/4 89/1/4 
f 87/1/4 88/1/4 89/1/4 
f 89/1/4 88/1/4 90/1/4 
f 90/1/4 88/1/4 91/1/4 
f 89/3/4 90/3/4 28/3/4 
f 90/4/4 91/4/4 29/4/4 
f 28/3/4 90/3/4 29/3/4 
f 29/4/4 91/4/4 42/4/4 
f 92/1/5 43/1/5 3/1/5 
f 93/5/5 46/5/5 43/5/5 
f 93/1/5 43/1/5 92/1/5 
f 94/2/5 30/2/5 46/2/5 
f 94/5/5 46/5/5 93/5/5 
f 2/1/5 92/1/5 3/1/5 
f 95/2/5 93/2/5 92/2/5 
f 95/1/5 92/1/5 2/1/5 
f 95/2/5 94/2/5 93/2/5 
f 4/2/5 95/2/5 2/2/5 
f 96/2/5 94/2/5 95/2/5 
f 96/2/5 95/2/5 4/2/5 
f 6/1/5 96/1/5 4/1/5 
f 97/2/5 94/2/5 96/2/5 
f 97/1/5 96/1/5 6/1/5 
f 8/3/5 97/3/5 6/3/5 
f 98/2/5 94/2/5 97/2/5 
f 98/3/5 97/3/5 8/3/5 
f 10/1/5 98/1/5 8/1/5 
f 99/2/5 94/2/5 98/2/5 
f 99/1/5 98/1/5 10/1/5 
f 14/3/5 99/3/5 10/3/5 
f 100/2/5 94/2/5 99/2/5 
f 100/3/5 99/3/5 14/3/5 
f 101/1/5 100/1/5 14/1/5 
f 101/2/5 94/2/5 100/2/5 
f 102/2/5 30/2/5 94/2/5 
f 102/2/5 94/2/5 101/2/5 
f 103/2/5 30/2/5 102/2/5 
f 104/2/5 30/2/5 103/2/5 
f 105/2/5 30/2/5 104/2/5 
f 106/2/5 30/2/5 105/2/5 
f 107/2/5 30/2/5 106/2/5 
f 108/2/5 30/2/5 107/2/5 
f 109/2/5 30/2/5 108/2/5 
f 110/2/5 30/2/5 109/2/5 
f 111/2/5 30/2/5 110/2/5 
f 112/2/5 30/2/5 111/2/5 
f 113/2/5 30/2/5 112/2/5 
f 114/2/5 30/2/5 113/2/5 
f 25/2/5 30/2/5 114/2/5 
f 115/1/5 102/1/5 101/1/5 
f 115/4/5 103/4/5 102/4/5 
f 116/1/5 104/1/5 103/1/5 
f 116/4/5 103/4/5 115/4/5 
f 117/4/5 105/4/5 104/4/5 
f 117/1/5 104/1/5 116/1/5 
f 118/1/5 106/1/5 105/1/5 
f 118/4/5 105/4/5 117/4/5 
f 119/4/5 107/4/5 106/4/5 
f 119/1/5 106/1/5 118/1/5 
f 120/1/5 108/1/5 107/1/5 
f 120/4/5 107/4/5 119/4/5 
f 121/4/5 109/4/5 108/4/5 
f 121/1/5 108/1/5 120/1/5 
f 122/1/5 110/1/5 109/1/5 
f 122/4/5 109/4/5 121/4/5 
f 123/4/5 111/4/5 110/4/5 
f 123/1/5 110/1/5 122/1/5 
f 124/1/5 112/1/5 111/1/5 
f 124/4/5 111/4/5 123/4/5 
f 125/4/5 113/4/5 112/4/5 
f 125/1/5 112/1/5 124/1/5 
f 126/1/5 114/1/5 113/1/5 
f 126/4/5 113/4/5 125/4/5 
f 127/4/5 25/4/5 114/4/5 
f 127/1/5 114/1/5 126/1/5 
f 26/4/5 25/4/5 127/4/5 
f 16/1/5 101/1/5 14/1/5 
f 16/1/5 115/1/5 101/1/5 
f 49/3/5 116/3/5 115/3/5 
f 49/1/5 115/1/5 16/1/5 
f 52/1/5 117/1/5 116/1/5 
f 52/3/5 116/3/5 49/3/5 
f 55/3/5 118/3/5 117/3/5 
f 55/1/5 117/1/5 52/1/5 
f 58/1/5 119/1/5 118/1/5 
f 58/3/5 118/3/5 55/3/5 
f 61/3/5 120/3/5 119/3/5 
f 61/1/5 119/1/5 58/1/5 
f 64/1/5 121/1/5 120/1/5 
f 64/3/5 120/3/5 61/3/5 
f 67/2/5 122/2/5 121/2/5 
f 67/1/5 121/1/5 64/1/5 
f 70/1/5 123/1/5 122/1/5 
f 70/2/5 122/2/5 67/2/5 
f 73/6/5 124/6/5 123/6/5 
f 73/1/5 123/1/5 70/1/5 
f 77/1/5 125/1/5 124/1/5 
f 77/6/5 124/6/5 73/6/5 
f 81/6/5 126/6/5 125/6/5 
f 81/1/5 125/1/5 77/1/5 
f 85/1/5 127/1/5 126/1/5 
f 85/6/5 126/6/5 81/6/5 
f 89/3/5 26/3/5 127/3/5 
f 89/1/5 127/1/5 85/1/5 
f 28/3/5 26/3/5 89/3/5 
f 17/1/6 45/1/6 128/1/6 
f 45/6/6 48/6/6 128/6/6 
f 48/2/6 36/2/6 129/2/6 
f 128/6/6 48/6/6 129/6/6 
f 129/2/6 36/2/6 130/2/6 
f 130/2/6 36/2/6 131/2/6 
f 131/2/6 36/2/6 132/2/6 
f 132/2/6 36/2/6 133/2/6 
f 133/2/6 36/2/6 134/2/6 
f 134/2/6 36/2/6 135/2/6 
f 135/2/6 36/2/6 136/2/6 
f 17/1/6 128/1/6 18/1/6 
f 128/5/6 129/5/6 137/5/6 
f 18/1/6 128/1/6 137/1/6 
f 129/1/6 130/1/6 138/1/6 
f 137/5/6 129/5/6 138/5/6 
f 130/2/6 131/2/6 139/2/6 
f 138/1/6 130/1/6 139/1/6 
f 131/5/6 132/5/6 140/5/6 
f 139/2/6 131/2/6 140/2/6 
f 132/2/6 133/2/6 141/2/6 
f 140/5/6 132/5/6 141/5/6 
f 133/5/6 134/5/6 142/5/6 
f 141/2/6 133/2/6 142/2/6 
f 134/2/6 135/2/6 143/2/6 
f 142/5/6 134/5/6 143/5/6 
f 135/1/6 136/1/6 144/1/6 
f 143/2/6 135/2/6 144/2/6 
f 136/2/6 36/2/6 145/2/6 
f 144/1/6 136/1/6 145/1/6 
f 18/4/6 137/4/6 19/4/6 
f 137/5/6 138/5/6 146/5/6 
f 19/4/6 137/4/6 146/4/6 
f 19/1/6 146/1/6 147/1/6 
f 146/5/6 138/5/6 147/5/6 
f 143/2/6 144/2/6 148/2/6 
f 147/5/6 138/5/6 148/5/6 
f 138/2/6 139/2/6 148/2/6 
f 144/2/6 145/2/6 148/2/6 
f 142/2/6 143/2/6 148/2/6 
f 141/2/6 142/2/6 148/2/6 
f 140/2/6 141/2/6 148/2/6 
f 139/2/6 140/2/6 148/2/6 
f 148/2/6 145/2/6 149/2/6 
f 149/2/6 145/2/6 150/2/6 
f 145/2/6 36/2/6 151/2/6 
f 150/2/6 145/2/6 151/2/6 
f 151/2/6 36/2/6 152/2/6 
f 149/1/6 150/1/6 153/1/6 
f 148/2/6 149/2/6 153/2/6 
f 150/2/6 151/2/6 154/2/6 
f 153/1/6 150/1/6 154/1/6 
f 154/2/6 151/2/6 155/2/6 
f 155/2/6 151/2/6 156/2/6 
f 151/1/6 152/1/6 157/1/6 
f 156/2/6 151/2/6 157/2/6 
f 152/2/6 36/2/6 158/2/6 
f 157/1/6 152/1/6 158/1/6 
f 155/1/6 156/1/6 159/1/6 
f 153/2/6 154/2/6 159/2/6 
f 154/2/6 155/2/6 159/2/6 
f 156/2/6 157/2/6 160/2/6 
f 159/1/6 156/1/6 160/1/6 
f 157/2/6 158/2/6 160/2/6 
f 160/2/6 158/2/6 161/2/6 
f 161/2/6 158/2/6 162/2/6 
f 19/1/6 147/1/6 20/1/6 
f 20/1/6 147/1/6 163/1/6 
f 147/6/6 148/6/6 164/6/6 
f 163/1/6 147/1/6 164/1/6 
f 153/2/6 159/2/6 165/2/6 
f 148/2/6 153/2/6 165/2/6 
f 159/2/6 160/2/6 165/2/6 
f 160/2/6 161/2/6 165/2/6 
f 165/2/6 161/2/6 166/2/6 
f 166/2/6 161/2/6 167/2/6 
f 167/2/6 161/2/6 168/2/6 
f 161/5/6 162/5/6 169/5/6 
f 168/2/6 161/2/6 169/2/6 
f 162/2/6 158/2/6 170/2/6 
f 169/5/6 162/5/6 170/5/6 
f 20/4/6 163/4/6 21/4/6 
f 163/6/6 164/6/6 171/6/6 
f 21/4/6 163/4/6 171/4/6 
f 164/6/6 148/6/6 172/6/6 
f 171/6/6 164/6/6 172/6/6 
f 148/2/6 165/2/6 173/2/6 
f 172/6/6 148/6/6 173/6/6 
f 165/5/6 166/5/6 174/5/6 
f 173/2/6 165/2/6 174/2/6 
f 166/2/6 167/2/6 175/2/6 
f 174/5/6 166/5/6 175/5/6 
f 167/5/6 168/5/6 176/5/6 
f 175/2/6 167/2/6 176/2/6 
f 168/2/6 169/2/6 177/2/6 
f 176/5/6 168/5/6 177/5/6 
f 169/2/6 170/2/6 177/2/6 
f 170/2/6 158/2/6 178/2/6 
f 177/2/6 170/2/6 178/2/6 
f 178/2/6 158/2/6 179/2/6 
f 175/2/6 176/2/6 180/2/6 
f 176/2/6 177/2/6 180/2/6 
f 174/2/6 175/2/6 180/2/6 
f 177/2/6 178/2/6 180/2/6 
f 173/2/6 174/2/6 180/2/6 
f 180/2/6 178/2/6 181/2/6 
f 178/5/6 179/5/6 182/5/6 
f 181/2/6 178/2/6 182/2/6 
f 179/2/6 158/2/6 183/2/6 
f 182/5/6 179/5/6 183/5/6 
f 158/2/6 36/2/6 184/2/6 
f 183/2/6 158/2/6 184/2/6 
f 184/2/6 36/2/6 37/2/6 
f 21/1/6 171/1/6 185/1/6 
f 172/5/6 173/5/6 185/5/6 
f 171/1/6 172/1/6 185/1/6 
f 173/2/6 180/2/6 186/2/6 
f 185/5/6 173/5/6 186/5/6 
f 186/2/6 180/2/6 187/2/6 
f 187/2/6 180/2/6 188/2/6 
f 180/1/6 181/1/6 189/1/6 
f 188/2/6 180/2/6 189/2/6 
f 181/2/6 182/2/6 190/2/6 
f 189/1/6 181/1/6 190/1/6 
f 182/2/6 183/2/6 190/2/6 
f 183/2/6 184/2/6 190/2/6 
f 184/5/6 37/5/6 191/5/6 
f 190/2/6 184/2/6 191/2/6 
f 191/5/6 37/5/6 38/5/6 
f 187/5/6 188/5/6 192/5/6 
f 186/2/6 187/2/6 192/2/6 
f 188/2/6 189/2/6 193/2/6 
f 192/5/6 188/5/6 193/5/6 
f 191/2/6 38/2/6 193/2/6 
f 190/2/6 191/2/6 193/2/6 
f 189/2/6 190/2/6 193/2/6 
f 193/2/6 38/2/6 194/2/6 
f 194/2/6 38/2/6 195/2/6 
f 21/1/6 185/1/6 22/1/6 
f 22/1/6 185/1/6 196/1/6 
f 185/6/6 186/6/6 197/6/6 
f 196/1/6 185/1/6 197/1/6 
f 186/2/6 192/2/6 198/2/6 
f 197/6/6 186/6/6 198/6/6 
f 192/2/6 193/2/6 198/2/6 
f 193/2/6 194/2/6 198/2/6 
f 194/1/6 195/1/6 199/1/6 
f 198/2/6 194/2/6 199/2/6 
f 195/2/6 38/2/6 200/2/6 
f 199/1/6 195/1/6 200/1/6 
f 22/4/6 196/4/6 23/4/6 
f 196/3/6 197/3/6 201/3/6 
f 23/4/6 196/4/6 201/4/6 
f 197/5/6 198/5/6 202/5/6 
f 201/3/6 197/3/6 202/3/6 
f 198/2/6 199/2/6 203/2/6 
f 202/5/6 198/5/6 203/5/6 
f 199/2/6 200/2/6 203/2/6 
f 203/2/6 200/2/6 204/2/6 
f 204/2/6 200/2/6 205/2/6 
f 205/2/6 200/2/6 206/2/6 
f 200/2/6 38/2/6 207/2/6 
f 206/2/6 200/2/6 207/2/6 
f 207/2/6 38/2/6 208/2/6 
f 208/2/6 38/2/6 209/2/6 
f 209/2/6 38/2/6 210/2/6 
f 210/2/6 38/2/6 211/2/6 
f 211/2/6 38/2/6 39/2/6 
f 201/1/6 202/1/6 212/1/6 
f 23/1/6 201/1/6 212/1/6 
f 202/5/6 203/5/6 212/5/6 
f 203/5/6 204/5/6 212/5/6 
f 212/5/6 204/5/6 213/5/6 
f 204/6/6 205/6/6 214/6/6 
f 213/5/6 204/5/6 214/5/6 
f 205/5/6 206/5/6 215/5/6 
f 214/6/6 205/6/6 215/6/6 
f 215/5/6 206/5/6 216/5/6 
f 206/6/6 207/6/6 217/6/6 
f 216/5/6 206/5/6 217/5/6 
f 217/6/6 207/6/6 218/6/6 
f 218/6/6 207/6/6 219/6/6 
f 207/5/6 208/5/6 220/5/6 
f 219/6/6 207/6/6 220/6/6 
f 208/6/6 209/6/6 221/6/6 
f 220/5/6 208/5/6 221/5/6 
f 221/6/6 209/6/6 222/6/6 
f 222/6/6 209/6/6 223/6/6 
f 209/5/6 210/5/6 224/5/6 
f 223/6/6 209/6/6 224/6/6 
f 224/5/6 210/5/6 225/5/6 
f 210/6/6 211/6/6 226/6/6 
f 225/5/6 210/5/6 226/5/6 
f 211/5/6 39/5/6 227/5/6 
f 226/6/6 211/6/6 227/6/6 
f 227/5/6 39/5/6 40/5/6 
f 215/1/6 216/1/6 228/1/6 
f 214/1/6 215/1/6 228/1/6 
f 216/6/6 217/6/6 228/6/6 
f 217/1/6 218/1/6 229/1/6 
f 228/6/6 217/6/6 229/6/6 
f 219/1/6 220/1/6 230/1/6 
f 220/3/6 221/3/6 230/3/6 
f 221/1/6 222/1/6 231/1/6 
f 230/3/6 221/3/6 231/3/6 
f 224/3/6 225/3/6 232/3/6 
f 223/1/6 224/1/6 232/1/6 
f 225/1/6 226/1/6 233/1/6 
f 232/3/6 225/3/6 233/3/6 
f 226/1/6 227/1/6 233/1/6 
f 227/3/6 40/3/6 234/3/6 
f 233/1/6 227/1/6 234/1/6 
f 234/3/6 40/3/6 41/3/6 
f 212/1/6 213/1/6 24/1/6 
f 23/1/6 212/1/6 24/1/6 
f 213/4/6 214/4/6 51/4/6 
f 24/1/6 213/1/6 51/1/6 
f 214/1/6 228/1/6 54/1/6 
f 51/4/6 214/4/6 54/4/6 
f 228/4/6 229/4/6 57/4/6 
f 54/1/6 228/1/6 57/1/6 
f 229/1/6 218/1/6 60/1/6 
f 57/4/6 229/4/6 60/4/6 
f 218/4/6 219/4/6 63/4/6 
f 60/1/6 218/1/6 63/1/6 
f 219/1/6 230/1/6 66/1/6 
f 63/4/6 219/4/6 66/4/6 
f 230/4/6 231/4/6 69/4/6 
f 66/1/6 230/1/6 69/1/6 
f 231/1/6 222/1/6 72/1/6 
f 69/4/6 231/4/6 72/4/6 
f 222/4/6 223/4/6 76/4/6 
f 72/1/6 222/1/6 76/1/6 
f 223/1/6 232/1/6 80/1/6 
f 76/4/6 223/4/6 80/4/6 
f 232/4/6 233/4/6 84/4/6 
f 80/1/6 232/1/6 84/1/6 
f 233/1/6 234/1/6 88/1/6 
f 84/4/6 233/4/6 88/4/6 
f 234/4/6 41/4/6 91/4/6 
f 88/1/6 234/1/6 91/1/6 
f 91/4/6 41/4/6 42/4/6 
# 0 polygons - 464 triangles

