# 3ds Max Wavefront OBJ Exporter v0.97b - (c)2007 guruware
# File Created: 15.11.2019 11:12:37

mtllib Porte_Blanche.mtl

#
# object Porte_Blanche
#

v  -0.1000 0.8500 -0.6000
v  -0.1000 0.8250 -0.7500
v  -0.1000 0.8250 -0.6000
v  -0.1000 0.8500 -0.7500
v  -0.0500 0.0500 -0.0500
v  -0.0500 0.0000 -0.8000
v  -0.0500 0.0000 0.0000
v  -0.0500 0.0500 -0.7500
v  -0.0500 0.6250 -0.7250
v  -0.0500 0.0750 -0.7250
v  -0.0500 0.0750 -0.0750
v  -0.0500 0.6250 -0.7500
v  -0.0500 0.6750 -0.7000
v  -0.0500 0.6750 -0.7500
v  -0.0500 0.7500 -0.7250
v  -0.0500 0.7500 -0.7500
v  -0.0500 0.7750 -0.7250
v  -0.0500 0.7750 -0.7500
v  -0.0500 0.8250 -0.7000
v  -0.0500 0.8250 -0.7500
v  -0.0500 0.8500 -0.7000
v  -0.0500 0.8500 -0.7500
v  -0.0500 0.9000 -0.7000
v  -0.0500 0.9000 -0.7500
v  -0.0500 0.9500 -0.7250
v  -0.0500 0.9500 -0.7500
v  -0.0500 1.6500 -0.0750
v  -0.0500 1.6500 -0.7250
v  -0.0500 1.6750 -0.0500
v  -0.0500 1.6750 -0.7500
v  -0.0500 1.7250 0.0000
v  -0.0500 1.7250 -0.8000
v  -0.0250 0.0750 -0.0750
v  -0.0250 0.0500 -0.7500
v  -0.0250 0.0500 -0.0500
v  -0.0250 0.0750 -0.7250
v  -0.0250 0.6250 -0.7250
v  -0.0250 0.6250 -0.7500
v  -0.0250 0.7750 -0.7250
v  -0.0250 0.7500 -0.7500
v  -0.0250 0.7500 -0.7250
v  -0.0250 0.7750 -0.7500
v  -0.0250 1.6500 -0.0750
v  -0.0250 1.6500 -0.7250
v  -0.0250 0.9500 -0.7500
v  -0.0250 0.9500 -0.7250
v  -0.0250 1.6750 -0.0500
v  -0.0250 1.6750 -0.7500
v  0.0750 0.8500 -0.6000
v  0.0750 0.8250 -0.7000
v  0.0750 0.8250 -0.6000
v  0.0750 0.8500 -0.7000
v  -0.0750 0.8250 -0.6000
v  -0.0750 0.8250 -0.7000
v  -0.0750 0.8500 -0.6000
v  -0.0750 0.8500 -0.7000
v  0.0250 0.0500 -0.0500
v  0.0250 0.0500 -0.7500
v  0.0250 0.0750 -0.0750
v  0.0250 0.0750 -0.7250
v  0.0250 0.6250 -0.7250
v  0.0250 0.6250 -0.7500
v  0.0250 0.7500 -0.7250
v  0.0250 0.7500 -0.7500
v  0.0250 0.7750 -0.7250
v  0.0250 0.7750 -0.7500
v  0.0250 1.6500 -0.0750
v  0.0250 0.9500 -0.7250
v  0.0250 0.9500 -0.7500
v  0.0250 1.6500 -0.7250
v  0.0250 1.6750 -0.0500
v  0.0250 1.6750 -0.7500
v  0.0500 0.0000 0.0000
v  0.0500 0.0000 -0.8000
v  0.0500 0.0500 -0.0500
v  0.0500 0.0500 -0.7500
v  0.0500 0.0750 -0.0750
v  0.0500 0.0750 -0.7250
v  0.0500 0.6250 -0.7250
v  0.0500 0.6250 -0.7500
v  0.0500 0.6750 -0.7000
v  0.0500 0.6750 -0.7500
v  0.0500 0.7500 -0.7250
v  0.0500 0.7500 -0.7500
v  0.0500 0.7750 -0.7250
v  0.0500 0.7750 -0.7500
v  0.0500 0.8250 -0.7000
v  0.0500 0.8250 -0.7500
v  0.0500 0.8500 -0.7000
v  0.0500 0.8500 -0.7500
v  0.0500 0.9000 -0.7000
v  0.0500 0.9000 -0.7500
v  0.0500 0.9500 -0.7250
v  0.0500 0.9500 -0.7500
v  0.0500 1.6500 -0.0750
v  0.0500 1.6500 -0.7250
v  0.0500 1.6750 -0.0500
v  0.0500 1.6750 -0.7500
v  0.0500 1.7250 0.0000
v  0.0500 1.7250 -0.8000
v  0.1000 0.8250 -0.6000
v  0.1000 0.8250 -0.7500
v  0.1000 0.8500 -0.6000
v  0.1000 0.8500 -0.7500
# 104 vertices

vn -1.0000 0.0000 -0.0000
vn 1.0000 0.0000 -0.0000
vn 0.0000 0.0000 1.0000
vn 0.0000 0.0000 -1.0000
vn 0.0000 -1.0000 -0.0000
vn 0.0000 1.0000 -0.0000
# 6 vertex normals

vt 0.9863 0.5000 0.0000
vt 0.9629 0.5000 0.0000
vt 0.9785 0.5000 0.0000
vt 0.9902 0.5000 0.0000
# 4 texture coords

o Porte_Blanche
g Porte_Blanche
usemtl Porte_Blanche_palette
s 1
f 1/1/1 2/1/1 3/1/1 
f 4/1/1 2/1/1 1/1/1 
f 5/2/1 6/2/1 7/2/1 
f 8/2/1 6/2/1 5/2/1 
f 9/2/1 10/2/1 11/2/1 
f 12/2/1 6/2/1 8/2/1 
f 13/2/1 9/2/1 11/2/1 
f 13/2/1 12/2/1 9/2/1 
f 14/2/1 6/2/1 12/2/1 
f 14/2/1 12/2/1 13/2/1 
f 15/3/1 14/3/1 13/3/1 
f 16/2/1 6/2/1 14/2/1 
f 16/3/1 14/3/1 15/3/1 
f 17/3/1 15/3/1 13/3/1 
f 18/2/1 6/2/1 16/2/1 
f 19/2/1 13/2/1 11/2/1 
f 19/3/1 18/3/1 17/3/1 
f 19/3/1 17/3/1 13/3/1 
f 20/2/1 6/2/1 18/2/1 
f 20/3/1 18/3/1 19/3/1 
f 21/2/1 19/2/1 11/2/1 
f 22/2/1 6/2/1 20/2/1 
f 23/2/1 21/2/1 11/2/1 
f 23/3/1 22/3/1 21/3/1 
f 24/2/1 6/2/1 22/2/1 
f 24/3/1 22/3/1 23/3/1 
f 25/2/1 24/2/1 23/2/1 
f 26/2/1 6/2/1 24/2/1 
f 26/2/1 24/2/1 25/2/1 
f 27/2/1 23/2/1 11/2/1 
f 27/2/1 25/2/1 23/2/1 
f 28/2/1 25/2/1 27/2/1 
f 29/2/1 5/2/1 7/2/1 
f 30/2/1 6/2/1 26/2/1 
f 31/2/1 29/2/1 7/2/1 
f 31/2/1 30/2/1 29/2/1 
f 32/2/1 6/2/1 30/2/1 
f 32/2/1 30/2/1 31/2/1 
f 33/2/1 34/2/1 35/2/1 
f 36/2/1 34/2/1 33/2/1 
f 37/2/1 34/2/1 36/2/1 
f 38/2/1 34/2/1 37/2/1 
f 39/4/1 40/4/1 41/4/1 
f 42/4/1 40/4/1 39/4/1 
f 43/2/1 33/2/1 35/2/1 
f 44/2/1 45/2/1 46/2/1 
f 47/2/1 43/2/1 35/2/1 
f 47/2/1 44/2/1 43/2/1 
f 48/2/1 45/2/1 44/2/1 
f 48/2/1 44/2/1 47/2/1 
f 49/1/1 50/1/1 51/1/1 
f 52/1/1 50/1/1 49/1/1 
f 53/1/2 54/1/2 55/1/2 
f 55/1/2 54/1/2 56/1/2 
f 57/2/2 58/2/2 59/2/2 
f 59/2/2 58/2/2 60/2/2 
f 60/2/2 58/2/2 61/2/2 
f 61/2/2 58/2/2 62/2/2 
f 63/4/2 64/4/2 65/4/2 
f 65/4/2 64/4/2 66/4/2 
f 57/2/2 59/2/2 67/2/2 
f 68/2/2 69/2/2 70/2/2 
f 57/2/2 67/2/2 71/2/2 
f 67/2/2 70/2/2 71/2/2 
f 70/2/2 69/2/2 72/2/2 
f 71/2/2 70/2/2 72/2/2 
f 73/2/2 74/2/2 75/2/2 
f 75/2/2 74/2/2 76/2/2 
f 77/2/2 78/2/2 79/2/2 
f 76/2/2 74/2/2 80/2/2 
f 77/2/2 79/2/2 81/2/2 
f 79/2/2 80/2/2 81/2/2 
f 80/2/2 74/2/2 82/2/2 
f 81/2/2 80/2/2 82/2/2 
f 81/3/2 82/3/2 83/3/2 
f 82/2/2 74/2/2 84/2/2 
f 83/3/2 82/3/2 84/3/2 
f 81/3/2 83/3/2 85/3/2 
f 84/2/2 74/2/2 86/2/2 
f 77/2/2 81/2/2 87/2/2 
f 85/3/2 86/3/2 87/3/2 
f 81/3/2 85/3/2 87/3/2 
f 86/2/2 74/2/2 88/2/2 
f 87/3/2 86/3/2 88/3/2 
f 77/2/2 87/2/2 89/2/2 
f 88/2/2 74/2/2 90/2/2 
f 77/2/2 89/2/2 91/2/2 
f 89/3/2 90/3/2 91/3/2 
f 90/2/2 74/2/2 92/2/2 
f 91/3/2 90/3/2 92/3/2 
f 91/2/2 92/2/2 93/2/2 
f 92/2/2 74/2/2 94/2/2 
f 93/2/2 92/2/2 94/2/2 
f 77/2/2 91/2/2 95/2/2 
f 91/2/2 93/2/2 95/2/2 
f 95/2/2 93/2/2 96/2/2 
f 73/2/2 75/2/2 97/2/2 
f 94/2/2 74/2/2 98/2/2 
f 73/2/2 97/2/2 99/2/2 
f 97/2/2 98/2/2 99/2/2 
f 98/2/2 74/2/2 100/2/2 
f 99/2/2 98/2/2 100/2/2 
f 101/1/2 102/1/2 103/1/2 
f 103/1/2 102/1/2 104/1/2 
f 73/2/3 31/2/3 7/2/3 
f 99/2/3 31/2/3 73/2/3 
f 33/2/3 27/2/3 11/2/3 
f 43/2/3 27/2/3 33/2/3 
f 77/2/3 67/2/3 59/2/3 
f 95/2/3 67/2/3 77/2/3 
f 53/1/3 1/1/3 3/1/3 
f 55/1/3 1/1/3 53/1/3 
f 101/1/3 49/1/3 51/1/3 
f 103/1/3 49/1/3 101/1/3 
f 19/1/3 56/1/3 54/1/3 
f 21/1/3 56/1/3 19/1/3 
f 50/1/3 89/1/3 87/1/3 
f 52/1/3 89/1/3 50/1/3 
f 34/2/3 12/2/3 8/2/3 
f 38/2/3 12/2/3 34/2/3 
f 40/2/3 18/2/3 16/2/3 
f 42/2/3 18/2/3 40/2/3 
f 45/2/3 30/2/3 26/2/3 
f 48/2/3 30/2/3 45/2/3 
f 76/2/3 62/2/3 58/2/3 
f 80/2/3 62/2/3 76/2/3 
f 84/2/3 66/2/3 64/2/3 
f 86/2/3 66/2/3 84/2/3 
f 94/2/3 72/2/3 69/2/3 
f 98/2/3 72/2/3 94/2/3 
f 5/2/4 29/2/4 35/2/4 
f 35/2/4 29/2/4 47/2/4 
f 57/2/4 71/2/4 75/2/4 
f 75/2/4 71/2/4 97/2/4 
f 10/2/4 9/2/4 36/2/4 
f 36/2/4 9/2/4 37/2/4 
f 15/3/4 17/3/4 41/3/4 
f 41/3/4 17/3/4 39/3/4 
f 25/2/4 28/2/4 46/2/4 
f 46/2/4 28/2/4 44/2/4 
f 60/2/4 61/2/4 78/2/4 
f 78/2/4 61/2/4 79/2/4 
f 63/3/4 65/3/4 83/3/4 
f 83/3/4 65/3/4 85/3/4 
f 68/2/4 70/2/4 93/2/4 
f 93/2/4 70/2/4 96/2/4 
f 2/1/4 4/1/4 20/1/4 
f 20/1/4 4/1/4 22/1/4 
f 88/1/4 90/1/4 102/1/4 
f 102/1/4 90/1/4 104/1/4 
f 6/2/4 32/2/4 74/2/4 
f 74/2/4 32/2/4 100/2/4 
f 6/2/5 73/2/5 7/2/5 
f 74/2/5 73/2/5 6/2/5 
f 10/2/5 33/2/5 11/2/5 
f 36/2/5 33/2/5 10/2/5 
f 60/2/5 77/2/5 59/2/5 
f 78/2/5 77/2/5 60/2/5 
f 12/2/5 37/2/5 9/2/5 
f 38/2/5 37/2/5 12/2/5 
f 62/2/5 79/2/5 61/2/5 
f 80/2/5 79/2/5 62/2/5 
f 18/3/5 39/3/5 17/3/5 
f 42/3/5 39/3/5 18/3/5 
f 66/3/5 85/3/5 65/3/5 
f 86/3/5 85/3/5 66/3/5 
f 54/1/5 53/1/5 3/1/5 
f 50/1/5 101/1/5 51/1/5 
f 2/1/5 19/1/5 54/1/5 
f 2/1/5 54/1/5 3/1/5 
f 20/1/5 19/1/5 2/1/5 
f 88/1/5 50/1/5 87/1/5 
f 102/1/5 101/1/5 50/1/5 
f 102/1/5 50/1/5 88/1/5 
f 30/2/5 47/2/5 29/2/5 
f 48/2/5 47/2/5 30/2/5 
f 72/2/5 97/2/5 71/2/5 
f 98/2/5 97/2/5 72/2/5 
f 5/2/6 35/2/6 8/2/6 
f 8/2/6 35/2/6 34/2/6 
f 57/2/6 75/2/6 58/2/6 
f 58/2/6 75/2/6 76/2/6 
f 15/3/6 41/3/6 16/3/6 
f 16/3/6 41/3/6 40/3/6 
f 63/3/6 83/3/6 64/3/6 
f 64/3/6 83/3/6 84/3/6 
f 1/1/6 55/1/6 56/1/6 
f 49/1/6 103/1/6 52/1/6 
f 56/1/6 21/1/6 4/1/6 
f 1/1/6 56/1/6 4/1/6 
f 4/1/6 21/1/6 22/1/6 
f 89/1/6 52/1/6 90/1/6 
f 52/1/6 103/1/6 104/1/6 
f 90/1/6 52/1/6 104/1/6 
f 25/2/6 46/2/6 26/2/6 
f 26/2/6 46/2/6 45/2/6 
f 68/2/6 93/2/6 69/2/6 
f 69/2/6 93/2/6 94/2/6 
f 27/2/6 43/2/6 28/2/6 
f 28/2/6 43/2/6 44/2/6 
f 67/2/6 95/2/6 70/2/6 
f 70/2/6 95/2/6 96/2/6 
f 31/2/6 99/2/6 32/2/6 
f 32/2/6 99/2/6 100/2/6 
# 0 polygons - 204 triangles

