# 3ds Max Wavefront OBJ Exporter v0.97b - (c)2007 guruware
# File Created: 05.11.2019 11:46:31

mtllib Carton fermé.mtl

#
# object Carton_fermé
#

v  0.0000 1.2000 -0.0000
v  0.0000 0.0000 -0.5000
v  0.0000 0.0000 -0.0000
v  0.0000 1.2000 -0.5000
v  0.0000 0.0000 -0.7000
v  0.0000 1.2000 -0.7000
v  0.0000 0.0000 -1.1000
v  0.0000 1.2000 -1.1000
v  1.4000 0.0000 -0.0000
v  1.4000 0.0000 -1.1000
v  1.4000 0.9000 -0.5000
v  1.4000 0.9000 -0.7000
v  1.4000 1.2000 -0.0000
v  1.4000 1.2000 -0.5000
v  1.4000 1.2000 -0.7000
v  1.4000 1.2000 -1.1000
v  0.1000 0.2000 -0.0000
v  0.1000 1.1000 -0.0000
v  0.2000 0.2000 -0.0000
v  0.2000 1.0000 -0.0000
v  0.4000 1.0000 -0.0000
v  0.4000 1.1000 -0.0000
v  0.2000 0.6000 -1.1000
v  0.2000 0.7000 -1.1000
v  0.2000 0.8000 -1.1000
v  0.2000 1.0000 -1.1000
v  0.3000 0.8000 -1.1000
v  0.3000 1.0000 -1.1000
v  0.5000 0.6000 -1.1000
v  0.5000 0.7000 -1.1000
v  0.5000 1.0000 -1.1000
v  0.9000 1.0000 -1.1000
v  0.9000 1.1000 -1.1000
v  1.0000 1.0000 -1.1000
v  1.0000 1.1000 -1.1000
v  1.1000 1.0000 -1.1000
v  1.1000 1.1000 -1.1000
v  1.2000 0.0000 -1.1000
v  1.2000 1.0000 -1.1000
v  1.3000 0.0000 -1.1000
v  1.3000 1.1000 -1.1000
v  0.1000 0.0000 -0.1000
v  1.3000 0.0000 -0.1000
v  0.2000 0.0000 -0.2000
v  1.3000 0.0000 -0.2000
v  0.1000 0.0000 -0.5000
v  0.1000 0.0000 -0.7000
v  0.1000 0.0000 -1.0000
v  0.2000 0.0000 -1.0000
v  1.2000 0.0000 -1.0000
v  1.3000 0.0000 -1.0000
# 51 vertices

vn -1.0000 0.0000 -0.0000
vn 1.0000 0.0000 -0.0000
vn 0.0000 0.0000 1.0000
vn 0.0000 0.0000 -1.0000
vn 0.0000 -1.0000 -0.0000
vn 0.0000 1.0000 -0.0000
# 6 vertex normals

vt 0.2910 0.5000 0.0000
vt 0.2832 0.5000 0.0000
vt 0.2988 0.5000 0.0000
vt 0.9121 0.5000 0.0000
vt 0.9668 0.5000 0.0000
# 5 texture coords

o Carton_fermé
g Carton_fermé
usemtl palette
s 1
f 1/1/1 2/1/1 3/1/1 
f 4/2/1 5/2/1 2/2/1 
f 4/1/1 2/1/1 1/1/1 
f 6/1/1 7/1/1 5/1/1 
f 6/2/1 5/2/1 4/2/1 
f 8/1/1 7/1/1 6/1/1 
f 9/1/2 10/1/2 11/1/2 
f 11/1/2 10/1/2 12/1/2 
f 9/1/2 11/1/2 13/1/2 
f 11/2/2 12/2/2 14/2/2 
f 13/1/2 11/1/2 14/1/2 
f 12/1/2 10/1/2 15/1/2 
f 14/2/2 12/2/2 15/2/2 
f 15/1/2 10/1/2 16/1/2 
f 17/1/3 1/1/3 3/1/3 
f 18/1/3 1/1/3 17/1/3 
f 19/1/3 17/1/3 3/1/3 
f 19/3/3 18/3/3 17/3/3 
f 20/3/3 18/3/3 19/3/3 
f 21/1/3 20/1/3 19/1/3 
f 21/3/3 18/3/3 20/3/3 
f 22/1/3 1/1/3 18/1/3 
f 22/3/3 18/3/3 21/3/3 
f 9/1/3 21/1/3 19/1/3 
f 9/1/3 19/1/3 3/1/3 
f 9/1/3 22/1/3 21/1/3 
f 13/1/3 1/1/3 22/1/3 
f 13/1/3 22/1/3 9/1/3 
f 7/1/4 8/1/4 23/1/4 
f 23/1/4 8/1/4 24/1/4 
f 24/1/4 8/1/4 25/1/4 
f 25/1/4 8/1/4 26/1/4 
f 24/4/4 25/4/4 27/4/4 
f 25/5/4 26/5/4 27/5/4 
f 26/1/4 8/1/4 28/1/4 
f 27/5/4 26/5/4 28/5/4 
f 7/1/4 23/1/4 29/1/4 
f 23/5/4 24/5/4 29/5/4 
f 27/4/4 28/4/4 30/4/4 
f 29/5/4 24/5/4 30/5/4 
f 24/4/4 27/4/4 30/4/4 
f 28/1/4 8/1/4 31/1/4 
f 30/4/4 28/4/4 31/4/4 
f 29/1/4 30/1/4 32/1/4 
f 31/1/4 8/1/4 32/1/4 
f 30/1/4 31/1/4 32/1/4 
f 32/1/4 8/1/4 33/1/4 
f 29/1/4 32/1/4 34/1/4 
f 32/3/4 33/3/4 34/3/4 
f 33/1/4 8/1/4 35/1/4 
f 34/3/4 33/3/4 35/3/4 
f 29/1/4 34/1/4 36/1/4 
f 34/1/4 35/1/4 36/1/4 
f 35/1/4 8/1/4 37/1/4 
f 36/1/4 35/1/4 37/1/4 
f 7/1/4 29/1/4 38/1/4 
f 29/1/4 36/1/4 38/1/4 
f 36/3/4 37/3/4 39/3/4 
f 38/1/4 36/1/4 39/1/4 
f 38/3/4 39/3/4 40/3/4 
f 37/1/4 8/1/4 41/1/4 
f 40/3/4 39/3/4 41/3/4 
f 39/3/4 37/3/4 41/3/4 
f 40/1/4 41/1/4 10/1/4 
f 41/1/4 8/1/4 16/1/4 
f 10/1/4 41/1/4 16/1/4 
f 42/1/5 9/1/5 3/1/5 
f 43/1/5 9/1/5 42/1/5 
f 44/3/5 43/3/5 42/3/5 
f 45/1/5 9/1/5 43/1/5 
f 45/3/5 43/3/5 44/3/5 
f 2/1/5 42/1/5 3/1/5 
f 46/3/5 44/3/5 42/3/5 
f 46/1/5 42/1/5 2/1/5 
f 5/2/5 46/2/5 2/2/5 
f 47/3/5 44/3/5 46/3/5 
f 47/2/5 46/2/5 5/2/5 
f 48/1/5 47/1/5 5/1/5 
f 48/3/5 44/3/5 47/3/5 
f 49/1/5 45/1/5 44/1/5 
f 49/3/5 44/3/5 48/3/5 
f 50/1/5 45/1/5 49/1/5 
f 51/1/5 9/1/5 45/1/5 
f 51/1/5 45/1/5 50/1/5 
f 7/1/5 50/1/5 49/1/5 
f 7/1/5 48/1/5 5/1/5 
f 7/1/5 49/1/5 48/1/5 
f 38/3/5 51/3/5 50/3/5 
f 38/1/5 50/1/5 7/1/5 
f 40/1/5 9/1/5 51/1/5 
f 40/3/5 51/3/5 38/3/5 
f 10/1/5 9/1/5 40/1/5 
f 1/1/6 13/1/6 4/1/6 
f 4/1/6 13/1/6 14/1/6 
f 4/2/6 14/2/6 6/2/6 
f 6/2/6 14/2/6 15/2/6 
f 6/1/6 15/1/6 8/1/6 
f 8/1/6 15/1/6 16/1/6 
# 0 polygons - 98 triangles

