# MagicaVoxel @ Ephtracy

# group
o 

# material
mtllib Escalier_Dalle_Bord_Gauche.mtl
usemtl palette

# normals
vn -1 0 0
vn 1 0 0
vn 0 0 1
vn 0 0 -1
vn 0 -1 0
vn 0 1 0

# texcoords
vt 0.880859 0.5
vt 0.923828 0.5
vt 0.927734 0.5

# verts
v 0 2 0
v 0 2 -0.1
v 0 2 -1.7
v 0 2.4 -0.1
v 0 2.4 -0.8
v 0 2.5 0
v 0 2.5 -0.7
v 0 2.9 -0.8
v 0 2.9 -1.5
v 0 3 -0.7
v 0 3 -1.4
v 0 3.4 -1.5
v 0 3.4 -1.7
v 0 3.5 -1.4
v 0 3.5 -1.7
v 1.4 3 -1.4
v 1.4 3 -1.5
v 1.4 3 -1.7
v 1.4 3.2 -1.5
v 1.4 3.2 -1.6
v 1.4 3.3 -1.5
v 1.4 3.3 -1.6
v 1.4 3.4 -1.5
v 1.4 3.4 -1.7
v 1.4 3.5 -1.4
v 1.4 3.5 -1.7
v 2.1 2.5 -0.7
v 2.1 2.5 -0.8
v 2.1 2.5 -0.9
v 2.1 2.5 -1.7
v 2.1 2.6 -0.9
v 2.1 2.6 -1
v 2.1 2.8 -0.9
v 2.1 2.8 -1
v 2.1 2.8 -1.4
v 2.1 2.8 -1.5
v 2.1 2.9 -0.8
v 2.1 2.9 -1.4
v 2.1 2.9 -1.5
v 2.1 2.9 -1.7
v 2.1 3 -0.7
v 2.1 3 -1.7
v 2.8 2 0
v 2.8 2 -0.1
v 2.8 2 -0.7
v 2.8 2 -0.8
v 2.8 2 -1.1
v 2.8 2 -1.3
v 2.8 2 -1.4
v 2.8 2 -1.5
v 2.8 2 -1.7
v 2.8 2.1 -0.4
v 2.8 2.1 -0.7
v 2.8 2.1 -0.8
v 2.8 2.1 -1.5
v 2.8 2.1 -1.6
v 2.8 2.2 -0.4
v 2.8 2.2 -0.6
v 2.8 2.2 -1
v 2.8 2.2 -1.1
v 2.8 2.2 -1.5
v 2.8 2.2 -1.6
v 2.8 2.3 -0.3
v 2.8 2.3 -0.5
v 2.8 2.3 -1
v 2.8 2.3 -1.3
v 2.8 2.3 -1.4
v 2.8 2.3 -1.5
v 2.8 2.4 -0.1
v 2.8 2.4 -0.3
v 2.8 2.4 -0.5
v 2.8 2.4 -0.6
v 2.8 2.4 -0.7
v 2.8 2.4 -1.7
v 2.8 2.5 0
v 2.8 2.5 -1.7
v 0 2 0
v 0 2.5 0
v 0.1 2 0
v 0.1 2.4 0
v 2.7 2 0
v 2.7 2.4 0
v 2.8 2 0
v 2.8 2.5 0
v 0 2.5 -0.7
v 0 3 -0.7
v 0.1 2.5 -0.7
v 0.1 2.9 -0.7
v 1.2 2.5 -0.7
v 1.3 2.5 -0.7
v 2 2.5 -0.7
v 2 2.9 -0.7
v 2.1 2.5 -0.7
v 2.1 3 -0.7
v 0 3 -1.4
v 0 3.5 -1.4
v 0.1 3 -1.4
v 0.1 3.1 -1.4
v 0.1 3.4 -1.4
v 0.2 3 -1.4
v 0.2 3.1 -1.4
v 0.2 3.2 -1.4
v 0.2 3.3 -1.4
v 0.5 3.1 -1.4
v 0.5 3.2 -1.4
v 0.5 3.3 -1.4
v 0.6 3.1 -1.4
v 0.6 3.2 -1.4
v 0.7 3 -1.4
v 0.7 3.2 -1.4
v 0.8 3 -1.4
v 0.8 3.2 -1.4
v 0.9 3 -1.4
v 0.9 3.1 -1.4
v 0.9 3.2 -1.4
v 0.9 3.3 -1.4
v 1 3 -1.4
v 1 3.1 -1.4
v 1 3.2 -1.4
v 1 3.3 -1.4
v 1 3.4 -1.4
v 1.1 3.3 -1.4
v 1.1 3.4 -1.4
v 1.3 3 -1.4
v 1.3 3.4 -1.4
v 1.4 3 -1.4
v 1.4 3.5 -1.4
v 0 2 -1.7
v 0 3.4 -1.7
v 0 3.5 -1.7
v 0.1 3.4 -1.7
v 0.1 3.5 -1.7
v 1.1 3.4 -1.7
v 1.1 3.5 -1.7
v 1.2 3.4 -1.7
v 1.2 3.5 -1.7
v 1.3 3.4 -1.7
v 1.3 3.5 -1.7
v 1.4 3 -1.7
v 1.4 3.4 -1.7
v 1.4 3.5 -1.7
v 1.8 2.9 -1.7
v 1.8 3 -1.7
v 1.9 2.9 -1.7
v 1.9 3 -1.7
v 2 2.9 -1.7
v 2 3 -1.7
v 2.1 2.5 -1.7
v 2.1 2.9 -1.7
v 2.1 3 -1.7
v 2.7 2.4 -1.7
v 2.7 2.5 -1.7
v 2.8 2 -1.7
v 2.8 2.4 -1.7
v 2.8 2.5 -1.7
v 0 2 0
v 0.1 2 0
v 2.7 2 0
v 2.8 2 0
v 0 2 -0.1
v 0.1 2 -0.1
v 2.7 2 -0.1
v 2.8 2 -0.1
v 2.7 2 -0.7
v 2.8 2 -0.7
v 2.7 2 -0.8
v 2.8 2 -0.8
v 2.7 2 -1.1
v 2.8 2 -1.1
v 2.7 2 -1.3
v 2.8 2 -1.3
v 2.7 2 -1.4
v 2.8 2 -1.4
v 2.7 2 -1.5
v 2.8 2 -1.5
v 0 2 -1.7
v 2.8 2 -1.7
v 0 2.5 0
v 2.8 2.5 0
v 0.1 2.5 -0.1
v 0.4 2.5 -0.1
v 0.5 2.5 -0.1
v 2.4 2.5 -0.1
v 2.6 2.5 -0.1
v 2.7 2.5 -0.1
v 0.4 2.5 -0.2
v 0.5 2.5 -0.2
v 1.1 2.5 -0.2
v 1.2 2.5 -0.2
v 2 2.5 -0.2
v 2.2 2.5 -0.2
v 2.3 2.5 -0.2
v 2.4 2.5 -0.2
v 0.1 2.5 -0.3
v 0.2 2.5 -0.3
v 1.1 2.5 -0.3
v 1.2 2.5 -0.3
v 1.5 2.5 -0.3
v 1.6 2.5 -0.3
v 2 2.5 -0.3
v 2.1 2.5 -0.3
v 2.2 2.5 -0.3
v 2.3 2.5 -0.3
v 2.5 2.5 -0.3
v 0.1 2.5 -0.4
v 0.2 2.5 -0.4
v 2.4 2.5 -0.4
v 2.5 2.5 -0.4
v 2.6 2.5 -0.4
v 0.9 2.5 -0.5
v 1 2.5 -0.5
v 1.2 2.5 -0.5
v 1.4 2.5 -0.5
v 1.5 2.5 -0.5
v 1.6 2.5 -0.5
v 2.1 2.5 -0.5
v 2.3 2.5 -0.5
v 2.4 2.5 -0.5
v 2.5 2.5 -0.5
v 0.9 2.5 -0.6
v 1 2.5 -0.6
v 1.3 2.5 -0.6
v 1.4 2.5 -0.6
v 2.3 2.5 -0.6
v 2.4 2.5 -0.6
v 0 2.5 -0.7
v 0.1 2.5 -0.7
v 1.2 2.5 -0.7
v 1.3 2.5 -0.7
v 2 2.5 -0.7
v 2.1 2.5 -0.7
v 2.3 2.5 -0.7
v 2.4 2.5 -0.7
v 2.1 2.5 -0.8
v 2.2 2.5 -0.8
v 2.1 2.5 -0.9
v 2.2 2.5 -0.9
v 2.5 2.5 -1.1
v 2.6 2.5 -1.1
v 2.5 2.5 -1.2
v 2.6 2.5 -1.2
v 2.3 2.5 -1.4
v 2.4 2.5 -1.4
v 2.2 2.5 -1.5
v 2.3 2.5 -1.5
v 2.4 2.5 -1.5
v 2.5 2.5 -1.5
v 2.6 2.5 -1.5
v 2.2 2.5 -1.6
v 2.3 2.5 -1.6
v 2.5 2.5 -1.6
v 2.6 2.5 -1.6
v 2.1 2.5 -1.7
v 2.7 2.5 -1.7
v 2.8 2.5 -1.7
v 0 3 -0.7
v 2.1 3 -0.7
v 0.1 3 -0.8
v 0.3 3 -0.8
v 0.4 3 -0.8
v 1.4 3 -0.8
v 1.5 3 -0.8
v 2 3 -0.8
v 0.1 3 -0.9
v 0.3 3 -0.9
v 0.4 3 -0.9
v 1.4 3 -0.9
v 1.5 3 -0.9
v 1.8 3 -0.9
v 2 3 -0.9
v 0.1 3 -1
v 0.3 3 -1
v 1.9 3 -1
v 2 3 -1
v 0.2 3 -1.1
v 0.3 3 -1.1
v 1 3 -1.1
v 1.1 3 -1.1
v 1.8 3 -1.1
v 1.9 3 -1.1
v 2 3 -1.1
v 1 3 -1.2
v 1.1 3 -1.2
v 1.5 3 -1.2
v 1.6 3 -1.2
v 1.9 3 -1.2
v 2 3 -1.2
v 0.2 3 -1.3
v 0.3 3 -1.3
v 0.8 3 -1.3
v 0.9 3 -1.3
v 1.5 3 -1.3
v 1.6 3 -1.3
v 0 3 -1.4
v 0.1 3 -1.4
v 0.2 3 -1.4
v 0.7 3 -1.4
v 0.8 3 -1.4
v 0.9 3 -1.4
v 1 3 -1.4
v 1.3 3 -1.4
v 1.4 3 -1.4
v 1.4 3 -1.5
v 1.5 3 -1.5
v 1.7 3 -1.5
v 1.5 3 -1.6
v 1.7 3 -1.6
v 1.8 3 -1.6
v 1.9 3 -1.6
v 1.4 3 -1.7
v 1.8 3 -1.7
v 1.9 3 -1.7
v 2 3 -1.7
v 2.1 3 -1.7
v 0 3.5 -1.4
v 1.4 3.5 -1.4
v 0.1 3.5 -1.5
v 0.4 3.5 -1.5
v 0.5 3.5 -1.5
v 1.3 3.5 -1.5
v 0.4 3.5 -1.6
v 0.5 3.5 -1.6
v 1.1 3.5 -1.6
v 1.2 3.5 -1.6
v 0 3.5 -1.7
v 0.1 3.5 -1.7
v 1.1 3.5 -1.7
v 1.2 3.5 -1.7
v 1.3 3.5 -1.7
v 1.4 3.5 -1.7

# faces
f 4/3/1 2/3/1 1/3/1
f 4/2/1 3/2/1 2/2/1
f 5/2/1 3/2/1 4/2/1
f 6/3/1 4/3/1 1/3/1
f 6/3/1 5/3/1 4/3/1
f 7/3/1 5/3/1 6/3/1
f 8/2/1 3/2/1 5/2/1
f 8/3/1 5/3/1 7/3/1
f 9/2/1 3/2/1 8/2/1
f 10/3/1 8/3/1 7/3/1
f 10/3/1 9/3/1 8/3/1
f 11/3/1 9/3/1 10/3/1
f 12/2/1 3/2/1 9/2/1
f 12/3/1 9/3/1 11/3/1
f 13/2/1 3/2/1 12/2/1
f 14/3/1 12/3/1 11/3/1
f 14/3/1 13/3/1 12/3/1
f 15/3/1 13/3/1 14/3/1
f 16/3/2 17/3/2 19/3/2
f 17/2/2 18/2/2 19/2/2
f 19/2/2 18/2/2 20/2/2
f 16/3/2 19/3/2 21/3/2
f 19/1/2 20/1/2 21/1/2
f 20/2/2 18/2/2 22/2/2
f 21/1/2 20/1/2 22/1/2
f 16/3/2 21/3/2 23/3/2
f 21/2/2 22/2/2 23/2/2
f 22/2/2 18/2/2 24/2/2
f 23/2/2 22/2/2 24/2/2
f 16/3/2 23/3/2 25/3/2
f 23/3/2 24/3/2 25/3/2
f 25/3/2 24/3/2 26/3/2
f 28/2/2 29/2/2 31/2/2
f 29/2/2 30/2/2 31/2/2
f 31/2/2 30/2/2 32/2/2
f 28/2/2 31/2/2 33/2/2
f 31/1/2 32/1/2 33/1/2
f 32/2/2 30/2/2 34/2/2
f 33/1/2 32/1/2 34/1/2
f 34/2/2 30/2/2 35/2/2
f 35/2/2 30/2/2 36/2/2
f 27/3/2 28/3/2 37/3/2
f 28/2/2 33/2/2 37/2/2
f 33/2/2 34/2/2 37/2/2
f 34/2/2 35/2/2 37/2/2
f 35/1/2 36/1/2 38/1/2
f 37/2/2 35/2/2 38/2/2
f 36/2/2 30/2/2 39/2/2
f 38/1/2 36/1/2 39/1/2
f 39/2/2 30/2/2 40/2/2
f 37/3/2 38/3/2 41/3/2
f 27/3/2 37/3/2 41/3/2
f 39/3/2 40/3/2 41/3/2
f 38/3/2 39/3/2 41/3/2
f 41/3/2 40/3/2 42/3/2
f 44/2/2 45/2/2 52/2/2
f 45/1/2 46/1/2 53/1/2
f 52/2/2 45/2/2 53/2/2
f 46/2/2 47/2/2 54/2/2
f 53/1/2 46/1/2 54/1/2
f 50/2/2 51/2/2 55/2/2
f 49/1/2 50/1/2 55/1/2
f 55/2/2 51/2/2 56/2/2
f 44/2/2 52/2/2 57/2/2
f 52/1/2 53/1/2 57/1/2
f 57/1/2 53/1/2 58/1/2
f 54/2/2 47/2/2 59/2/2
f 53/2/2 54/2/2 59/2/2
f 47/1/2 48/1/2 60/1/2
f 59/2/2 47/2/2 60/2/2
f 55/1/2 56/1/2 61/1/2
f 49/1/2 55/1/2 61/1/2
f 56/2/2 51/2/2 62/2/2
f 61/1/2 56/1/2 62/1/2
f 57/2/2 58/2/2 63/2/2
f 44/2/2 57/2/2 63/2/2
f 63/2/2 58/2/2 64/2/2
f 53/2/2 59/2/2 65/2/2
f 59/1/2 60/1/2 65/1/2
f 60/1/2 48/1/2 66/1/2
f 65/1/2 60/1/2 66/1/2
f 48/2/2 49/2/2 66/2/2
f 49/1/2 61/1/2 67/1/2
f 66/2/2 49/2/2 67/2/2
f 61/2/2 62/2/2 68/2/2
f 67/1/2 61/1/2 68/1/2
f 43/3/2 44/3/2 69/3/2
f 44/2/2 63/2/2 69/2/2
f 63/1/2 64/1/2 70/1/2
f 69/2/2 63/2/2 70/2/2
f 64/2/2 58/2/2 71/2/2
f 70/1/2 64/1/2 71/1/2
f 58/1/2 53/1/2 72/1/2
f 71/2/2 58/2/2 72/2/2
f 65/2/2 66/2/2 73/2/2
f 72/1/2 53/1/2 73/1/2
f 53/2/2 65/2/2 73/2/2
f 66/2/2 67/2/2 73/2/2
f 67/2/2 68/2/2 73/2/2
f 68/2/2 62/2/2 74/2/2
f 73/2/2 68/2/2 74/2/2
f 62/2/2 51/2/2 74/2/2
f 72/3/2 73/3/2 75/3/2
f 70/3/2 71/3/2 75/3/2
f 73/3/2 74/3/2 75/3/2
f 69/3/2 70/3/2 75/3/2
f 43/3/2 69/3/2 75/3/2
f 71/3/2 72/3/2 75/3/2
f 75/3/2 74/3/2 76/3/2
f 79/3/3 78/3/3 77/3/3
f 80/3/3 78/3/3 79/3/3
f 81/2/3 80/2/3 79/2/3
f 82/3/3 78/3/3 80/3/3
f 82/2/3 80/2/3 81/2/3
f 83/3/3 82/3/3 81/3/3
f 84/3/3 78/3/3 82/3/3
f 84/3/3 82/3/3 83/3/3
f 87/3/3 86/3/3 85/3/3
f 88/3/3 86/3/3 87/3/3
f 89/2/3 88/2/3 87/2/3
f 90/2/3 88/2/3 89/2/3
f 91/2/3 88/2/3 90/2/3
f 92/3/3 86/3/3 88/3/3
f 92/2/3 88/2/3 91/2/3
f 93/3/3 92/3/3 91/3/3
f 94/3/3 86/3/3 92/3/3
f 94/3/3 92/3/3 93/3/3
f 97/3/3 96/3/3 95/3/3
f 98/3/3 96/3/3 97/3/3
f 99/3/3 96/3/3 98/3/3
f 100/1/3 98/1/3 97/1/3
f 101/2/3 99/2/3 98/2/3
f 101/1/3 98/1/3 100/1/3
f 102/2/3 99/2/3 101/2/3
f 103/2/3 99/2/3 102/2/3
f 104/2/3 101/2/3 100/2/3
f 104/2/3 102/2/3 101/2/3
f 105/1/3 103/1/3 102/1/3
f 105/2/3 102/2/3 104/2/3
f 106/2/3 99/2/3 103/2/3
f 106/1/3 103/1/3 105/1/3
f 107/1/3 105/1/3 104/1/3
f 107/2/3 104/2/3 100/2/3
f 108/2/3 106/2/3 105/2/3
f 108/1/3 105/1/3 107/1/3
f 109/2/3 107/2/3 100/2/3
f 109/2/3 108/2/3 107/2/3
f 110/2/3 106/2/3 108/2/3
f 110/2/3 108/2/3 109/2/3
f 111/1/3 110/1/3 109/1/3
f 112/2/3 106/2/3 110/2/3
f 112/1/3 110/1/3 111/1/3
f 113/2/3 112/2/3 111/2/3
f 114/2/3 112/2/3 113/2/3
f 115/2/3 106/2/3 112/2/3
f 115/2/3 112/2/3 114/2/3
f 116/2/3 99/2/3 106/2/3
f 116/2/3 106/2/3 115/2/3
f 117/1/3 114/1/3 113/1/3
f 118/2/3 115/2/3 114/2/3
f 118/1/3 114/1/3 117/1/3
f 119/1/3 116/1/3 115/1/3
f 119/2/3 115/2/3 118/2/3
f 120/2/3 99/2/3 116/2/3
f 120/1/3 116/1/3 119/1/3
f 121/3/3 96/3/3 99/3/3
f 121/2/3 99/2/3 120/2/3
f 122/2/3 120/2/3 119/2/3
f 122/2/3 119/2/3 118/2/3
f 122/1/3 121/1/3 120/1/3
f 122/2/3 118/2/3 117/2/3
f 123/3/3 96/3/3 121/3/3
f 123/1/3 121/1/3 122/1/3
f 124/2/3 122/2/3 117/2/3
f 124/2/3 123/2/3 122/2/3
f 125/3/3 96/3/3 123/3/3
f 125/2/3 123/2/3 124/2/3
f 126/3/3 125/3/3 124/3/3
f 127/3/3 96/3/3 125/3/3
f 127/3/3 125/3/3 126/3/3
f 128/2/4 129/2/4 131/2/4
f 129/3/4 130/3/4 131/3/4
f 131/3/4 130/3/4 132/3/4
f 128/2/4 131/2/4 133/2/4
f 131/2/4 132/2/4 133/2/4
f 133/2/4 132/2/4 134/2/4
f 128/2/4 133/2/4 135/2/4
f 133/1/4 134/1/4 135/1/4
f 135/1/4 134/1/4 136/1/4
f 128/2/4 135/2/4 137/2/4
f 135/2/4 136/2/4 137/2/4
f 137/2/4 136/2/4 138/2/4
f 128/2/4 137/2/4 139/2/4
f 137/3/4 138/3/4 140/3/4
f 139/2/4 137/2/4 140/2/4
f 140/3/4 138/3/4 141/3/4
f 128/2/4 139/2/4 142/2/4
f 142/2/4 139/2/4 143/2/4
f 128/2/4 142/2/4 144/2/4
f 142/1/4 143/1/4 144/1/4
f 144/1/4 143/1/4 145/1/4
f 128/2/4 144/2/4 146/2/4
f 144/2/4 145/2/4 146/2/4
f 146/2/4 145/2/4 147/2/4
f 128/2/4 146/2/4 148/2/4
f 146/3/4 147/3/4 149/3/4
f 148/2/4 146/2/4 149/2/4
f 149/3/4 147/3/4 150/3/4
f 128/2/4 148/2/4 151/2/4
f 151/2/4 148/2/4 152/2/4
f 128/2/4 151/2/4 153/2/4
f 151/3/4 152/3/4 154/3/4
f 153/2/4 151/2/4 154/2/4
f 154/3/4 152/3/4 155/3/4
f 160/3/5 157/3/5 156/3/5
f 161/2/5 158/2/5 157/2/5
f 161/3/5 157/3/5 160/3/5
f 162/3/5 159/3/5 158/3/5
f 162/2/5 158/2/5 161/2/5
f 163/3/5 159/3/5 162/3/5
f 164/2/5 161/2/5 160/2/5
f 164/2/5 162/2/5 161/2/5
f 164/2/5 163/2/5 162/2/5
f 165/2/5 163/2/5 164/2/5
f 166/2/5 164/2/5 160/2/5
f 166/1/5 165/1/5 164/1/5
f 167/1/5 165/1/5 166/1/5
f 168/2/5 166/2/5 160/2/5
f 168/2/5 167/2/5 166/2/5
f 169/2/5 167/2/5 168/2/5
f 170/2/5 168/2/5 160/2/5
f 170/1/5 169/1/5 168/1/5
f 171/1/5 169/1/5 170/1/5
f 172/2/5 170/2/5 160/2/5
f 172/2/5 171/2/5 170/2/5
f 173/2/5 171/2/5 172/2/5
f 174/2/5 172/2/5 160/2/5
f 174/1/5 173/1/5 172/1/5
f 175/1/5 173/1/5 174/1/5
f 176/2/5 174/2/5 160/2/5
f 176/2/5 175/2/5 174/2/5
f 177/2/5 175/2/5 176/2/5
f 178/3/6 179/3/6 180/3/6
f 180/3/6 179/3/6 181/3/6
f 181/3/6 179/3/6 182/3/6
f 182/3/6 179/3/6 183/3/6
f 183/3/6 179/3/6 184/3/6
f 184/3/6 179/3/6 185/3/6
f 180/2/6 181/2/6 186/2/6
f 181/1/6 182/1/6 186/1/6
f 182/2/6 183/2/6 187/2/6
f 186/1/6 182/1/6 187/1/6
f 187/2/6 183/2/6 188/2/6
f 188/2/6 183/2/6 189/2/6
f 189/2/6 183/2/6 190/2/6
f 190/2/6 183/2/6 191/2/6
f 191/2/6 183/2/6 192/2/6
f 183/1/6 184/1/6 193/1/6
f 192/2/6 183/2/6 193/2/6
f 178/3/6 180/3/6 194/3/6
f 180/2/6 186/2/6 194/2/6
f 186/2/6 187/2/6 194/2/6
f 187/2/6 188/2/6 194/2/6
f 194/2/6 188/2/6 195/2/6
f 188/1/6 189/1/6 196/1/6
f 195/2/6 188/2/6 196/2/6
f 189/2/6 190/2/6 197/2/6
f 196/1/6 189/1/6 197/1/6
f 197/2/6 190/2/6 198/2/6
f 198/2/6 190/2/6 199/2/6
f 190/1/6 191/1/6 200/1/6
f 199/2/6 190/2/6 200/2/6
f 200/1/6 191/1/6 201/1/6
f 191/2/6 192/2/6 202/2/6
f 201/1/6 191/1/6 202/1/6
f 192/1/6 193/1/6 203/1/6
f 202/2/6 192/2/6 203/2/6
f 193/1/6 184/1/6 204/1/6
f 203/1/6 193/1/6 204/1/6
f 194/1/6 195/1/6 205/1/6
f 178/3/6 194/3/6 205/3/6
f 195/2/6 196/2/6 206/2/6
f 205/1/6 195/1/6 206/1/6
f 196/2/6 197/2/6 206/2/6
f 197/2/6 198/2/6 206/2/6
f 203/2/6 204/2/6 207/2/6
f 204/1/6 184/1/6 208/1/6
f 207/2/6 204/2/6 208/2/6
f 184/2/6 185/2/6 209/2/6
f 208/1/6 184/1/6 209/1/6
f 206/2/6 198/2/6 210/2/6
f 205/2/6 206/2/6 210/2/6
f 210/2/6 198/2/6 211/2/6
f 211/2/6 198/2/6 212/2/6
f 212/2/6 198/2/6 213/2/6
f 198/1/6 199/1/6 214/1/6
f 213/2/6 198/2/6 214/2/6
f 200/2/6 201/2/6 215/2/6
f 214/1/6 199/1/6 215/1/6
f 199/2/6 200/2/6 215/2/6
f 202/1/6 203/1/6 216/1/6
f 215/2/6 201/2/6 216/2/6
f 201/1/6 202/1/6 216/1/6
f 203/2/6 207/2/6 217/2/6
f 216/1/6 203/1/6 217/1/6
f 207/1/6 208/1/6 218/1/6
f 217/2/6 207/2/6 218/2/6
f 208/2/6 209/2/6 219/2/6
f 218/1/6 208/1/6 219/1/6
f 210/1/6 211/1/6 220/1/6
f 205/2/6 210/2/6 220/2/6
f 211/2/6 212/2/6 221/2/6
f 220/1/6 211/1/6 221/1/6
f 212/1/6 213/1/6 222/1/6
f 214/2/6 215/2/6 223/2/6
f 222/1/6 213/1/6 223/1/6
f 216/2/6 217/2/6 223/2/6
f 213/2/6 214/2/6 223/2/6
f 218/2/6 219/2/6 223/2/6
f 217/2/6 218/2/6 223/2/6
f 215/2/6 216/2/6 223/2/6
f 223/2/6 219/2/6 224/2/6
f 224/2/6 219/2/6 225/2/6
f 178/3/6 205/3/6 226/3/6
f 220/2/6 221/2/6 227/2/6
f 226/3/6 205/3/6 227/3/6
f 205/2/6 220/2/6 227/2/6
f 212/1/6 222/1/6 228/1/6
f 227/2/6 221/2/6 228/2/6
f 221/2/6 212/2/6 228/2/6
f 223/2/6 224/2/6 229/2/6
f 228/1/6 222/1/6 229/1/6
f 222/2/6 223/2/6 229/2/6
f 229/2/6 224/2/6 230/2/6
f 230/2/6 224/2/6 231/2/6
f 224/1/6 225/1/6 232/1/6
f 231/2/6 224/2/6 232/2/6
f 225/2/6 219/2/6 233/2/6
f 232/1/6 225/1/6 233/1/6
f 232/2/6 233/2/6 234/2/6
f 231/2/6 232/2/6 234/2/6
f 234/2/6 233/2/6 235/2/6
f 234/1/6 235/1/6 236/1/6
f 235/2/6 233/2/6 237/2/6
f 236/1/6 235/1/6 237/1/6
f 233/2/6 219/2/6 238/2/6
f 237/2/6 233/2/6 238/2/6
f 236/2/6 237/2/6 238/2/6
f 219/2/6 209/2/6 238/2/6
f 209/2/6 185/2/6 239/2/6
f 238/2/6 209/2/6 239/2/6
f 236/2/6 238/2/6 240/2/6
f 238/1/6 239/1/6 240/1/6
f 239/2/6 185/2/6 241/2/6
f 240/1/6 239/1/6 241/1/6
f 236/2/6 240/2/6 242/2/6
f 240/2/6 241/2/6 242/2/6
f 242/2/6 241/2/6 243/2/6
f 236/2/6 242/2/6 244/2/6
f 242/1/6 243/1/6 245/1/6
f 244/2/6 242/2/6 245/2/6
f 243/2/6 241/2/6 246/2/6
f 245/1/6 243/1/6 246/1/6
f 246/2/6 241/2/6 247/2/6
f 241/2/6 185/2/6 248/2/6
f 247/2/6 241/2/6 248/2/6
f 244/1/6 245/1/6 249/1/6
f 236/2/6 244/2/6 249/2/6
f 246/2/6 247/2/6 250/2/6
f 249/1/6 245/1/6 250/1/6
f 245/2/6 246/2/6 250/2/6
f 247/1/6 248/1/6 251/1/6
f 250/2/6 247/2/6 251/2/6
f 248/2/6 185/2/6 252/2/6
f 251/1/6 248/1/6 252/1/6
f 236/2/6 249/2/6 253/2/6
f 250/2/6 251/2/6 253/2/6
f 251/2/6 252/2/6 253/2/6
f 249/2/6 250/2/6 253/2/6
f 185/3/6 179/3/6 254/3/6
f 253/2/6 252/2/6 254/2/6
f 252/2/6 185/2/6 254/2/6
f 254/3/6 179/3/6 255/3/6
f 256/3/6 257/3/6 258/3/6
f 258/3/6 257/3/6 259/3/6
f 259/3/6 257/3/6 260/3/6
f 260/3/6 257/3/6 261/3/6
f 261/3/6 257/3/6 262/3/6
f 262/3/6 257/3/6 263/3/6
f 256/3/6 258/3/6 264/3/6
f 258/2/6 259/2/6 264/2/6
f 259/1/6 260/1/6 265/1/6
f 264/2/6 259/2/6 265/2/6
f 260/2/6 261/2/6 266/2/6
f 265/1/6 260/1/6 266/1/6
f 261/1/6 262/1/6 267/1/6
f 266/2/6 261/2/6 267/2/6
f 262/2/6 263/2/6 268/2/6
f 267/1/6 262/1/6 268/1/6
f 268/2/6 263/2/6 269/2/6
f 263/3/6 257/3/6 270/3/6
f 269/2/6 263/2/6 270/2/6
f 256/3/6 264/3/6 271/3/6
f 264/1/6 265/1/6 271/1/6
f 268/2/6 269/2/6 272/2/6
f 271/1/6 265/1/6 272/1/6
f 266/2/6 267/2/6 272/2/6
f 267/2/6 268/2/6 272/2/6
f 265/2/6 266/2/6 272/2/6
f 269/1/6 270/1/6 273/1/6
f 270/3/6 257/3/6 274/3/6
f 273/1/6 270/1/6 274/1/6
f 271/2/6 272/2/6 275/2/6
f 272/2/6 269/2/6 276/2/6
f 275/2/6 272/2/6 276/2/6
f 276/2/6 269/2/6 277/2/6
f 277/2/6 269/2/6 278/2/6
f 269/1/6 273/1/6 279/1/6
f 278/2/6 269/2/6 279/2/6
f 273/2/6 274/2/6 280/2/6
f 279/1/6 273/1/6 280/1/6
f 274/3/6 257/3/6 281/3/6
f 280/2/6 274/2/6 281/2/6
f 277/1/6 278/1/6 282/1/6
f 276/2/6 277/2/6 282/2/6
f 279/2/6 280/2/6 283/2/6
f 282/1/6 278/1/6 283/1/6
f 278/2/6 279/2/6 283/2/6
f 283/2/6 280/2/6 284/2/6
f 284/2/6 280/2/6 285/2/6
f 280/1/6 281/1/6 286/1/6
f 285/2/6 280/2/6 286/2/6
f 281/3/6 257/3/6 287/3/6
f 286/1/6 281/1/6 287/1/6
f 271/2/6 275/2/6 288/2/6
f 275/1/6 276/1/6 288/1/6
f 276/2/6 282/2/6 289/2/6
f 288/1/6 276/1/6 289/1/6
f 282/2/6 283/2/6 289/2/6
f 283/2/6 284/2/6 289/2/6
f 289/2/6 284/2/6 290/2/6
f 290/2/6 284/2/6 291/2/6
f 284/1/6 285/1/6 292/1/6
f 291/2/6 284/2/6 292/2/6
f 285/2/6 286/2/6 293/2/6
f 292/1/6 285/1/6 293/1/6
f 286/2/6 287/2/6 293/2/6
f 256/3/6 271/3/6 294/3/6
f 271/2/6 288/2/6 295/2/6
f 294/3/6 271/3/6 295/3/6
f 289/2/6 290/2/6 295/2/6
f 288/2/6 289/2/6 295/2/6
f 295/2/6 290/2/6 296/2/6
f 296/2/6 290/2/6 297/2/6
f 290/1/6 291/1/6 298/1/6
f 297/2/6 290/2/6 298/2/6
f 291/2/6 292/2/6 299/2/6
f 298/1/6 291/1/6 299/1/6
f 292/2/6 293/2/6 299/2/6
f 299/2/6 293/2/6 300/2/6
f 300/2/6 293/2/6 301/2/6
f 301/2/6 293/2/6 302/2/6
f 302/2/6 293/2/6 303/2/6
f 303/2/6 293/2/6 304/2/6
f 293/2/6 287/2/6 305/2/6
f 304/2/6 293/2/6 305/2/6
f 303/2/6 304/2/6 306/2/6
f 304/1/6 305/1/6 306/1/6
f 305/2/6 287/2/6 307/2/6
f 306/1/6 305/1/6 307/1/6
f 307/2/6 287/2/6 308/2/6
f 308/2/6 287/2/6 309/2/6
f 303/2/6 306/2/6 310/2/6
f 306/2/6 307/2/6 310/2/6
f 307/2/6 308/2/6 310/2/6
f 308/1/6 309/1/6 311/1/6
f 310/2/6 308/2/6 311/2/6
f 309/2/6 287/2/6 312/2/6
f 311/1/6 309/1/6 312/1/6
f 287/3/6 257/3/6 313/3/6
f 312/2/6 287/2/6 313/2/6
f 313/3/6 257/3/6 314/3/6
f 315/3/6 316/3/6 317/3/6
f 317/3/6 316/3/6 318/3/6
f 318/3/6 316/3/6 319/3/6
f 319/3/6 316/3/6 320/3/6
f 317/2/6 318/2/6 321/2/6
f 318/1/6 319/1/6 321/1/6
f 319/2/6 320/2/6 322/2/6
f 321/1/6 319/1/6 322/1/6
f 322/2/6 320/2/6 323/2/6
f 323/2/6 320/2/6 324/2/6
f 315/3/6 317/3/6 325/3/6
f 317/2/6 321/2/6 326/2/6
f 325/3/6 317/3/6 326/3/6
f 321/2/6 322/2/6 326/2/6
f 322/2/6 323/2/6 326/2/6
f 323/1/6 324/1/6 327/1/6
f 326/2/6 323/2/6 327/2/6
f 324/2/6 320/2/6 328/2/6
f 327/1/6 324/1/6 328/1/6
f 320/3/6 316/3/6 329/3/6
f 328/2/6 320/2/6 329/2/6
f 329/3/6 316/3/6 330/3/6
