# MagicaVoxel @ Ephtracy

# group
o 

# material
mtllib Alarme_Gyrophare.mtl
usemtl palette

# normals
vn -1 0 0
vn 1 0 0
vn 0 0 1
vn 0 0 -1
vn 0 -1 0
vn 0 1 0

# texcoords
vt 0.166016 0.5
vt 0.427734 0.5
vt 0.775391 0.5
vt 0.923828 0.5
vt 0.974609 0.5
vt 0.986328 0.5
vt 0.990234 0.5

# verts
v 0 2 0
v 0 2 -0.4
v 0 2.6 0
v 0 2.6 -0.1
v 0 2.6 -0.2
v 0 2.6 -0.3
v 0 2.6 -0.4
v 0 3.2 -0.3
v 0 3.2 -0.7
v 0 3.3 -0.1
v 0 3.3 -0.2
v 0 3.3 -0.7
v 0 3.3 -0.8
v 0 3.4 -0.2
v 0 3.4 -0.6
v 0 3.7 -0.5
v 0 3.7 -0.6
v 0 3.7 -0.7
v 0 3.7 -0.8
v 0 3.7 -0.9
v 0 3.8 -0.4
v 0 3.8 -0.5
v 0 3.8 -0.6
v 0 3.8 -0.8
v 0 3.8 -0.9
v 0 3.8 -1
v 0 3.9 -0.5
v 0 3.9 -0.6
v 0 3.9 -0.8
v 0 3.9 -0.9
v 0 4.1 -0.5
v 0 4.1 -0.6
v 0 4.1 -0.8
v 0 4.1 -0.9
v 0 4.2 -0.4
v 0 4.2 -0.5
v 0 4.2 -0.6
v 0 4.2 -0.8
v 0 4.2 -0.9
v 0 4.2 -1
v 0 4.3 -0.5
v 0 4.3 -0.9
v 0.1 2.6 -0.1
v 0.1 2.6 -0.2
v 0.1 2.6 -0.3
v 0.1 3.2 -0.3
v 0.1 3.2 -0.7
v 0.1 3.3 -0.1
v 0.1 3.3 -0.2
v 0.1 3.3 -0.7
v 0.1 3.3 -0.8
v 0.1 3.4 -0.2
v 0.1 3.4 -0.6
v 0.1 3.7 -0.5
v 0.1 3.7 -0.6
v 0.1 3.7 -0.7
v 0.1 3.7 -0.8
v 0.1 3.7 -0.9
v 0.1 3.8 -0.4
v 0.1 3.8 -0.5
v 0.1 3.8 -0.6
v 0.1 3.8 -0.8
v 0.1 3.8 -0.9
v 0.1 3.8 -1
v 0.1 3.9 -0.5
v 0.1 3.9 -0.6
v 0.1 3.9 -0.7
v 0.1 3.9 -0.8
v 0.1 3.9 -0.9
v 0.1 4 -0.6
v 0.1 4 -0.7
v 0.1 4 -0.8
v 0.1 4.1 -0.5
v 0.1 4.1 -0.6
v 0.1 4.1 -0.7
v 0.1 4.1 -0.8
v 0.1 4.1 -0.9
v 0.1 4.2 -0.4
v 0.1 4.2 -0.5
v 0.1 4.2 -0.6
v 0.1 4.2 -0.8
v 0.1 4.2 -0.9
v 0.1 4.2 -1
v 0.1 4.3 -0.5
v 0.1 4.3 -0.9
v 0.2 2 0
v 0.2 2 -0.4
v 0.2 2.1 -0.1
v 0.2 2.1 -0.3
v 0.2 2.2 -0.1
v 0.2 2.2 -0.3
v 0.2 2.6 0
v 0.2 2.6 -0.4
v 0.2 3.9 -0.7
v 0.2 3.9 -0.8
v 0.2 4 -0.6
v 0.2 4 -0.7
v 0.2 4 -0.8
v 0.2 4.1 -0.6
v 0.2 4.1 -0.7
v 0 2 0
v 0 2.6 0
v 0.1 2 0
v 0.1 2.6 0
v 0.2 2 0
v 0.2 2.6 0
v 0 2.6 -0.1
v 0 3.3 -0.1
v 0.1 2.6 -0.1
v 0.1 3.3 -0.1
v 0 3.3 -0.2
v 0 3.4 -0.2
v 0.1 3.3 -0.2
v 0.1 3.4 -0.2
v 0 3.8 -0.4
v 0 4.2 -0.4
v 0.1 3.8 -0.4
v 0.1 4.2 -0.4
v 0 3.7 -0.5
v 0 3.8 -0.5
v 0 4.2 -0.5
v 0 4.3 -0.5
v 0.1 3.7 -0.5
v 0.1 3.8 -0.5
v 0.1 4.2 -0.5
v 0.1 4.3 -0.5
v 0 3.4 -0.6
v 0 3.7 -0.6
v 0.1 3.4 -0.6
v 0.1 3.7 -0.6
v 0.1 4 -0.6
v 0.1 4.1 -0.6
v 0.2 4 -0.6
v 0.2 4.1 -0.6
v 0.1 3.9 -0.7
v 0.1 4 -0.7
v 0.2 3.9 -0.7
v 0.2 4 -0.7
v 0 2.6 -0.3
v 0 3.2 -0.3
v 0.1 2.6 -0.3
v 0.1 3.2 -0.3
v 0 2 -0.4
v 0 2.6 -0.4
v 0.1 2 -0.4
v 0.1 2.6 -0.4
v 0.2 2 -0.4
v 0.2 2.6 -0.4
v 0 3.2 -0.7
v 0 3.3 -0.7
v 0.1 3.2 -0.7
v 0.1 3.3 -0.7
v 0.1 4 -0.7
v 0.1 4.1 -0.7
v 0.2 4 -0.7
v 0.2 4.1 -0.7
v 0 3.3 -0.8
v 0 3.7 -0.8
v 0.1 3.3 -0.8
v 0.1 3.7 -0.8
v 0.1 3.9 -0.8
v 0.1 4 -0.8
v 0.2 3.9 -0.8
v 0.2 4 -0.8
v 0 3.7 -0.9
v 0 3.8 -0.9
v 0 4.2 -0.9
v 0 4.3 -0.9
v 0.1 3.7 -0.9
v 0.1 3.8 -0.9
v 0.1 4.2 -0.9
v 0.1 4.3 -0.9
v 0 3.8 -1
v 0 4.2 -1
v 0.1 3.8 -1
v 0.1 4.2 -1
v 0 2 0
v 0.1 2 0
v 0.2 2 0
v 0 2 -0.4
v 0.1 2 -0.4
v 0.2 2 -0.4
v 0 3.2 -0.3
v 0.1 3.2 -0.3
v 0 3.2 -0.7
v 0.1 3.2 -0.7
v 0 3.3 -0.7
v 0.1 3.3 -0.7
v 0 3.3 -0.8
v 0.1 3.3 -0.8
v 0 3.7 -0.5
v 0.1 3.7 -0.5
v 0 3.7 -0.6
v 0.1 3.7 -0.6
v 0 3.7 -0.8
v 0.1 3.7 -0.8
v 0 3.7 -0.9
v 0.1 3.7 -0.9
v 0 3.8 -0.4
v 0.1 3.8 -0.4
v 0 3.8 -0.5
v 0.1 3.8 -0.5
v 0 3.8 -0.9
v 0.1 3.8 -0.9
v 0 3.8 -1
v 0.1 3.8 -1
v 0.1 3.9 -0.7
v 0.2 3.9 -0.7
v 0.1 3.9 -0.8
v 0.2 3.9 -0.8
v 0.1 4 -0.6
v 0.2 4 -0.6
v 0.1 4 -0.7
v 0.2 4 -0.7
v 0 2.6 0
v 0.1 2.6 0
v 0.2 2.6 0
v 0 2.6 -0.1
v 0.1 2.6 -0.1
v 0.1 2.6 -0.2
v 0 2.6 -0.3
v 0.1 2.6 -0.3
v 0 2.6 -0.4
v 0.1 2.6 -0.4
v 0.2 2.6 -0.4
v 0 3.3 -0.1
v 0.1 3.3 -0.1
v 0 3.3 -0.2
v 0.1 3.3 -0.2
v 0 3.4 -0.2
v 0.1 3.4 -0.2
v 0 3.4 -0.6
v 0.1 3.4 -0.6
v 0.1 4 -0.7
v 0.2 4 -0.7
v 0.1 4 -0.8
v 0.2 4 -0.8
v 0.1 4.1 -0.6
v 0.2 4.1 -0.6
v 0.1 4.1 -0.7
v 0.2 4.1 -0.7
v 0 4.2 -0.4
v 0.1 4.2 -0.4
v 0 4.2 -0.5
v 0.1 4.2 -0.5
v 0 4.2 -0.9
v 0.1 4.2 -0.9
v 0 4.2 -1
v 0.1 4.2 -1
v 0 4.3 -0.5
v 0.1 4.3 -0.5
v 0 4.3 -0.9
v 0.1 4.3 -0.9

# faces
f 3/7/1 2/7/1 1/7/1
f 4/7/1 2/7/1 3/7/1
f 5/7/1 2/7/1 4/7/1
f 6/7/1 2/7/1 5/7/1
f 7/7/1 2/7/1 6/7/1
f 8/1/1 6/1/1 5/1/1
f 10/3/1 5/3/1 4/3/1
f 11/1/1 8/1/1 5/1/1
f 11/3/1 5/3/1 10/3/1
f 11/1/1 9/1/1 8/1/1
f 12/1/1 9/1/1 11/1/1
f 14/3/1 12/3/1 11/3/1
f 15/3/1 12/3/1 14/3/1
f 17/3/1 12/3/1 15/3/1
f 18/1/1 13/1/1 12/1/1
f 18/3/1 12/3/1 17/3/1
f 19/1/1 13/1/1 18/1/1
f 22/4/1 17/4/1 16/4/1
f 22/4/1 20/4/1 19/4/1
f 22/4/1 19/4/1 18/4/1
f 22/4/1 18/4/1 17/4/1
f 23/4/1 20/4/1 22/4/1
f 24/4/1 20/4/1 23/4/1
f 25/4/1 20/4/1 24/4/1
f 27/4/1 22/4/1 21/4/1
f 27/6/1 23/6/1 22/6/1
f 28/4/1 24/4/1 23/4/1
f 28/6/1 23/6/1 27/6/1
f 29/6/1 25/6/1 24/6/1
f 29/4/1 24/4/1 28/4/1
f 30/4/1 26/4/1 25/4/1
f 30/6/1 25/6/1 29/6/1
f 31/4/1 29/4/1 28/4/1
f 31/4/1 28/4/1 27/4/1
f 31/4/1 30/4/1 29/4/1
f 31/4/1 27/4/1 21/4/1
f 32/4/1 30/4/1 31/4/1
f 33/4/1 30/4/1 32/4/1
f 34/4/1 26/4/1 30/4/1
f 34/4/1 30/4/1 33/4/1
f 35/4/1 31/4/1 21/4/1
f 36/6/1 32/6/1 31/6/1
f 36/4/1 31/4/1 35/4/1
f 37/4/1 33/4/1 32/4/1
f 37/6/1 32/6/1 36/6/1
f 38/6/1 34/6/1 33/6/1
f 38/4/1 33/4/1 37/4/1
f 39/4/1 26/4/1 34/4/1
f 39/6/1 34/6/1 38/6/1
f 40/4/1 26/4/1 39/4/1
f 41/4/1 38/4/1 37/4/1
f 41/4/1 39/4/1 38/4/1
f 41/4/1 37/4/1 36/4/1
f 42/4/1 39/4/1 41/4/1
f 44/1/2 45/1/2 46/1/2
f 43/3/2 44/3/2 48/3/2
f 46/1/2 47/1/2 49/1/2
f 48/3/2 44/3/2 49/3/2
f 44/1/2 46/1/2 49/1/2
f 49/1/2 47/1/2 50/1/2
f 49/3/2 50/3/2 52/3/2
f 52/3/2 50/3/2 53/3/2
f 53/3/2 50/3/2 55/3/2
f 50/1/2 51/1/2 56/1/2
f 55/3/2 50/3/2 56/3/2
f 56/1/2 51/1/2 57/1/2
f 54/4/2 55/4/2 60/4/2
f 57/4/2 58/4/2 60/4/2
f 56/4/2 57/4/2 60/4/2
f 55/4/2 56/4/2 60/4/2
f 60/4/2 58/4/2 61/4/2
f 61/4/2 58/4/2 62/4/2
f 62/4/2 58/4/2 63/4/2
f 59/4/2 60/4/2 65/4/2
f 60/6/2 61/6/2 65/6/2
f 61/4/2 62/4/2 66/4/2
f 65/6/2 61/6/2 66/6/2
f 66/4/2 62/4/2 67/4/2
f 62/6/2 63/6/2 68/6/2
f 67/4/2 62/4/2 68/4/2
f 63/4/2 64/4/2 69/4/2
f 68/6/2 63/6/2 69/6/2
f 66/4/2 67/4/2 70/4/2
f 65/4/2 66/4/2 70/4/2
f 70/4/2 67/4/2 71/4/2
f 68/4/2 69/4/2 72/4/2
f 59/4/2 65/4/2 73/4/2
f 65/4/2 70/4/2 73/4/2
f 73/4/2 70/4/2 74/4/2
f 71/4/2 72/4/2 75/4/2
f 72/4/2 69/4/2 76/4/2
f 75/4/2 72/4/2 76/4/2
f 69/4/2 64/4/2 77/4/2
f 76/4/2 69/4/2 77/4/2
f 59/4/2 73/4/2 78/4/2
f 73/6/2 74/6/2 79/6/2
f 78/4/2 73/4/2 79/4/2
f 75/4/2 76/4/2 80/4/2
f 79/6/2 74/6/2 80/6/2
f 74/4/2 75/4/2 80/4/2
f 76/6/2 77/6/2 81/6/2
f 80/4/2 76/4/2 81/4/2
f 77/4/2 64/4/2 82/4/2
f 81/6/2 77/6/2 82/6/2
f 82/4/2 64/4/2 83/4/2
f 79/4/2 80/4/2 84/4/2
f 81/4/2 82/4/2 84/4/2
f 80/4/2 81/4/2 84/4/2
f 84/4/2 82/4/2 85/4/2
f 86/6/2 87/6/2 88/6/2
f 88/6/2 87/6/2 89/6/2
f 86/6/2 88/6/2 90/6/2
f 88/5/2 89/5/2 90/5/2
f 89/6/2 87/6/2 91/6/2
f 90/5/2 89/5/2 91/5/2
f 86/6/2 90/6/2 92/6/2
f 90/6/2 91/6/2 92/6/2
f 91/6/2 87/6/2 93/6/2
f 92/6/2 91/6/2 93/6/2
f 94/2/2 95/2/2 97/2/2
f 97/2/2 95/2/2 98/2/2
f 96/2/2 97/2/2 99/2/2
f 99/2/2 97/2/2 100/2/2
f 103/7/3 102/7/3 101/7/3
f 104/7/3 102/7/3 103/7/3
f 105/6/3 104/6/3 103/6/3
f 106/6/3 104/6/3 105/6/3
f 109/3/3 108/3/3 107/3/3
f 110/3/3 108/3/3 109/3/3
f 113/3/3 112/3/3 111/3/3
f 114/3/3 112/3/3 113/3/3
f 117/4/3 116/4/3 115/4/3
f 118/4/3 116/4/3 117/4/3
f 123/4/3 120/4/3 119/4/3
f 124/4/3 120/4/3 123/4/3
f 125/4/3 122/4/3 121/4/3
f 126/4/3 122/4/3 125/4/3
f 129/3/3 128/3/3 127/3/3
f 130/3/3 128/3/3 129/3/3
f 133/2/3 132/2/3 131/2/3
f 134/2/3 132/2/3 133/2/3
f 137/2/3 136/2/3 135/2/3
f 138/2/3 136/2/3 137/2/3
f 139/1/4 140/1/4 141/1/4
f 141/1/4 140/1/4 142/1/4
f 143/7/4 144/7/4 145/7/4
f 145/7/4 144/7/4 146/7/4
f 145/6/4 146/6/4 147/6/4
f 147/6/4 146/6/4 148/6/4
f 149/1/4 150/1/4 151/1/4
f 151/1/4 150/1/4 152/1/4
f 153/2/4 154/2/4 155/2/4
f 155/2/4 154/2/4 156/2/4
f 157/1/4 158/1/4 159/1/4
f 159/1/4 158/1/4 160/1/4
f 161/2/4 162/2/4 163/2/4
f 163/2/4 162/2/4 164/2/4
f 165/4/4 166/4/4 169/4/4
f 169/4/4 166/4/4 170/4/4
f 167/4/4 168/4/4 171/4/4
f 171/4/4 168/4/4 172/4/4
f 173/4/4 174/4/4 175/4/4
f 175/4/4 174/4/4 176/4/4
f 180/7/5 178/7/5 177/7/5
f 181/6/5 179/6/5 178/6/5
f 181/7/5 178/7/5 180/7/5
f 182/6/5 179/6/5 181/6/5
f 185/1/5 184/1/5 183/1/5
f 186/1/5 184/1/5 185/1/5
f 189/1/5 188/1/5 187/1/5
f 190/1/5 188/1/5 189/1/5
f 193/4/5 192/4/5 191/4/5
f 194/4/5 192/4/5 193/4/5
f 197/4/5 196/4/5 195/4/5
f 198/4/5 196/4/5 197/4/5
f 201/4/5 200/4/5 199/4/5
f 202/4/5 200/4/5 201/4/5
f 205/4/5 204/4/5 203/4/5
f 206/4/5 204/4/5 205/4/5
f 209/2/5 208/2/5 207/2/5
f 210/2/5 208/2/5 209/2/5
f 213/2/5 212/2/5 211/2/5
f 214/2/5 212/2/5 213/2/5
f 215/7/6 216/7/6 218/7/6
f 216/6/6 217/6/6 219/6/6
f 218/7/6 216/7/6 219/7/6
f 219/6/6 217/6/6 220/6/6
f 220/6/6 217/6/6 222/6/6
f 221/7/6 222/7/6 223/7/6
f 222/6/6 217/6/6 224/6/6
f 223/7/6 222/7/6 224/7/6
f 224/6/6 217/6/6 225/6/6
f 226/3/6 227/3/6 228/3/6
f 228/3/6 227/3/6 229/3/6
f 230/3/6 231/3/6 232/3/6
f 232/3/6 231/3/6 233/3/6
f 234/2/6 235/2/6 236/2/6
f 236/2/6 235/2/6 237/2/6
f 238/2/6 239/2/6 240/2/6
f 240/2/6 239/2/6 241/2/6
f 242/4/6 243/4/6 244/4/6
f 244/4/6 243/4/6 245/4/6
f 246/4/6 247/4/6 248/4/6
f 248/4/6 247/4/6 249/4/6
f 250/4/6 251/4/6 252/4/6
f 252/4/6 251/4/6 253/4/6
