# 3ds Max Wavefront OBJ Exporter v0.97b - (c)2007 guruware
# File Created: 13.11.2019 13:53:19

mtllib Mur_Droit_IntérieurBlanc.mtl

#
# object Mur_Droit_IntérieurBlanc
#

v  -0.0750 1.9750 0.5000
v  -0.0750 0.0000 -0.5000
v  -0.0750 0.0000 0.5000
v  -0.0750 1.9750 -0.5000
v  -0.0750 2.0000 0.5000
v  -0.0750 2.0000 -0.5000
v  0.0750 0.0000 0.5000
v  0.0750 0.0000 -0.5000
v  0.0750 1.9750 0.5000
v  0.0750 1.9750 -0.5000
v  0.0750 2.0000 0.5000
v  0.0750 2.0000 -0.5000
v  -0.0500 0.0000 0.5000
v  -0.0500 1.9750 0.5000
v  0.0500 0.0000 0.5000
v  0.0500 1.9750 0.5000
v  -0.0500 0.0000 -0.5000
v  -0.0500 1.9750 -0.5000
v  0.0500 0.0000 -0.5000
v  0.0500 1.9750 -0.5000
v  -0.0500 0.0000 0.4750
v  0.0500 0.0000 0.4750
v  -0.0500 0.0000 -0.4750
v  0.0500 0.0000 -0.4750
# 24 vertices

vn -1.0000 0.0000 -0.0000
vn 1.0000 0.0000 -0.0000
vn 0.0000 0.0000 1.0000
vn 0.0000 0.0000 -1.0000
vn 0.0000 -1.0000 -0.0000
vn 0.0000 1.0000 -0.0000
# 6 vertex normals

vt 0.9629 0.5000 0.0000
vt 0.9941 0.5000 0.0000
# 2 texture coords

o Mur_Droit_IntérieurBlanc
g Mur_Droit_IntérieurBlanc
usemtl Mur_Droit_IntérieurBlanc_palette
s 1
f 1/1/1 2/1/1 3/1/1 
f 4/1/1 2/1/1 1/1/1 
f 5/2/1 4/2/1 1/2/1 
f 6/2/1 4/2/1 5/2/1 
f 7/1/2 8/1/2 9/1/2 
f 9/1/2 8/1/2 10/1/2 
f 9/2/2 10/2/2 11/2/2 
f 11/2/2 10/2/2 12/2/2 
f 13/1/3 1/1/3 3/1/3 
f 14/2/3 5/2/3 1/2/3 
f 14/1/3 1/1/3 13/1/3 
f 15/2/3 14/2/3 13/2/3 
f 16/2/3 5/2/3 14/2/3 
f 16/2/3 14/2/3 15/2/3 
f 7/1/3 16/1/3 15/1/3 
f 9/2/3 5/2/3 16/2/3 
f 9/1/3 16/1/3 7/1/3 
f 11/2/3 5/2/3 9/2/3 
f 2/1/4 4/1/4 17/1/4 
f 4/2/4 6/2/4 18/2/4 
f 17/1/4 4/1/4 18/1/4 
f 17/2/4 18/2/4 19/2/4 
f 18/2/4 6/2/4 20/2/4 
f 19/2/4 18/2/4 20/2/4 
f 19/1/4 20/1/4 8/1/4 
f 20/2/4 6/2/4 10/2/4 
f 8/1/4 20/1/4 10/1/4 
f 10/2/4 6/2/4 12/2/4 
f 21/1/5 13/1/5 3/1/5 
f 21/2/5 15/2/5 13/2/5 
f 22/1/5 7/1/5 15/1/5 
f 22/2/5 15/2/5 21/2/5 
f 23/1/5 21/1/5 3/1/5 
f 23/1/5 22/1/5 21/1/5 
f 24/1/5 7/1/5 22/1/5 
f 24/1/5 22/1/5 23/1/5 
f 2/1/5 23/1/5 3/1/5 
f 17/2/5 24/2/5 23/2/5 
f 17/1/5 23/1/5 2/1/5 
f 19/1/5 7/1/5 24/1/5 
f 19/2/5 24/2/5 17/2/5 
f 8/1/5 7/1/5 19/1/5 
f 5/2/6 11/2/6 6/2/6 
f 6/2/6 11/2/6 12/2/6 
# 0 polygons - 44 triangles

